<svg width="520" height="440" viewBox="0 0 520 440" xmlns="http://www.w3.org/2000/svg"><mask id="satori_om-id"><rect x="0" y="0" width="520" height="440" fill="#fff"/></mask><mask id="satori_om-id-0"><rect x="80" y="105" width="360" height="230" fill="#fff"/></mask><mask id="satori_ms-id-0-0-1" maskUnits="userSpaceOnUse"><rect x="0" y="0" width="520" height="440" fill="#fff"/><path x="64" y="119" width="320" height="150" fill="#000"  stroke-width="0" d="M84,119 h280 a20,20 0 0 1 20,20 v110 a20,20 0 0 1 -20,20 h-280 a20,20 0 0 1 -20,-20 v-110 a20,20 0 0 1 20,-20" transform="matrix(1.00,-0.09,0.09,1.00,-16.06,20.26)"/></mask><defs><filter id="satori_s-id-0-0-1" x="-11.25%" y="-24%" width="122.50000000000001%" height="148%"><feGaussianBlur stdDeviation="6" result="b"/><feFlood flood-color="rgba(0,0,0,0.04)" in="SourceGraphic" result="f"/><feComposite in="f" in2="b" operator="in"/></filter></defs><g mask="url(#satori_ms-id-0-0-1)" filter="url(#satori_s-id-0-0-1)" opacity="0.4"><path x="64" y="123" width="320" height="150" fill="#fff" stroke="#fff" stroke-width="0" d="M84,123 h280 a20,20 0 0 1 20,20 v110 a20,20 0 0 1 -20,20 h-280 a20,20 0 0 1 -20,-20 v-110 a20,20 0 0 1 20,-20" transform="matrix(1.00,-0.09,0.09,1.00,-16.06,20.26)"/></g><mask id="satori_ms-id-0-0-0" maskUnits="userSpaceOnUse"><rect x="0" y="0" width="520" height="440" fill="#fff"/><path x="64" y="119" width="320" height="150" fill="#000"  stroke-width="0" d="M84,119 h280 a20,20 0 0 1 20,20 v110 a20,20 0 0 1 -20,20 h-280 a20,20 0 0 1 -20,-20 v-110 a20,20 0 0 1 20,-20" transform="matrix(1.00,-0.09,0.09,1.00,-16.06,20.26)"/></mask><defs><filter id="satori_s-id-0-0-0" x="-0.3125%" y="-0.6666666666666667%" width="100.62500000000001%" height="101.33333333333334%"><feGaussianBlur stdDeviation="1" result="b"/><feFlood flood-color="rgba(0,0,0,0.03)" in="SourceGraphic" result="f"/><feComposite in="f" in2="b" operator="in"/></filter></defs><g mask="url(#satori_ms-id-0-0-0)" filter="url(#satori_s-id-0-0-0)" opacity="0.4"><path x="64" y="120" width="320" height="150" fill="#fff" stroke="#fff" stroke-width="0" d="M84,120 h280 a20,20 0 0 1 20,20 v110 a20,20 0 0 1 -20,20 h-280 a20,20 0 0 1 -20,-20 v-110 a20,20 0 0 1 20,-20" transform="matrix(1.00,-0.09,0.09,1.00,-16.06,20.26)"/></g><mask id="satori_om-id-0-0"><rect x="64" y="119" width="320" height="150" fill="#fff"/></mask><g opacity="0.4"><path x="64" y="119" width="320" height="150" fill="#ffffff" d="M84,119 h280 a20,20 0 0 1 20,20 v110 a20,20 0 0 1 -20,20 h-280 a20,20 0 0 1 -20,-20 v-110 a20,20 0 0 1 20,-20" transform="matrix(1.00,-0.09,0.09,1.00,-16.06,20.26)"/></g><mask id="satori_om-id-0-0-0"><rect x="86" y="141" width="276" height="40" fill="#fff"/></mask><g opacity="0.4"></g><mask id="satori_om-id-0-0-0-0"><rect x="86" y="141" width="40" height="40" fill="#fff"/></mask><g opacity="0.4"><path x="86" y="141" width="40" height="40" fill="#f3f4f6" d="M106,141 h0 a20,20 0 0 1 20,20 v0 a20,20 0 0 1 -20,20 h0 a20,20 0 0 1 -20,-20 v0 a20,20 0 0 1 20,-20" transform="matrix(1.00,-0.09,0.09,1.00,-16.06,20.26)"/></g><mask id="satori_om-id-0-0-0-1"><rect x="138" y="156" width="110" height="10" fill="#fff"/></mask><g opacity="0.4"><path x="138" y="156" width="110" height="10" fill="#f3f4f6" d="M143,156 h100 a5,5 0 0 1 5,5 v0 a5,5 0 0 1 -5,5 h-100 a5,5 0 0 1 -5,-5 v0 a5,5 0 0 1 5,-5" transform="matrix(1.00,-0.09,0.09,1.00,-16.06,20.26)"/></g><defs><clipPath id="satori_bc-id-0-0-1"><rect x="86" y="199" width="276" height="39"/></clipPath></defs><mask id="satori_om-id-0-0-1"><rect x="86" y="200" width="276" height="38" fill="#fff"/><path width="276" height="39" transform="matrix(1.00,-0.09,0.09,1.00,-16.06,20.26)" fill="none" stroke="#000" stroke-width="2" d="M86,199 A0,0 0 0 1 86,199 h276 A0,0 0 0 1 362,199"/></mask><g opacity="0.4"><path width="276" height="39" transform="matrix(1.00,-0.09,0.09,1.00,-16.06,20.26)" clip-path="url(#satori_bc-id-0-0-1)" fill="none" stroke="#f3f4f6" stroke-width="2" d="M86,199 A0,0 0 0 1 86,199 h276 A0,0 0 0 1 362,199"/></g><mask id="satori_om-id-0-0-1-0"><rect x="86" y="214" width="81" height="24" fill="#fff"/></mask><g opacity="0.4"><path x="86" y="214" width="81" height="24" fill="#f3f4f6" d="M92,214 h69 a6,6 0 0 1 6,6 v12 a6,6 0 0 1 -6,6 h-69 a6,6 0 0 1 -6,-6 v-12 a6,6 0 0 1 6,-6" transform="matrix(1.00,-0.09,0.09,1.00,-16.06,20.26)"/></g><mask id="satori_om-id-0-0-1-1"><rect x="183" y="214" width="82" height="24" fill="#fff"/></mask><g opacity="0.4"><path x="183" y="214" width="82" height="24" fill="#f3f4f6" d="M189,214 h70 a6,6 0 0 1 6,6 v12 a6,6 0 0 1 -6,6 h-70 a6,6 0 0 1 -6,-6 v-12 a6,6 0 0 1 6,-6" transform="matrix(1.00,-0.09,0.09,1.00,-16.06,20.26)"/></g><mask id="satori_om-id-0-0-1-2"><rect x="281" y="214" width="81" height="24" fill="#fff"/></mask><g opacity="0.4"><path x="281" y="214" width="81" height="24" fill="#f3f4f6" d="M287,214 h69 a6,6 0 0 1 6,6 v12 a6,6 0 0 1 -6,6 h-69 a6,6 0 0 1 -6,-6 v-12 a6,6 0 0 1 6,-6" transform="matrix(1.00,-0.09,0.09,1.00,-16.06,20.26)"/></g><mask id="satori_ms-id-0-1-1" maskUnits="userSpaceOnUse"><rect x="0" y="0" width="520" height="440" fill="#fff"/><path x="96" y="113" width="320" height="150" fill="#000"  stroke-width="0" d="M116,113 h280 a20,20 0 0 1 20,20 v110 a20,20 0 0 1 -20,20 h-280 a20,20 0 0 1 -20,-20 v-110 a20,20 0 0 1 20,-20" transform="matrix(1.00,0.07,-0.07,1.00,13.74,-17.40)"/></mask><defs><filter id="satori_s-id-0-1-1" x="-11.25%" y="-24%" width="122.50000000000001%" height="148%"><feGaussianBlur stdDeviation="6" result="b"/><feFlood flood-color="rgba(0,0,0,0.04)" in="SourceGraphic" result="f"/><feComposite in="f" in2="b" operator="in"/></filter></defs><g mask="url(#satori_ms-id-0-1-1)" filter="url(#satori_s-id-0-1-1)" opacity="0.6"><path x="96" y="117" width="320" height="150" fill="#fff" stroke="#fff" stroke-width="0" d="M116,117 h280 a20,20 0 0 1 20,20 v110 a20,20 0 0 1 -20,20 h-280 a20,20 0 0 1 -20,-20 v-110 a20,20 0 0 1 20,-20" transform="matrix(1.00,0.07,-0.07,1.00,13.74,-17.40)"/></g><mask id="satori_ms-id-0-1-0" maskUnits="userSpaceOnUse"><rect x="0" y="0" width="520" height="440" fill="#fff"/><path x="96" y="113" width="320" height="150" fill="#000"  stroke-width="0" d="M116,113 h280 a20,20 0 0 1 20,20 v110 a20,20 0 0 1 -20,20 h-280 a20,20 0 0 1 -20,-20 v-110 a20,20 0 0 1 20,-20" transform="matrix(1.00,0.07,-0.07,1.00,13.74,-17.40)"/></mask><defs><filter id="satori_s-id-0-1-0" x="-0.3125%" y="-0.6666666666666667%" width="100.62500000000001%" height="101.33333333333334%"><feGaussianBlur stdDeviation="1" result="b"/><feFlood flood-color="rgba(0,0,0,0.03)" in="SourceGraphic" result="f"/><feComposite in="f" in2="b" operator="in"/></filter></defs><g mask="url(#satori_ms-id-0-1-0)" filter="url(#satori_s-id-0-1-0)" opacity="0.6"><path x="96" y="114" width="320" height="150" fill="#fff" stroke="#fff" stroke-width="0" d="M116,114 h280 a20,20 0 0 1 20,20 v110 a20,20 0 0 1 -20,20 h-280 a20,20 0 0 1 -20,-20 v-110 a20,20 0 0 1 20,-20" transform="matrix(1.00,0.07,-0.07,1.00,13.74,-17.40)"/></g><mask id="satori_om-id-0-1"><rect x="96" y="113" width="320" height="150" fill="#fff"/></mask><g opacity="0.6"><path x="96" y="113" width="320" height="150" fill="#ffffff" d="M116,113 h280 a20,20 0 0 1 20,20 v110 a20,20 0 0 1 -20,20 h-280 a20,20 0 0 1 -20,-20 v-110 a20,20 0 0 1 20,-20" transform="matrix(1.00,0.07,-0.07,1.00,13.74,-17.40)"/></g><mask id="satori_om-id-0-1-0"><rect x="118" y="135" width="276" height="40" fill="#fff"/></mask><g opacity="0.6"></g><mask id="satori_om-id-0-1-0-0"><rect x="118" y="135" width="40" height="40" fill="#fff"/></mask><g opacity="0.6"><path x="118" y="135" width="40" height="40" fill="#f3f4f6" d="M138,135 h0 a20,20 0 0 1 20,20 v0 a20,20 0 0 1 -20,20 h0 a20,20 0 0 1 -20,-20 v0 a20,20 0 0 1 20,-20" transform="matrix(1.00,0.07,-0.07,1.00,13.74,-17.40)"/></g><mask id="satori_om-id-0-1-0-1"><rect x="170" y="150" width="110" height="10" fill="#fff"/></mask><g opacity="0.6"><path x="170" y="150" width="110" height="10" fill="#f3f4f6" d="M175,150 h100 a5,5 0 0 1 5,5 v0 a5,5 0 0 1 -5,5 h-100 a5,5 0 0 1 -5,-5 v0 a5,5 0 0 1 5,-5" transform="matrix(1.00,0.07,-0.07,1.00,13.74,-17.40)"/></g><defs><clipPath id="satori_bc-id-0-1-1"><rect x="118" y="193" width="276" height="39"/></clipPath></defs><mask id="satori_om-id-0-1-1"><rect x="118" y="194" width="276" height="38" fill="#fff"/><path width="276" height="39" transform="matrix(1.00,0.07,-0.07,1.00,13.74,-17.40)" fill="none" stroke="#000" stroke-width="2" d="M118,193 A0,0 0 0 1 118,193 h276 A0,0 0 0 1 394,193"/></mask><g opacity="0.6"><path width="276" height="39" transform="matrix(1.00,0.07,-0.07,1.00,13.74,-17.40)" clip-path="url(#satori_bc-id-0-1-1)" fill="none" stroke="#f3f4f6" stroke-width="2" d="M118,193 A0,0 0 0 1 118,193 h276 A0,0 0 0 1 394,193"/></g><mask id="satori_om-id-0-1-1-0"><rect x="118" y="208" width="81" height="24" fill="#fff"/></mask><g opacity="0.6"><path x="118" y="208" width="81" height="24" fill="#f3f4f6" d="M124,208 h69 a6,6 0 0 1 6,6 v12 a6,6 0 0 1 -6,6 h-69 a6,6 0 0 1 -6,-6 v-12 a6,6 0 0 1 6,-6" transform="matrix(1.00,0.07,-0.07,1.00,13.74,-17.40)"/></g><mask id="satori_om-id-0-1-1-1"><rect x="215" y="208" width="82" height="24" fill="#fff"/></mask><g opacity="0.6"><path x="215" y="208" width="82" height="24" fill="#f3f4f6" d="M221,208 h70 a6,6 0 0 1 6,6 v12 a6,6 0 0 1 -6,6 h-70 a6,6 0 0 1 -6,-6 v-12 a6,6 0 0 1 6,-6" transform="matrix(1.00,0.07,-0.07,1.00,13.74,-17.40)"/></g><mask id="satori_om-id-0-1-1-2"><rect x="313" y="208" width="81" height="24" fill="#fff"/></mask><g opacity="0.6"><path x="313" y="208" width="81" height="24" fill="#f3f4f6" d="M319,208 h69 a6,6 0 0 1 6,6 v12 a6,6 0 0 1 -6,6 h-69 a6,6 0 0 1 -6,-6 v-12 a6,6 0 0 1 6,-6" transform="matrix(1.00,0.07,-0.07,1.00,13.74,-17.40)"/></g><mask id="satori_om-id-0-2"><rect x="100" y="125" width="320" height="162" fill="#fff"/></mask><mask id="satori_ms-id-0-2-0-1" maskUnits="userSpaceOnUse"><rect x="0" y="0" width="520" height="440" fill="#fff"/><path x="100" y="125" width="320" height="162" fill="#000"  stroke-width="0" d="M120,125 h280 a20,20 0 0 1 20,20 v122 a20,20 0 0 1 -20,20 h-280 a20,20 0 0 1 -20,-20 v-122 a20,20 0 0 1 20,-20"/></mask><defs><filter id="satori_s-id-0-2-0-1" x="-11.25%" y="-22.22222222222222%" width="122.50000000000001%" height="144.44444444444443%"><feGaussianBlur stdDeviation="6" result="b"/><feFlood flood-color="rgba(0,0,0,0.04)" in="SourceGraphic" result="f"/><feComposite in="f" in2="b" operator="in"/></filter></defs><g mask="url(#satori_ms-id-0-2-0-1)" filter="url(#satori_s-id-0-2-0-1)" opacity="1"><path x="100" y="129" width="320" height="162" fill="#fff" stroke="#fff" stroke-width="0" d="M120,129 h280 a20,20 0 0 1 20,20 v122 a20,20 0 0 1 -20,20 h-280 a20,20 0 0 1 -20,-20 v-122 a20,20 0 0 1 20,-20"/></g><mask id="satori_ms-id-0-2-0-0" maskUnits="userSpaceOnUse"><rect x="0" y="0" width="520" height="440" fill="#fff"/><path x="100" y="125" width="320" height="162" fill="#000"  stroke-width="0" d="M120,125 h280 a20,20 0 0 1 20,20 v122 a20,20 0 0 1 -20,20 h-280 a20,20 0 0 1 -20,-20 v-122 a20,20 0 0 1 20,-20"/></mask><defs><filter id="satori_s-id-0-2-0-0" x="-0.3125%" y="-0.6172839506172839%" width="100.62500000000001%" height="101.23456790123457%"><feGaussianBlur stdDeviation="1" result="b"/><feFlood flood-color="rgba(0,0,0,0.03)" in="SourceGraphic" result="f"/><feComposite in="f" in2="b" operator="in"/></filter></defs><g mask="url(#satori_ms-id-0-2-0-0)" filter="url(#satori_s-id-0-2-0-0)" opacity="1"><path x="100" y="126" width="320" height="162" fill="#fff" stroke="#fff" stroke-width="0" d="M120,126 h280 a20,20 0 0 1 20,20 v122 a20,20 0 0 1 -20,20 h-280 a20,20 0 0 1 -20,-20 v-122 a20,20 0 0 1 20,-20"/></g><mask id="satori_om-id-0-2-0"><rect x="100" y="125" width="320" height="162" fill="#fff"/></mask><path x="100" y="125" width="320" height="162" fill="#ffffff" d="M120,125 h280 a20,20 0 0 1 20,20 v122 a20,20 0 0 1 -20,20 h-280 a20,20 0 0 1 -20,-20 v-122 a20,20 0 0 1 20,-20"/><mask id="satori_om-id-0-2-0-0"><rect x="122" y="147" width="276" height="40" fill="#fff"/></mask><defs><pattern id="satori_pattern_id-0-2-0-0-0_0" x="0" y="0" width="1" height="1" patternUnits="objectBoundingBox"><linearGradient id="satori_biid-0-2-0-0-0_0" x1="-4.884981308350689e-16" y1="4.884981308350698e-16" x2="1.0000000000000004" y2="0.9999999999999994" spreadMethod="pad"><stop offset="0%" stop-color="#f3f4f6"/><stop offset="55.00000000000001%" stop-color="#e5e7eb"/><stop offset="140%" stop-color="#fbbf24"/><stop offset="100%" stop-color="#fbbf24"/></linearGradient><rect x="0" y="0" width="40" height="40" fill="url(#satori_biid-0-2-0-0-0_0)"/></pattern></defs><mask id="satori_om-id-0-2-0-0-0"><rect x="122" y="147" width="40" height="40" fill="#fff"/></mask><path x="122" y="147" width="40" height="40" fill="url(#satori_pattern_id-0-2-0-0-0_0)" d="M142,147 h0 a20,20 0 0 1 20,20 v0 a20,20 0 0 1 -20,20 h0 a20,20 0 0 1 -20,-20 v0 a20,20 0 0 1 20,-20"/><g  ><path fill="#1a1a1a" d="M136.2 172L136.2 172L132.7 172L132.7 162.5L136.2 162.5Q137.7 162.5 138.7 163.1Q139.7 163.7 140.3 164.7Q140.9 165.8 140.9 167.3Q140.9 168.7 140.3 169.8Q139.7 170.9 138.7 171.4Q137.7 172 136.2 172ZM135.0 164.5L135.0 170.1L136.1 170.1Q136.9 170.1 137.5 169.8Q138.1 169.5 138.3 168.9Q138.6 168.3 138.6 167.3Q138.6 166.2 138.3 165.6Q138.0 165.0 137.5 164.7Q136.9 164.5 136.1 164.5L136.1 164.5L135.0 164.5ZM144.6 172L142.4 172L142.4 162.5L146.3 162.5Q147.3 162.5 148.1 162.9Q148.9 163.3 149.3 164.0Q149.7 164.7 149.7 165.7L149.7 165.7Q149.7 166.7 149.3 167.3Q148.9 168.0 148.1 168.4L148.1 168.4Q148.1 168.4 148.1 168.4L148.1 168.4L150.0 172L147.6 172L145.9 168.7L144.6 168.7L144.6 172ZM144.6 164.4L144.6 167.0L145.8 167.0Q146.3 167.0 146.7 166.8Q147.0 166.7 147.2 166.4Q147.4 166.1 147.4 165.7L147.4 165.7Q147.4 165.2 147.2 164.9Q147.0 164.7 146.7 164.5Q146.3 164.4 145.8 164.4L145.8 164.4L144.6 164.4Z "/></g><mask id="satori_om-id-0-2-0-0-1"><rect x="174" y="150" width="129" height="34" fill="#fff"/></mask><mask id="satori_om-id-0-2-0-0-1-0"><rect x="174" y="150" width="129" height="18" fill="#fff"/></mask><g  ><path fill="#1a1a1a" d="M178.8 164L178.8 164L175.0 164L175.0 153.1L178.9 153.1Q180.5 153.1 181.7 153.7Q182.9 154.4 183.5 155.6Q184.1 156.8 184.1 158.5L184.1 158.5Q184.1 160.2 183.5 161.5Q182.9 162.7 181.7 163.3Q180.5 164 178.8 164ZM177.2 155.0L177.2 162.1L178.7 162.1Q179.8 162.1 180.5 161.7Q181.2 161.3 181.6 160.5Q181.9 159.8 181.9 158.5L181.9 158.5Q181.9 157.3 181.6 156.5Q181.2 155.8 180.5 155.4Q179.8 155.0 178.7 155.0L178.7 155.0L177.2 155.0ZM188.0 164L185.8 164L185.8 155.8L187.9 155.8L187.9 157.2L188.0 157.2Q188.2 156.5 188.7 156.1Q189.3 155.7 190.0 155.7L190.0 155.7Q190.1 155.7 190.3 155.7Q190.5 155.7 190.7 155.8L190.7 155.8L190.7 157.7Q190.5 157.7 190.2 157.7Q190.0 157.6 189.7 157.6L189.7 157.6Q189.2 157.6 188.8 157.8Q188.4 158.1 188.2 158.4Q188.0 158.8 188.0 159.3L188.0 159.3L188.0 164ZM193.4 164.1L193.4 164.1Q192.9 164.1 192.5 163.8Q192.2 163.4 192.2 162.9L192.2 162.9Q192.2 162.3 192.5 162.0Q192.9 161.6 193.4 161.6L193.4 161.6Q194.0 161.6 194.3 162.0Q194.7 162.3 194.7 162.9L194.7 162.9Q194.7 163.4 194.3 163.8Q194.0 164.1 193.4 164.1Z M202.7 164L200.5 164L200.5 153.1L204.7 153.1Q206.0 153.1 206.9 153.5Q207.7 154.0 208.2 154.8Q208.7 155.6 208.7 156.6Q208.7 157.7 208.2 158.5Q207.7 159.3 206.8 159.7L206.8 159.7Q206.8 159.7 206.7 159.7L206.7 159.7L209.0 164L206.6 164L204.5 160.1L202.7 160.1L202.7 164ZM202.7 154.9L202.7 158.3L204.3 158.3Q205.0 158.3 205.5 158.1Q205.9 157.9 206.1 157.6Q206.3 157.2 206.3 156.6L206.3 156.6Q206.3 156.1 206.1 155.7Q205.9 155.3 205.5 155.1Q205.0 154.9 204.3 154.9L204.3 154.9L202.7 154.9ZM211.9 164.1L211.9 164.1Q211.3 164.1 211.0 163.8Q210.6 163.4 210.6 162.9L210.6 162.9Q210.6 162.3 211.0 162.0Q211.3 161.6 211.9 161.6L211.9 161.6Q212.4 161.6 212.8 162.0Q213.1 162.3 213.1 162.9L213.1 162.9Q213.1 163.4 212.8 163.8Q212.4 164.1 211.9 164.1Z M223.7 164.1L223.7 164.1Q222.2 164.1 221.1 163.5Q219.9 162.8 219.3 161.6Q218.6 160.3 218.6 158.6L218.6 158.6Q218.6 156.8 219.3 155.5Q219.9 154.3 221.1 153.6Q222.2 152.9 223.7 152.9L223.7 152.9Q224.6 152.9 225.4 153.2Q226.2 153.5 226.8 154.0Q227.5 154.5 227.8 155.2Q228.2 155.9 228.4 156.8L228.4 156.8L226.1 156.8Q226.0 156.4 225.8 156.0Q225.6 155.7 225.3 155.4Q225.0 155.2 224.6 155.1Q224.2 154.9 223.7 154.9L223.7 154.9Q222.9 154.9 222.2 155.4Q221.6 155.8 221.2 156.6Q220.9 157.4 220.9 158.6L220.9 158.6Q220.9 159.7 221.2 160.5Q221.6 161.3 222.2 161.8Q222.9 162.2 223.7 162.2L223.7 162.2Q224.2 162.2 224.6 162.0Q225.0 161.9 225.3 161.7Q225.6 161.4 225.8 161.1Q226.0 160.7 226.1 160.3L226.1 160.3L228.4 160.3Q228.3 161.0 227.9 161.7Q227.6 162.4 227.0 163.0Q226.4 163.5 225.5 163.8Q224.7 164.1 223.7 164.1ZM232.1 159.3L232.1 159.3L232.1 164L229.9 164L229.9 153.1L232.1 153.1L232.1 157.4Q232.4 156.7 232.9 156.3L232.9 156.3Q233.6 155.7 234.6 155.7L234.6 155.7Q235.5 155.7 236.1 156.1Q236.7 156.4 237.1 157.1Q237.4 157.8 237.4 158.8L237.4 158.8L237.4 164L235.2 164L235.2 159.2Q235.2 158.4 234.8 158.0Q234.4 157.5 233.7 157.5L233.7 157.5Q233.3 157.5 232.9 157.7Q232.5 158.0 232.3 158.3Q232.1 158.7 232.1 159.3ZM243.0 164.2L243.0 164.2Q241.7 164.2 240.8 163.6Q239.9 163.1 239.4 162.2Q238.9 161.2 238.9 159.9L238.9 159.9Q238.9 158.7 239.4 157.7Q239.9 156.8 240.8 156.2Q241.7 155.7 242.9 155.7L242.9 155.7Q243.7 155.7 244.4 156.0Q245.1 156.2 245.6 156.7Q246.1 157.3 246.4 158.0Q246.7 158.8 246.7 159.9L246.7 159.9L246.7 160.5L241.1 160.5Q241.1 161.1 241.4 161.5L241.4 161.5Q241.6 162.0 242.0 162.3Q242.5 162.5 243.0 162.5L243.0 162.5Q243.4 162.5 243.7 162.4Q244.0 162.3 244.3 162.1Q244.5 161.9 244.6 161.5L244.6 161.5L246.6 161.9Q246.4 162.6 245.9 163.1Q245.4 163.6 244.7 163.9Q243.9 164.2 243.0 164.2ZM241.1 159.1L241.1 159.1L244.6 159.1Q244.6 158.7 244.4 158.4L244.4 158.4Q244.2 157.9 243.8 157.6Q243.5 157.4 242.9 157.4L242.9 157.4Q242.3 157.4 241.9 157.6Q241.5 157.9 241.3 158.3L241.3 158.3Q241.2 158.7 241.1 159.1ZM250.4 159.3L250.4 159.3L250.4 164L248.2 164L248.2 155.8L250.3 155.8L250.3 157.5Q250.6 156.7 251.2 156.3L251.2 156.3Q251.8 155.7 252.9 155.7L252.9 155.7Q253.7 155.7 254.4 156.1Q255.0 156.4 255.3 157.1Q255.7 157.8 255.7 158.8L255.7 158.8L255.7 164L253.5 164L253.5 159.2Q253.5 158.4 253.1 158.0Q252.7 157.5 252.0 157.5L252.0 157.5Q251.5 157.5 251.2 157.7Q250.8 158.0 250.6 158.3Q250.4 158.7 250.4 159.3Z "/></g><mask id="satori_om-id-0-2-0-0-1-1"><rect x="174" y="171" width="129" height="13" fill="#fff"/></mask><g  ><path fill="#6b7280" d="M178.2 182.1L178.2 182.1Q177.2 182.1 176.4 181.6Q175.5 181.1 175.1 180.2Q174.6 179.3 174.6 178.0L174.6 178.0Q174.6 176.7 175.1 175.8Q175.5 174.9 176.4 174.4Q177.2 173.9 178.2 173.9L178.2 173.9Q178.8 173.9 179.4 174.1Q180.0 174.3 180.4 174.6Q180.8 175.0 181.1 175.5Q181.4 176.0 181.5 176.6L181.5 176.6L180.3 176.6Q180.2 176.2 180.0 175.9Q179.8 175.6 179.5 175.4Q179.3 175.2 178.9 175.1Q178.6 175.0 178.2 175.0L178.2 175.0Q177.5 175.0 177.0 175.4Q176.4 175.7 176.1 176.4Q175.8 177.0 175.8 178.0L175.8 178.0Q175.8 179.0 176.1 179.6Q176.5 180.3 177.0 180.6Q177.5 181.0 178.2 181.0L178.2 181.0Q178.6 181.0 178.9 180.9Q179.3 180.8 179.5 180.6Q179.8 180.4 180.0 180.1Q180.2 179.8 180.3 179.4L180.3 179.4L181.5 179.4Q181.4 180.0 181.1 180.5Q180.9 181.0 180.4 181.4Q180.0 181.7 179.4 181.9Q178.9 182.1 178.2 182.1ZM184.5 182.1L184.5 182.1Q184.0 182.1 183.5 181.9Q183.1 181.7 182.8 181.3Q182.5 180.9 182.5 180.3L182.5 180.3Q182.5 179.8 182.7 179.5Q182.9 179.1 183.2 178.9Q183.6 178.8 184.0 178.7Q184.4 178.6 184.8 178.5L184.8 178.5Q185.4 178.4 185.7 178.4Q186.0 178.4 186.2 178.3Q186.3 178.2 186.3 178.0L186.3 178.0L186.3 177.9Q186.3 177.6 186.2 177.4Q186.1 177.1 185.8 177.0Q185.6 176.9 185.2 176.9L185.2 176.9Q184.8 176.9 184.5 177.0Q184.2 177.1 184.1 177.3Q183.9 177.5 183.8 177.7L183.8 177.7L182.7 177.4Q182.9 176.9 183.3 176.5Q183.7 176.2 184.1 176.1Q184.6 175.9 185.2 175.9L185.2 175.9Q185.5 175.9 185.9 176.0Q186.3 176.1 186.7 176.3Q187.1 176.5 187.3 177.0Q187.5 177.4 187.5 178.0L187.5 178.0L187.5 182L186.4 182L186.4 181.2L186.3 181.2Q186.2 181.4 186.0 181.6Q185.7 181.8 185.4 182.0Q185.0 182.1 184.5 182.1ZM184.8 181.2L184.8 181.2Q185.3 181.2 185.6 181.0Q186.0 180.8 186.2 180.5Q186.3 180.2 186.3 179.8L186.3 179.8L186.3 179.1Q186.3 179.1 186.1 179.2Q185.9 179.2 185.7 179.3Q185.5 179.3 185.2 179.3Q185.0 179.4 184.9 179.4L184.9 179.4Q184.6 179.4 184.3 179.5Q184.0 179.6 183.8 179.8Q183.7 180.0 183.7 180.3L183.7 180.3Q183.7 180.6 183.8 180.8Q184.0 181.0 184.2 181.1Q184.5 181.2 184.8 181.2ZM190.3 182L189.1 182L189.1 176.0L190.3 176.0L190.3 177.0L190.3 177.0Q190.5 176.5 190.9 176.2Q191.3 175.9 191.8 175.9L191.8 175.9Q192.0 175.9 192.1 175.9Q192.2 175.9 192.3 175.9L192.3 175.9L192.3 177.1Q192.3 177.0 192.1 177.0Q191.9 177.0 191.7 177.0L191.7 177.0Q191.3 177.0 191.0 177.2Q190.7 177.3 190.5 177.7Q190.3 178.0 190.3 178.4L190.3 178.4L190.3 182ZM195.6 182.1L195.6 182.1Q194.9 182.1 194.3 181.7Q193.7 181.4 193.4 180.7Q193.1 180.0 193.1 179.0L193.1 179.0Q193.1 178.0 193.4 177.3Q193.7 176.7 194.3 176.3Q194.9 175.9 195.6 175.9L195.6 175.9Q196.2 175.9 196.5 176.1Q196.8 176.3 197.0 176.5Q197.2 176.8 197.3 177.0L197.3 177.0L197.4 177.0L197.4 174.0L198.6 174.0L198.6 182L197.4 182L197.4 181.1L197.3 181.1Q197.2 181.3 197.0 181.5Q196.8 181.7 196.5 181.9Q196.1 182.1 195.6 182.1ZM195.9 181.1L195.9 181.1Q196.4 181.1 196.7 180.8Q197.1 180.6 197.2 180.1Q197.4 179.6 197.4 179.0L197.4 179.0Q197.4 178.4 197.2 177.9Q197.1 177.4 196.7 177.2Q196.4 176.9 195.9 176.9L195.9 176.9Q195.3 176.9 195.0 177.2Q194.6 177.5 194.5 177.9Q194.3 178.4 194.3 179.0L194.3 179.0Q194.3 179.6 194.5 180.1Q194.6 180.6 195.0 180.8Q195.3 181.1 195.9 181.1ZM201.3 182L200.2 182L200.2 176.0L201.3 176.0L201.3 182ZM200.8 175.1L200.8 175.1Q200.5 175.1 200.2 174.9Q200.0 174.7 200.0 174.4L200.0 174.4Q200.0 174.1 200.2 173.9Q200.5 173.7 200.8 173.7L200.8 173.7Q201.1 173.7 201.3 173.9Q201.5 174.1 201.5 174.4L201.5 174.4Q201.5 174.7 201.3 174.9Q201.1 175.1 200.8 175.1ZM205.5 182.1L205.5 182.1Q204.6 182.1 204.0 181.7Q203.4 181.4 203.0 180.7Q202.7 180.0 202.7 179.0L202.7 179.0Q202.7 178.1 203.0 177.4Q203.4 176.7 204.0 176.3Q204.6 175.9 205.5 175.9L205.5 175.9Q206.3 175.9 206.9 176.3Q207.6 176.7 207.9 177.4Q208.3 178.1 208.3 179.0L208.3 179.0Q208.3 180.0 207.9 180.7Q207.6 181.4 206.9 181.7Q206.3 182.1 205.5 182.1ZM205.5 181.1L205.5 181.1Q206.0 181.1 206.4 180.8Q206.7 180.5 206.9 180.1Q207.1 179.6 207.1 179.0L207.1 179.0Q207.1 178.5 206.9 178.0Q206.7 177.5 206.4 177.2Q206.0 176.9 205.5 176.9L205.5 176.9Q204.9 176.9 204.6 177.2Q204.2 177.5 204.0 178.0Q203.9 178.4 203.9 179.0L203.9 179.0Q203.9 179.6 204.0 180.1Q204.2 180.5 204.6 180.8Q204.9 181.1 205.5 181.1ZM209.6 174.0L210.8 174.0L210.8 182L209.6 182L209.6 174.0ZM214.9 182.1L214.9 182.1Q214.0 182.1 213.4 181.7Q212.8 181.4 212.4 180.7Q212.1 180.0 212.1 179.0L212.1 179.0Q212.1 178.1 212.4 177.4Q212.8 176.7 213.4 176.3Q214.0 175.9 214.9 175.9L214.9 175.9Q215.7 175.9 216.4 176.3Q217.0 176.7 217.3 177.4Q217.7 178.1 217.7 179.0L217.7 179.0Q217.7 180.0 217.3 180.7Q217.0 181.4 216.4 181.7Q215.7 182.1 214.9 182.1ZM214.9 181.1L214.9 181.1Q215.4 181.1 215.8 180.8Q216.1 180.5 216.3 180.1Q216.5 179.6 216.5 179.0L216.5 179.0Q216.5 178.5 216.3 178.0Q216.1 177.5 215.8 177.2Q215.4 176.9 214.9 176.9L214.9 176.9Q214.3 176.9 214.0 177.2Q213.6 177.5 213.4 178.0Q213.3 178.4 213.3 179.0L213.3 179.0Q213.3 179.6 213.4 180.1Q213.6 180.5 214.0 180.8Q214.3 181.1 214.9 181.1ZM221.5 184.4L221.5 184.4Q220.8 184.4 220.3 184.2Q219.8 184.0 219.5 183.7Q219.1 183.4 219.0 183.1L219.0 183.1L219.9 182.6Q220.1 182.8 220.2 183.0Q220.4 183.2 220.7 183.3Q221.0 183.4 221.5 183.4L221.5 183.4Q222.2 183.4 222.6 183.1Q223.0 182.8 223.0 182.1L223.0 182.1L223.0 180.9L222.9 180.9Q222.8 181.1 222.6 181.3Q222.5 181.6 222.1 181.7Q221.8 181.9 221.2 181.9L221.2 181.9Q220.5 181.9 219.9 181.6Q219.4 181.2 219.0 180.6Q218.7 179.9 218.7 179.0L218.7 179.0Q218.7 178.0 219.0 177.3Q219.4 176.7 219.9 176.3Q220.5 175.9 221.2 175.9L221.2 175.9Q221.8 175.9 222.1 176.1Q222.5 176.3 222.7 176.5Q222.9 176.8 223.0 177.0L223.0 177.0L223.1 177.0L223.1 176.0L224.2 176.0L224.2 182.1Q224.2 182.9 223.9 183.4Q223.5 183.9 222.9 184.1Q222.3 184.4 221.5 184.4ZM221.5 180.9L221.5 180.9Q222.0 180.9 222.3 180.7Q222.7 180.5 222.9 180.0Q223.0 179.6 223.0 179.0L223.0 179.0Q223.0 178.4 222.9 177.9Q222.7 177.4 222.3 177.2Q222.0 176.9 221.5 176.9L221.5 176.9Q221.0 176.9 220.6 177.2Q220.3 177.5 220.1 177.9Q219.9 178.4 219.9 179.0L219.9 179.0Q219.9 179.5 220.1 180.0Q220.3 180.4 220.6 180.7Q221.0 180.9 221.5 180.9ZM225.7 184.2L225.7 184.2L226.0 183.2L226.2 183.2Q226.5 183.3 226.7 183.3Q226.9 183.2 227.1 183.0Q227.3 182.9 227.4 182.5L227.4 182.5L227.5 182.0L225.3 176.0L226.5 176.0L227.7 179.4Q227.9 180.0 228.1 180.5L228.1 180.5Q228.1 180.8 228.2 181.0L228.2 181.0Q228.2 180.8 228.3 180.5L228.3 180.5Q228.4 180.0 228.6 179.4L228.6 179.4L229.8 176.0L231.1 176.0L228.5 182.8Q228.3 183.3 228.0 183.6Q227.8 184.0 227.4 184.1Q227.0 184.3 226.6 184.3L226.6 184.3Q226.3 184.3 226.1 184.2Q225.8 184.2 225.7 184.2Z M235.9 179.0L235.9 179.0Q235.6 179.0 235.4 178.8Q235.1 178.5 235.1 178.2L235.1 178.2Q235.1 177.9 235.4 177.6Q235.6 177.4 235.9 177.4L235.9 177.4Q236.3 177.4 236.5 177.6Q236.7 177.9 236.7 178.2L236.7 178.2Q236.7 178.5 236.5 178.8Q236.3 179.0 235.9 179.0Z M242.1 182L240.8 182L243.7 174.0L245.2 174.0L248.1 182L246.7 182L246.0 179.9L242.9 179.9L242.1 182ZM243.2 178.9L245.6 178.9L245.2 177.5Q245.0 177.0 244.8 176.3L244.8 176.3Q244.6 175.7 244.4 175.0L244.4 175.0Q244.2 175.7 244.0 176.3L244.0 176.3Q243.8 177.0 243.7 177.5L243.7 177.5L243.2 178.9ZM250.5 176.0L251.7 176.0L251.7 177.0L250.5 177.0L250.5 180.4Q250.5 180.7 250.7 180.9Q250.8 181.1 251.2 181.1L251.2 181.1Q251.3 181.1 251.4 181.1Q251.6 181.0 251.7 181.0L251.7 181.0L251.9 182.0Q251.7 182.0 251.5 182.1Q251.3 182.1 251.0 182.1L251.0 182.1Q250.2 182.1 249.8 181.7Q249.3 181.2 249.3 180.5L249.3 180.5L249.3 177.0L248.4 177.0L248.4 176.0L249.3 176.0L249.3 174.6L250.5 174.6L250.5 176.0ZM254.2 176.0L255.4 176.0L255.4 177.0L254.2 177.0L254.2 180.4Q254.2 180.7 254.4 180.9Q254.6 181.1 254.9 181.1L254.9 181.1Q255.0 181.1 255.1 181.1Q255.3 181.0 255.4 181.0L255.4 181.0L255.6 182.0Q255.4 182.0 255.2 182.1Q255.0 182.1 254.8 182.1L254.8 182.1Q254.0 182.1 253.5 181.7Q253.1 181.2 253.1 180.5L253.1 180.5L253.1 177.0L252.2 177.0L252.2 176.0L253.1 176.0L253.1 174.6L254.2 174.6L254.2 176.0ZM259.2 182.1L259.2 182.1Q258.3 182.1 257.7 181.7Q257.0 181.4 256.7 180.7Q256.3 180.0 256.3 179.0L256.3 179.0Q256.3 178.1 256.7 177.4Q257.0 176.7 257.6 176.3Q258.3 175.9 259.1 175.9L259.1 175.9Q259.6 175.9 260.1 176.1Q260.6 176.3 261.0 176.6Q261.3 177.0 261.6 177.6Q261.8 178.1 261.8 178.9L261.8 178.9L261.8 179.4L257.5 179.4Q257.6 179.9 257.7 180.3L257.7 180.3Q258.0 180.7 258.3 180.9Q258.7 181.1 259.2 181.1L259.2 181.1Q259.6 181.1 259.8 181.1Q260.1 181.0 260.3 180.8Q260.5 180.6 260.6 180.3L260.6 180.3L261.7 180.6Q261.6 181.0 261.2 181.4Q260.9 181.7 260.4 181.9Q259.9 182.1 259.2 182.1ZM257.5 178.5L257.5 178.5L260.6 178.5Q260.6 178.1 260.5 177.8L260.5 177.8Q260.3 177.4 260.0 177.1Q259.6 176.9 259.1 176.9L259.1 176.9Q258.6 176.9 258.3 177.1Q257.9 177.4 257.7 177.8L257.7 177.8Q257.6 178.1 257.5 178.5ZM264.3 178.4L264.3 178.4L264.3 182L263.1 182L263.1 176.0L264.2 176.0L264.2 177.1Q264.5 176.6 264.9 176.3L264.9 176.3Q265.4 175.9 266.1 175.9L266.1 175.9Q266.7 175.9 267.1 176.2Q267.6 176.4 267.9 176.9Q268.1 177.4 268.1 178.2L268.1 178.2L268.1 182L266.9 182L266.9 178.3Q266.9 177.7 266.6 177.3Q266.3 177.0 265.7 177.0L265.7 177.0Q265.3 177.0 264.9 177.1Q264.6 177.3 264.4 177.6Q264.3 178.0 264.3 178.4ZM271.9 182.1L271.9 182.1Q271.2 182.1 270.6 181.7Q270.1 181.4 269.7 180.7Q269.4 180.0 269.4 179.0L269.4 179.0Q269.4 178.0 269.8 177.3Q270.1 176.7 270.6 176.3Q271.2 175.9 271.9 175.9L271.9 175.9Q272.5 175.9 272.8 176.1Q273.2 176.3 273.4 176.5Q273.6 176.8 273.7 177.0L273.7 177.0L273.7 177.0L273.7 174.0L274.9 174.0L274.9 182L273.8 182L273.8 181.1L273.7 181.1Q273.6 181.3 273.4 181.5Q273.2 181.7 272.8 181.9Q272.5 182.1 271.9 182.1ZM272.2 181.1L272.2 181.1Q272.7 181.1 273.0 180.8Q273.4 180.6 273.6 180.1Q273.8 179.6 273.8 179.0L273.8 179.0Q273.8 178.4 273.6 177.9Q273.4 177.4 273.1 177.2Q272.7 176.9 272.2 176.9L272.2 176.9Q271.7 176.9 271.3 177.2Q271.0 177.5 270.8 177.9Q270.6 178.4 270.6 179.0L270.6 179.0Q270.6 179.6 270.8 180.1Q271.0 180.6 271.3 180.8Q271.7 181.1 272.2 181.1ZM277.7 182L276.5 182L276.5 176.0L277.7 176.0L277.7 182ZM277.1 175.1L277.1 175.1Q276.8 175.1 276.6 174.9Q276.4 174.7 276.4 174.4L276.4 174.4Q276.4 174.1 276.6 173.9Q276.8 173.7 277.1 173.7L277.1 173.7Q277.4 173.7 277.6 173.9Q277.8 174.1 277.8 174.4L277.8 174.4Q277.8 174.7 277.6 174.9Q277.4 175.1 277.1 175.1ZM280.5 178.4L280.5 178.4L280.5 182L279.3 182L279.3 176.0L280.4 176.0L280.4 177.1Q280.7 176.6 281.1 176.3L281.1 176.3Q281.6 175.9 282.3 175.9L282.3 175.9Q282.9 175.9 283.3 176.2Q283.8 176.4 284.0 176.9Q284.3 177.4 284.3 178.2L284.3 178.2L284.3 182L283.1 182L283.1 178.3Q283.1 177.7 282.8 177.3Q282.4 177.0 281.9 177.0L281.9 177.0Q281.5 177.0 281.1 177.1Q280.8 177.3 280.6 177.6Q280.5 178.0 280.5 178.4ZM288.4 184.4L288.4 184.4Q287.7 184.4 287.2 184.2Q286.7 184.0 286.4 183.7Q286.0 183.4 285.9 183.1L285.9 183.1L286.8 182.6Q286.9 182.8 287.1 183.0Q287.3 183.2 287.6 183.3Q287.9 183.4 288.4 183.4L288.4 183.4Q289.1 183.4 289.5 183.1Q289.9 182.8 289.9 182.1L289.9 182.1L289.9 180.9L289.8 180.9Q289.7 181.1 289.5 181.3Q289.3 181.6 289.0 181.7Q288.7 181.9 288.1 181.9L288.1 181.9Q287.4 181.9 286.8 181.6Q286.3 181.2 285.9 180.6Q285.6 179.9 285.6 179.0L285.6 179.0Q285.6 178.0 285.9 177.3Q286.3 176.7 286.8 176.3Q287.4 175.9 288.1 175.9L288.1 175.9Q288.7 175.9 289.0 176.1Q289.4 176.3 289.6 176.5Q289.8 176.8 289.9 177.0L289.9 177.0L290.0 177.0L290.0 176.0L291.1 176.0L291.1 182.1Q291.1 182.9 290.8 183.4Q290.4 183.9 289.8 184.1Q289.2 184.4 288.4 184.4ZM288.4 180.9L288.4 180.9Q288.9 180.9 289.2 180.7Q289.6 180.5 289.8 180.0Q289.9 179.6 289.9 179.0L289.9 179.0Q289.9 178.4 289.8 177.9Q289.6 177.4 289.2 177.2Q288.9 176.9 288.4 176.9L288.4 176.9Q287.9 176.9 287.5 177.2Q287.2 177.5 287.0 177.9Q286.8 178.4 286.8 179.0L286.8 179.0Q286.8 179.5 287.0 180.0Q287.2 180.4 287.5 180.7Q287.9 180.9 288.4 180.9Z "/></g><mask id="satori_om-id-0-2-0-0-2"><rect x="313" y="156" width="85" height="22" fill="#fff"/></mask><path x="313" y="156" width="85" height="22" fill="#fbbf24" d="M324,156 h63 a11,11 0 0 1 11,11 v0 a11,11 0 0 1 -11,11 h-63 a11,11 0 0 1 -11,-11 v0 a11,11 0 0 1 11,-11"/><g  ><path fill="#1a1a1a" d="M326.9 171.1L326.9 171.1Q325.9 171.1 325.1 170.7Q324.4 170.2 323.9 169.4Q323.5 168.5 323.5 167.4L323.5 167.4Q323.5 166.2 323.9 165.3Q324.4 164.5 325.1 164.1Q325.9 163.6 326.9 163.6L326.9 163.6Q327.8 163.6 328.6 164.1Q329.4 164.5 329.8 165.3Q330.2 166.2 330.2 167.4L330.2 167.4Q330.2 168.5 329.8 169.4Q329.4 170.2 328.6 170.7Q327.8 171.1 326.9 171.1ZM326.9 169.8L326.9 169.8Q327.4 169.8 327.8 169.5Q328.3 169.2 328.5 168.7Q328.7 168.1 328.7 167.4L328.7 167.4Q328.7 166.6 328.5 166.0Q328.3 165.5 327.8 165.2Q327.4 165.0 326.9 165.0L326.9 165.0Q326.3 165.0 325.9 165.2Q325.4 165.5 325.2 166.0Q325.0 166.6 325.0 167.4L325.0 167.4Q325.0 168.1 325.2 168.7Q325.4 169.2 325.9 169.5Q326.3 169.8 326.9 169.8ZM333.3 171L331.8 171L331.8 163.7L333.4 163.7L335.7 167.4Q335.9 167.7 336.1 168.0Q336.3 168.4 336.5 168.8L336.5 168.8Q336.5 169.0 336.6 169.2L336.6 169.2Q336.6 169.0 336.6 168.8L336.6 168.8Q336.6 168.3 336.6 167.9Q336.5 167.5 336.5 167.2L336.5 167.2L336.5 163.7L338.1 163.7L338.1 171L336.4 171L334.3 167.7Q334.1 167.3 333.9 166.9Q333.7 166.6 333.5 166.1L333.5 166.1Q333.4 165.9 333.2 165.6L333.2 165.6Q333.2 165.9 333.2 166.1L333.2 166.1Q333.3 166.6 333.3 167.0Q333.3 167.4 333.3 167.7L333.3 167.7L333.3 171Z M345.2 171.1L345.2 171.1Q344.3 171.1 343.7 170.8Q343.1 170.6 342.7 170.0Q342.3 169.5 342.3 168.7L342.3 168.7L343.8 168.7Q343.8 169.1 344.0 169.4Q344.2 169.6 344.5 169.7Q344.8 169.8 345.2 169.8L345.2 169.8Q345.6 169.8 345.9 169.7Q346.2 169.6 346.4 169.4Q346.5 169.2 346.5 168.9L346.5 168.9Q346.5 168.7 346.4 168.5Q346.2 168.3 346.0 168.2Q345.7 168.1 345.3 168.0L345.3 168.0L344.5 167.8Q343.6 167.6 343.0 167.1Q342.5 166.6 342.5 165.8L342.5 165.8Q342.5 165.2 342.9 164.7Q343.2 164.2 343.8 163.9Q344.4 163.6 345.2 163.6L345.2 163.6Q346.0 163.6 346.6 163.9Q347.2 164.2 347.6 164.7Q347.9 165.2 347.9 165.8L347.9 165.8L346.5 165.8Q346.5 165.4 346.1 165.1Q345.8 164.9 345.2 164.9L345.2 164.9Q344.8 164.9 344.6 165.0Q344.3 165.1 344.2 165.3Q344.0 165.5 344.0 165.7L344.0 165.7Q344.0 166.0 344.2 166.2Q344.4 166.3 344.6 166.5Q344.9 166.6 345.2 166.6L345.2 166.6L345.9 166.8Q346.3 166.9 346.7 167.1Q347.1 167.3 347.4 167.5Q347.7 167.8 347.9 168.1Q348.0 168.5 348.0 168.9L348.0 168.9Q348.0 169.6 347.7 170.1Q347.4 170.6 346.7 170.8Q346.1 171.1 345.2 171.1ZM354.4 171L349.5 171L349.5 163.7L354.4 163.7L354.4 165.0L351.0 165.0L351.0 166.7L354.1 166.7L354.1 167.9L351.0 167.9L351.0 169.8L354.4 169.8L354.4 171ZM357.5 171L356.0 171L356.0 163.7L358.8 163.7Q359.6 163.7 360.2 164.0Q360.8 164.3 361.1 164.8Q361.4 165.4 361.4 166.1Q361.4 166.8 361.1 167.3Q360.8 167.9 360.2 168.1L360.2 168.1Q360.2 168.1 360.1 168.2L360.1 168.2L361.7 171L360.0 171L358.6 168.4L357.5 168.4L357.5 171ZM357.5 165.0L357.5 167.2L358.5 167.2Q359.0 167.2 359.3 167.1Q359.6 166.9 359.7 166.7Q359.9 166.5 359.9 166.1L359.9 166.1Q359.9 165.7 359.7 165.5Q359.6 165.2 359.3 165.1Q359.0 165.0 358.5 165.0L358.5 165.0L357.5 165.0ZM367.0 171L365.1 171L362.5 163.7L364.2 163.7L365.3 167.2Q365.6 167.9 365.8 168.7L365.8 168.7Q365.9 169.2 366.1 169.8L366.1 169.8Q366.2 169.2 366.3 168.7L366.3 168.7Q366.5 167.9 366.7 167.2L366.7 167.2L367.9 163.7L369.5 163.7L367.0 171ZM370.8 163.7L372.3 163.7L372.3 171L370.8 171L370.8 163.7ZM377.2 171.1L377.2 171.1Q376.2 171.1 375.5 170.7Q374.7 170.2 374.3 169.4Q373.8 168.5 373.8 167.4L373.8 167.4Q373.8 166.2 374.3 165.3Q374.7 164.5 375.5 164.1Q376.2 163.6 377.2 163.6L377.2 163.6Q377.8 163.6 378.4 163.8Q378.9 164.0 379.3 164.3Q379.7 164.6 380.0 165.1Q380.2 165.6 380.3 166.2L380.3 166.2L378.8 166.2Q378.8 165.9 378.6 165.7Q378.5 165.4 378.3 165.3Q378.1 165.1 377.8 165.0Q377.5 165.0 377.2 165.0L377.2 165.0Q376.7 165.0 376.2 165.2Q375.8 165.5 375.6 166.1Q375.3 166.6 375.3 167.4L375.3 167.4Q375.3 168.2 375.6 168.7Q375.8 169.2 376.2 169.5Q376.7 169.8 377.2 169.8L377.2 169.8Q377.5 169.8 377.8 169.7Q378.1 169.6 378.3 169.4Q378.5 169.3 378.6 169.0Q378.8 168.8 378.8 168.5L378.8 168.5L380.3 168.5Q380.3 169.0 380.0 169.5Q379.8 169.9 379.4 170.3Q379.0 170.7 378.4 170.9Q377.9 171.1 377.2 171.1ZM386.7 171L381.8 171L381.8 163.7L386.7 163.7L386.7 165.0L383.3 165.0L383.3 166.7L386.4 166.7L386.4 167.9L383.3 167.9L383.3 169.8L386.7 169.8L386.7 171Z "/></g><defs><clipPath id="satori_bc-id-0-2-0-1"><rect x="122" y="207" width="276" height="60"/></clipPath></defs><mask id="satori_om-id-0-2-0-1"><rect x="122" y="208" width="276" height="59" fill="#fff"/><path width="276" height="60" fill="none" stroke="#000" stroke-width="2" d="M122,207 A0,0 0 0 1 122,207 h276 A0,0 0 0 1 398,207"/></mask><path width="276" height="60" clip-path="url(#satori_bc-id-0-2-0-1)" fill="none" stroke="#f3f4f6" stroke-width="2" d="M122,207 A0,0 0 0 1 122,207 h276 A0,0 0 0 1 398,207"/><mask id="satori_om-id-0-2-0-1-0"><rect x="122" y="224" width="81" height="43" fill="#fff"/></mask><mask id="satori_om-id-0-2-0-1-0-0"><rect x="122" y="224" width="81" height="26" fill="#fff"/></mask><g  ><path fill="#1a1a1a" d="M126.5 229.0L130.5 229.0L130.5 245L126.7 245L126.7 232.3L126.6 232.3L123.0 234.8L123.0 231.4L126.5 229.0ZM139.0 245.2L139.0 245.2Q137.1 245.2 135.7 244.6Q134.3 244.0 133.4 243.0Q132.6 242.0 132.6 240.7L132.6 240.7Q132.6 239.7 133.1 238.9Q133.5 238.0 134.4 237.5Q135.2 236.9 136.2 236.8L136.2 236.8L136.2 236.7Q134.9 236.4 134.0 235.4Q133.2 234.4 133.2 233.1L133.2 233.1Q133.2 231.9 133.9 230.9Q134.7 229.9 136.0 229.3Q137.3 228.8 139.0 228.8L139.0 228.8Q140.7 228.8 142.0 229.3Q143.3 229.9 144.1 230.9Q144.9 231.9 144.9 233.1L144.9 233.1Q144.9 234.4 144.0 235.4Q143.2 236.4 141.9 236.7L141.9 236.7L141.9 236.8Q142.9 236.9 143.7 237.5Q144.5 238.0 145.0 238.9Q145.4 239.7 145.4 240.7L145.4 240.7Q145.4 242.0 144.6 243.0Q143.8 244.0 142.3 244.6Q140.9 245.2 139.0 245.2ZM139.0 242.5L139.0 242.5Q139.7 242.5 140.3 242.2Q140.8 242.0 141.1 241.5Q141.5 241.0 141.5 240.4L141.5 240.4Q141.5 239.7 141.1 239.2Q140.8 238.8 140.3 238.5Q139.7 238.2 139.0 238.2L139.0 238.2Q138.3 238.2 137.8 238.5Q137.2 238.7 136.9 239.2Q136.6 239.7 136.6 240.4L136.6 240.4Q136.6 241.0 136.9 241.5Q137.2 242.0 137.7 242.2Q138.3 242.5 139.0 242.5ZM139.0 235.5L139.0 235.5Q139.6 235.5 140.1 235.2Q140.6 235.0 140.9 234.5Q141.1 234.1 141.1 233.5L141.1 233.5Q141.1 232.9 140.9 232.5Q140.6 232.1 140.1 231.8Q139.6 231.6 139.0 231.6L139.0 231.6Q138.4 231.6 137.9 231.8Q137.4 232.1 137.2 232.5Q136.9 232.9 136.9 233.5L136.9 233.5Q136.9 234.1 137.2 234.5Q137.4 235.0 137.9 235.2Q138.4 235.5 139.0 235.5ZM151.9 245.2L151.9 245.2Q150.6 245.2 149.5 244.5Q148.4 243.8 147.7 242.4Q147.1 241.0 147.1 239.0L147.1 239.0Q147.1 236.9 147.8 235.5Q148.4 234.2 149.5 233.5Q150.6 232.8 151.9 232.8L151.9 232.8Q152.8 232.8 153.5 233.2Q154.2 233.5 154.6 234Q155.1 234.5 155.3 235.1L155.3 235.1L155.4 235.1L155.4 229.0L159.1 229.0L159.1 245L155.4 245L155.4 243.1L155.3 243.1Q155.0 243.6 154.6 244.1Q154.2 244.6 153.5 244.9Q152.8 245.2 151.9 245.2ZM153.2 242.3L153.2 242.3Q153.9 242.3 154.4 241.8Q154.9 241.4 155.2 240.7Q155.5 240.0 155.5 239.0L155.5 239.0Q155.5 238.0 155.2 237.3Q154.9 236.6 154.4 236.2Q153.9 235.8 153.2 235.8L153.2 235.8Q152.5 235.8 152.0 236.2Q151.5 236.6 151.2 237.3Q151.0 238.0 151.0 239.0L151.0 239.0Q151.0 240.0 151.2 240.7Q151.5 241.4 152.0 241.8Q152.5 242.3 153.2 242.3Z "/></g><mask id="satori_om-id-0-2-0-1-0-1"><rect x="122" y="254" width="81" height="13" fill="#fff"/></mask><g  ><path fill="#9ca3af" d="M126.2 265.1L126.2 265.1Q125.2 265.1 124.4 264.6Q123.5 264.1 123.1 263.2Q122.6 262.3 122.6 261.0L122.6 261.0Q122.6 259.7 123.1 258.8Q123.5 257.9 124.4 257.4Q125.2 256.9 126.2 256.9L126.2 256.9Q127.3 256.9 128.1 257.4Q128.9 257.9 129.4 258.8Q129.8 259.7 129.8 261.0L129.8 261.0Q129.8 262.3 129.4 263.2Q128.9 264.1 128.1 264.6Q127.3 265.1 126.2 265.1ZM126.2 264.0L126.2 264.0Q126.9 264.0 127.4 263.6Q128.0 263.3 128.3 262.6Q128.6 262.0 128.6 261.0L128.6 261.0Q128.6 260.0 128.3 259.4Q128.0 258.7 127.4 258.3Q126.9 258.0 126.2 258.0L126.2 258.0Q125.5 258.0 125.0 258.4Q124.4 258.7 124.1 259.4Q123.8 260.0 123.8 261.0L123.8 261.0Q123.8 262.0 124.1 262.6Q124.4 263.3 125.0 263.6Q125.5 264.0 126.2 264.0ZM132.4 261.4L132.4 261.4L132.4 265L131.2 265L131.2 259.0L132.4 259.0L132.4 260.1Q132.6 259.6 133.0 259.3L133.0 259.3Q133.5 258.9 134.2 258.9L134.2 258.9Q134.8 258.9 135.3 259.2Q135.7 259.4 136.0 259.9Q136.3 260.4 136.3 261.2L136.3 261.2L136.3 265L135.1 265L135.1 261.3Q135.1 260.7 134.7 260.3Q134.4 260.0 133.8 260.0L133.8 260.0Q133.4 260.0 133.1 260.1Q132.8 260.3 132.6 260.6Q132.4 261.0 132.4 261.4Z M142.9 265.1L142.9 265.1Q142.3 265.1 141.8 264.9Q141.3 264.7 140.9 264.4Q140.6 264.0 140.5 263.5L140.5 263.5L141.6 263.2Q141.7 263.7 142.1 263.9Q142.4 264.2 142.9 264.2L142.9 264.2Q143.5 264.2 143.8 263.9Q144.2 263.7 144.2 263.4L144.2 263.4Q144.2 263.1 144.0 262.9Q143.8 262.7 143.3 262.6L143.3 262.6L142.3 262.4Q141.5 262.2 141.1 261.8Q140.7 261.4 140.7 260.7L140.7 260.7Q140.7 260.2 141.0 259.8Q141.3 259.4 141.8 259.1Q142.3 258.9 143.0 258.9L143.0 258.9Q143.7 258.9 144.1 259.1Q144.6 259.3 144.9 259.6Q145.2 260.0 145.3 260.4L145.3 260.4L144.2 260.6Q144.1 260.3 143.8 260.1Q143.5 259.9 143.0 259.9L143.0 259.9Q142.5 259.9 142.2 260.1Q141.9 260.3 141.9 260.6L141.9 260.6Q141.9 260.9 142.1 261.1Q142.3 261.3 142.8 261.4L142.8 261.4L143.8 261.6Q144.6 261.8 145.0 262.2Q145.4 262.6 145.4 263.3L145.4 263.3Q145.4 263.8 145.1 264.2Q144.8 264.6 144.2 264.9Q143.7 265.1 142.9 265.1ZM149.3 265.1L149.3 265.1Q148.4 265.1 147.8 264.7Q147.1 264.4 146.8 263.7Q146.4 263.0 146.4 262.0L146.4 262.0Q146.4 261.1 146.8 260.4Q147.1 259.7 147.7 259.3Q148.4 258.9 149.2 258.9L149.2 258.9Q149.7 258.9 150.2 259.1Q150.7 259.3 151.0 259.6Q151.4 260.0 151.6 260.6Q151.9 261.1 151.9 261.9L151.9 261.9L151.9 262.4L147.6 262.4Q147.6 262.9 147.8 263.3L147.8 263.3Q148.0 263.7 148.4 263.9Q148.8 264.1 149.3 264.1L149.3 264.1Q149.6 264.1 149.9 264.1Q150.2 264.0 150.4 263.8Q150.6 263.6 150.7 263.3L150.7 263.3L151.8 263.6Q151.6 264.0 151.3 264.4Q151.0 264.7 150.4 264.9Q149.9 265.1 149.3 265.1ZM147.6 261.5L147.6 261.5L150.7 261.5Q150.7 261.1 150.5 260.8L150.5 260.8Q150.4 260.4 150.0 260.1Q149.7 259.9 149.2 259.9L149.2 259.9Q148.7 259.9 148.3 260.1Q148.0 260.4 147.8 260.8L147.8 260.8Q147.6 261.1 147.6 261.5ZM154.3 265L153.2 265L153.2 259.0L154.3 259.0L154.3 260.0L154.4 260.0Q154.5 259.5 155.0 259.2Q155.4 258.9 155.9 258.9L155.9 258.9Q156.0 258.9 156.1 258.9Q156.3 258.9 156.4 258.9L156.4 258.9L156.4 260.1Q156.3 260.0 156.1 260.0Q156.0 260.0 155.8 260.0L155.8 260.0Q155.4 260.0 155.0 260.2Q154.7 260.3 154.5 260.7Q154.3 261.0 154.3 261.4L154.3 261.4L154.3 265ZM160.4 265L159.1 265L156.9 259.0L158.1 259.0L159.3 262.4Q159.5 263.0 159.7 263.5L159.7 263.5Q159.7 263.8 159.8 264.0L159.8 264.0Q159.8 263.8 159.9 263.5L159.9 263.5Q160.0 263.0 160.2 262.4L160.2 262.4L161.4 259.0L162.7 259.0L160.4 265ZM164.9 265L163.7 265L163.7 259.0L164.9 259.0L164.9 265ZM164.3 258.1L164.3 258.1Q164.0 258.1 163.8 257.9Q163.6 257.7 163.6 257.4L163.6 257.4Q163.6 257.1 163.8 256.9Q164.0 256.7 164.3 256.7L164.3 256.7Q164.6 256.7 164.9 256.9Q165.1 257.1 165.1 257.4L165.1 257.4Q165.1 257.7 164.9 257.9Q164.6 258.1 164.3 258.1ZM169.0 265.1L169.0 265.1Q168.2 265.1 167.6 264.7Q166.9 264.4 166.6 263.7Q166.2 263.0 166.2 262.0L166.2 262.0Q166.2 261.1 166.6 260.4Q166.9 259.7 167.6 259.3Q168.2 258.9 169.0 258.9L169.0 258.9Q169.5 258.9 169.9 259.0Q170.3 259.2 170.6 259.4Q171.0 259.6 171.2 259.9Q171.4 260.3 171.5 260.7L171.5 260.7L170.4 261.0Q170.4 260.7 170.2 260.5Q170.1 260.3 169.9 260.2Q169.8 260.1 169.5 260.0Q169.3 259.9 169.0 259.9L169.0 259.9Q168.5 259.9 168.1 260.2Q167.8 260.5 167.6 261.0Q167.4 261.4 167.4 262.0L167.4 262.0Q167.4 262.6 167.6 263.1Q167.8 263.6 168.1 263.8Q168.5 264.1 169.0 264.1L169.0 264.1Q169.3 264.1 169.6 264.0Q169.8 264.0 170.0 263.8Q170.1 263.7 170.3 263.5Q170.4 263.3 170.4 263.0L170.4 263.0L171.6 263.3Q171.5 263.7 171.2 264.1Q171.0 264.4 170.7 264.6Q170.3 264.9 169.9 265Q169.5 265.1 169.0 265.1ZM175.4 265.1L175.4 265.1Q174.6 265.1 173.9 264.7Q173.3 264.4 172.9 263.7Q172.6 263.0 172.6 262.0L172.6 262.0Q172.6 261.1 172.9 260.4Q173.3 259.7 173.9 259.3Q174.5 258.9 175.3 258.9L175.3 258.9Q175.9 258.9 176.3 259.1Q176.8 259.3 177.2 259.6Q177.6 260.0 177.8 260.6Q178.0 261.1 178.0 261.9L178.0 261.9L178.0 262.4L173.8 262.4Q173.8 262.9 174.0 263.3L174.0 263.3Q174.2 263.7 174.6 263.9Q175.0 264.1 175.5 264.1L175.5 264.1Q175.8 264.1 176.1 264.1Q176.3 264.0 176.5 263.8Q176.7 263.6 176.8 263.3L176.8 263.3L177.9 263.6Q177.8 264.0 177.4 264.4Q177.1 264.7 176.6 264.9Q176.1 265.1 175.4 265.1ZM173.8 261.5L173.8 261.5L176.9 261.5Q176.8 261.1 176.7 260.8L176.7 260.8Q176.5 260.4 176.2 260.1Q175.9 259.9 175.3 259.9L175.3 259.9Q174.8 259.9 174.5 260.1Q174.1 260.4 174.0 260.8L174.0 260.8Q173.8 261.1 173.8 261.5Z "/></g><mask id="satori_om-id-0-2-0-1-1"><rect x="219" y="224" width="82" height="43" fill="#fff"/></mask><mask id="satori_om-id-0-2-0-1-1-0"><rect x="219" y="224" width="82" height="26" fill="#fff"/></mask><g  ><path fill="#1a1a1a" d="M232.0 245L220.2 245L220.2 242.3L226.0 237.1Q226.7 236.5 227.1 236.0Q227.6 235.5 227.9 235.0Q228.1 234.5 228.1 233.9L228.1 233.9Q228.1 233.2 227.8 232.7Q227.5 232.3 227.0 232.0Q226.5 231.8 225.8 231.8L225.8 231.8Q225.2 231.8 224.7 232.0Q224.1 232.3 223.9 232.8Q223.6 233.3 223.6 234.1L223.6 234.1L220.0 234.1Q220.0 232.4 220.7 231.3Q221.4 230.1 222.8 229.4Q224.1 228.8 225.8 228.8L225.8 228.8Q227.6 228.8 229.0 229.4Q230.3 230.0 231.1 231.1Q231.8 232.2 231.8 233.6L231.8 233.6Q231.8 234.5 231.4 235.4Q231.1 236.3 230.1 237.4Q229.2 238.5 227.4 240.0L227.4 240.0L225.5 241.8L225.5 241.9L232.0 241.9L232.0 245Z "/></g><mask id="satori_om-id-0-2-0-1-1-1"><rect x="219" y="254" width="82" height="13" fill="#fff"/></mask><g  ><path fill="#9ca3af" d="M223.2 265.1L223.2 265.1Q222.2 265.1 221.4 264.6Q220.5 264.1 220.1 263.2Q219.6 262.3 219.6 261.0L219.6 261.0Q219.6 259.7 220.1 258.8Q220.5 257.9 221.4 257.4Q222.2 256.9 223.2 256.9L223.2 256.9Q223.8 256.9 224.4 257.1Q225.0 257.3 225.4 257.6Q225.8 258.0 226.1 258.5Q226.4 259.0 226.5 259.6L226.5 259.6L225.3 259.6Q225.2 259.2 225.0 258.9Q224.8 258.6 224.5 258.4Q224.3 258.2 223.9 258.1Q223.6 258.0 223.2 258.0L223.2 258.0Q222.5 258.0 222.0 258.4Q221.4 258.7 221.1 259.4Q220.8 260.0 220.8 261.0L220.8 261.0Q220.8 262.0 221.1 262.6Q221.5 263.3 222.0 263.6Q222.5 264.0 223.2 264.0L223.2 264.0Q223.6 264.0 223.9 263.9Q224.3 263.8 224.5 263.6Q224.8 263.4 225.0 263.1Q225.2 262.8 225.3 262.4L225.3 262.4L226.5 262.4Q226.4 263.0 226.1 263.5Q225.9 264.0 225.4 264.4Q225.0 264.7 224.4 264.9Q223.9 265.1 223.2 265.1ZM229.0 265L227.9 265L227.9 259.0L229.0 259.0L229.0 260.0L229.1 260.0Q229.2 259.5 229.7 259.2Q230.1 258.9 230.6 258.9L230.6 258.9Q230.7 258.9 230.8 258.9Q231.0 258.9 231.1 258.9L231.1 258.9L231.1 260.1Q231.0 260.0 230.8 260.0Q230.7 260.0 230.5 260.0L230.5 260.0Q230.1 260.0 229.7 260.2Q229.4 260.3 229.2 260.7Q229.0 261.0 229.0 261.4L229.0 261.4L229.0 265ZM234.6 265.1L234.6 265.1Q233.8 265.1 233.2 264.7Q232.5 264.4 232.2 263.7Q231.8 263.0 231.8 262.0L231.8 262.0Q231.8 261.1 232.2 260.4Q232.5 259.7 233.2 259.3Q233.8 258.9 234.6 258.9L234.6 258.9Q235.5 258.9 236.1 259.3Q236.8 259.7 237.1 260.4Q237.4 261.1 237.4 262.0L237.4 262.0Q237.4 263.0 237.1 263.7Q236.8 264.4 236.1 264.7Q235.5 265.1 234.6 265.1ZM234.6 264.1L234.6 264.1Q235.2 264.1 235.5 263.8Q235.9 263.5 236.1 263.1Q236.3 262.6 236.3 262.0L236.3 262.0Q236.3 261.5 236.1 261.0Q235.9 260.5 235.5 260.2Q235.2 259.9 234.6 259.9L234.6 259.9Q234.1 259.9 233.7 260.2Q233.4 260.5 233.2 261.0Q233.0 261.4 233.0 262.0L233.0 262.0Q233.0 262.6 233.2 263.1Q233.4 263.5 233.7 263.8Q234.1 264.1 234.6 264.1ZM240.9 265.1L240.9 265.1Q240.3 265.1 239.8 264.9Q239.2 264.7 238.9 264.4Q238.6 264.0 238.5 263.5L238.5 263.5L239.6 263.2Q239.7 263.7 240.1 263.9Q240.4 264.2 240.9 264.2L240.9 264.2Q241.5 264.2 241.8 263.9Q242.2 263.7 242.2 263.4L242.2 263.4Q242.2 263.1 242.0 262.9Q241.8 262.7 241.3 262.6L241.3 262.6L240.3 262.4Q239.5 262.2 239.1 261.8Q238.7 261.4 238.7 260.7L238.7 260.7Q238.7 260.2 239.0 259.8Q239.3 259.4 239.8 259.1Q240.3 258.9 241.0 258.9L241.0 258.9Q241.6 258.9 242.1 259.1Q242.6 259.3 242.9 259.6Q243.1 260.0 243.3 260.4L243.3 260.4L242.2 260.6Q242.1 260.3 241.8 260.1Q241.5 259.9 241 259.9L241 259.9Q240.5 259.9 240.2 260.1Q239.9 260.3 239.9 260.6L239.9 260.6Q239.9 260.9 240.1 261.1Q240.3 261.3 240.8 261.4L240.8 261.4L241.8 261.6Q242.6 261.8 243.0 262.2Q243.4 262.6 243.4 263.3L243.4 263.3Q243.4 263.8 243.1 264.2Q242.8 264.6 242.2 264.9Q241.6 265.1 240.9 265.1ZM246.8 265.1L246.8 265.1Q246.2 265.1 245.7 264.9Q245.2 264.7 244.8 264.4Q244.5 264.0 244.4 263.5L244.4 263.5L245.5 263.2Q245.7 263.7 246.0 263.9Q246.3 264.2 246.8 264.2L246.8 264.2Q247.4 264.2 247.8 263.9Q248.1 263.7 248.1 263.4L248.1 263.4Q248.1 263.1 247.9 262.9Q247.7 262.7 247.3 262.6L247.3 262.6L246.2 262.4Q245.4 262.2 245.0 261.8Q244.6 261.4 244.6 260.7L244.6 260.7Q244.6 260.2 244.9 259.8Q245.2 259.4 245.7 259.1Q246.2 258.9 246.9 258.9L246.9 258.9Q247.6 258.9 248.0 259.1Q248.5 259.3 248.8 259.6Q249.1 260.0 249.2 260.4L249.2 260.4L248.1 260.6Q248.0 260.3 247.7 260.1Q247.5 259.9 246.9 259.9L246.9 259.9Q246.4 259.9 246.1 260.1Q245.8 260.3 245.8 260.6L245.8 260.6Q245.8 260.9 246.0 261.1Q246.2 261.3 246.7 261.4L246.7 261.4L247.7 261.6Q248.5 261.8 248.9 262.2Q249.3 262.6 249.3 263.3L249.3 263.3Q249.3 263.8 249.0 264.2Q248.7 264.6 248.1 264.9Q247.6 265.1 246.8 265.1ZM250.6 261.1L254.1 261.1L254.1 262.1L250.6 262.1L250.6 261.1ZM258.2 265.1L258.2 265.1Q257.4 265.1 256.7 264.7Q256.1 264.4 255.8 263.7Q255.4 263.0 255.4 262.0L255.4 262.0Q255.4 261.1 255.8 260.4Q256.1 259.7 256.7 259.3Q257.4 258.9 258.2 258.9L258.2 258.9Q258.7 258.9 259.1 259.0Q259.5 259.2 259.8 259.4Q260.2 259.6 260.4 259.9Q260.6 260.3 260.7 260.7L260.7 260.7L259.6 261.0Q259.6 260.7 259.4 260.5Q259.3 260.3 259.1 260.2Q259.0 260.1 258.7 260.0Q258.5 259.9 258.2 259.9L258.2 259.9Q257.7 259.9 257.3 260.2Q257.0 260.5 256.8 261.0Q256.6 261.4 256.6 262.0L256.6 262.0Q256.6 262.6 256.8 263.1Q257.0 263.6 257.3 263.8Q257.7 264.1 258.2 264.1L258.2 264.1Q258.5 264.1 258.7 264.0Q259.0 264.0 259.1 263.8Q259.3 263.7 259.5 263.5Q259.6 263.3 259.6 263.0L259.6 263.0L260.7 263.3Q260.6 263.7 260.4 264.1Q260.2 264.4 259.8 264.6Q259.5 264.9 259.1 265Q258.7 265.1 258.2 265.1ZM264.6 265.1L264.6 265.1Q263.7 265.1 263.1 264.7Q262.5 264.4 262.1 263.7Q261.8 263.0 261.8 262.0L261.8 262.0Q261.8 261.1 262.1 260.4Q262.5 259.7 263.1 259.3Q263.7 258.9 264.6 258.9L264.6 258.9Q265.4 258.9 266.0 259.3Q266.7 259.7 267.0 260.4Q267.4 261.1 267.4 262.0L267.4 262.0Q267.4 263.0 267.0 263.7Q266.7 264.4 266.0 264.7Q265.4 265.1 264.6 265.1ZM264.6 264.1L264.6 264.1Q265.1 264.1 265.5 263.8Q265.8 263.5 266.0 263.1Q266.2 262.6 266.2 262.0L266.2 262.0Q266.2 261.5 266.0 261.0Q265.8 260.5 265.5 260.2Q265.1 259.9 264.6 259.9L264.6 259.9Q264.0 259.9 263.7 260.2Q263.3 260.5 263.1 261.0Q263.0 261.4 263.0 262.0L263.0 262.0Q263.0 262.6 263.1 263.1Q263.3 263.5 263.7 263.8Q264.0 264.1 264.6 264.1ZM271.7 265L270.4 265L268.1 259.0L269.4 259.0L270.6 262.4Q270.8 263.0 270.9 263.5L270.9 263.5Q271.0 263.8 271.1 264.0L271.1 264.0Q271.1 263.8 271.2 263.5L271.2 263.5Q271.3 263.0 271.5 262.4L271.5 262.4L272.7 259.0L274.0 259.0L271.7 265ZM277.6 265.1L277.6 265.1Q276.7 265.1 276.1 264.7Q275.4 264.4 275.1 263.7Q274.7 263.0 274.7 262.0L274.7 262.0Q274.7 261.1 275.1 260.4Q275.4 259.7 276.0 259.3Q276.7 258.9 277.5 258.9L277.5 258.9Q278.0 258.9 278.5 259.1Q279.0 259.3 279.3 259.6Q279.7 260.0 280.0 260.6Q280.2 261.1 280.2 261.9L280.2 261.9L280.2 262.4L275.9 262.4Q275.9 262.9 276.1 263.3L276.1 263.3Q276.3 263.7 276.7 263.9Q277.1 264.1 277.6 264.1L277.6 264.1Q277.9 264.1 278.2 264.1Q278.5 264.0 278.7 263.8Q278.9 263.6 279.0 263.3L279.0 263.3L280.1 263.6Q279.9 264.0 279.6 264.4Q279.3 264.7 278.8 264.9Q278.2 265.1 277.6 265.1ZM275.9 261.5L275.9 261.5L279.0 261.5Q279.0 261.1 278.8 260.8L278.8 260.8Q278.7 260.4 278.3 260.1Q278.0 259.9 277.5 259.9L277.5 259.9Q277.0 259.9 276.6 260.1Q276.3 260.4 276.1 260.8L276.1 260.8Q275.9 261.1 275.9 261.5ZM282.7 265L281.5 265L281.5 259.0L282.6 259.0L282.6 260.0L282.7 260.0Q282.8 259.5 283.3 259.2Q283.7 258.9 284.2 258.9L284.2 258.9Q284.3 258.9 284.5 258.9Q284.6 258.9 284.7 258.9L284.7 258.9L284.7 260.1Q284.6 260.0 284.5 260.0Q284.3 260.0 284.1 260.0L284.1 260.0Q283.7 260.0 283.3 260.2Q283.0 260.3 282.8 260.7Q282.7 261.0 282.7 261.4L282.7 261.4L282.7 265Z "/></g><mask id="satori_om-id-0-2-0-1-2"><rect x="317" y="224" width="81" height="43" fill="#fff"/></mask><mask id="satori_om-id-0-2-0-1-2-0"><rect x="317" y="224" width="81" height="26" fill="#fff"/></mask><g  ><path fill="#fbbf24" d="M321.5 229.0L325.5 229.0L325.5 245L321.7 245L321.7 232.3L321.6 232.3L318.0 234.8L318.0 231.4L321.5 229.0ZM334.3 245.2L334.3 245.2Q332.2 245.2 330.7 244.2Q329.2 243.3 328.4 241.4Q327.6 239.6 327.6 237.0L327.6 237.0Q327.6 234.4 328.4 232.6Q329.2 230.7 330.7 229.8Q332.2 228.8 334.3 228.8L334.3 228.8Q336.4 228.8 337.9 229.8Q339.5 230.7 340.2 232.6Q341.0 234.4 341.0 237.0L341.0 237.0Q341.0 239.6 340.2 241.4Q339.5 243.3 337.9 244.2Q336.4 245.2 334.3 245.2ZM334.3 242.1L334.3 242.1Q335.2 242.1 335.9 241.5Q336.5 240.9 336.8 239.8Q337.1 238.7 337.1 237.0L337.1 237.0Q337.1 235.4 336.8 234.2Q336.5 233.1 335.9 232.5Q335.2 231.9 334.3 231.9L334.3 231.9Q333.4 231.9 332.8 232.5Q332.2 233.1 331.8 234.2Q331.5 235.4 331.5 237.0L331.5 237.0Q331.5 238.7 331.8 239.8Q332.1 240.9 332.8 241.5Q333.4 242.1 334.3 242.1ZM349.5 245.2L349.5 245.2Q347.4 245.2 345.9 244.2Q344.4 243.3 343.6 241.4Q342.8 239.6 342.8 237.0L342.8 237.0Q342.8 234.4 343.6 232.6Q344.4 230.7 345.9 229.8Q347.4 228.8 349.5 228.8L349.5 228.8Q351.7 228.8 353.2 229.8Q354.7 230.7 355.5 232.6Q356.3 234.4 356.3 237.0L356.3 237.0Q356.3 239.6 355.5 241.4Q354.7 243.3 353.2 244.2Q351.7 245.2 349.5 245.2ZM349.5 242.1L349.5 242.1Q350.5 242.1 351.1 241.5Q351.7 240.9 352.0 239.8Q352.4 238.7 352.4 237.0L352.4 237.0Q352.4 235.4 352.0 234.2Q351.7 233.1 351.1 232.5Q350.5 231.9 349.5 231.9L349.5 231.9Q348.6 231.9 348.0 232.5Q347.4 233.1 347.1 234.2Q346.7 235.4 346.7 237.0L346.7 237.0Q346.7 238.7 347.0 239.8Q347.4 240.9 348.0 241.5Q348.6 242.1 349.5 242.1ZM362.6 236.9L362.6 236.9Q361.4 236.9 360.6 236.4Q359.8 235.9 359.4 235.0Q359.0 234.2 359.0 233.2L359.0 233.2L359.0 232.4Q359.0 231.4 359.4 230.6Q359.8 229.7 360.6 229.2Q361.4 228.7 362.6 228.7L362.6 228.7Q363.8 228.7 364.6 229.2Q365.4 229.7 365.8 230.6Q366.2 231.4 366.2 232.4L366.2 232.4L366.2 233.2Q366.2 234.2 365.8 235.1Q365.4 235.9 364.6 236.4Q363.8 236.9 362.6 236.9ZM362.6 234.7L362.6 234.7Q363.3 234.7 363.5 234.2Q363.7 233.8 363.7 233.2L363.7 233.2L363.7 232.4Q363.7 231.9 363.5 231.4Q363.3 230.9 362.6 230.9L362.6 230.9Q361.9 230.9 361.7 231.4Q361.4 231.9 361.4 232.4L361.4 232.4L361.4 233.2Q361.4 233.8 361.7 234.2Q361.9 234.7 362.6 234.7ZM374.4 245.3L374.4 245.3Q373.2 245.3 372.4 244.8Q371.6 244.3 371.1 243.4Q370.7 242.6 370.7 241.6L370.7 241.6L370.7 240.8Q370.7 239.8 371.2 239.0Q371.6 238.1 372.4 237.6Q373.2 237.1 374.4 237.1L374.4 237.1Q375.5 237.1 376.4 237.6Q377.2 238.1 377.6 239.0Q378.0 239.8 378.0 240.8L378.0 240.8L378.0 241.6Q378.0 242.6 377.6 243.5Q377.1 244.3 376.3 244.8Q375.5 245.3 374.4 245.3ZM374.4 243.1L374.4 243.1Q375.0 243.1 375.3 242.6Q375.5 242.2 375.5 241.6L375.5 241.6L375.5 240.8Q375.5 240.3 375.3 239.8Q375.1 239.3 374.4 239.3L374.4 239.3Q373.7 239.3 373.4 239.8Q373.2 240.3 373.2 240.8L373.2 240.8L373.2 241.6Q373.2 242.2 373.5 242.6Q373.7 243.1 374.4 243.1ZM364.1 245L361.7 245L372.7 229.0L375.1 229.0L364.1 245Z "/></g><mask id="satori_om-id-0-2-0-1-2-1"><rect x="317" y="254" width="81" height="13" fill="#fff"/></mask><g  ><path fill="#9ca3af" d="M321.2 265.1L321.2 265.1Q320.2 265.1 319.4 264.6Q318.5 264.1 318.1 263.2Q317.6 262.3 317.6 261.0L317.6 261.0Q317.6 259.7 318.1 258.8Q318.5 257.9 319.4 257.4Q320.2 256.9 321.2 256.9L321.2 256.9Q321.8 256.9 322.4 257.1Q323.0 257.3 323.4 257.6Q323.8 258.0 324.1 258.5Q324.4 259.0 324.5 259.6L324.5 259.6L323.3 259.6Q323.2 259.2 323.0 258.9Q322.8 258.6 322.5 258.4Q322.3 258.2 321.9 258.1Q321.6 258.0 321.2 258.0L321.2 258.0Q320.5 258.0 320.0 258.4Q319.4 258.7 319.1 259.4Q318.8 260.0 318.8 261.0L318.8 261.0Q318.8 262.0 319.1 262.6Q319.5 263.3 320.0 263.6Q320.5 264.0 321.2 264.0L321.2 264.0Q321.6 264.0 321.9 263.9Q322.3 263.8 322.5 263.6Q322.8 263.4 323.0 263.1Q323.2 262.8 323.3 262.4L323.3 262.4L324.5 262.4Q324.4 263.0 324.1 263.5Q323.9 264.0 323.4 264.4Q323.0 264.7 322.4 264.9Q321.9 265.1 321.2 265.1ZM328.4 265.1L328.4 265.1Q327.5 265.1 326.9 264.7Q326.3 264.4 325.9 263.7Q325.6 263.0 325.6 262.0L325.6 262.0Q325.6 261.1 325.9 260.4Q326.3 259.7 326.9 259.3Q327.5 258.9 328.4 258.9L328.4 258.9Q329.2 258.9 329.9 259.3Q330.5 259.7 330.8 260.4Q331.2 261.1 331.2 262.0L331.2 262.0Q331.2 263.0 330.8 263.7Q330.5 264.4 329.9 264.7Q329.2 265.1 328.4 265.1ZM328.4 264.1L328.4 264.1Q328.9 264.1 329.3 263.8Q329.6 263.5 329.8 263.1Q330.0 262.6 330.0 262.0L330.0 262.0Q330.0 261.5 329.8 261.0Q329.6 260.5 329.3 260.2Q328.9 259.9 328.4 259.9L328.4 259.9Q327.8 259.9 327.5 260.2Q327.1 260.5 327.0 261.0Q326.8 261.4 326.8 262.0L326.8 262.0Q326.8 262.6 327.0 263.1Q327.1 263.5 327.5 263.8Q327.8 264.1 328.4 264.1ZM335.5 265L334.2 265L332.0 259.0L333.2 259.0L334.4 262.4Q334.6 263.0 334.8 263.5L334.8 263.5Q334.8 263.8 334.9 264.0L334.9 264.0Q334.9 263.8 335.0 263.5L335.0 263.5Q335.1 263.0 335.3 262.4L335.3 262.4L336.5 259.0L337.8 259.0L335.5 265ZM341.4 265.1L341.4 265.1Q340.5 265.1 339.9 264.7Q339.2 264.4 338.9 263.7Q338.5 263.0 338.5 262.0L338.5 262.0Q338.5 261.1 338.9 260.4Q339.2 259.7 339.9 259.3Q340.5 258.9 341.3 258.9L341.3 258.9Q341.8 258.9 342.3 259.1Q342.8 259.3 343.2 259.6Q343.5 260.0 343.8 260.6Q344.0 261.1 344.0 261.9L344.0 261.9L344.0 262.4L339.7 262.4Q339.8 262.9 340.0 263.3L340.0 263.3Q340.2 263.7 340.5 263.9Q340.9 264.1 341.4 264.1L341.4 264.1Q341.8 264.1 342.0 264.1Q342.3 264.0 342.5 263.8Q342.7 263.6 342.8 263.3L342.8 263.3L343.9 263.6Q343.8 264.0 343.4 264.4Q343.1 264.7 342.6 264.9Q342.1 265.1 341.4 265.1ZM339.7 261.5L339.7 261.5L342.8 261.5Q342.8 261.1 342.7 260.8L342.7 260.8Q342.5 260.4 342.2 260.1Q341.8 259.9 341.3 259.9L341.3 259.9Q340.8 259.9 340.5 260.1Q340.1 260.4 339.9 260.8L339.9 260.8Q339.8 261.1 339.7 261.5ZM346.5 265L345.3 265L345.3 259.0L346.4 259.0L346.4 260.0L346.5 260.0Q346.7 259.5 347.1 259.2Q347.5 258.9 348.0 258.9L348.0 258.9Q348.1 258.9 348.3 258.9Q348.4 258.9 348.5 258.9L348.5 258.9L348.5 260.1Q348.5 260.0 348.3 260.0Q348.1 260.0 347.9 260.0L347.9 260.0Q347.5 260.0 347.2 260.2Q346.8 260.3 346.7 260.7Q346.5 261.0 346.5 261.4L346.5 261.4L346.5 265ZM351.2 265.1L351.2 265.1Q350.7 265.1 350.2 264.9Q349.7 264.7 349.5 264.3Q349.2 263.9 349.2 263.3L349.2 263.3Q349.2 262.8 349.4 262.5Q349.6 262.1 349.9 261.9Q350.3 261.8 350.7 261.7Q351.1 261.6 351.5 261.5L351.5 261.5Q352.0 261.4 352.4 261.4Q352.7 261.4 352.9 261.3Q353.0 261.2 353.0 261.0L353.0 261.0L353.0 260.9Q353.0 260.6 352.9 260.4Q352.8 260.1 352.5 260.0Q352.3 259.9 351.9 259.9L351.9 259.9Q351.5 259.9 351.2 260.0Q350.9 260.1 350.7 260.3Q350.6 260.5 350.5 260.7L350.5 260.7L349.4 260.4Q349.6 259.9 350.0 259.5Q350.3 259.2 350.8 259.1Q351.3 258.9 351.8 258.9L351.8 258.9Q352.2 258.9 352.6 259.0Q353.0 259.1 353.4 259.3Q353.7 259.5 354.0 260.0Q354.2 260.4 354.2 261.0L354.2 261.0L354.2 265L353.1 265L353.1 264.2L353.0 264.2Q352.9 264.4 352.6 264.6Q352.4 264.8 352.1 265.0Q351.7 265.1 351.2 265.1ZM351.5 264.2L351.5 264.2Q352.0 264.2 352.3 264.0Q352.7 263.8 352.8 263.5Q353.0 263.2 353.0 262.8L353.0 262.8L353.0 262.1Q353.0 262.1 352.8 262.2Q352.6 262.2 352.4 262.3Q352.1 262.3 351.9 262.3Q351.7 262.4 351.6 262.4L351.6 262.4Q351.2 262.4 351.0 262.5Q350.7 262.6 350.5 262.8Q350.4 263.0 350.4 263.3L350.4 263.3Q350.4 263.6 350.5 263.8Q350.6 264.0 350.9 264.1Q351.2 264.2 351.5 264.2ZM358.3 267.4L358.3 267.4Q357.6 267.4 357.1 267.2Q356.6 267.0 356.3 266.7Q355.9 266.4 355.8 266.1L355.8 266.1L356.7 265.6Q356.8 265.8 357.0 266.0Q357.2 266.2 357.5 266.3Q357.8 266.4 358.3 266.4L358.3 266.4Q359.0 266.4 359.4 266.1Q359.8 265.8 359.8 265.1L359.8 265.1L359.8 263.9L359.7 263.9Q359.6 264.1 359.4 264.3Q359.2 264.6 358.9 264.7Q358.6 264.9 358.0 264.9L358.0 264.9Q357.3 264.9 356.7 264.6Q356.2 264.2 355.8 263.6Q355.5 262.9 355.5 262.0L355.5 262.0Q355.5 261.0 355.8 260.3Q356.2 259.7 356.7 259.3Q357.3 258.9 358.0 258.9L358.0 258.9Q358.6 258.9 358.9 259.1Q359.3 259.3 359.5 259.5Q359.7 259.8 359.8 260.0L359.8 260.0L359.9 260.0L359.9 259.0L361.0 259.0L361.0 265.1Q361.0 265.9 360.7 266.4Q360.3 266.9 359.7 267.1Q359.1 267.4 358.3 267.4ZM358.3 263.9L358.3 263.9Q358.8 263.9 359.1 263.7Q359.5 263.5 359.7 263.0Q359.8 262.6 359.8 262.0L359.8 262.0Q359.8 261.4 359.7 260.9Q359.5 260.4 359.1 260.2Q358.8 259.9 358.3 259.9L358.3 259.9Q357.8 259.9 357.4 260.2Q357.1 260.5 356.9 260.9Q356.7 261.4 356.7 262.0L356.7 262.0Q356.7 262.5 356.9 263.0Q357.1 263.4 357.4 263.7Q357.8 263.9 358.3 263.9ZM365.2 265.1L365.2 265.1Q364.3 265.1 363.7 264.7Q363.0 264.4 362.7 263.7Q362.3 263.0 362.3 262.0L362.3 262.0Q362.3 261.1 362.7 260.4Q363.0 259.7 363.6 259.3Q364.3 258.9 365.1 258.9L365.1 258.9Q365.6 258.9 366.1 259.1Q366.6 259.3 366.9 259.6Q367.3 260.0 367.6 260.6Q367.8 261.1 367.8 261.9L367.8 261.9L367.8 262.4L363.5 262.4Q363.5 262.9 363.7 263.3L363.7 263.3Q363.9 263.7 364.3 263.9Q364.7 264.1 365.2 264.1L365.2 264.1Q365.5 264.1 365.8 264.1Q366.1 264.0 366.3 263.8Q366.5 263.6 366.6 263.3L366.6 263.3L367.7 263.6Q367.5 264.0 367.2 264.4Q366.9 264.7 366.3 264.9Q365.8 265.1 365.2 265.1ZM363.5 261.5L363.5 261.5L366.6 261.5Q366.6 261.1 366.4 260.8L366.4 260.8Q366.3 260.4 365.9 260.1Q365.6 259.9 365.1 259.9L365.1 259.9Q364.6 259.9 364.2 260.1Q363.9 260.4 363.7 260.8L363.7 260.8Q363.5 261.1 363.5 261.5Z "/></g><mask id="satori_ms-id-0-3-0" maskUnits="userSpaceOnUse"><rect x="0" y="0" width="520" height="440" fill="#fff"/><path x="260" y="325" width="153" height="24" fill="#000"  stroke-width="0" d="M272,325 h129 a12,12 0 0 1 12,12 v0 a12,12 0 0 1 -12,12 h-129 a12,12 0 0 1 -12,-12 v0 a12,12 0 0 1 12,-12" transform="matrix(1.00,0.00,0.00,1.00,-76.50,0.00)"/></mask><defs><filter id="satori_s-id-0-3-0" x="-5.88235294117647%" y="-37.5%" width="111.76470588235294%" height="175%"><feGaussianBlur stdDeviation="3" result="b"/><feFlood flood-color="rgba(0,0,0,0.08)" in="SourceGraphic" result="f"/><feComposite in="f" in2="b" operator="in"/></filter></defs><g mask="url(#satori_ms-id-0-3-0)" filter="url(#satori_s-id-0-3-0)" opacity="1"><path x="260" y="327" width="153" height="24" fill="#fff" stroke="#fff" stroke-width="0" d="M272,327 h129 a12,12 0 0 1 12,12 v0 a12,12 0 0 1 -12,12 h-129 a12,12 0 0 1 -12,-12 v0 a12,12 0 0 1 12,-12" transform="matrix(1.00,0.00,0.00,1.00,-76.50,0.00)"/></g><mask id="satori_om-id-0-3"><rect x="260" y="325" width="153" height="24" fill="#fff"/></mask><path x="260" y="325" width="153" height="24" fill="#1a1a1a" d="M272,325 h129 a12,12 0 0 1 12,12 v0 a12,12 0 0 1 -12,12 h-129 a12,12 0 0 1 -12,-12 v0 a12,12 0 0 1 12,-12" transform="matrix(1.00,0.00,0.00,1.00,-76.50,0.00)"/><g  ><path fill="#ffffff" d="M276.0 340.6L274.8 340.6L274.8 338.7L272.9 338.7L272.9 337.5L274.8 337.5L274.8 335.6L276.0 335.6L276.0 337.5L277.9 337.5L277.9 338.7L276.0 338.7L276.0 340.6Z M284.0 333.7L285.6 333.7L285.6 341L284.1 341L284.1 335.0L284.1 335.0L282.4 336.2L282.4 334.9L284.0 333.7ZM290.6 339.7L287.2 339.7L287.2 338.5L290.2 333.7L292.1 333.7L292.1 338.5L293.0 338.5L293.0 339.7L292.1 339.7L292.1 341L290.6 341L290.6 339.7ZM288.7 338.5L290.7 338.5L290.7 335.4L290.6 335.4L288.7 338.4L288.7 338.5Z M298.7 341L297.3 341L297.3 333.7L299.5 333.7L300.7 337.1Q300.8 337.3 300.9 337.7Q301.0 338.0 301.1 338.5L301.1 338.5Q301.2 338.9 301.3 339.3L301.3 339.3Q301.3 338.9 301.4 338.5L301.4 338.5Q301.5 338.1 301.6 337.7Q301.7 337.3 301.8 337.1L301.8 337.1L303.0 333.7L305.3 333.7L305.3 341L303.8 341L303.8 337.6Q303.8 337.3 303.8 337.0Q303.8 336.6 303.8 336.2Q303.8 335.8 303.8 335.4L303.8 335.4Q303.8 335.2 303.8 335.0L303.8 335.0Q303.8 335.2 303.7 335.4L303.7 335.4Q303.6 335.9 303.5 336.3Q303.4 336.7 303.3 337.0Q303.2 337.3 303.1 337.6L303.1 337.6L301.9 341L300.6 341L299.4 337.6Q299.3 337.3 299.2 337.0Q299.1 336.7 299.0 336.3Q298.9 335.9 298.8 335.4L298.8 335.4Q298.7 335.2 298.7 335.1L298.7 335.1Q298.7 335.2 298.7 335.4L298.7 335.4Q298.7 335.8 298.7 336.2Q298.7 336.6 298.7 337.0Q298.7 337.3 298.7 337.6L298.7 337.6L298.7 341ZM310.2 341.1L310.2 341.1Q309.2 341.1 308.4 340.7Q307.7 340.2 307.2 339.4Q306.8 338.5 306.8 337.4L306.8 337.4Q306.8 336.2 307.2 335.3Q307.7 334.5 308.4 334.1Q309.2 333.6 310.2 333.6L310.2 333.6Q311.1 333.6 311.9 334.1Q312.7 334.5 313.1 335.3Q313.6 336.2 313.6 337.4L313.6 337.4Q313.6 338.5 313.1 339.4Q312.7 340.2 311.9 340.7Q311.1 341.1 310.2 341.1ZM310.2 339.8L310.2 339.8Q310.7 339.8 311.2 339.5Q311.6 339.2 311.8 338.7Q312.0 338.1 312.0 337.4L312.0 337.4Q312.0 336.6 311.8 336.0Q311.6 335.5 311.2 335.2Q310.7 335.0 310.2 335.0L310.2 335.0Q309.6 335.0 309.2 335.2Q308.8 335.5 308.5 336.0Q308.3 336.6 308.3 337.4L308.3 337.4Q308.3 338.1 308.5 338.7Q308.8 339.2 309.2 339.5Q309.6 339.8 310.2 339.8ZM316.6 341L315.1 341L315.1 333.7L317.9 333.7Q318.7 333.7 319.3 334.0Q319.9 334.3 320.2 334.8Q320.5 335.4 320.5 336.1Q320.5 336.8 320.2 337.3Q319.9 337.9 319.3 338.1L319.3 338.1Q319.3 338.1 319.2 338.2L319.2 338.2L320.8 341L319.1 341L317.7 338.4L316.6 338.4L316.6 341ZM316.6 335.0L316.6 337.2L317.6 337.2Q318.1 337.2 318.4 337.1Q318.7 336.9 318.8 336.7Q319.0 336.5 319.0 336.1L319.0 336.1Q319.0 335.7 318.8 335.5Q318.7 335.2 318.4 335.1Q318.1 335.0 317.6 335.0L317.6 335.0L316.6 335.0ZM326.9 341L322.0 341L322.0 333.7L326.9 333.7L326.9 335.0L323.5 335.0L323.5 336.7L326.7 336.7L326.7 337.9L323.5 337.9L323.5 339.8L326.9 339.8L326.9 341Z M332.5 341L330.9 341L333.4 333.7L335.3 333.7L337.9 341L336.2 341L335.6 339.3L333.1 339.3L332.5 341ZM333.4 338.1L335.3 338.1L335.0 337.5Q334.8 336.8 334.6 336L334.6 336Q334.5 335.5 334.3 334.9L334.3 334.9Q334.2 335.5 334.0 336.0L334.0 336.0Q333.8 336.8 333.6 337.5L333.6 337.5L333.4 338.1ZM341.1 335.0L338.9 335.0L338.9 333.7L344.8 333.7L344.8 335.0L342.6 335.0L342.6 341L341.1 341L341.1 335.0ZM348.2 335.0L345.9 335.0L345.9 333.7L351.9 333.7L351.9 335.0L349.7 335.0L349.7 341L348.2 341L348.2 335.0ZM358.2 341L353.3 341L353.3 333.7L358.2 333.7L358.2 335.0L354.8 335.0L354.8 336.7L357.9 336.7L357.9 337.9L354.8 337.9L354.8 339.8L358.2 339.8L358.2 341ZM361.3 341L359.8 341L359.8 333.7L361.4 333.7L363.7 337.4Q363.9 337.7 364.1 338.0Q364.3 338.4 364.5 338.8L364.5 338.8Q364.6 339.0 364.6 339.2L364.6 339.2Q364.6 339.0 364.6 338.8L364.6 338.8Q364.6 338.3 364.6 337.9Q364.6 337.5 364.6 337.2L364.6 337.2L364.6 333.7L366.1 333.7L366.1 341L364.4 341L362.3 337.7Q362.1 337.3 361.9 336.9Q361.7 336.6 361.5 336.1L361.5 336.1Q361.4 335.9 361.2 335.6L361.2 335.6Q361.2 335.9 361.2 336.1L361.2 336.1Q361.3 336.6 361.3 337.0Q361.3 337.4 361.3 337.7L361.3 337.7L361.3 341ZM370.4 341L370.4 341L367.8 341L367.8 333.7L370.4 333.7Q371.5 333.7 372.3 334.2Q373.1 334.6 373.5 335.4Q373.9 336.2 373.9 337.4L373.9 337.4Q373.9 338.5 373.5 339.3Q373.1 340.1 372.3 340.6Q371.5 341 370.4 341ZM369.3 335.0L369.3 339.7L370.3 339.7Q371.0 339.7 371.5 339.5Q371.9 339.2 372.2 338.7Q372.4 338.2 372.4 337.4L372.4 337.4Q372.4 336.5 372.2 336.0Q371.9 335.5 371.5 335.3Q371.0 335.0 370.3 335.0L370.3 335.0L369.3 335.0ZM375.4 333.7L376.9 333.7L376.9 341L375.4 341L375.4 333.7ZM380.2 341L378.6 341L378.6 333.7L380.3 333.7L382.6 337.4Q382.8 337.7 382.9 338.0Q383.1 338.4 383.3 338.8L383.3 338.8Q383.4 339.0 383.5 339.2L383.5 339.2Q383.5 339.0 383.5 338.8L383.5 338.8Q383.4 338.3 383.4 337.9Q383.4 337.5 383.4 337.2L383.4 337.2L383.4 333.7L384.9 333.7L384.9 341L383.3 341L381.2 337.7Q380.9 337.3 380.8 336.9Q380.6 336.6 380.3 336.1L380.3 336.1Q380.2 335.9 380.1 335.6L380.1 335.6Q380.1 335.9 380.1 336.1L380.1 336.1Q380.1 336.6 380.1 337.0Q380.2 337.4 380.2 337.7L380.2 337.7L380.2 341ZM389.9 341.1L389.9 341.1Q388.9 341.1 388.1 340.6Q387.3 340.2 386.9 339.4Q386.5 338.5 386.5 337.4L386.5 337.4Q386.5 336.2 386.9 335.4Q387.3 334.5 388.1 334.1Q388.9 333.6 389.8 333.6L389.8 333.6Q390.5 333.6 391.0 333.8Q391.5 334.0 391.9 334.3Q392.3 334.6 392.6 335.1Q392.9 335.5 392.9 336.1L392.9 336.1L391.4 336.1Q391.3 335.8 391.2 335.6Q391.1 335.4 390.9 335.2Q390.7 335.1 390.4 335.0Q390.2 335.0 389.9 335.0L389.9 335.0Q389.3 335.0 388.9 335.2Q388.4 335.5 388.2 336.0Q388.0 336.6 388.0 337.4Q388.0 338.1 388.2 338.7Q388.4 339.2 388.9 339.5Q389.3 339.8 389.9 339.8L389.9 339.8Q390.4 339.8 390.8 339.6Q391.2 339.4 391.4 339.0L391.4 339.0Q391.6 338.7 391.6 338.3L391.6 338.3L390.0 338.3L390.0 337.1L393.0 337.1L393.0 338.0Q393.0 339.0 392.6 339.7Q392.2 340.4 391.5 340.7Q390.8 341.1 389.9 341.1ZM397.2 341.1L397.2 341.1Q396.3 341.1 395.7 340.8Q395.1 340.6 394.7 340.0Q394.3 339.5 394.3 338.7L394.3 338.7L395.8 338.7Q395.8 339.1 396.0 339.4Q396.2 339.6 396.5 339.7Q396.8 339.8 397.2 339.8L397.2 339.8Q397.6 339.8 397.9 339.7Q398.2 339.6 398.4 339.4Q398.5 339.2 398.5 338.9L398.5 338.9Q398.5 338.7 398.4 338.5Q398.2 338.3 398.0 338.2Q397.7 338.1 397.3 338.0L397.3 338.0L396.5 337.8Q395.6 337.6 395.0 337.1Q394.5 336.6 394.5 335.8L394.5 335.8Q394.5 335.2 394.9 334.7Q395.2 334.2 395.8 333.9Q396.5 333.6 397.2 333.6L397.2 333.6Q398.0 333.6 398.6 333.9Q399.2 334.2 399.6 334.7Q399.9 335.2 399.9 335.8L399.9 335.8L398.5 335.8Q398.5 335.4 398.1 335.1Q397.8 334.9 397.2 334.9L397.2 334.9Q396.9 334.9 396.6 335.0Q396.3 335.1 396.2 335.3Q396.0 335.5 396.0 335.7L396.0 335.7Q396.0 336.0 396.2 336.2Q396.4 336.3 396.6 336.5Q396.9 336.6 397.2 336.6L397.2 336.6L397.9 336.8Q398.3 336.9 398.7 337.1Q399.1 337.3 399.4 337.5Q399.7 337.8 399.9 338.1Q400.0 338.5 400.0 338.9L400.0 338.9Q400.0 339.6 399.7 340.1Q399.4 340.6 398.7 340.8Q398.1 341.1 397.2 341.1Z " transform="matrix(1.00,0.00,0.00,1.00,-76.50,0.00)"/></g></svg>