<svg width="520" height="360" viewBox="0 0 520 360" xmlns="http://www.w3.org/2000/svg"><mask id="satori_om-id"><rect x="0" y="0" width="520" height="360" fill="#fff"/></mask><mask id="satori_ms-id-0-1" maskUnits="userSpaceOnUse"><rect x="0" y="0" width="520" height="360" fill="#fff"/><path x="40" y="49" width="440" height="263" fill="#000"  stroke-width="0" d="M60,49 h400 a20,20 0 0 1 20,20 v223 a20,20 0 0 1 -20,20 h-400 a20,20 0 0 1 -20,-20 v-223 a20,20 0 0 1 20,-20" transform="matrix(1.00,-0.02,0.02,1.00,-3.11,4.57)"/></mask><defs><filter id="satori_s-id-0-1" x="-8.181818181818182%" y="-13.688212927756654%" width="116.36363636363636%" height="127.3764258555133%"><feGaussianBlur stdDeviation="6" result="b"/><feFlood flood-color="rgba(0,0,0,0.04)" in="SourceGraphic" result="f"/><feComposite in="f" in2="b" operator="in"/></filter></defs><g mask="url(#satori_ms-id-0-1)" filter="url(#satori_s-id-0-1)" opacity="1"><path x="40" y="53" width="440" height="263" fill="#fff" stroke="#fff" stroke-width="0" d="M60,53 h400 a20,20 0 0 1 20,20 v223 a20,20 0 0 1 -20,20 h-400 a20,20 0 0 1 -20,-20 v-223 a20,20 0 0 1 20,-20" transform="matrix(1.00,-0.02,0.02,1.00,-3.11,4.57)"/></g><mask id="satori_ms-id-0-0" maskUnits="userSpaceOnUse"><rect x="0" y="0" width="520" height="360" fill="#fff"/><path x="40" y="49" width="440" height="263" fill="#000"  stroke-width="0" d="M60,49 h400 a20,20 0 0 1 20,20 v223 a20,20 0 0 1 -20,20 h-400 a20,20 0 0 1 -20,-20 v-223 a20,20 0 0 1 20,-20" transform="matrix(1.00,-0.02,0.02,1.00,-3.11,4.57)"/></mask><defs><filter id="satori_s-id-0-0" x="-0.22727272727272727%" y="-0.38022813688212925%" width="100.45454545454547%" height="100.76045627376426%"><feGaussianBlur stdDeviation="1" result="b"/><feFlood flood-color="rgba(0,0,0,0.03)" in="SourceGraphic" result="f"/><feComposite in="f" in2="b" operator="in"/></filter></defs><g mask="url(#satori_ms-id-0-0)" filter="url(#satori_s-id-0-0)" opacity="1"><path x="40" y="50" width="440" height="263" fill="#fff" stroke="#fff" stroke-width="0" d="M60,50 h400 a20,20 0 0 1 20,20 v223 a20,20 0 0 1 -20,20 h-400 a20,20 0 0 1 -20,-20 v-223 a20,20 0 0 1 20,-20" transform="matrix(1.00,-0.02,0.02,1.00,-3.11,4.57)"/></g><mask id="satori_om-id-0"><rect x="40" y="49" width="440" height="263" fill="#fff"/></mask><path x="40" y="49" width="440" height="263" fill="#fff" d="M60,49 h400 a20,20 0 0 1 20,20 v223 a20,20 0 0 1 -20,20 h-400 a20,20 0 0 1 -20,-20 v-223 a20,20 0 0 1 20,-20" transform="matrix(1.00,-0.02,0.02,1.00,-3.11,4.57)"/><mask id="satori_om-id-0-0"><rect x="72" y="81" width="376" height="23" fill="#fff"/></mask><mask id="satori_om-id-0-0-0"><rect x="72" y="81" width="141" height="23" fill="#fff"/></mask><g  ><path fill="#1a1a1a" d="M78.9 99.2L78.9 99.2Q77.2 99.2 75.8 98.4Q74.4 97.6 73.6 96.1Q72.8 94.6 72.8 92.5L72.8 92.5Q72.8 90.3 73.6 88.8Q74.4 87.3 75.8 86.5Q77.2 85.7 78.9 85.7L78.9 85.7Q80.0 85.7 81.0 86.0Q81.9 86.4 82.7 87.0Q83.4 87.5 83.9 88.4Q84.4 89.3 84.5 90.4L84.5 90.4L81.8 90.4Q81.7 89.8 81.5 89.4Q81.2 89.0 80.9 88.7Q80.5 88.4 80.0 88.3Q79.5 88.1 79.0 88.1L79.0 88.1Q77.9 88.1 77.2 88.6Q76.4 89.1 76.0 90.1Q75.6 91.1 75.6 92.5L75.6 92.5Q75.6 93.9 76.0 94.8Q76.4 95.8 77.2 96.3Q77.9 96.8 79.0 96.8L79.0 96.8Q79.5 96.8 80.0 96.6Q80.5 96.5 80.9 96.2Q81.2 95.9 81.5 95.5Q81.7 95.1 81.8 94.5L81.8 94.5L84.6 94.5Q84.4 95.4 84.0 96.3Q83.6 97.1 82.9 97.8Q82.1 98.4 81.1 98.8Q80.1 99.2 78.9 99.2ZM89.2 99.2L89.2 99.2Q88.3 99.2 87.5 98.9Q86.8 98.5 86.3 97.9Q85.9 97.2 85.9 96.2L85.9 96.2Q85.9 95.4 86.2 94.9Q86.5 94.3 87.0 94.0Q87.6 93.7 88.2 93.5Q88.9 93.3 89.6 93.2L89.6 93.2Q90.5 93.1 91.0 93.1Q91.5 93.0 91.8 92.8Q92.0 92.7 92.0 92.4L92.0 92.4L92.0 92.3Q92.0 91.9 91.8 91.6Q91.7 91.3 91.3 91.2Q91.0 91.0 90.5 91.0L90.5 91.0Q90.0 91.0 89.6 91.2Q89.2 91.3 89.0 91.6Q88.7 91.8 88.6 92.1L88.6 92.1L86.2 91.7Q86.4 90.9 87.0 90.3Q87.6 89.7 88.5 89.4Q89.4 89.1 90.5 89.1L90.5 89.1Q91.3 89.1 92.0 89.2Q92.8 89.4 93.4 89.8Q93.9 90.2 94.3 90.9Q94.6 91.5 94.6 92.4L94.6 92.4L94.6 99L92.1 99L92.1 97.6L92.1 97.6Q91.8 98.1 91.4 98.4Q91.0 98.8 90.5 99.0Q89.9 99.2 89.2 99.2ZM89.9 97.3L89.9 97.3Q90.6 97.3 91.0 97.1Q91.5 96.8 91.8 96.4Q92.0 96.0 92.0 95.5L92.0 95.5L92.0 94.4Q91.9 94.5 91.7 94.6Q91.4 94.6 91.1 94.7Q90.9 94.8 90.6 94.8Q90.3 94.8 90.1 94.9L90.1 94.9Q89.6 94.9 89.2 95.1Q88.8 95.3 88.6 95.5Q88.4 95.8 88.4 96.2L88.4 96.2Q88.4 96.6 88.6 96.8Q88.8 97.1 89.2 97.2Q89.5 97.3 89.9 97.3ZM96.9 85.9L99.5 85.9L99.5 99L96.9 99L96.9 85.9ZM101.8 85.9L104.4 85.9L104.4 99L101.8 99L101.8 85.9Z M115.6 99L115.6 99L111.0 99L111.0 85.9L115.6 85.9Q117.6 85.9 119.0 86.7Q120.4 87.5 121.2 88.9Q122.0 90.4 122.0 92.4L122.0 92.4Q122.0 94.5 121.2 96.0Q120.4 97.4 119.0 98.2Q117.6 99 115.6 99ZM113.7 88.2L113.7 96.7L115.4 96.7Q116.7 96.7 117.6 96.2Q118.4 95.8 118.9 94.9Q119.3 93.9 119.3 92.4L119.3 92.4Q119.3 91.0 118.9 90.0Q118.4 89.1 117.6 88.7Q116.7 88.2 115.5 88.2L115.5 88.2L113.7 88.2ZM126.5 99L123.9 99L123.9 89.2L126.5 89.2L126.5 99ZM125.2 87.9L125.2 87.9Q124.6 87.9 124.2 87.5Q123.8 87.1 123.8 86.5L123.8 86.5Q123.8 86.0 124.2 85.6Q124.6 85.2 125.2 85.2L125.2 85.2Q125.8 85.2 126.3 85.6Q126.7 86.0 126.7 86.5L126.7 86.5Q126.7 87.1 126.3 87.5Q125.8 87.9 125.2 87.9ZM132.7 99.2L132.7 99.2Q131.5 99.2 130.6 98.9Q129.7 98.5 129.1 97.9Q128.5 97.2 128.3 96.3L128.3 96.3L130.8 95.9Q131.0 96.6 131.5 96.9Q132.0 97.3 132.8 97.3L132.8 97.3Q133.5 97.3 134.0 97.0Q134.4 96.7 134.4 96.2L134.4 96.2Q134.4 95.9 134.1 95.6Q133.8 95.4 133.1 95.2L133.1 95.2L131.4 94.9Q130.0 94.6 129.3 93.9Q128.6 93.2 128.6 92.1L128.6 92.1Q128.6 91.2 129.1 90.5Q129.6 89.8 130.6 89.4Q131.5 89.1 132.7 89.1L132.7 89.1Q133.9 89.1 134.7 89.4Q135.6 89.7 136.1 90.3Q136.7 90.9 136.8 91.7L136.8 91.7L134.5 92.1Q134.3 91.6 133.9 91.3Q133.5 90.9 132.8 90.9L132.8 90.9Q132.1 90.9 131.7 91.2Q131.2 91.5 131.2 91.9L131.2 91.9Q131.2 92.3 131.5 92.6Q131.8 92.8 132.5 93.0L132.5 93.0L134.3 93.3Q135.7 93.6 136.4 94.3Q137.1 94.9 137.1 96.0L137.1 96.0Q137.1 96.9 136.5 97.7Q136.0 98.4 135.0 98.8Q134.0 99.2 132.7 99.2ZM141.9 89.2L143.7 89.2L143.7 91.2L141.9 91.2L141.9 96.1Q141.9 96.6 142.1 96.8Q142.3 97.0 142.8 97.0L142.8 97.0Q143.0 97.0 143.2 97.0Q143.5 97.0 143.6 96.9L143.6 96.9L144.0 98.9Q143.6 99.0 143.1 99.1Q142.7 99.1 142.3 99.1L142.3 99.1Q140.8 99.1 140.1 98.4Q139.3 97.7 139.3 96.4L139.3 96.4L139.3 91.2L137.9 91.2L137.9 89.2L139.3 89.2L139.3 86.8L141.9 86.8L141.9 89.2ZM148.1 99L145.5 99L145.5 89.2L148.0 89.2L148.0 90.9L148.1 90.9Q148.4 90.0 149.0 89.5Q149.7 89.0 150.5 89.0L150.5 89.0Q150.7 89.0 150.9 89.1Q151.2 89.1 151.3 89.1L151.3 89.1L151.3 91.5Q151.2 91.4 150.8 91.4Q150.5 91.4 150.2 91.4L150.2 91.4Q149.6 91.4 149.1 91.6Q148.6 91.9 148.4 92.3Q148.1 92.8 148.1 93.4L148.1 93.4L148.1 99ZM155.4 99L152.8 99L152.8 89.2L155.4 89.2L155.4 99ZM154.1 87.9L154.1 87.9Q153.5 87.9 153.1 87.5Q152.7 87.1 152.7 86.5L152.7 86.5Q152.7 86.0 153.1 85.6Q153.5 85.2 154.1 85.2L154.1 85.2Q154.7 85.2 155.1 85.6Q155.6 86.0 155.6 86.5L155.6 86.5Q155.6 87.1 155.1 87.5Q154.7 87.9 154.1 87.9ZM163.2 99.2L163.2 99.2Q162.4 99.2 161.8 98.9Q161.3 98.6 160.9 98.2Q160.6 97.8 160.4 97.4L160.4 97.4L160.3 97.4L160.3 99L157.7 99L157.7 85.9L160.3 85.9L160.3 90.8L160.4 90.8Q160.6 90.4 160.9 90.0Q161.2 89.6 161.8 89.3Q162.4 89.1 163.2 89.1L163.2 89.1Q164.3 89.1 165.2 89.6Q166.1 90.2 166.6 91.3Q167.2 92.4 167.2 94.1L167.2 94.1Q167.2 95.7 166.6 96.9Q166.1 98.0 165.2 98.6Q164.3 99.2 163.2 99.2ZM162.4 97.0L162.4 97.0Q163.0 97.0 163.5 96.7Q164.0 96.3 164.2 95.6Q164.5 95.0 164.5 94.1L164.5 94.1Q164.5 93.2 164.2 92.6Q164.0 91.9 163.5 91.5Q163.1 91.2 162.4 91.2L162.4 91.2Q161.7 91.2 161.2 91.5Q160.7 91.9 160.5 92.5Q160.2 93.2 160.2 94.1L160.2 94.1Q160.2 95.0 160.5 95.6Q160.7 96.3 161.2 96.7Q161.7 97.0 162.4 97.0ZM172.4 99.1L172.4 99.1Q171.4 99.1 170.6 98.7Q169.8 98.2 169.4 97.4Q169.0 96.6 169.0 95.4L169.0 95.4L169.0 89.2L171.7 89.2L171.7 95.0Q171.7 95.9 172.1 96.4Q172.6 96.9 173.4 96.9L173.4 96.9Q174.0 96.9 174.4 96.7Q174.8 96.4 175.1 96.0Q175.3 95.5 175.3 94.9L175.3 94.9L175.3 89.2L178.0 89.2L178.0 99L175.5 99L175.5 97.0Q175.1 97.9 174.4 98.5L174.4 98.5Q173.6 99.1 172.4 99.1ZM183.3 89.2L185.1 89.2L185.1 91.2L183.3 91.2L183.3 96.1Q183.3 96.6 183.5 96.8Q183.7 97.0 184.2 97.0L184.2 97.0Q184.3 97.0 184.6 97.0Q184.9 97.0 185.0 96.9L185.0 96.9L185.4 98.9Q184.9 99.0 184.5 99.1Q184.1 99.1 183.7 99.1L183.7 99.1Q182.2 99.1 181.4 98.4Q180.6 97.7 180.6 96.4L180.6 96.4L180.6 91.2L179.3 91.2L179.3 89.2L180.6 89.2L180.6 86.8L183.3 86.8L183.3 89.2ZM189.4 99L186.8 99L186.8 89.2L189.4 89.2L189.4 99ZM188.1 87.9L188.1 87.9Q187.5 87.9 187.1 87.5Q186.7 87.1 186.7 86.5L186.7 86.5Q186.7 86.0 187.1 85.6Q187.5 85.2 188.1 85.2L188.1 85.2Q188.7 85.2 189.2 85.6Q189.6 86.0 189.6 86.5L189.6 86.5Q189.6 87.1 189.2 87.5Q188.7 87.9 188.1 87.9ZM196.1 99.2L196.1 99.2Q194.6 99.2 193.5 98.6Q192.4 97.9 191.9 96.8Q191.3 95.6 191.3 94.1L191.3 94.1Q191.3 92.6 191.9 91.5Q192.4 90.3 193.5 89.7Q194.6 89.1 196.1 89.1L196.1 89.1Q197.6 89.1 198.6 89.7Q199.7 90.3 200.3 91.5Q200.9 92.6 200.9 94.1L200.9 94.1Q200.9 95.6 200.3 96.8Q199.7 97.9 198.6 98.6Q197.6 99.2 196.1 99.2ZM196.1 97.1L196.1 97.1Q196.8 97.1 197.3 96.7Q197.7 96.3 198.0 95.7Q198.2 95.0 198.2 94.1L198.2 94.1Q198.2 93.3 198.0 92.6Q197.7 91.9 197.3 91.5Q196.8 91.1 196.1 91.1L196.1 91.1Q195.4 91.1 194.9 91.5Q194.4 91.9 194.2 92.6Q194.0 93.3 194.0 94.1L194.0 94.1Q194.0 95.0 194.2 95.7Q194.4 96.3 194.9 96.7Q195.4 97.1 196.1 97.1ZM205.4 93.3L205.4 93.3L205.4 99L202.7 99L202.7 89.2L205.2 89.2L205.3 91.2Q205.6 90.3 206.3 89.7L206.3 89.7Q207.1 89.1 208.3 89.1L208.3 89.1Q209.3 89.1 210.1 89.5Q210.8 89.9 211.3 90.8Q211.7 91.6 211.7 92.8L211.7 92.8L211.7 99L209.0 99L209.0 93.2Q209.0 92.3 208.6 91.8Q208.1 91.3 207.3 91.3L207.3 91.3Q206.7 91.3 206.3 91.5Q205.8 91.7 205.6 92.2Q205.4 92.7 205.4 93.3Z " transform="matrix(1.00,-0.02,0.02,1.00,-3.11,4.57)"/></g><mask id="satori_om-id-0-0-1"><rect x="365" y="82" width="83" height="21" fill="#fff"/></mask><path x="365" y="82" width="83" height="21" fill="#f3f4f6" d="M375.5,82 h62 a10.5,10.5 0 0 1 10.5,10.5 v0 a10.5,10.5 0 0 1 -10.5,10.5 h-62 a10.5,10.5 0 0 1 -10.5,-10.5 v0 a10.5,10.5 0 0 1 10.5,-10.5" transform="matrix(1.00,-0.02,0.02,1.00,-3.11,4.57)"/><g  ><path fill="#6b7280" d="M378.0 97.1L378.0 97.1Q376.8 97.1 376.1 96.5Q375.4 95.8 375.4 94.6L375.4 94.6L375.4 94.2L376.9 94.2L376.9 94.6Q376.9 95.3 377.2 95.6Q377.5 95.9 378.0 95.9L378.0 95.9Q378.5 95.9 378.8 95.6Q379.2 95.3 379.2 94.6L379.2 94.6L379.2 89.0L380.6 89.0L380.6 94.6Q380.6 95.8 379.9 96.5Q379.2 97.1 378.0 97.1ZM385.9 97.1L385.9 97.1Q384.9 97.1 384.2 96.8Q383.4 96.4 383.0 95.7Q382.6 95.1 382.6 94.2L382.6 94.2L382.6 89.0L384.1 89.0L384.1 94.1Q384.1 94.6 384.3 95.0Q384.5 95.4 384.9 95.6Q385.3 95.8 385.9 95.8L385.9 95.8Q386.4 95.8 386.8 95.6Q387.2 95.4 387.5 95.0Q387.7 94.6 387.7 94.1L387.7 94.1L387.7 89.0L389.1 89.0L389.1 94.2Q389.1 95.1 388.7 95.7Q388.3 96.4 387.6 96.8Q386.8 97.1 385.9 97.1ZM396.1 97L391.2 97L391.2 89.0L392.6 89.0L392.6 95.8L396.1 95.8L396.1 97Z M402.0 94.1L402.0 94.1Q401.6 94.1 401.4 93.8Q401.1 93.6 401.1 93.2L401.1 93.2Q401.1 92.8 401.4 92.6Q401.6 92.3 402.0 92.3L402.0 92.3Q402.3 92.3 402.6 92.6Q402.8 92.8 402.8 93.2L402.8 93.2Q402.8 93.6 402.6 93.8Q402.3 94.1 402.0 94.1Z M413.6 97L408.1 97L408.1 96.0L410.9 93.2Q411.3 92.8 411.5 92.5Q411.8 92.2 411.9 91.9Q412.1 91.6 412.1 91.3L412.1 91.3Q412.1 90.9 411.9 90.6Q411.7 90.4 411.4 90.2Q411.1 90.1 410.7 90.1L410.7 90.1Q410.3 90.1 410.0 90.2Q409.7 90.4 409.6 90.7Q409.4 91.0 409.4 91.4L409.4 91.4L408.1 91.4Q408.1 90.6 408.4 90.1Q408.7 89.5 409.4 89.2Q410.0 88.9 410.8 88.9L410.8 88.9Q411.6 88.9 412.2 89.2Q412.8 89.5 413.1 90.0Q413.5 90.5 413.5 91.2L413.5 91.2Q413.5 91.7 413.3 92.1Q413.1 92.5 412.7 93.0Q412.3 93.6 411.5 94.3L411.5 94.3L410.1 95.7L410.1 95.8L413.6 95.8L413.6 97ZM418.3 97.1L418.3 97.1Q417.3 97.1 416.6 96.6Q416.0 96.1 415.6 95.2Q415.2 94.3 415.2 93.0L415.2 93.0Q415.2 91.7 415.6 90.8Q416.0 89.9 416.6 89.4Q417.3 88.9 418.3 88.9L418.3 88.9Q419.3 88.9 420.0 89.4Q420.6 89.9 421.0 90.8Q421.4 91.7 421.4 93.0L421.4 93.0Q421.4 94.3 421.0 95.2Q420.7 96.1 420.0 96.6Q419.3 97.1 418.3 97.1ZM418.3 95.9L418.3 95.9Q418.8 95.9 419.2 95.6Q419.6 95.2 419.7 94.6Q419.9 93.9 419.9 93.0L419.9 93.0Q419.9 92.1 419.7 91.4Q419.6 90.8 419.2 90.4Q418.8 90.1 418.3 90.1L418.3 90.1Q417.8 90.1 417.4 90.4Q417.1 90.8 416.9 91.4Q416.7 92.1 416.7 93.0L416.7 93.0Q416.7 93.9 416.9 94.6Q417.0 95.2 417.4 95.6Q417.8 95.9 418.3 95.9ZM428.6 97L423.1 97L423.1 96.0L425.9 93.2Q426.3 92.8 426.5 92.5Q426.8 92.2 426.9 91.9Q427.1 91.6 427.1 91.3L427.1 91.3Q427.1 90.9 426.9 90.6Q426.7 90.4 426.4 90.2Q426.1 90.1 425.7 90.1L425.7 90.1Q425.3 90.1 425.0 90.2Q424.7 90.4 424.6 90.7Q424.4 91.0 424.4 91.4L424.4 91.4L423.0 91.4Q423.0 90.6 423.4 90.1Q423.7 89.5 424.3 89.2Q425.0 88.9 425.8 88.9L425.8 88.9Q426.6 88.9 427.2 89.2Q427.8 89.5 428.1 90.0Q428.4 90.5 428.4 91.2L428.4 91.2Q428.4 91.7 428.3 92.1Q428.1 92.5 427.7 93.0Q427.3 93.6 426.5 94.3L426.5 94.3L425.1 95.7L425.1 95.8L428.6 95.8L428.6 97ZM433.3 97.1L433.3 97.1Q432.7 97.1 432.2 96.9Q431.6 96.7 431.2 96.3Q430.7 95.8 430.5 95.1Q430.2 94.3 430.2 93.2L430.2 93.2Q430.2 92.2 430.4 91.4Q430.7 90.6 431.1 90.0Q431.5 89.5 432.1 89.2Q432.6 88.9 433.4 88.9L433.4 88.9Q434.1 88.9 434.7 89.2Q435.3 89.5 435.6 90.0Q436.0 90.5 436.1 91.2L436.1 91.2L434.7 91.2Q434.6 90.7 434.2 90.4Q433.9 90.1 433.4 90.1L433.4 90.1Q432.8 90.1 432.4 90.5Q432.0 90.8 431.8 91.4Q431.6 92.0 431.6 92.9L431.6 92.9L431.7 92.9Q431.9 92.5 432.2 92.3Q432.5 92.0 432.9 91.9Q433.2 91.7 433.7 91.7L433.7 91.7Q434.4 91.7 434.9 92.1Q435.5 92.4 435.8 93.0Q436.1 93.6 436.1 94.4L436.1 94.4Q436.1 95.1 435.8 95.8Q435.4 96.4 434.8 96.7Q434.1 97.1 433.3 97.1ZM433.3 95.9L433.3 95.9Q433.7 95.9 434.0 95.7Q434.4 95.5 434.6 95.2Q434.8 94.8 434.8 94.4L434.8 94.4Q434.8 94.0 434.6 93.6Q434.4 93.3 434.0 93.1Q433.7 92.8 433.3 92.8L433.3 92.8Q433.0 92.8 432.7 93.0Q432.4 93.1 432.2 93.3Q432.0 93.5 431.9 93.8Q431.8 94.1 431.8 94.4L431.8 94.4Q431.8 94.8 432.0 95.2Q432.2 95.5 432.5 95.7Q432.8 95.9 433.3 95.9Z " transform="matrix(1.00,-0.02,0.02,1.00,-3.11,4.57)"/></g><mask id="satori_om-id-0-1"><rect x="72" y="126" width="376" height="98" fill="#fff"/></mask><mask id="satori_om-id-0-1-0"><rect x="72" y="126" width="117" height="98" fill="#fff"/></mask><path x="72" y="126" width="117" height="98" fill="#fafaf9" d="M86,126 h89 a14,14 0 0 1 14,14 v70 a14,14 0 0 1 -14,14 h-89 a14,14 0 0 1 -14,-14 v-70 a14,14 0 0 1 14,-14" transform="matrix(1.00,-0.02,0.02,1.00,-3.11,4.57)"/><mask id="satori_om-id-0-1-0-0"><rect x="86" y="140" width="89" height="26" fill="#fff"/></mask><mask id="satori_om-id-0-1-0-0-0"><rect x="86" y="140" width="37" height="26" fill="#fff"/></mask><g  ><path fill="#1a1a1a" d="M93.5 161.2L93.5 161.2Q92.2 161.2 91.0 160.8Q89.8 160.4 88.9 159.4Q88.0 158.5 87.4 157.0Q86.9 155.5 86.9 153.3L86.9 153.3Q86.9 151.3 87.4 149.7Q87.8 148.2 88.7 147.0Q89.6 145.9 90.8 145.4Q92.1 144.8 93.6 144.8L93.6 144.8Q95.3 144.8 96.5 145.4Q97.8 146.1 98.6 147.2Q99.4 148.3 99.5 149.6L99.5 149.6L95.8 149.6Q95.6 148.8 95.0 148.4Q94.4 148.0 93.6 148.0L93.6 148.0Q92.6 148.0 91.9 148.6Q91.3 149.2 91.0 150.2Q90.6 151.3 90.6 152.8L90.6 152.8L90.7 152.8Q91.1 152.0 91.7 151.5Q92.3 151.0 93.1 150.7Q93.9 150.5 94.8 150.5L94.8 150.5Q96.2 150.5 97.3 151.1Q98.4 151.8 99.0 152.9Q99.7 154.1 99.7 155.6L99.7 155.6Q99.7 157.2 98.9 158.5Q98.1 159.8 96.7 160.5Q95.3 161.2 93.5 161.2ZM93.5 158.3L93.5 158.3Q94.2 158.3 94.8 157.9Q95.3 157.6 95.7 157.0Q96.0 156.4 96.0 155.7L96.0 155.7Q96.0 155.0 95.7 154.4Q95.3 153.8 94.8 153.5Q94.2 153.1 93.5 153.1L93.5 153.1Q93.0 153.1 92.5 153.3Q92.0 153.5 91.7 153.9Q91.4 154.2 91.2 154.7Q91.0 155.2 91.0 155.7L91.0 155.7Q91.0 156.4 91.3 157.0Q91.6 157.6 92.2 157.9Q92.8 158.3 93.5 158.3ZM103.8 161.2L103.8 161.2Q103.0 161.2 102.4 160.7Q101.8 160.1 101.8 159.2L101.8 159.2Q101.8 158.4 102.4 157.8Q103.0 157.2 103.8 157.2L103.8 157.2Q104.7 157.2 105.3 157.8Q105.8 158.4 105.8 159.2L105.8 159.2Q105.8 160.1 105.3 160.7Q104.7 161.2 103.8 161.2ZM120.7 161L108.9 161L108.9 158.3L114.7 153.1Q115.4 152.5 115.8 152.0Q116.3 151.5 116.6 151.0Q116.8 150.5 116.8 149.9L116.8 149.9Q116.8 149.2 116.5 148.7Q116.2 148.3 115.7 148.0Q115.2 147.8 114.5 147.8L114.5 147.8Q113.8 147.8 113.3 148.0Q112.8 148.3 112.6 148.8Q112.3 149.3 112.3 150.1L112.3 150.1L108.7 150.1Q108.7 148.4 109.4 147.3Q110.1 146.1 111.5 145.4Q112.8 144.8 114.5 144.8L114.5 144.8Q116.3 144.8 117.7 145.4Q119.0 146.0 119.7 147.1Q120.5 148.2 120.5 149.6L120.5 149.6Q120.5 150.5 120.1 151.4Q119.8 152.3 118.8 153.4Q117.9 154.5 116.1 156.0L116.1 156.0L114.1 157.8L114.1 157.9L120.7 157.9L120.7 161Z " transform="matrix(1.00,-0.02,0.02,1.00,-3.11,4.57)"/></g><mask id="satori_om-id-0-1-0-0-1"><rect x="127" y="153" width="46" height="13" fill="#fff"/></mask><g  ><path fill="#9ca3af" d="M130.3 164.1L130.3 164.1Q129.5 164.1 128.8 163.7Q128.2 163.3 127.8 162.6Q127.5 162.0 127.5 161.0L127.5 161.0Q127.5 160.1 127.8 159.4Q128.2 158.7 128.8 158.3Q129.5 157.9 130.3 157.9L130.3 157.9Q130.8 157.9 131.3 158.0Q131.7 158.2 132.0 158.4Q132.4 158.7 132.6 159.0Q132.8 159.4 132.9 159.8L132.9 159.8L131.6 160.1Q131.6 159.8 131.5 159.7Q131.4 159.5 131.2 159.3Q131.0 159.2 130.8 159.1Q130.6 159.1 130.4 159.1L130.4 159.1Q129.9 159.1 129.5 159.3Q129.2 159.6 129.1 160.0Q128.9 160.5 128.9 161.0L128.9 161.0Q128.9 161.6 129.1 162.0Q129.2 162.5 129.5 162.7Q129.9 163.0 130.4 163.0L130.4 163.0Q130.6 163.0 130.8 162.9Q131.0 162.8 131.2 162.7Q131.4 162.6 131.5 162.4Q131.6 162.2 131.6 161.9L131.6 161.9L133.0 162.2Q132.9 162.6 132.6 163.0Q132.4 163.4 132.1 163.6Q131.7 163.9 131.3 164.0Q130.9 164.1 130.3 164.1ZM135.8 164.1L135.8 164.1Q135.3 164.1 134.8 163.9Q134.3 163.7 134.1 163.3Q133.8 162.9 133.8 162.3L133.8 162.3Q133.8 161.8 134.0 161.5Q134.2 161.1 134.5 160.9Q134.8 160.7 135.3 160.6Q135.7 160.5 136.1 160.5L136.1 160.5Q136.6 160.4 137.0 160.4Q137.3 160.3 137.4 160.3Q137.6 160.2 137.6 160.0L137.6 160.0L137.6 159.9Q137.6 159.6 137.5 159.4Q137.4 159.2 137.1 159.1Q136.9 159.0 136.5 159.0L136.5 159.0Q136.2 159.0 135.9 159.1Q135.7 159.2 135.5 159.4Q135.4 159.6 135.3 159.8L135.3 159.8L134.0 159.5Q134.2 159.0 134.5 158.6Q134.9 158.3 135.4 158.1Q135.9 157.9 136.5 157.9L136.5 157.9Q137.0 157.9 137.4 158.0Q137.8 158.1 138.2 158.4Q138.5 158.6 138.8 159.0Q139.0 159.4 139.0 160.0L139.0 160.0L139.0 164L137.6 164L137.6 163.2L137.6 163.2Q137.5 163.4 137.2 163.6Q137.0 163.9 136.6 164.0Q136.3 164.1 135.8 164.1ZM136.2 163.1L136.2 163.1Q136.6 163.1 136.9 162.9Q137.2 162.7 137.4 162.5Q137.6 162.2 137.6 161.8L137.6 161.8L137.6 161.1Q137.5 161.2 137.4 161.2Q137.2 161.3 137.0 161.3Q136.8 161.4 136.6 161.4Q136.4 161.4 136.3 161.4L136.3 161.4Q136.0 161.5 135.7 161.6Q135.5 161.7 135.3 161.8Q135.2 162.0 135.2 162.3L135.2 162.3Q135.2 162.6 135.3 162.7Q135.4 162.9 135.7 163.0Q135.9 163.1 136.2 163.1ZM140.5 156.0L141.9 156.0L141.9 164L140.5 164L140.5 156.0ZM143.3 156.0L144.7 156.0L144.7 164L143.3 164L143.3 156.0ZM148.5 164.1L148.5 164.1Q147.8 164.1 147.3 163.9Q146.7 163.7 146.4 163.3Q146.1 163.0 146.0 162.4L146.0 162.4L147.3 162.2Q147.4 162.6 147.7 162.8Q148.0 163.1 148.5 163.1L148.5 163.1Q149.0 163.1 149.3 162.8Q149.6 162.6 149.6 162.3L149.6 162.3Q149.6 162.1 149.4 161.9Q149.2 161.7 148.8 161.6L148.8 161.6L147.8 161.4Q147.0 161.2 146.5 160.8Q146.1 160.4 146.1 159.7L146.1 159.7Q146.1 159.2 146.4 158.8Q146.7 158.4 147.3 158.1Q147.8 157.9 148.5 157.9L148.5 157.9Q149.2 157.9 149.7 158.1Q150.2 158.3 150.5 158.7Q150.8 159.0 150.9 159.5L150.9 159.5L149.7 159.7Q149.6 159.4 149.3 159.2Q149.0 159.0 148.6 159.0L148.6 159.0Q148.1 159.0 147.8 159.2Q147.5 159.4 147.5 159.7L147.5 159.7Q147.5 159.9 147.7 160.1Q147.9 160.3 148.4 160.4L148.4 160.4L149.4 160.6Q150.2 160.8 150.7 161.2Q151.1 161.6 151.1 162.2L151.1 162.2Q151.1 162.8 150.7 163.2Q150.4 163.6 149.8 163.9Q149.3 164.1 148.5 164.1ZM154.3 155.6L155.5 155.6L152.9 165.2L151.7 165.2L154.3 155.6ZM157.8 164L156.4 164L156.4 158.0L157.8 158.0L157.8 159.0L157.9 159.0Q158.0 158.5 158.4 158.2Q158.8 157.9 159.3 157.9L159.3 157.9Q159.5 157.9 159.6 157.9Q159.7 157.9 159.8 158.0L159.8 158.0L159.8 159.2Q159.8 159.2 159.6 159.2Q159.4 159.2 159.2 159.2L159.2 159.2Q158.8 159.2 158.5 159.3Q158.2 159.5 158.0 159.8Q157.8 160.1 157.8 160.5L157.8 160.5L157.8 164ZM163.5 164.1L163.5 164.1Q162.5 164.1 161.9 163.7Q161.2 163.4 160.9 162.7Q160.5 162.0 160.5 161.0L160.5 161.0Q160.5 160.1 160.9 159.4Q161.2 158.7 161.9 158.3Q162.5 157.9 163.4 157.9L163.4 157.9Q163.9 157.9 164.4 158.1Q164.9 158.3 165.3 158.6Q165.7 159.0 165.9 159.6Q166.1 160.2 166.1 160.9L166.1 160.9L166.1 161.4L161.9 161.4Q161.9 161.9 162.1 162.2L162.1 162.2Q162.3 162.6 162.7 162.8Q163.0 163.0 163.5 163.0L163.5 163.0Q163.8 163.0 164.0 162.9Q164.3 162.9 164.5 162.7Q164.6 162.5 164.7 162.2L164.7 162.2L166.0 162.5Q165.9 163.0 165.5 163.4Q165.2 163.7 164.6 163.9Q164.1 164.1 163.5 164.1ZM161.9 160.4L161.9 160.4L164.7 160.4Q164.7 160.1 164.6 159.8L164.6 159.8Q164.4 159.4 164.1 159.2Q163.8 159.0 163.4 159.0Q162.9 159.0 162.6 159.2Q162.3 159.5 162.1 159.8L162.1 159.8Q162.0 160.1 161.9 160.4ZM169.6 164.1L169.6 164.1Q168.9 164.1 168.4 163.9Q167.8 163.7 167.5 163.3Q167.1 163.0 167.0 162.4L167.0 162.4L168.3 162.2Q168.5 162.6 168.8 162.8Q169.1 163.1 169.6 163.1L169.6 163.1Q170.1 163.1 170.4 162.8Q170.7 162.6 170.7 162.3L170.7 162.3Q170.7 162.1 170.5 161.9Q170.3 161.7 169.9 161.6L169.9 161.6L168.9 161.4Q168.0 161.2 167.6 160.8Q167.2 160.4 167.2 159.7L167.2 159.7Q167.2 159.2 167.5 158.8Q167.8 158.4 168.4 158.1Q168.9 157.9 169.6 157.9L169.6 157.9Q170.3 157.9 170.8 158.1Q171.3 158.3 171.6 158.7Q171.9 159.0 172.0 159.5L172.0 159.5L170.8 159.7Q170.7 159.4 170.4 159.2Q170.1 159.0 169.6 159.0L169.6 159.0Q169.2 159.0 168.9 159.2Q168.6 159.4 168.6 159.7L168.6 159.7Q168.6 159.9 168.8 160.1Q169.0 160.3 169.5 160.4L169.5 160.4L170.5 160.6Q171.3 160.8 171.7 161.2Q172.2 161.6 172.2 162.2L172.2 162.2Q172.2 162.8 171.8 163.2Q171.5 163.6 170.9 163.9Q170.3 164.1 169.6 164.1Z " transform="matrix(1.00,-0.02,0.02,1.00,-3.11,4.57)"/></g><mask id="satori_om-id-0-1-0-1"><rect x="86" y="172" width="89" height="13" fill="#fff"/></mask><g  ><path fill="#9ca3af" d="M87.6 183L86.3 183L89.1 175.0L90.6 175.0L93.5 183L92.2 183L91.5 180.9L88.3 180.9L87.6 183ZM88.7 179.9L91.1 179.9L90.6 178.5Q90.5 178.0 90.2 177.3L90.2 177.3Q90.1 176.7 89.9 176.0L89.9 176.0Q89.7 176.7 89.5 177.3L89.5 177.3Q89.3 178.0 89.1 178.5L89.1 178.5L88.7 179.9ZM97.8 183L96.5 183L94.3 177.0L95.5 177.0L96.7 180.4Q96.9 181.0 97.1 181.5L97.1 181.5Q97.1 181.8 97.2 182.0L97.2 182.0Q97.2 181.8 97.3 181.5L97.3 181.5Q97.4 181.0 97.6 180.4L97.6 180.4L98.8 177.0L100.1 177.0L97.8 183ZM103.9 185.4L103.9 185.4Q103.2 185.4 102.7 185.2Q102.2 185.0 101.8 184.7Q101.5 184.4 101.3 184.1L101.3 184.1L102.3 183.6Q102.4 183.8 102.6 184.0Q102.8 184.2 103.1 184.3Q103.4 184.4 103.9 184.4L103.9 184.4Q104.6 184.4 105.0 184.1Q105.4 183.8 105.4 183.1L105.4 183.1L105.4 181.9L105.3 181.9Q105.2 182.1 105.0 182.3Q104.8 182.6 104.5 182.7Q104.1 182.9 103.6 182.9L103.6 182.9Q102.9 182.9 102.3 182.6Q101.7 182.2 101.4 181.6Q101.1 180.9 101.1 180.0L101.1 180.0Q101.1 179.0 101.4 178.3Q101.7 177.7 102.3 177.3Q102.9 176.9 103.6 176.9L103.6 176.9Q104.2 176.9 104.5 177.1Q104.8 177.3 105.0 177.5Q105.2 177.8 105.3 178.0L105.3 178.0L105.4 178.0L105.4 177.0L106.6 177.0L106.6 183.1Q106.6 183.9 106.2 184.4Q105.9 184.9 105.3 185.1Q104.6 185.4 103.9 185.4ZM103.9 181.9L103.9 181.9Q104.4 181.9 104.7 181.7Q105.1 181.5 105.2 181.0Q105.4 180.6 105.4 180.0L105.4 180.0Q105.4 179.4 105.2 178.9Q105.1 178.4 104.7 178.2Q104.4 177.9 103.9 177.9L103.9 177.9Q103.3 177.9 103.0 178.2Q102.6 178.5 102.5 178.9Q102.3 179.4 102.3 180.0L102.3 180.0Q102.3 180.5 102.5 181.0Q102.6 181.4 103.0 181.7Q103.3 181.9 103.9 181.9Z M114.1 183.1L114.1 183.1Q113.2 183.1 112.6 182.7Q112.0 182.4 111.6 181.7Q111.3 181.0 111.3 180.0L111.3 180.0Q111.3 179.1 111.6 178.4Q112.0 177.7 112.6 177.3Q113.2 176.9 114.1 176.9L114.1 176.9Q114.5 176.9 114.9 177.0Q115.4 177.2 115.7 177.4Q116.0 177.6 116.2 177.9Q116.5 178.3 116.6 178.7L116.6 178.7L115.5 179.0Q115.4 178.7 115.3 178.5Q115.2 178.3 115.0 178.2Q114.8 178.1 114.6 178.0Q114.3 177.9 114.1 177.9L114.1 177.9Q113.5 177.9 113.2 178.2Q112.8 178.5 112.6 179.0Q112.5 179.4 112.5 180.0L112.5 180.0Q112.5 180.6 112.6 181.1Q112.8 181.6 113.2 181.8Q113.5 182.1 114.1 182.1L114.1 182.1Q114.4 182.1 114.6 182.0Q114.8 182.0 115.0 181.8Q115.2 181.7 115.3 181.5Q115.4 181.3 115.5 181.0L115.5 181.0L116.6 181.3Q116.5 181.7 116.3 182.1Q116.0 182.4 115.7 182.6Q115.4 182.9 115.0 183Q114.5 183.1 114.1 183.1ZM119.8 183.1L119.8 183.1Q119.2 183.1 118.8 182.9Q118.3 182.7 118.0 182.3Q117.8 181.9 117.8 181.3L117.8 181.3Q117.8 180.8 118.0 180.5Q118.2 180.1 118.5 179.9Q118.8 179.8 119.2 179.7Q119.6 179.6 120.1 179.5L120.1 179.5Q120.6 179.4 120.9 179.4Q121.3 179.4 121.4 179.3Q121.6 179.2 121.6 179.0L121.6 179.0L121.6 178.9Q121.6 178.6 121.5 178.4Q121.3 178.1 121.1 178.0Q120.8 177.9 120.4 177.9L120.4 177.9Q120.0 177.9 119.8 178.0Q119.5 178.1 119.3 178.3Q119.1 178.5 119.0 178.7L119.0 178.7L117.9 178.4Q118.1 177.9 118.5 177.5Q118.9 177.2 119.4 177.1Q119.9 176.9 120.4 176.9L120.4 176.9Q120.8 176.9 121.2 177.0Q121.6 177.1 122.0 177.3Q122.3 177.5 122.5 178.0Q122.8 178.4 122.8 179.0L122.8 179.0L122.8 183L121.6 183L121.6 182.2L121.6 182.2Q121.4 182.4 121.2 182.6Q121.0 182.8 120.6 183.0Q120.3 183.1 119.8 183.1ZM120.1 182.2L120.1 182.2Q120.5 182.2 120.9 182.0Q121.2 181.8 121.4 181.5Q121.6 181.2 121.6 180.8L121.6 180.8L121.6 180.1Q121.5 180.1 121.3 180.2Q121.2 180.2 120.9 180.3Q120.7 180.3 120.5 180.3Q120.3 180.4 120.1 180.4L120.1 180.4Q119.8 180.4 119.5 180.5Q119.3 180.6 119.1 180.8Q118.9 181.0 118.9 181.3L118.9 181.3Q118.9 181.6 119.1 181.8Q119.2 182.0 119.5 182.1Q119.7 182.2 120.1 182.2ZM124.6 175.0L125.8 175.0L125.8 183L124.6 183L124.6 175.0ZM127.6 175.0L128.8 175.0L128.8 183L127.6 183L127.6 175.0Z M133.7 175.0L134.9 175.0L134.9 183L133.7 183L133.7 175.0ZM139.2 183.1L139.2 183.1Q138.4 183.1 137.8 182.7Q137.1 182.4 136.8 181.7Q136.4 181.0 136.4 180.0L136.4 180.0Q136.4 179.1 136.8 178.4Q137.1 177.7 137.8 177.3Q138.4 176.9 139.2 176.9L139.2 176.9Q140.1 176.9 140.7 177.3Q141.3 177.7 141.7 178.4Q142.0 179.1 142.0 180.0L142.0 180.0Q142.0 181.0 141.7 181.7Q141.3 182.4 140.7 182.7Q140.1 183.1 139.2 183.1ZM139.2 182.1L139.2 182.1Q139.8 182.1 140.1 181.8Q140.5 181.5 140.7 181.1Q140.8 180.6 140.8 180.0L140.8 180.0Q140.8 179.5 140.7 179.0Q140.5 178.5 140.1 178.2Q139.8 177.9 139.2 177.9L139.2 177.9Q138.7 177.9 138.3 178.2Q138.0 178.5 137.8 179.0Q137.6 179.4 137.6 180.0L137.6 180.0Q137.6 180.6 137.8 181.1Q138.0 181.5 138.3 181.8Q138.7 182.1 139.2 182.1ZM145.3 183.1L145.3 183.1Q144.7 183.1 144.2 182.9Q143.8 182.7 143.5 182.3Q143.2 181.9 143.2 181.3L143.2 181.3Q143.2 180.8 143.4 180.5Q143.6 180.1 143.9 179.9Q144.3 179.8 144.7 179.7Q145.1 179.6 145.5 179.5L145.5 179.5Q146.1 179.4 146.4 179.4Q146.7 179.4 146.9 179.3Q147.0 179.2 147.0 179.0L147.0 179.0L147.0 178.9Q147.0 178.6 146.9 178.4Q146.8 178.1 146.5 178.0Q146.3 177.9 145.9 177.9L145.9 177.9Q145.5 177.9 145.2 178.0Q144.9 178.1 144.8 178.3Q144.6 178.5 144.5 178.7L144.5 178.7L143.4 178.4Q143.6 177.9 144.0 177.5Q144.4 177.2 144.9 177.1Q145.3 176.9 145.9 176.9L145.9 176.9Q146.2 176.9 146.6 177.0Q147.1 177.1 147.4 177.3Q147.8 177.5 148.0 178.0Q148.2 178.4 148.2 179.0L148.2 179.0L148.2 183L147.1 183L147.1 182.2L147.0 182.2Q146.9 182.4 146.7 182.6Q146.4 182.8 146.1 183.0Q145.7 183.1 145.3 183.1ZM145.5 182.2L145.5 182.2Q146.0 182.2 146.3 182.0Q146.7 181.8 146.9 181.5Q147.1 181.2 147.1 180.8L147.1 180.8L147.1 180.1Q147.0 180.1 146.8 180.2Q146.6 180.2 146.4 180.3Q146.2 180.3 145.9 180.3Q145.7 180.4 145.6 180.4L145.6 180.4Q145.3 180.4 145.0 180.5Q144.7 180.6 144.5 180.8Q144.4 181.0 144.4 181.3L144.4 181.3Q144.4 181.6 144.5 181.8Q144.7 182.0 144.9 182.1Q145.2 182.2 145.5 182.2ZM152.3 183.1L152.3 183.1Q151.5 183.1 151.0 182.7Q150.4 182.4 150.1 181.7Q149.8 181.0 149.8 180.0L149.8 180.0Q149.8 179.0 150.1 178.3Q150.4 177.7 151.0 177.3Q151.6 176.9 152.3 176.9L152.3 176.9Q152.8 176.9 153.2 177.1Q153.5 177.3 153.7 177.5Q153.9 177.8 154.0 178.0L154.0 178.0L154.1 178.0L154.1 175.0L155.2 175.0L155.2 183L154.1 183L154.1 182.1L154.0 182.1Q153.9 182.3 153.7 182.5Q153.5 182.7 153.2 182.9Q152.8 183.1 152.3 183.1ZM152.5 182.1L152.5 182.1Q153.0 182.1 153.4 181.8Q153.7 181.6 153.9 181.1Q154.1 180.6 154.1 180.0L154.1 180.0Q154.1 179.4 153.9 178.9Q153.7 178.4 153.4 178.2Q153.0 177.9 152.5 177.9L152.5 177.9Q152.0 177.9 151.7 178.2Q151.3 178.5 151.1 178.9Q151.0 179.4 151.0 180.0L151.0 180.0Q151.0 180.6 151.1 181.1Q151.3 181.6 151.7 181.8Q152.0 182.1 152.5 182.1Z " transform="matrix(1.00,-0.02,0.02,1.00,-3.11,4.57)"/></g><mask id="satori_om-id-0-1-0-2"><rect x="86" y="195" width="28" height="3" fill="#fff"/></mask><path x="86" y="195" width="28" height="3" fill="#fbbf24" d="M87.5,195 h25 a1.5,1.5 0 0 1 1.5,1.5 v0 a1.5,1.5 0 0 1 -1.5,1.5 h-25 a1.5,1.5 0 0 1 -1.5,-1.5 v0 a1.5,1.5 0 0 1 1.5,-1.5" transform="matrix(1.00,-0.02,0.02,1.00,-3.11,4.57)"/><mask id="satori_om-id-0-1-1"><rect x="201" y="126" width="118" height="98" fill="#fff"/></mask><path x="201" y="126" width="118" height="98" fill="#fafaf9" d="M215,126 h90 a14,14 0 0 1 14,14 v70 a14,14 0 0 1 -14,14 h-90 a14,14 0 0 1 -14,-14 v-70 a14,14 0 0 1 14,-14" transform="matrix(1.00,-0.02,0.02,1.00,-3.11,4.57)"/><mask id="satori_om-id-0-1-1-0"><rect x="215" y="140" width="90" height="26" fill="#fff"/></mask><mask id="satori_om-id-0-1-1-0-0"><rect x="215" y="140" width="39" height="26" fill="#fff"/></mask><g  ><path fill="#1a1a1a" d="M222.6 161.2L222.6 161.2Q220.5 161.2 219.0 160.2Q217.5 159.3 216.7 157.4Q215.9 155.6 215.9 153.0L215.9 153.0Q215.9 150.4 216.7 148.6Q217.5 146.7 219.0 145.8Q220.5 144.8 222.6 144.8L222.6 144.8Q224.7 144.8 226.2 145.8Q227.7 146.7 228.5 148.6Q229.3 150.4 229.3 153.0L229.3 153.0Q229.3 155.6 228.5 157.4Q227.7 159.3 226.2 160.2Q224.7 161.2 222.6 161.2ZM222.6 158.1L222.6 158.1Q223.5 158.1 224.1 157.5Q224.8 156.9 225.1 155.8Q225.4 154.7 225.4 153.0L225.4 153.0Q225.4 151.4 225.1 150.2Q224.8 149.1 224.1 148.5Q223.5 147.9 222.6 147.9L222.6 147.9Q221.7 147.9 221.1 148.5Q220.4 149.1 220.1 150.2Q219.8 151.4 219.8 153.0L219.8 153.0Q219.8 154.7 220.1 155.8Q220.4 156.9 221.1 157.5Q221.7 158.1 222.6 158.1ZM233.4 161.2L233.4 161.2Q232.6 161.2 232.0 160.7Q231.4 160.1 231.4 159.2L231.4 159.2Q231.4 158.4 232.0 157.8Q232.6 157.2 233.4 157.2L233.4 157.2Q234.3 157.2 234.9 157.8Q235.5 158.4 235.5 159.2L235.5 159.2Q235.5 160.1 234.9 160.7Q234.3 161.2 233.4 161.2ZM246.0 158.3L238.3 158.3L238.3 155.4L244.9 145.0L249.7 145.0L249.7 155.3L251.6 155.3L251.6 158.3L249.7 158.3L249.7 161L246.0 161L246.0 158.3ZM242.1 155.3L246.1 155.3L246.1 149.0L246.0 149.0L242.1 155.2L242.1 155.3Z " transform="matrix(1.00,-0.02,0.02,1.00,-3.11,4.57)"/></g><mask id="satori_om-id-0-1-1-0-1"><rect x="258" y="153" width="8" height="13" fill="#fff"/></mask><g  ><path fill="#9ca3af" d="M263.5 154.0L263.5 166.2L259.8 166.2L259.8 154.0L263.5 154.0ZM261.9 164.3L260.8 165.0L260.8 165.4L262.5 165.4L262.5 165.0L261.3 165.0L262.5 164.3L262.5 164L260.8 164L260.8 164.3L261.9 164.3ZM262.5 162.3L260.8 162.3L260.8 163.7L262.5 163.7L262.5 162.3ZM262.1 162.6L262.1 163.3L261.1 163.3L261.1 162.6L262.1 162.6ZM261.1 160.2L260.8 160.2L260.8 161.6L262.5 161.6L262.5 160.2L261.4 160.2L261.4 160.9L261.8 160.9L261.8 160.6L262.1 160.6L262.1 161.3L261.1 161.3L261.1 160.2ZM262.1 159.5L260.8 159.5L260.8 159.9L262.5 159.9L262.5 158.7L262.1 158.7L262.1 159.5ZM261.4 158.8L260.8 158.8L260.8 159.2L261.8 159.2L261.8 158.3L262.5 158.3L262.5 158.0L260.8 158.0L260.8 158.3L261.4 158.3L261.4 158.8ZM261.4 156.8L261.4 157.3L261.1 157.3L261.1 156.8L261.4 156.8ZM261.8 156.4L260.8 156.4L260.8 157.6L262.5 157.6L262.5 157.3L261.8 157.3L261.8 156.4ZM261.4 155.8L260.8 155.8L260.8 156.1L262.5 156.1L262.5 155.8L261.7 155.8L261.7 155.2L262.5 155.2L262.5 154.9L260.8 154.9L260.8 155.2L261.4 155.2L261.4 155.8Z " transform="matrix(1.00,-0.02,0.02,1.00,-3.11,4.57)"/></g><mask id="satori_om-id-0-1-1-1"><rect x="215" y="172" width="90" height="26" fill="#fff"/></mask><g  ><path fill="#9ca3af" d="M217.1 183L215.9 183L215.9 175.0L220.9 175.0L220.9 176.0L217.1 176.0L217.1 178.6L220.5 178.6L220.5 179.7L217.1 179.7L217.1 183ZM224.2 183.1L224.2 183.1Q223.6 183.1 223.1 182.9Q222.7 182.7 222.4 182.3Q222.1 181.9 222.1 181.3L222.1 181.3Q222.1 180.8 222.3 180.5Q222.5 180.1 222.9 179.9Q223.2 179.8 223.6 179.7Q224.0 179.6 224.5 179.5L224.5 179.5Q225.0 179.4 225.3 179.4Q225.7 179.4 225.8 179.3Q226.0 179.2 226.0 179.0L226.0 179.0L226.0 178.9Q226.0 178.6 225.8 178.4Q225.7 178.1 225.5 178.0Q225.2 177.9 224.8 177.9L224.8 177.9Q224.4 177.9 224.1 178.0Q223.9 178.1 223.7 178.3Q223.5 178.5 223.4 178.7L223.4 178.7L222.3 178.4Q222.5 177.9 222.9 177.5Q223.3 177.2 223.8 177.1Q224.3 176.9 224.8 176.9L224.8 176.9Q225.2 176.9 225.6 177.0Q226.0 177.1 226.3 177.3Q226.7 177.5 226.9 178.0Q227.2 178.4 227.2 179.0L227.2 179.0L227.2 183L226.0 183L226.0 182.2L226.0 182.2Q225.8 182.4 225.6 182.6Q225.4 182.8 225.0 183.0Q224.7 183.1 224.2 183.1ZM224.4 182.2L224.4 182.2Q224.9 182.2 225.3 182.0Q225.6 181.8 225.8 181.5Q226.0 181.2 226.0 180.8L226.0 180.8L226.0 180.1Q225.9 180.1 225.7 180.2Q225.6 180.2 225.3 180.3Q225.1 180.3 224.9 180.3Q224.7 180.4 224.5 180.4L224.5 180.4Q224.2 180.4 223.9 180.5Q223.6 180.6 223.5 180.8Q223.3 181.0 223.3 181.3L223.3 181.3Q223.3 181.6 223.5 181.8Q223.6 182.0 223.9 182.1Q224.1 182.2 224.4 182.2ZM230.1 183L229.0 183L229.0 177.0L230.1 177.0L230.1 183ZM229.6 176.1L229.6 176.1Q229.3 176.1 229.0 175.9Q228.8 175.7 228.8 175.4L228.8 175.4Q228.8 175.1 229.0 174.9Q229.3 174.7 229.6 174.7L229.6 174.7Q229.9 174.7 230.1 174.9Q230.3 175.1 230.3 175.4L230.3 175.4Q230.3 175.7 230.1 175.9Q229.9 176.1 229.6 176.1ZM233.1 183L232.0 183L232.0 177.0L233.1 177.0L233.1 178.0L233.2 178.0Q233.3 177.5 233.7 177.2Q234.2 176.9 234.7 176.9L234.7 176.9Q234.8 176.9 234.9 176.9Q235.1 176.9 235.2 176.9L235.2 176.9L235.2 178.1Q235.1 178.0 234.9 178.0Q234.8 178.0 234.6 178.0L234.6 178.0Q234.2 178.0 233.8 178.2Q233.5 178.3 233.3 178.7Q233.1 179.0 233.1 179.4L233.1 179.4L233.1 183ZM237.6 179.4L237.6 179.4L237.6 183L236.4 183L236.4 177.0L237.6 177.0L237.6 178.1Q237.8 177.6 238.2 177.3L238.2 177.3Q238.7 176.9 239.4 176.9L239.4 176.9Q240.0 176.9 240.5 177.2Q240.9 177.4 241.2 177.9Q241.5 178.4 241.5 179.2L241.5 179.2L241.5 183L240.3 183L240.3 179.3Q240.3 178.7 239.9 178.3Q239.6 178.0 239.0 178.0L239.0 178.0Q238.6 178.0 238.3 178.1Q238.0 178.3 237.8 178.6Q237.6 179.0 237.6 179.4ZM245.9 183.1L245.9 183.1Q245.0 183.1 244.3 182.7Q243.7 182.4 243.3 181.7Q243.0 181.0 243.0 180.0L243.0 180.0Q243.0 179.1 243.3 178.4Q243.7 177.7 244.3 177.3Q244.9 176.9 245.8 176.9L245.8 176.9Q246.3 176.9 246.7 177.1Q247.2 177.3 247.6 177.6Q248.0 178.0 248.2 178.6Q248.4 179.1 248.4 179.9L248.4 179.9L248.4 180.4L244.2 180.4Q244.2 180.9 244.4 181.3L244.4 181.3Q244.6 181.7 245.0 181.9Q245.4 182.1 245.9 182.1L245.9 182.1Q246.2 182.1 246.5 182.1Q246.7 182.0 246.9 181.8Q247.1 181.6 247.2 181.3L247.2 181.3L248.3 181.6Q248.2 182.0 247.9 182.4Q247.5 182.7 247.0 182.9Q246.5 183.1 245.9 183.1ZM244.2 179.5L244.2 179.5L247.3 179.5Q247.2 179.1 247.1 178.8L247.1 178.8Q246.9 178.4 246.6 178.1Q246.3 177.9 245.8 177.9L245.8 177.9Q245.3 177.9 244.9 178.1Q244.5 178.4 244.4 178.8L244.4 178.8Q244.2 179.1 244.2 179.5ZM252.1 183.1L252.1 183.1Q251.5 183.1 250.9 182.9Q250.4 182.7 250.1 182.4Q249.8 182.0 249.7 181.5L249.7 181.5L250.8 181.2Q250.9 181.7 251.3 181.9Q251.6 182.2 252.1 182.2L252.1 182.2Q252.7 182.2 253.0 181.9Q253.4 181.7 253.4 181.4L253.4 181.4Q253.4 181.1 253.2 180.9Q252.9 180.7 252.5 180.6L252.5 180.6L251.5 180.4Q250.7 180.2 250.3 179.8Q249.9 179.4 249.9 178.7L249.9 178.7Q249.9 178.2 250.2 177.8Q250.5 177.4 251.0 177.1Q251.5 176.9 252.2 176.9L252.2 176.9Q252.8 176.9 253.3 177.1Q253.8 177.3 254.0 177.6Q254.3 178.0 254.4 178.4L254.4 178.4L253.4 178.6Q253.3 178.3 253.0 178.1Q252.7 177.9 252.2 177.9L252.2 177.9Q251.7 177.9 251.4 178.1Q251.0 178.3 251.0 178.6L251.0 178.6Q251.0 178.9 251.3 179.1Q251.5 179.3 252.0 179.4L252.0 179.4L252.9 179.6Q253.8 179.8 254.2 180.2Q254.6 180.6 254.6 181.3L254.6 181.3Q254.6 181.8 254.3 182.2Q253.9 182.6 253.4 182.9Q252.8 183.1 252.1 183.1ZM258.2 183.1L258.2 183.1Q257.6 183.1 257.1 182.9Q256.6 182.7 256.3 182.4Q255.9 182.0 255.8 181.5L255.8 181.5L256.9 181.2Q257.1 181.7 257.4 181.9Q257.7 182.2 258.3 182.2L258.3 182.2Q258.8 182.2 259.2 181.9Q259.5 181.7 259.5 181.4L259.5 181.4Q259.5 181.1 259.3 180.9Q259.1 180.7 258.7 180.6L258.7 180.6L257.7 180.4Q256.8 180.2 256.4 179.8Q256.0 179.4 256.0 178.7L256.0 178.7Q256.0 178.2 256.3 177.8Q256.6 177.4 257.1 177.1Q257.6 176.9 258.3 176.9L258.3 176.9Q259.0 176.9 259.4 177.1Q259.9 177.3 260.2 177.6Q260.5 178.0 260.6 178.4L260.6 178.4L259.5 178.6Q259.4 178.3 259.1 178.1Q258.9 177.9 258.3 177.9L258.3 177.9Q257.8 177.9 257.5 178.1Q257.2 178.3 257.2 178.6L257.2 178.6Q257.2 178.9 257.4 179.1Q257.6 179.3 258.1 179.4L258.1 179.4L259.1 179.6Q259.9 179.8 260.3 180.2Q260.7 180.6 260.7 181.3L260.7 181.3Q260.7 181.8 260.4 182.2Q260.1 182.6 259.5 182.9Q259.0 183.1 258.2 183.1Z M218.8 196L217.5 196L215.2 190.0L216.5 190.0L217.7 193.4Q217.9 194.0 218.1 194.5L218.1 194.5Q218.1 194.8 218.2 195.0L218.2 195.0Q218.2 194.8 218.3 194.5L218.3 194.5Q218.4 194.0 218.6 193.4L218.6 193.4L219.8 190.0L221.1 190.0L218.8 196ZM224.0 196.1L224.0 196.1Q223.4 196.1 223.0 195.9Q222.5 195.7 222.3 195.3Q222.0 194.9 222.0 194.3L222.0 194.3Q222.0 193.8 222.2 193.5Q222.4 193.1 222.7 192.9Q223.1 192.8 223.5 192.7Q223.9 192.6 224.3 192.5L224.3 192.5Q224.8 192.4 225.2 192.4Q225.5 192.4 225.7 192.3Q225.8 192.2 225.8 192.0L225.8 192.0L225.8 191.9Q225.8 191.6 225.7 191.4Q225.6 191.1 225.3 191.0Q225.0 190.9 224.7 190.9L224.7 190.9Q224.3 190.9 224.0 191.0Q223.7 191.1 223.5 191.3Q223.4 191.5 223.3 191.7L223.3 191.7L222.2 191.4Q222.4 190.9 222.7 190.5Q223.1 190.2 223.6 190.1Q224.1 189.9 224.6 189.9L224.6 189.9Q225.0 189.9 225.4 190.0Q225.8 190.1 226.2 190.3Q226.5 190.5 226.8 191.0Q227.0 191.4 227.0 192.0L227.0 192.0L227.0 196L225.8 196L225.8 195.2L225.8 195.2Q225.7 195.4 225.4 195.6Q225.2 195.8 224.9 196.0Q224.5 196.1 224.0 196.1ZM224.3 195.2L224.3 195.2Q224.8 195.2 225.1 195.0Q225.5 194.8 225.6 194.5Q225.8 194.2 225.8 193.8L225.8 193.8L225.8 193.1Q225.8 193.1 225.6 193.2Q225.4 193.2 225.2 193.3Q224.9 193.3 224.7 193.3Q224.5 193.4 224.4 193.4L224.4 193.4Q224.0 193.4 223.8 193.5Q223.5 193.6 223.3 193.8Q223.1 194.0 223.1 194.3L223.1 194.3Q223.1 194.6 223.3 194.8Q223.4 195.0 223.7 195.1Q223.9 195.2 224.3 195.2ZM230.0 196L228.8 196L228.8 190.0L229.9 190.0L229.9 191.0L230.0 191.0Q230.2 190.5 230.6 190.2Q231.0 189.9 231.5 189.9L231.5 189.9Q231.6 189.9 231.8 189.9Q231.9 189.9 232.0 189.9L232.0 189.9L232.0 191.1Q232.0 191.0 231.8 191.0Q231.6 191.0 231.4 191.0L231.4 191.0Q231.0 191.0 230.7 191.2Q230.4 191.3 230.2 191.7Q230.0 192.0 230.0 192.4L230.0 192.4L230.0 196ZM234.5 196L233.3 196L233.3 190.0L234.5 190.0L234.5 196ZM233.9 189.1L233.9 189.1Q233.6 189.1 233.3 188.9Q233.1 188.7 233.1 188.4L233.1 188.4Q233.1 188.1 233.3 187.9Q233.6 187.7 233.9 187.7L233.9 187.7Q234.2 187.7 234.4 187.9Q234.6 188.1 234.6 188.4L234.6 188.4Q234.6 188.7 234.4 188.9Q234.2 189.1 233.9 189.1ZM237.9 196.1L237.9 196.1Q237.4 196.1 236.9 195.9Q236.5 195.7 236.2 195.3Q235.9 194.9 235.9 194.3L235.9 194.3Q235.9 193.8 236.1 193.5Q236.3 193.1 236.6 192.9Q237.0 192.8 237.4 192.7Q237.8 192.6 238.2 192.5L238.2 192.5Q238.8 192.4 239.1 192.4Q239.4 192.4 239.6 192.3Q239.7 192.2 239.7 192.0L239.7 192.0L239.7 191.9Q239.7 191.6 239.6 191.4Q239.5 191.1 239.2 191.0Q239.0 190.9 238.6 190.9L238.6 190.9Q238.2 190.9 237.9 191.0Q237.6 191.1 237.5 191.3Q237.3 191.5 237.2 191.7L237.2 191.7L236.1 191.4Q236.3 190.9 236.7 190.5Q237.1 190.2 237.6 190.1Q238.0 189.9 238.6 189.9L238.6 189.9Q238.9 189.9 239.3 190.0Q239.8 190.1 240.1 190.3Q240.5 190.5 240.7 191.0Q240.9 191.4 240.9 192.0L240.9 192.0L240.9 196L239.8 196L239.8 195.2L239.7 195.2Q239.6 195.4 239.4 195.6Q239.1 195.8 238.8 196.0Q238.4 196.1 237.9 196.1ZM238.2 195.2L238.2 195.2Q238.7 195.2 239.0 195.0Q239.4 194.8 239.6 194.5Q239.7 194.2 239.7 193.8L239.7 193.8L239.7 193.1Q239.7 193.1 239.5 193.2Q239.3 193.2 239.1 193.3Q238.9 193.3 238.6 193.3Q238.4 193.4 238.3 193.4L238.3 193.4Q238.0 193.4 237.7 193.5Q237.4 193.6 237.2 193.8Q237.1 194.0 237.1 194.3L237.1 194.3Q237.1 194.6 237.2 194.8Q237.4 195.0 237.6 195.1Q237.9 195.2 238.2 195.2ZM243.9 192.4L243.9 192.4L243.9 196L242.7 196L242.7 190.0L243.9 190.0L243.9 191.1Q244.1 190.6 244.5 190.3L244.5 190.3Q245.0 189.9 245.7 189.9L245.7 189.9Q246.3 189.9 246.8 190.2Q247.2 190.4 247.5 190.9Q247.8 191.4 247.8 192.2L247.8 192.2L247.8 196L246.6 196L246.6 192.3Q246.6 191.7 246.2 191.3Q245.9 191.0 245.3 191.0L245.3 191.0Q244.9 191.0 244.6 191.1Q244.3 191.3 244.1 191.6Q243.9 192.0 243.9 192.4ZM252.1 196.1L252.1 196.1Q251.2 196.1 250.6 195.7Q250.0 195.4 249.6 194.7Q249.3 194.0 249.3 193.0L249.3 193.0Q249.3 192.1 249.6 191.4Q250.0 190.7 250.6 190.3Q251.2 189.9 252.1 189.9L252.1 189.9Q252.6 189.9 253.0 190.0Q253.4 190.2 253.7 190.4Q254.0 190.6 254.3 190.9Q254.5 191.3 254.6 191.7L254.6 191.7L253.5 192.0Q253.4 191.7 253.3 191.5Q253.2 191.3 253.0 191.2Q252.8 191.1 252.6 191.0Q252.4 190.9 252.1 190.9L252.1 190.9Q251.6 190.9 251.2 191.2Q250.8 191.5 250.7 192.0Q250.5 192.4 250.5 193.0L250.5 193.0Q250.5 193.6 250.7 194.1Q250.8 194.6 251.2 194.8Q251.6 195.1 252.1 195.1L252.1 195.1Q252.4 195.1 252.6 195.0Q252.8 195.0 253.0 194.8Q253.2 194.7 253.3 194.5Q253.5 194.3 253.5 194.0L253.5 194.0L254.6 194.3Q254.5 194.7 254.3 195.1Q254.1 195.4 253.7 195.6Q253.4 195.9 253.0 196Q252.6 196.1 252.1 196.1ZM258.7 196.1L258.7 196.1Q257.8 196.1 257.2 195.7Q256.6 195.4 256.2 194.7Q255.9 194.0 255.9 193.0L255.9 193.0Q255.9 192.1 256.2 191.4Q256.5 190.7 257.2 190.3Q257.8 189.9 258.6 189.9L258.6 189.9Q259.1 189.9 259.6 190.1Q260.1 190.3 260.5 190.6Q260.9 191.0 261.1 191.6Q261.3 192.1 261.3 192.9L261.3 192.9L261.3 193.4L257.0 193.4Q257.1 193.9 257.3 194.3L257.3 194.3Q257.5 194.7 257.9 194.9Q258.2 195.1 258.7 195.1L258.7 195.1Q259.1 195.1 259.3 195.1Q259.6 195.0 259.8 194.8Q260.0 194.6 260.1 194.3L260.1 194.3L261.2 194.6Q261.1 195.0 260.7 195.4Q260.4 195.7 259.9 195.9Q259.4 196.1 258.7 196.1ZM257.1 192.5L257.1 192.5L260.1 192.5Q260.1 192.1 260.0 191.8L260.0 191.8Q259.8 191.4 259.5 191.1Q259.1 190.9 258.6 190.9L258.6 190.9Q258.1 190.9 257.8 191.1Q257.4 191.4 257.2 191.8L257.2 191.8Q257.1 192.1 257.1 192.5Z " transform="matrix(1.00,-0.02,0.02,1.00,-3.11,4.57)"/></g><mask id="satori_om-id-0-1-2"><rect x="331" y="126" width="117" height="98" fill="#fff"/></mask><path x="331" y="126" width="117" height="98" fill="#fafaf9" d="M345,126 h89 a14,14 0 0 1 14,14 v70 a14,14 0 0 1 -14,14 h-89 a14,14 0 0 1 -14,-14 v-70 a14,14 0 0 1 14,-14" transform="matrix(1.00,-0.02,0.02,1.00,-3.11,4.57)"/><mask id="satori_om-id-0-1-2-0"><rect x="345" y="140" width="89" height="26" fill="#fff"/></mask><mask id="satori_om-id-0-1-2-0-0"><rect x="345" y="140" width="28" height="26" fill="#fff"/></mask><g  ><path fill="#1a1a1a" d="M350.7 161L346.8 161L353.3 148.2L353.3 148.1L345.7 148.1L345.7 145.0L357.2 145.0L357.2 148.1L350.7 161ZM364.9 161.2L364.9 161.2Q363.1 161.2 361.6 160.6Q360.2 160.0 359.3 159.0Q358.5 158.0 358.5 156.7L358.5 156.7Q358.5 155.7 359.0 154.9Q359.5 154.0 360.3 153.5Q361.1 152.9 362.1 152.8L362.1 152.8L362.1 152.7Q360.8 152.4 359.9 151.4Q359.1 150.4 359.1 149.1L359.1 149.1Q359.1 147.9 359.8 146.9Q360.6 145.9 361.9 145.3Q363.2 144.8 364.9 144.8L364.9 144.8Q366.6 144.8 367.9 145.3Q369.2 145.9 370.0 146.9Q370.8 147.9 370.8 149.1L370.8 149.1Q370.8 150.4 369.9 151.4Q369.1 152.4 367.8 152.7L367.8 152.7L367.8 152.8Q368.8 152.9 369.6 153.5Q370.4 154.0 370.9 154.9Q371.4 155.7 371.4 156.7L371.4 156.7Q371.4 158.0 370.5 159.0Q369.7 160.0 368.2 160.6Q366.8 161.2 364.9 161.2ZM364.9 158.5L364.9 158.5Q365.6 158.5 366.2 158.2Q366.7 158.0 367.1 157.5Q367.4 157.0 367.4 156.4L367.4 156.4Q367.4 155.7 367.0 155.2Q366.7 154.8 366.2 154.5Q365.6 154.2 364.9 154.2L364.9 154.2Q364.2 154.2 363.7 154.5Q363.1 154.7 362.8 155.2Q362.5 155.7 362.5 156.4L362.5 156.4Q362.5 157.0 362.8 157.5Q363.1 158.0 363.7 158.2Q364.2 158.5 364.9 158.5ZM364.9 151.5L364.9 151.5Q365.5 151.5 366.0 151.2Q366.5 151.0 366.8 150.5Q367.1 150.1 367.1 149.5L367.1 149.5Q367.1 148.9 366.8 148.5Q366.5 148.1 366.0 147.8Q365.5 147.6 364.9 147.6L364.9 147.6Q364.3 147.6 363.8 147.8Q363.3 148.1 363.1 148.5Q362.8 148.9 362.8 149.5L362.8 149.5Q362.8 150.1 363.1 150.5Q363.3 151.0 363.8 151.2Q364.3 151.5 364.9 151.5Z " transform="matrix(1.00,-0.02,0.02,1.00,-3.11,4.57)"/></g><mask id="satori_om-id-0-1-2-0-1"><rect x="377" y="153" width="38" height="13" fill="#fff"/></mask><g  ><path fill="#9ca3af" d="M379.1 160.5L379.1 160.5L379.1 164L377.7 164L377.7 156.0L379.1 156.0L379.1 159.1Q379.3 158.6 379.7 158.3L379.7 158.3Q380.2 157.9 380.9 157.9L380.9 157.9Q381.6 157.9 382.0 158.2Q382.5 158.4 382.7 159.0Q383.0 159.5 383.0 160.2L383.0 160.2L383.0 164L381.6 164L381.6 160.4Q381.6 159.8 381.3 159.5Q381.0 159.1 380.4 159.1L380.4 159.1Q380.1 159.1 379.8 159.3Q379.5 159.4 379.3 159.7Q379.1 160.0 379.1 160.5Z M389.3 155.6L390.5 155.6L387.9 165.2L386.7 165.2L389.3 155.6Z M397.0 164.1L397.0 164.1Q396.1 164.1 395.4 163.8Q394.8 163.5 394.4 163.0Q394.0 162.5 394.0 161.9L394.0 161.9Q394.0 161.4 394.2 160.9Q394.4 160.5 394.8 160.2Q395.2 159.9 395.7 159.9L395.7 159.9L395.7 159.8Q395.1 159.7 394.7 159.2Q394.3 158.7 394.3 158.0L394.3 158.0Q394.3 157.4 394.6 156.9Q395.0 156.4 395.6 156.2Q396.2 155.9 397.0 155.9L397.0 155.9Q397.7 155.9 398.3 156.2Q398.9 156.4 399.3 156.9Q399.6 157.4 399.6 158.0L399.6 158.0Q399.6 158.7 399.3 159.2Q398.9 159.7 398.3 159.8L398.3 159.8L398.3 159.9Q398.7 159.9 399.1 160.2Q399.5 160.5 399.7 160.9Q399.9 161.4 399.9 161.9L399.9 161.9Q399.9 162.5 399.6 163.0Q399.2 163.5 398.5 163.8Q397.8 164.1 397.0 164.1ZM397.0 163.0L397.0 163.0Q397.4 163.0 397.7 162.8Q398.1 162.7 398.3 162.4Q398.5 162.1 398.5 161.8L398.5 161.8Q398.5 161.4 398.3 161.1Q398.1 160.8 397.7 160.6Q397.4 160.4 397.0 160.4L397.0 160.4Q396.5 160.4 396.2 160.6Q395.9 160.8 395.7 161.1Q395.5 161.4 395.5 161.8L395.5 161.8Q395.5 162.1 395.7 162.4Q395.8 162.7 396.2 162.8Q396.5 163.0 397.0 163.0ZM397.0 159.4L397.0 159.4Q397.3 159.4 397.6 159.2Q397.9 159.1 398.1 158.8Q398.2 158.5 398.2 158.2L398.2 158.2Q398.2 157.8 398.1 157.6Q397.9 157.3 397.6 157.2Q397.3 157.0 397.0 157.0L397.0 157.0Q396.6 157.0 396.3 157.2Q396.0 157.3 395.8 157.6Q395.7 157.8 395.7 158.2L395.7 158.2Q395.7 158.5 395.9 158.8Q396.0 159.1 396.3 159.2Q396.6 159.4 397.0 159.4ZM404.1 164.1L404.1 164.1Q403.1 164.1 402.5 163.6Q401.8 163.1 401.4 162.2Q401.0 161.3 401.0 160.0L401.0 160.0Q401.0 158.7 401.4 157.8Q401.8 156.9 402.5 156.4Q403.1 155.9 404.1 155.9L404.1 155.9Q405.1 155.9 405.8 156.4Q406.5 156.9 406.8 157.8Q407.2 158.7 407.2 160.0L407.2 160.0Q407.2 161.3 406.8 162.2Q406.5 163.1 405.8 163.6Q405.1 164.1 404.1 164.1ZM404.1 162.9L404.1 162.9Q404.6 162.9 405.0 162.6Q405.4 162.2 405.6 161.6Q405.7 160.9 405.7 160.0L405.7 160.0Q405.7 159.1 405.6 158.4Q405.4 157.8 405.0 157.4Q404.6 157.1 404.1 157.1L404.1 157.1Q403.6 157.1 403.2 157.4Q402.9 157.8 402.7 158.4Q402.5 159.1 402.5 160.0L402.5 160.0Q402.5 160.9 402.7 161.6Q402.9 162.2 403.2 162.6Q403.6 162.9 404.1 162.9ZM409.9 160.5L409.9 160.5L409.9 164L408.5 164L408.5 156.0L409.9 156.0L409.9 159.1Q410.1 158.6 410.5 158.3L410.5 158.3Q410.9 157.9 411.7 157.9L411.7 157.9Q412.3 157.9 412.8 158.2Q413.2 158.4 413.5 159.0Q413.7 159.5 413.7 160.2L413.7 160.2L413.7 164L412.3 164L412.3 160.4Q412.3 159.8 412.0 159.5Q411.7 159.1 411.2 159.1L411.2 159.1Q410.8 159.1 410.5 159.3Q410.2 159.4 410.0 159.7Q409.9 160.0 409.9 160.5Z " transform="matrix(1.00,-0.02,0.02,1.00,-3.11,4.57)"/></g><mask id="satori_om-id-0-1-2-1"><rect x="345" y="172" width="89" height="26" fill="#fff"/></mask><g  ><path fill="#9ca3af" d="M348.5 183L348.5 183L345.9 183L345.9 175.0L348.6 175.0Q349.7 175.0 350.6 175.5Q351.4 176.0 351.9 176.8Q352.3 177.7 352.3 179.0L352.3 179.0Q352.3 180.2 351.9 181.1Q351.4 182.0 350.6 182.5Q349.7 183 348.5 183ZM347.1 176.1L347.1 181.9L348.4 181.9Q349.3 181.9 349.9 181.6Q350.5 181.2 350.8 180.6Q351.1 179.9 351.1 179.0L351.1 179.0Q351.1 178.0 350.8 177.4Q350.5 176.7 349.9 176.4Q349.4 176.1 348.5 176.1L348.5 176.1L347.1 176.1ZM356.0 183.1L356.0 183.1Q355.4 183.1 354.9 182.8Q354.5 182.6 354.2 182.1Q354.0 181.5 354.0 180.8L354.0 180.8L354.0 177.0L355.1 177.0L355.1 180.7Q355.1 181.3 355.5 181.7Q355.8 182.0 356.4 182.0L356.4 182.0Q356.8 182.0 357.1 181.9Q357.4 181.7 357.6 181.4Q357.8 181.0 357.8 180.6L357.8 180.6L357.8 177.0L359.0 177.0L359.0 183L357.9 183L357.8 181.8Q357.6 182.4 357.2 182.7L357.2 182.7Q356.7 183.1 356.0 183.1ZM362.2 177.0L363.4 177.0L363.4 178.0L362.2 178.0L362.2 181.4Q362.2 181.7 362.3 181.9Q362.5 182.1 362.8 182.1L362.8 182.1Q362.9 182.1 363.1 182.1Q363.2 182.0 363.3 182.0L363.3 182.0L363.5 183.0Q363.3 183.0 363.1 183.1Q362.9 183.1 362.7 183.1L362.7 183.1Q361.9 183.1 361.4 182.7Q361.0 182.2 361.0 181.5L361.0 181.5L361.0 178.0L360.1 178.0L360.1 177.0L361.0 177.0L361.0 175.6L362.2 175.6L362.2 177.0ZM364.7 185.2L364.7 185.2L365.0 184.2L365.1 184.2Q365.4 184.3 365.6 184.3Q365.9 184.2 366.1 184.0Q366.3 183.9 366.4 183.5L366.4 183.5L366.5 183.0L364.2 177.0L365.5 177.0L366.7 180.4Q366.9 181.0 367.0 181.5L367.0 181.5Q367.1 181.8 367.1 182.0L367.1 182.0Q367.2 181.8 367.2 181.5L367.2 181.5Q367.4 181.0 367.6 180.4L367.6 180.4L368.8 177.0L370.0 177.0L367.4 183.8Q367.2 184.3 367.0 184.6Q366.7 185.0 366.3 185.1Q366.0 185.3 365.5 185.3L365.5 185.3Q365.2 185.3 365.0 185.2Q364.8 185.2 364.7 185.2Z M376.0 179.4L376.0 179.4L376.0 183L374.8 183L374.8 175.0L376.0 175.0L376.0 178.1Q376.2 177.6 376.6 177.3L376.6 177.3Q377.1 176.9 377.8 176.9L377.8 176.9Q378.4 176.9 378.9 177.2Q379.3 177.4 379.6 177.9Q379.8 178.4 379.8 179.2L379.8 179.2L379.8 183L378.6 183L378.6 179.3Q378.6 178.7 378.3 178.3Q378.0 178.0 377.4 178.0L377.4 178.0Q377.0 178.0 376.7 178.1Q376.3 178.3 376.2 178.6Q376.0 179.0 376.0 179.4ZM384.2 183.1L384.2 183.1Q383.3 183.1 382.7 182.7Q382.1 182.4 381.7 181.7Q381.4 181.0 381.4 180.0L381.4 180.0Q381.4 179.1 381.7 178.4Q382.1 177.7 382.7 177.3Q383.3 176.9 384.2 176.9L384.2 176.9Q385.0 176.9 385.6 177.3Q386.3 177.7 386.6 178.4Q387.0 179.1 387.0 180.0L387.0 180.0Q387.0 181.0 386.6 181.7Q386.3 182.4 385.6 182.7Q385.0 183.1 384.2 183.1ZM384.2 182.1L384.2 182.1Q384.7 182.1 385.1 181.8Q385.4 181.5 385.6 181.1Q385.8 180.6 385.8 180.0L385.8 180.0Q385.8 179.5 385.6 179.0Q385.4 178.5 385.1 178.2Q384.7 177.9 384.2 177.9L384.2 177.9Q383.6 177.9 383.3 178.2Q382.9 178.5 382.7 179.0Q382.6 179.4 382.6 180.0L382.6 180.0Q382.6 180.6 382.7 181.1Q382.9 181.5 383.3 181.8Q383.6 182.1 384.2 182.1ZM390.5 183.1L390.5 183.1Q389.9 183.1 389.5 182.8Q389.0 182.6 388.8 182.1Q388.5 181.5 388.5 180.8L388.5 180.8L388.5 177.0L389.7 177.0L389.7 180.7Q389.7 181.3 390.0 181.7Q390.4 182.0 390.9 182.0L390.9 182.0Q391.3 182.0 391.7 181.9Q392.0 181.7 392.2 181.4Q392.3 181.0 392.3 180.6L392.3 180.6L392.3 177.0L393.5 177.0L393.5 183L392.4 183L392.4 181.8Q392.1 182.4 391.7 182.7L391.7 182.7Q391.2 183.1 390.5 183.1ZM396.5 183L395.3 183L395.3 177.0L396.5 177.0L396.5 178.0L396.5 178.0Q396.7 177.5 397.1 177.2Q397.5 176.9 398.1 176.9L398.1 176.9Q398.2 176.9 398.3 176.9Q398.5 176.9 398.6 176.9L398.6 176.9L398.6 178.1Q398.5 178.0 398.3 178.0Q398.1 178.0 397.9 178.0L397.9 178.0Q397.5 178.0 397.2 178.2Q396.9 178.3 396.7 178.7Q396.5 179.0 396.5 179.4L396.5 179.4L396.5 183Z M348.3 196.1L348.3 196.1Q347.5 196.1 346.8 195.7Q346.2 195.4 345.9 194.7Q345.5 194.0 345.5 193.0L345.5 193.0Q345.5 192.1 345.9 191.4Q346.2 190.7 346.8 190.3Q347.5 189.9 348.3 189.9L348.3 189.9Q348.8 189.9 349.2 190.0Q349.6 190.2 349.9 190.4Q350.3 190.6 350.5 190.9Q350.7 191.3 350.8 191.7L350.8 191.7L349.7 192.0Q349.7 191.7 349.5 191.5Q349.4 191.3 349.2 191.2Q349.1 191.1 348.8 191.0Q348.6 190.9 348.3 190.9L348.3 190.9Q347.8 190.9 347.4 191.2Q347.1 191.5 346.9 192.0Q346.7 192.4 346.7 193.0L346.7 193.0Q346.7 193.6 346.9 194.1Q347.1 194.6 347.4 194.8Q347.8 195.1 348.3 195.1L348.3 195.1Q348.6 195.1 348.8 195.0Q349.1 195.0 349.2 194.8Q349.4 194.7 349.6 194.5Q349.7 194.3 349.7 194.0L349.7 194.0L350.8 194.3Q350.7 194.7 350.5 195.1Q350.3 195.4 349.9 195.6Q349.6 195.9 349.2 196Q348.8 196.1 348.3 196.1ZM355.0 196.1L355.0 196.1Q354.1 196.1 353.4 195.7Q352.8 195.4 352.4 194.7Q352.1 194.0 352.1 193.0L352.1 193.0Q352.1 192.1 352.4 191.4Q352.8 190.7 353.4 190.3Q354.0 189.9 354.9 189.9L354.9 189.9Q355.4 189.9 355.8 190.1Q356.3 190.3 356.7 190.6Q357.1 191.0 357.3 191.6Q357.5 192.1 357.5 192.9L357.5 192.9L357.5 193.4L353.3 193.4Q353.3 193.9 353.5 194.3L353.5 194.3Q353.7 194.7 354.1 194.9Q354.5 195.1 355.0 195.1L355.0 195.1Q355.3 195.1 355.6 195.1Q355.8 195.0 356.0 194.8Q356.2 194.6 356.3 194.3L356.3 194.3L357.4 194.6Q357.3 195.0 357.0 195.4Q356.6 195.7 356.1 195.9Q355.6 196.1 355.0 196.1ZM353.3 192.5L353.3 192.5L356.4 192.5Q356.3 192.1 356.2 191.8L356.2 191.8Q356.0 191.4 355.7 191.1Q355.4 190.9 354.9 190.9L354.9 190.9Q354.4 190.9 354.0 191.1Q353.6 191.4 353.5 191.8L353.5 191.8Q353.3 192.1 353.3 192.5ZM360.2 196L359.0 196L359.0 190.0L360.2 190.0L360.2 196ZM359.6 189.1L359.6 189.1Q359.3 189.1 359.1 188.9Q358.9 188.7 358.9 188.4L358.9 188.4Q358.9 188.1 359.1 187.9Q359.3 187.7 359.6 187.7L359.6 187.7Q359.9 187.7 360.2 187.9Q360.4 188.1 360.4 188.4L360.4 188.4Q360.4 188.7 360.2 188.9Q359.9 189.1 359.6 189.1ZM362.0 188.0L363.2 188.0L363.2 196L362.0 196L362.0 188.0ZM366.2 196L365.0 196L365.0 190.0L366.2 190.0L366.2 196ZM365.6 189.1L365.6 189.1Q365.3 189.1 365.1 188.9Q364.9 188.7 364.9 188.4L364.9 188.4Q364.9 188.1 365.1 187.9Q365.3 187.7 365.6 187.7L365.6 187.7Q365.9 187.7 366.2 187.9Q366.4 188.1 366.4 188.4L366.4 188.4Q366.4 188.7 366.2 188.9Q365.9 189.1 365.6 189.1ZM369.2 192.4L369.2 192.4L369.2 196L368.0 196L368.0 190.0L369.1 190.0L369.2 191.1Q369.4 190.6 369.8 190.3L369.8 190.3Q370.3 189.9 371.0 189.9L371.0 189.9Q371.6 189.9 372.1 190.2Q372.5 190.4 372.8 190.9Q373.0 191.4 373.0 192.2L373.0 192.2L373.0 196L371.9 196L371.9 192.3Q371.9 191.7 371.5 191.3Q371.2 191.0 370.6 191.0L370.6 191.0Q370.2 191.0 369.9 191.1Q369.6 191.3 369.4 191.6Q369.2 192.0 369.2 192.4ZM377.4 198.4L377.4 198.4Q376.7 198.4 376.2 198.2Q375.7 198.0 375.3 197.7Q375.0 197.4 374.8 197.1L374.8 197.1L375.8 196.6Q375.9 196.8 376.1 197.0Q376.3 197.2 376.6 197.3Q376.9 197.4 377.4 197.4L377.4 197.4Q378.1 197.4 378.5 197.1Q378.9 196.8 378.9 196.1L378.9 196.1L378.9 194.9L378.8 194.9Q378.7 195.1 378.5 195.3Q378.3 195.6 378.0 195.7Q377.6 195.9 377.1 195.9L377.1 195.9Q376.4 195.9 375.8 195.6Q375.2 195.2 374.9 194.6Q374.6 193.9 374.6 193.0L374.6 193.0Q374.6 192.0 374.9 191.3Q375.2 190.7 375.8 190.3Q376.4 189.9 377.1 189.9L377.1 189.9Q377.7 189.9 378.0 190.1Q378.3 190.3 378.5 190.5Q378.7 190.8 378.8 191.0L378.8 191.0L378.9 191.0L378.9 190.0L380.1 190.0L380.1 196.1Q380.1 196.9 379.7 197.4Q379.4 197.9 378.8 198.1Q378.1 198.4 377.4 198.4ZM377.4 194.9L377.4 194.9Q377.9 194.9 378.2 194.7Q378.6 194.5 378.7 194.0Q378.9 193.6 378.9 193.0L378.9 193.0Q378.9 192.4 378.7 191.9Q378.6 191.4 378.2 191.2Q377.9 190.9 377.4 190.9L377.4 190.9Q376.8 190.9 376.5 191.2Q376.1 191.5 376.0 191.9Q375.8 192.4 375.8 193.0L375.8 193.0Q375.8 193.5 376.0 194.0Q376.1 194.4 376.5 194.7Q376.8 194.9 377.4 194.9Z " transform="matrix(1.00,-0.02,0.02,1.00,-3.11,4.57)"/></g><clipPath id="satori_cp-id-0-1-2-2"><path x="345" y="206" width="89" height="4" d="M347,206 h85 a2,2 0 0 1 2,2 v0 a2,2 0 0 1 -2,2 h-85 a2,2 0 0 1 -2,-2 v0 a2,2 0 0 1 2,-2" transform="matrix(1.00,-0.02,0.02,1.00,-3.11,4.57)"/></clipPath><mask id="satori_om-id-0-1-2-2"><rect x="345" y="206" width="89" height="4" fill="#fff" transform="matrix(1.00,-0.02,0.02,1.00,-3.11,4.57)"/></mask><path x="345" y="206" width="89" height="4" fill="#f3f4f6" d="M347,206 h85 a2,2 0 0 1 2,2 v0 a2,2 0 0 1 -2,2 h-85 a2,2 0 0 1 -2,-2 v0 a2,2 0 0 1 2,-2" transform="matrix(1.00,-0.02,0.02,1.00,-3.11,4.57)"/><mask id="satori_om-id-0-1-2-2-0"><rect x="345" y="206" width="87" height="4" fill="#fff" mask="url(#satori_om-id-0-1-2-2)"/></mask><g clip-path="url(#satori_cp-id-0-1-2-2)" mask="url(#satori_om-id-0-1-2-2)"><path x="345" y="206" width="87" height="4" fill="#16a34a" d="M347,206 h83 a2,2 0 0 1 2,2 v0 a2,2 0 0 1 -2,2 h-83 a2,2 0 0 1 -2,-2 v0 a2,2 0 0 1 2,-2" transform="matrix(1.00,-0.02,0.02,1.00,-3.11,4.57)"/></g><clipPath id="satori_cp-id-0-2"><path x="72" y="244" width="376" height="10" d="M77,244 h366 a5,5 0 0 1 5,5 v0 a5,5 0 0 1 -5,5 h-366 a5,5 0 0 1 -5,-5 v0 a5,5 0 0 1 5,-5" transform="matrix(1.00,-0.02,0.02,1.00,-3.11,4.57)"/></clipPath><mask id="satori_om-id-0-2"><rect x="72" y="244" width="376" height="10" fill="#fff" transform="matrix(1.00,-0.02,0.02,1.00,-3.11,4.57)"/></mask><path x="72" y="244" width="376" height="10" fill="#f3f4f6" d="M77,244 h366 a5,5 0 0 1 5,5 v0 a5,5 0 0 1 -5,5 h-366 a5,5 0 0 1 -5,-5 v0 a5,5 0 0 1 5,-5" transform="matrix(1.00,-0.02,0.02,1.00,-3.11,4.57)"/><mask id="satori_om-id-0-2-0"><rect x="72" y="244" width="48" height="10" fill="#fff" mask="url(#satori_om-id-0-2)"/></mask><g clip-path="url(#satori_cp-id-0-2)" mask="url(#satori_om-id-0-2)"><rect x="72" y="244" width="48" height="10" fill="#d1d5db" transform="matrix(1.00,-0.02,0.02,1.00,-3.11,4.57)"/></g><mask id="satori_om-id-0-2-1"><rect x="122" y="244" width="47" height="10" fill="#fff" mask="url(#satori_om-id-0-2)"/></mask><g clip-path="url(#satori_cp-id-0-2)" mask="url(#satori_om-id-0-2)"><rect x="122" y="244" width="47" height="10" fill="#9ca3af" transform="matrix(1.00,-0.02,0.02,1.00,-3.11,4.57)"/></g><mask id="satori_om-id-0-2-2"><rect x="171" y="244" width="49" height="10" fill="#fff" mask="url(#satori_om-id-0-2)"/></mask><g clip-path="url(#satori_cp-id-0-2)" mask="url(#satori_om-id-0-2)"><rect x="171" y="244" width="49" height="10" fill="#d1d5db" transform="matrix(1.00,-0.02,0.02,1.00,-3.11,4.57)"/></g><mask id="satori_om-id-0-2-3"><rect x="222" y="244" width="47" height="10" fill="#fff" mask="url(#satori_om-id-0-2)"/></mask><g clip-path="url(#satori_cp-id-0-2)" mask="url(#satori_om-id-0-2)"><rect x="222" y="244" width="47" height="10" fill="#fbbf24" transform="matrix(1.00,-0.02,0.02,1.00,-3.11,4.57)"/></g><mask id="satori_om-id-0-2-4"><rect x="271" y="244" width="47" height="10" fill="#fff" mask="url(#satori_om-id-0-2)"/></mask><g clip-path="url(#satori_cp-id-0-2)" mask="url(#satori_om-id-0-2)"><rect x="271" y="244" width="47" height="10" fill="#9ca3af" transform="matrix(1.00,-0.02,0.02,1.00,-3.11,4.57)"/></g><mask id="satori_om-id-0-2-5"><rect x="320" y="244" width="48" height="10" fill="#fff" mask="url(#satori_om-id-0-2)"/></mask><g clip-path="url(#satori_cp-id-0-2)" mask="url(#satori_om-id-0-2)"><rect x="320" y="244" width="48" height="10" fill="#d1d5db" transform="matrix(1.00,-0.02,0.02,1.00,-3.11,4.57)"/></g><mask id="satori_om-id-0-2-6"><rect x="370" y="244" width="47" height="10" fill="#fff" mask="url(#satori_om-id-0-2)"/></mask><g clip-path="url(#satori_cp-id-0-2)" mask="url(#satori_om-id-0-2)"><rect x="370" y="244" width="47" height="10" fill="#9ca3af" transform="matrix(1.00,-0.02,0.02,1.00,-3.11,4.57)"/></g><mask id="satori_om-id-0-2-7"><rect x="419" y="244" width="43" height="10" fill="#fff" mask="url(#satori_om-id-0-2)"/></mask><g clip-path="url(#satori_cp-id-0-2)" mask="url(#satori_om-id-0-2)"><rect x="419" y="244" width="43" height="10" fill="#d1d5db" transform="matrix(1.00,-0.02,0.02,1.00,-3.11,4.57)"/></g><mask id="satori_om-id-0-3"><rect x="72" y="266" width="376" height="14" fill="#fff"/></mask><mask id="satori_om-id-0-3-0"><rect x="72" y="270" width="7" height="7" fill="#fff"/></mask><path x="72" y="270" width="7" height="7" fill="#1a1a1a" d="M75.5,270 h0 a3.5,3.5 0 0 1 3.5,3.5 v0 a3.5,3.5 0 0 1 -3.5,3.5 h0 a3.5,3.5 0 0 1 -3.5,-3.5 v0 a3.5,3.5 0 0 1 3.5,-3.5" transform="matrix(1.00,-0.02,0.02,1.00,-3.11,4.57)"/><mask id="satori_om-id-0-3-1"><rect x="87" y="266" width="149" height="14" fill="#fff"/></mask><g  ><path fill="#6b7280" d="M91.0 277L87.9 277L87.9 269.0L90.8 269.0Q91.7 269.0 92.2 269.3Q92.8 269.6 93.1 270.0Q93.4 270.5 93.4 271.1L93.4 271.1Q93.4 271.6 93.2 271.9Q93.0 272.3 92.7 272.5Q92.4 272.7 92.0 272.8L92.0 272.8L92.0 272.9Q92.4 272.9 92.8 273.1Q93.2 273.4 93.4 273.8Q93.7 274.2 93.7 274.8L93.7 274.8Q93.7 275.5 93.4 275.9Q93.1 276.4 92.5 276.7Q91.9 277 91.0 277L91.0 277ZM89.1 273.4L89.1 275.9L90.8 275.9Q91.7 275.9 92.1 275.6Q92.5 275.3 92.5 274.8L92.5 274.8Q92.5 274.4 92.3 274.1Q92.1 273.8 91.7 273.6Q91.4 273.4 90.9 273.4L90.9 273.4L89.1 273.4ZM89.1 270.0L89.1 272.5L90.7 272.5Q91.1 272.5 91.4 272.3Q91.8 272.1 92.0 271.9Q92.2 271.6 92.2 271.2L92.2 271.2Q92.2 270.7 91.8 270.4Q91.5 270.0 90.7 270.0L90.7 270.0L89.1 270.0ZM96.7 277.1L96.7 277.1Q96.1 277.1 95.7 276.9Q95.2 276.7 94.9 276.3Q94.7 275.9 94.7 275.3L94.7 275.3Q94.7 274.8 94.9 274.5Q95.1 274.1 95.4 273.9Q95.7 273.8 96.1 273.7Q96.6 273.6 97.0 273.5L97.0 273.5Q97.5 273.4 97.8 273.4Q98.2 273.4 98.3 273.3Q98.5 273.2 98.5 273.0L98.5 273.0L98.5 272.9Q98.5 272.6 98.4 272.4Q98.2 272.1 98.0 272.0Q97.7 271.9 97.3 271.9L97.3 271.9Q97.0 271.9 96.7 272.0Q96.4 272.1 96.2 272.3Q96.0 272.5 96.0 272.7L96.0 272.7L94.8 272.4Q95.0 271.9 95.4 271.5Q95.8 271.2 96.3 271.1Q96.8 270.9 97.3 270.9L97.3 270.9Q97.7 270.9 98.1 271.0Q98.5 271.1 98.9 271.3Q99.2 271.5 99.5 272.0Q99.7 272.4 99.7 273.0L99.7 273.0L99.7 277L98.5 277L98.5 276.2L98.5 276.2Q98.4 276.4 98.1 276.6Q97.9 276.8 97.5 277.0Q97.2 277.1 96.7 277.1ZM97.0 276.2L97.0 276.2Q97.4 276.2 97.8 276.0Q98.1 275.8 98.3 275.5Q98.5 275.2 98.5 274.8L98.5 274.8L98.5 274.1Q98.4 274.1 98.3 274.2Q98.1 274.2 97.8 274.3Q97.6 274.3 97.4 274.3Q97.2 274.4 97.0 274.4L97.0 274.4Q96.7 274.4 96.4 274.5Q96.2 274.6 96.0 274.8Q95.8 275.0 95.8 275.3L95.8 275.3Q95.8 275.6 96.0 275.8Q96.1 276.0 96.4 276.1Q96.6 276.2 97.0 276.2ZM101.3 269.0L102.4 269.0L102.4 277L101.3 277L101.3 269.0ZM105.7 277.1L105.7 277.1Q105.1 277.1 104.7 276.9Q104.2 276.7 104.0 276.3Q103.7 275.9 103.7 275.3L103.7 275.3Q103.7 274.8 103.9 274.5Q104.1 274.1 104.4 273.9Q104.8 273.8 105.2 273.7Q105.6 273.6 106.0 273.5L106.0 273.5Q106.5 273.4 106.9 273.4Q107.2 273.4 107.4 273.3Q107.5 273.2 107.5 273.0L107.5 273.0L107.5 272.9Q107.5 272.6 107.4 272.4Q107.3 272.1 107.0 272.0Q106.7 271.9 106.4 271.9L106.4 271.9Q106.0 271.9 105.7 272.0Q105.4 272.1 105.2 272.3Q105.1 272.5 105.0 272.7L105.0 272.7L103.9 272.4Q104.1 271.9 104.4 271.5Q104.8 271.2 105.3 271.1Q105.8 270.9 106.3 270.9L106.3 270.9Q106.7 270.9 107.1 271.0Q107.5 271.1 107.9 271.3Q108.2 271.5 108.5 272.0Q108.7 272.4 108.7 273.0L108.7 273.0L108.7 277L107.5 277L107.5 276.2L107.5 276.2Q107.4 276.4 107.1 276.6Q106.9 276.8 106.6 277.0Q106.2 277.1 105.7 277.1ZM106.0 276.2L106.0 276.2Q106.5 276.2 106.8 276.0Q107.2 275.8 107.3 275.5Q107.5 275.2 107.5 274.8L107.5 274.8L107.5 274.1Q107.5 274.1 107.3 274.2Q107.1 274.2 106.9 274.3Q106.6 274.3 106.4 274.3Q106.2 274.4 106.1 274.4L106.1 274.4Q105.7 274.4 105.5 274.5Q105.2 274.6 105.0 274.8Q104.8 275.0 104.8 275.3L104.8 275.3Q104.8 275.6 105.0 275.8Q105.1 276.0 105.4 276.1Q105.6 276.2 106.0 276.2ZM111.5 273.4L111.5 273.4L111.5 277L110.3 277L110.3 271.0L111.4 271.0L111.4 272.1Q111.7 271.6 112.1 271.3L112.1 271.3Q112.6 270.9 113.3 270.9L113.3 270.9Q113.9 270.9 114.3 271.2Q114.8 271.4 115.1 271.9Q115.3 272.4 115.3 273.2L115.3 273.2L115.3 277L114.1 277L114.1 273.3Q114.1 272.7 113.8 272.3Q113.5 272.0 112.9 272.0L112.9 272.0Q112.5 272.0 112.1 272.1Q111.8 272.3 111.6 272.6Q111.5 273.0 111.5 273.4ZM119.4 277.1L119.4 277.1Q118.6 277.1 117.9 276.7Q117.3 276.4 117.0 275.7Q116.6 275.0 116.6 274.0L116.6 274.0Q116.6 273.1 117.0 272.4Q117.3 271.7 117.9 271.3Q118.6 270.9 119.4 270.9L119.4 270.9Q119.9 270.9 120.3 271.0Q120.7 271.2 121.0 271.4Q121.4 271.6 121.6 271.9Q121.8 272.3 121.9 272.7L121.9 272.7L120.8 273.0Q120.8 272.7 120.6 272.5Q120.5 272.3 120.3 272.2Q120.2 272.1 119.9 272.0Q119.7 271.9 119.4 271.9L119.4 271.9Q118.9 271.9 118.5 272.2Q118.2 272.5 118.0 273.0Q117.8 273.4 117.8 274.0L117.8 274.0Q117.8 274.6 118.0 275.1Q118.2 275.6 118.5 275.8Q118.9 276.1 119.4 276.1L119.4 276.1Q119.7 276.1 119.9 276.0Q120.2 276.0 120.4 275.8Q120.5 275.7 120.7 275.5Q120.8 275.3 120.8 275.0L120.8 275.0L122.0 275.3Q121.8 275.7 121.6 276.1Q121.4 276.4 121.1 276.6Q120.7 276.9 120.3 277Q119.9 277.1 119.4 277.1ZM125.8 277.1L125.8 277.1Q125.0 277.1 124.3 276.7Q123.7 276.4 123.3 275.7Q123.0 275.0 123.0 274.0L123.0 274.0Q123.0 273.1 123.3 272.4Q123.7 271.7 124.3 271.3Q124.9 270.9 125.7 270.9L125.7 270.9Q126.3 270.9 126.7 271.1Q127.2 271.3 127.6 271.6Q128.0 272.0 128.2 272.6Q128.4 273.1 128.4 273.9L128.4 273.9L128.4 274.4L124.2 274.4Q124.2 274.9 124.4 275.3L124.4 275.3Q124.6 275.7 125.0 275.9Q125.3 276.1 125.8 276.1L125.8 276.1Q126.2 276.1 126.5 276.1Q126.7 276.0 126.9 275.8Q127.1 275.6 127.2 275.3L127.2 275.3L128.3 275.6Q128.2 276.0 127.8 276.4Q127.5 276.7 127.0 276.9Q126.5 277.1 125.8 277.1ZM124.2 273.5L124.2 273.5L127.2 273.5Q127.2 273.1 127.1 272.8L127.1 272.8Q126.9 272.4 126.6 272.1Q126.2 271.9 125.7 271.9L125.7 271.9Q125.2 271.9 124.9 272.1Q124.5 272.4 124.3 272.8L124.3 272.8Q124.2 273.1 124.2 273.5ZM131.9 277.1L131.9 277.1Q131.2 277.1 130.6 276.7Q130.1 276.4 129.8 275.7Q129.4 275.0 129.4 274.0L129.4 274.0Q129.4 273.0 129.8 272.3Q130.1 271.7 130.7 271.3Q131.2 270.9 131.9 270.9L131.9 270.9Q132.5 270.9 132.8 271.1Q133.2 271.3 133.4 271.5Q133.6 271.8 133.7 272.0L133.7 272.0L133.7 272.0L133.7 269.0L134.9 269.0L134.9 277L133.8 277L133.8 276.1L133.7 276.1Q133.6 276.3 133.4 276.5Q133.2 276.7 132.8 276.9Q132.5 277.1 131.9 277.1ZM132.2 276.1L132.2 276.1Q132.7 276.1 133.1 275.8Q133.4 275.6 133.6 275.1Q133.8 274.6 133.8 274.0L133.8 274.0Q133.8 273.4 133.6 272.9Q133.4 272.4 133.1 272.2Q132.7 271.9 132.2 271.9L132.2 271.9Q131.7 271.9 131.3 272.2Q131.0 272.5 130.8 272.9Q130.6 273.4 130.6 274.0L130.6 274.0Q130.6 274.6 130.8 275.1Q131.0 275.6 131.3 275.8Q131.7 276.1 132.2 276.1Z M141.1 277.1L141.1 277.1Q140.6 277.1 140.1 276.9Q139.6 276.7 139.4 276.3Q139.1 275.9 139.1 275.3L139.1 275.3Q139.1 274.8 139.3 274.5Q139.5 274.1 139.8 273.9Q140.2 273.8 140.6 273.7Q141.0 273.6 141.4 273.5L141.4 273.5Q141.9 273.4 142.3 273.4Q142.6 273.4 142.8 273.3Q142.9 273.2 142.9 273.0L142.9 273.0L142.9 272.9Q142.9 272.6 142.8 272.4Q142.7 272.1 142.4 272.0Q142.2 271.9 141.8 271.9L141.8 271.9Q141.4 271.9 141.1 272.0Q140.8 272.1 140.6 272.3Q140.5 272.5 140.4 272.7L140.4 272.7L139.3 272.4Q139.5 271.9 139.9 271.5Q140.2 271.2 140.7 271.1Q141.2 270.9 141.7 270.9L141.7 270.9Q142.1 270.9 142.5 271.0Q142.9 271.1 143.3 271.3Q143.6 271.5 143.9 272.0Q144.1 272.4 144.1 273.0L144.1 273.0L144.1 277L143.0 277L143.0 276.2L142.9 276.2Q142.8 276.4 142.5 276.6Q142.3 276.8 142.0 277.0Q141.6 277.1 141.1 277.1ZM141.4 276.2L141.4 276.2Q141.9 276.2 142.2 276.0Q142.6 275.8 142.7 275.5Q142.9 275.2 142.9 274.8L142.9 274.8L142.9 274.1Q142.9 274.1 142.7 274.2Q142.5 274.2 142.3 274.3Q142.0 274.3 141.8 274.3Q141.6 274.4 141.5 274.4L141.5 274.4Q141.1 274.4 140.9 274.5Q140.6 274.6 140.4 274.8Q140.3 275.0 140.3 275.3L140.3 275.3Q140.3 275.6 140.4 275.8Q140.5 276.0 140.8 276.1Q141.1 276.2 141.4 276.2ZM148.2 277.1L148.2 277.1Q147.4 277.1 146.7 276.7Q146.1 276.4 145.8 275.7Q145.4 275.0 145.4 274.0L145.4 274.0Q145.4 273.1 145.8 272.4Q146.1 271.7 146.7 271.3Q147.4 270.9 148.2 270.9L148.2 270.9Q148.7 270.9 149.1 271.0Q149.5 271.2 149.8 271.4Q150.2 271.6 150.4 271.9Q150.6 272.3 150.7 272.7L150.7 272.7L149.6 273.0Q149.5 272.7 149.4 272.5Q149.3 272.3 149.1 272.2Q149.0 272.1 148.7 272.0Q148.5 271.9 148.2 271.9L148.2 271.9Q147.7 271.9 147.3 272.2Q147.0 272.5 146.8 273.0Q146.6 273.4 146.6 274.0L146.6 274.0Q146.6 274.6 146.8 275.1Q147.0 275.6 147.3 275.8Q147.7 276.1 148.2 276.1L148.2 276.1Q148.5 276.1 148.7 276.0Q149.0 276.0 149.1 275.8Q149.3 275.7 149.4 275.5Q149.6 275.3 149.6 275.0L149.6 275.0L150.7 275.3Q150.6 275.7 150.4 276.1Q150.2 276.4 149.8 276.6Q149.5 276.9 149.1 277Q148.7 277.1 148.2 277.1ZM153.2 277L152.0 277L152.0 271.0L153.2 271.0L153.2 272.0L153.2 272.0Q153.4 271.5 153.8 271.2Q154.2 270.9 154.8 270.9L154.8 270.9Q154.9 270.9 155.0 270.9Q155.2 270.9 155.3 270.9L155.3 270.9L155.3 272.1Q155.2 272.0 155.0 272.0Q154.8 272.0 154.6 272.0L154.6 272.0Q154.2 272.0 153.9 272.2Q153.6 272.3 153.4 272.7Q153.2 273.0 153.2 273.4L153.2 273.4L153.2 277ZM158.8 277.1L158.8 277.1Q158.0 277.1 157.3 276.7Q156.7 276.4 156.4 275.7Q156.0 275.0 156.0 274.0L156.0 274.0Q156.0 273.1 156.4 272.4Q156.7 271.7 157.3 271.3Q158.0 270.9 158.8 270.9L158.8 270.9Q159.7 270.9 160.3 271.3Q160.9 271.7 161.3 272.4Q161.6 273.1 161.6 274.0L161.6 274.0Q161.6 275.0 161.3 275.7Q160.9 276.4 160.3 276.7Q159.7 277.1 158.8 277.1ZM158.8 276.1L158.8 276.1Q159.4 276.1 159.7 275.8Q160.1 275.5 160.3 275.1Q160.4 274.6 160.4 274.0L160.4 274.0Q160.4 273.5 160.3 273.0Q160.1 272.5 159.7 272.2Q159.4 271.9 158.8 271.9L158.8 271.9Q158.3 271.9 157.9 272.2Q157.6 272.5 157.4 273.0Q157.2 273.4 157.2 274.0L157.2 274.0Q157.2 274.6 157.4 275.1Q157.6 275.5 157.9 275.8Q158.3 276.1 158.8 276.1ZM165.1 277.1L165.1 277.1Q164.4 277.1 163.9 276.9Q163.4 276.7 163.1 276.4Q162.8 276.0 162.7 275.5L162.7 275.5L163.8 275.2Q163.9 275.7 164.2 275.9Q164.6 276.2 165.1 276.2L165.1 276.2Q165.7 276.2 166.0 275.9Q166.3 275.7 166.3 275.4L166.3 275.4Q166.3 275.1 166.1 274.9Q165.9 274.7 165.5 274.6L165.5 274.6L164.5 274.4Q163.7 274.2 163.2 273.8Q162.8 273.4 162.8 272.7L162.8 272.7Q162.8 272.2 163.1 271.8Q163.4 271.4 164.0 271.1Q164.5 270.9 165.2 270.9L165.2 270.9Q165.8 270.9 166.3 271.1Q166.7 271.3 167.0 271.6Q167.3 272.0 167.4 272.4L167.4 272.4L166.4 272.6Q166.3 272.3 166.0 272.1Q165.7 271.9 165.2 271.9L165.2 271.9Q164.7 271.9 164.4 272.1Q164.0 272.3 164.0 272.6L164.0 272.6Q164.0 272.9 164.2 273.1Q164.5 273.3 165.0 273.4L165.0 273.4L165.9 273.6Q166.8 273.8 167.2 274.2Q167.6 274.6 167.6 275.3L167.6 275.3Q167.6 275.8 167.3 276.2Q166.9 276.6 166.4 276.9Q165.8 277.1 165.1 277.1ZM171.0 277.1L171.0 277.1Q170.4 277.1 169.9 276.9Q169.3 276.7 169.0 276.4Q168.7 276.0 168.6 275.5L168.6 275.5L169.7 275.2Q169.8 275.7 170.2 275.9Q170.5 276.2 171.0 276.2L171.0 276.2Q171.6 276.2 171.9 275.9Q172.3 275.7 172.3 275.4L172.3 275.4Q172.3 275.1 172.1 274.9Q171.9 274.7 171.4 274.6L171.4 274.6L170.4 274.4Q169.6 274.2 169.2 273.8Q168.8 273.4 168.8 272.7L168.8 272.7Q168.8 272.2 169.1 271.8Q169.4 271.4 169.9 271.1Q170.4 270.9 171.1 270.9L171.1 270.9Q171.7 270.9 172.2 271.1Q172.7 271.3 173.0 271.6Q173.2 272.0 173.4 272.4L173.4 272.4L172.3 272.6Q172.2 272.3 171.9 272.1Q171.6 271.9 171.1 271.9L171.1 271.9Q170.6 271.9 170.3 272.1Q170.0 272.3 170.0 272.6L170.0 272.6Q170.0 272.9 170.2 273.1Q170.4 273.3 170.9 273.4L170.9 273.4L171.9 273.6Q172.7 273.8 173.1 274.2Q173.5 274.6 173.5 275.3L173.5 275.3Q173.5 275.8 173.2 276.2Q172.9 276.6 172.3 276.9Q171.8 277.1 171.0 277.1Z M180.4 277.1L180.4 277.1Q179.5 277.1 178.9 276.8Q178.3 276.5 177.9 276.0Q177.5 275.5 177.5 274.9L177.5 274.9Q177.5 274.4 177.7 273.9Q178.0 273.5 178.3 273.2Q178.7 272.9 179.1 272.8L179.1 272.8L179.1 272.8Q178.5 272.7 178.2 272.2Q177.8 271.7 177.8 271.0L177.8 271.0Q177.8 270.4 178.2 269.9Q178.5 269.4 179.1 269.2Q179.6 268.9 180.4 268.9L180.4 268.9Q181.1 268.9 181.7 269.2Q182.3 269.4 182.6 269.9Q182.9 270.4 182.9 271.0L182.9 271.0Q182.9 271.7 182.6 272.2Q182.2 272.7 181.6 272.8L181.6 272.8L181.6 272.8Q182.1 272.9 182.4 273.2Q182.8 273.5 183.0 273.9Q183.2 274.4 183.2 274.9L183.2 274.9Q183.2 275.5 182.9 276.0Q182.5 276.5 181.9 276.8Q181.2 277.1 180.4 277.1ZM180.4 276.1L180.4 276.1Q180.9 276.1 181.2 275.9Q181.6 275.8 181.8 275.5Q182.0 275.2 182.0 274.8L182.0 274.8Q182.0 274.4 181.8 274.1Q181.6 273.7 181.2 273.6Q180.8 273.4 180.4 273.4L180.4 273.4Q179.9 273.4 179.5 273.6Q179.2 273.7 179.0 274.1Q178.8 274.4 178.8 274.8L178.8 274.8Q178.8 275.2 179.0 275.5Q179.2 275.8 179.5 275.9Q179.9 276.1 180.4 276.1ZM180.4 272.4L180.4 272.4Q180.8 272.4 181.1 272.2Q181.4 272.1 181.6 271.8Q181.8 271.5 181.8 271.1L181.8 271.1Q181.8 270.8 181.6 270.5Q181.4 270.2 181.1 270.0Q180.8 269.9 180.4 269.9L180.4 269.9Q180.0 269.9 179.7 270.0Q179.4 270.2 179.2 270.5Q179.0 270.8 179.0 271.1L179.0 271.1Q179.0 271.5 179.2 271.8Q179.4 272.1 179.7 272.2Q180.0 272.4 180.4 272.4Z M188.8 277L187.6 277L187.6 271.0L188.7 271.0L188.7 272.0L188.8 272.0Q188.9 271.5 189.4 271.2Q189.8 270.9 190.3 270.9L190.3 270.9Q190.4 270.9 190.6 270.9Q190.7 270.9 190.8 270.9L190.8 270.9L190.8 272.1Q190.7 272.0 190.6 272.0Q190.4 272.0 190.2 272.0L190.2 272.0Q189.8 272.0 189.4 272.2Q189.1 272.3 188.9 272.7Q188.8 273.0 188.8 273.4L188.8 273.4L188.8 277ZM194.4 277.1L194.4 277.1Q193.5 277.1 192.9 276.7Q192.2 276.4 191.9 275.7Q191.5 275.0 191.5 274.0L191.5 274.0Q191.5 273.1 191.9 272.4Q192.2 271.7 192.9 271.3Q193.5 270.9 194.3 270.9L194.3 270.9Q194.8 270.9 195.3 271.1Q195.8 271.3 196.2 271.6Q196.5 272.0 196.8 272.6Q197.0 273.1 197.0 273.9L197.0 273.9L197.0 274.4L192.7 274.4Q192.8 274.9 193.0 275.3L193.0 275.3Q193.2 275.7 193.5 275.9Q193.9 276.1 194.4 276.1L194.4 276.1Q194.8 276.1 195.0 276.1Q195.3 276.0 195.5 275.8Q195.7 275.6 195.8 275.3L195.8 275.3L196.9 275.6Q196.8 276.0 196.4 276.4Q196.1 276.7 195.6 276.9Q195.1 277.1 194.4 277.1ZM192.7 273.5L192.7 273.5L195.8 273.5Q195.8 273.1 195.7 272.8L195.7 272.8Q195.5 272.4 195.2 272.1Q194.8 271.9 194.3 271.9L194.3 271.9Q193.8 271.9 193.5 272.1Q193.1 272.4 192.9 272.8L192.9 272.8Q192.8 273.1 192.7 273.5ZM200.4 277.1L200.4 277.1Q199.8 277.1 199.3 276.9Q198.8 276.7 198.5 276.4Q198.1 276.0 198.0 275.5L198.0 275.5L199.1 275.2Q199.3 275.7 199.6 275.9Q199.9 276.2 200.5 276.2L200.5 276.2Q201.0 276.2 201.4 275.9Q201.7 275.7 201.7 275.4L201.7 275.4Q201.7 275.1 201.5 274.9Q201.3 274.7 200.9 274.6L200.9 274.6L199.8 274.4Q199.0 274.2 198.6 273.8Q198.2 273.4 198.2 272.7L198.2 272.7Q198.2 272.2 198.5 271.8Q198.8 271.4 199.3 271.1Q199.8 270.9 200.5 270.9L200.5 270.9Q201.2 270.9 201.6 271.1Q202.1 271.3 202.4 271.6Q202.7 272.0 202.8 272.4L202.8 272.4L201.7 272.6Q201.6 272.3 201.3 272.1Q201.1 271.9 200.5 271.9L200.5 271.9Q200.0 271.9 199.7 272.1Q199.4 272.3 199.4 272.6L199.4 272.6Q199.4 272.9 199.6 273.1Q199.8 273.3 200.3 273.4L200.3 273.4L201.3 273.6Q202.1 273.8 202.5 274.2Q202.9 274.6 202.9 275.3L202.9 275.3Q202.9 275.8 202.6 276.2Q202.3 276.6 201.7 276.9Q201.2 277.1 200.4 277.1ZM205.4 277L204.2 277L204.2 271.0L205.4 271.0L205.4 277ZM204.8 270.1L204.8 270.1Q204.5 270.1 204.3 269.9Q204.1 269.7 204.1 269.4L204.1 269.4Q204.1 269.1 204.3 268.9Q204.5 268.7 204.8 268.7L204.8 268.7Q205.1 268.7 205.3 268.9Q205.6 269.1 205.6 269.4L205.6 269.4Q205.6 269.7 205.3 269.9Q205.1 270.1 204.8 270.1ZM209.2 277.1L209.2 277.1Q208.5 277.1 207.9 276.7Q207.4 276.4 207.0 275.7Q206.7 275.0 206.7 274.0L206.7 274.0Q206.7 273.0 207.0 272.3Q207.4 271.7 207.9 271.3Q208.5 270.9 209.2 270.9L209.2 270.9Q209.8 270.9 210.1 271.1Q210.5 271.3 210.7 271.5Q210.8 271.8 210.9 272.0L210.9 272.0L211.0 272.0L211.0 269.0L212.2 269.0L212.2 277L211.0 277L211.0 276.1L210.9 276.1Q210.8 276.3 210.6 276.5Q210.4 276.7 210.1 276.9Q209.8 277.1 209.2 277.1ZM209.5 276.1L209.5 276.1Q210.0 276.1 210.3 275.8Q210.7 275.6 210.9 275.1Q211.0 274.6 211.0 274.0L211.0 274.0Q211.0 273.4 210.9 272.9Q210.7 272.4 210.3 272.2Q210.0 271.9 209.5 271.9L209.5 271.9Q209.0 271.9 208.6 272.2Q208.3 272.5 208.1 272.9Q207.9 273.4 207.9 274.0L207.9 274.0Q207.9 274.6 208.1 275.1Q208.3 275.6 208.6 275.8Q209.0 276.1 209.5 276.1ZM216.4 277.1L216.4 277.1Q215.5 277.1 214.8 276.7Q214.2 276.4 213.9 275.7Q213.5 275.0 213.5 274.0L213.5 274.0Q213.5 273.1 213.8 272.4Q214.2 271.7 214.8 271.3Q215.4 270.9 216.3 270.9L216.3 270.9Q216.8 270.9 217.3 271.1Q217.7 271.3 218.1 271.6Q218.5 272.0 218.7 272.6Q219.0 273.1 219.0 273.9L219.0 273.9L219.0 274.4L214.7 274.4Q214.7 274.9 214.9 275.3L214.9 275.3Q215.1 275.7 215.5 275.9Q215.9 276.1 216.4 276.1L216.4 276.1Q216.7 276.1 217.0 276.1Q217.3 276.0 217.5 275.8Q217.6 275.6 217.7 275.3L217.7 275.3L218.9 275.6Q218.7 276.0 218.4 276.4Q218.0 276.7 217.5 276.9Q217.0 277.1 216.4 277.1ZM214.7 273.5L214.7 273.5L217.8 273.5Q217.7 273.1 217.6 272.8L217.6 272.8Q217.4 272.4 217.1 272.1Q216.8 271.9 216.3 271.9L216.3 271.9Q215.8 271.9 215.4 272.1Q215.1 272.4 214.9 272.8L214.9 272.8Q214.7 273.1 214.7 273.5ZM221.4 273.4L221.4 273.4L221.4 277L220.2 277L220.2 271.0L221.4 271.0L221.4 272.1Q221.6 271.6 222.0 271.3L222.0 271.3Q222.5 270.9 223.2 270.9L223.2 270.9Q223.8 270.9 224.3 271.2Q224.8 271.4 225.0 271.9Q225.3 272.4 225.3 273.2L225.3 273.2L225.3 277L224.1 277L224.1 273.3Q224.1 272.7 223.8 272.3Q223.4 272.0 222.8 272.0L222.8 272.0Q222.4 272.0 222.1 272.1Q221.8 272.3 221.6 272.6Q221.4 273.0 221.4 273.4ZM228.2 271.0L229.4 271.0L229.4 272.0L228.2 272.0L228.2 275.4Q228.2 275.7 228.4 275.9Q228.5 276.1 228.9 276.1L228.9 276.1Q229.0 276.1 229.1 276.1Q229.3 276.0 229.4 276.0L229.4 276.0L229.6 277.0Q229.4 277.0 229.2 277.1Q229.0 277.1 228.8 277.1L228.8 277.1Q228.0 277.1 227.5 276.7Q227.1 276.2 227.1 275.5L227.1 275.5L227.1 272.0L226.2 272.0L226.2 271.0L227.1 271.0L227.1 269.6L228.2 269.6L228.2 271.0ZM232.8 277.1L232.8 277.1Q232.1 277.1 231.6 276.9Q231.1 276.7 230.8 276.4Q230.4 276.0 230.3 275.5L230.3 275.5L231.5 275.2Q231.6 275.7 231.9 275.9Q232.3 276.2 232.8 276.2L232.8 276.2Q233.3 276.2 233.7 275.9Q234.0 275.7 234.0 275.4L234.0 275.4Q234.0 275.1 233.8 274.9Q233.6 274.7 233.2 274.6L233.2 274.6L232.2 274.4Q231.3 274.2 230.9 273.8Q230.5 273.4 230.5 272.7L230.5 272.7Q230.5 272.2 230.8 271.8Q231.1 271.4 231.6 271.1Q232.2 270.9 232.8 270.9L232.8 270.9Q233.5 270.9 233.9 271.1Q234.4 271.3 234.7 271.6Q235.0 272.0 235.1 272.4L235.1 272.4L234.0 272.6Q233.9 272.3 233.7 272.1Q233.4 271.9 232.8 271.9L232.8 271.9Q232.4 271.9 232.0 272.1Q231.7 272.3 231.7 272.6L231.7 272.6Q231.7 272.9 231.9 273.1Q232.1 273.3 232.6 273.4L232.6 273.4L233.6 273.6Q234.4 273.8 234.8 274.2Q235.2 274.6 235.2 275.3L235.2 275.3Q235.2 275.8 234.9 276.2Q234.6 276.6 234.1 276.9Q233.5 277.1 232.8 277.1Z " transform="matrix(1.00,-0.02,0.02,1.00,-3.11,4.57)"/></g></svg>