<svg width="480" height="420" viewBox="0 0 480 420" xmlns="http://www.w3.org/2000/svg"><mask id="satori_om-id"><rect x="0" y="0" width="480" height="420" fill="#fff"/></mask><mask id="satori_om-id-0"><rect x="0" y="0" width="480" height="420" fill="#fff"/></mask><mask id="satori_ms-id-0-0-1" maskUnits="userSpaceOnUse"><rect x="0" y="0" width="480" height="420" fill="#fff"/><path x="20" y="20" width="121" height="20" fill="#000"  stroke-width="0" d="M30,20 h101 a10,10 0 0 1 10,10 v0 a10,10 0 0 1 -10,10 h-101 a10,10 0 0 1 -10,-10 v0 a10,10 0 0 1 10,-10"/></mask><defs><filter id="satori_s-id-0-0-1" x="-29.75206611570248%" y="-180%" width="159.50413223140495%" height="459.99999999999994%"><feGaussianBlur stdDeviation="6" result="b"/><feFlood flood-color="rgba(0,0,0,0.05)" in="SourceGraphic" result="f"/><feComposite in="f" in2="b" operator="in"/></filter></defs><g mask="url(#satori_ms-id-0-0-1)" filter="url(#satori_s-id-0-0-1)" opacity="1"><path x="20" y="24" width="121" height="20" fill="#fff" stroke="#fff" stroke-width="0" d="M30,24 h101 a10,10 0 0 1 10,10 v0 a10,10 0 0 1 -10,10 h-101 a10,10 0 0 1 -10,-10 v0 a10,10 0 0 1 10,-10"/></g><mask id="satori_ms-id-0-0-0" maskUnits="userSpaceOnUse"><rect x="0" y="0" width="480" height="420" fill="#fff"/><path x="20" y="20" width="121" height="20" fill="#000"  stroke-width="0" d="M30,20 h101 a10,10 0 0 1 10,10 v0 a10,10 0 0 1 -10,10 h-101 a10,10 0 0 1 -10,-10 v0 a10,10 0 0 1 10,-10"/></mask><defs><filter id="satori_s-id-0-0-0" x="-0.8264462809917356%" y="-5%" width="101.65289256198346%" height="110.00000000000001%"><feGaussianBlur stdDeviation="1" result="b"/><feFlood flood-color="rgba(0,0,0,0.03)" in="SourceGraphic" result="f"/><feComposite in="f" in2="b" operator="in"/></filter></defs><g mask="url(#satori_ms-id-0-0-0)" filter="url(#satori_s-id-0-0-0)" opacity="1"><path x="20" y="21" width="121" height="20" fill="#fff" stroke="#fff" stroke-width="0" d="M30,21 h101 a10,10 0 0 1 10,10 v0 a10,10 0 0 1 -10,10 h-101 a10,10 0 0 1 -10,-10 v0 a10,10 0 0 1 10,-10"/></g><mask id="satori_om-id-0-0"><rect x="20" y="20" width="121" height="20" fill="#fff"/></mask><path x="20" y="20" width="121" height="20" fill="#ffffff" d="M30,20 h101 a10,10 0 0 1 10,10 v0 a10,10 0 0 1 -10,10 h-101 a10,10 0 0 1 -10,-10 v0 a10,10 0 0 1 10,-10"/><g  ><path fill="#6b7280" d="M32.0 34L30.2 34L32.9 30.3L30.5 26.7L32.2 26.7L33.0 27.9Q33.2 28.3 33.4 28.6Q33.5 28.8 33.6 29.1L33.6 29.1Q33.7 29.2 33.7 29.2L33.7 29.2Q33.7 29.2 33.8 29.1L33.8 29.1Q33.9 28.8 34.0 28.6Q34.2 28.3 34.4 27.9L34.4 27.9L35.2 26.7L36.9 26.7L34.6 30.2L37.1 34L35.4 34L34.4 32.5Q34.2 32.2 34.0 32.0Q33.9 31.7 33.8 31.5L33.8 31.5Q33.8 31.4 33.7 31.3L33.7 31.3Q33.6 31.4 33.6 31.5L33.6 31.5Q33.5 31.7 33.3 32.0Q33.2 32.2 33.0 32.5L33.0 32.5L32.0 34ZM42.2 33.6L41.0 33.6L41.0 31.7L39.1 31.7L39.1 30.5L41.0 30.5L41.0 28.6L42.2 28.6L42.2 30.5L44.1 30.5L44.1 31.7L42.2 31.7L42.2 33.6ZM50.2 34L48.7 34L48.7 31.3L46.0 26.7L47.8 26.7L49.0 29.0Q49.2 29.3 49.3 29.7L49.3 29.7Q49.4 29.8 49.5 30.0L49.5 30.0Q49.5 29.8 49.6 29.7L49.6 29.7Q49.7 29.3 49.9 29.0L49.9 29.0L51.1 26.7L52.8 26.7L50.2 31.3L50.2 34Z M60.4 34.1L60.4 34.1Q59.5 34.1 58.9 33.8Q58.2 33.6 57.8 33.0Q57.5 32.5 57.5 31.7L57.5 31.7L58.9 31.7Q58.9 32.1 59.1 32.4Q59.3 32.6 59.6 32.7Q60.0 32.8 60.4 32.8L60.4 32.8Q60.8 32.8 61.1 32.7Q61.3 32.6 61.5 32.4Q61.7 32.2 61.7 31.9L61.7 31.9Q61.7 31.7 61.5 31.5Q61.4 31.3 61.1 31.2Q60.8 31.1 60.4 31.0L60.4 31.0L59.6 30.8Q58.7 30.6 58.2 30.1Q57.7 29.6 57.7 28.8L57.7 28.8Q57.7 28.2 58.0 27.7Q58.4 27.2 59.0 26.9Q59.6 26.6 60.4 26.6L60.4 26.6Q61.2 26.6 61.8 26.9Q62.4 27.2 62.7 27.7Q63.1 28.2 63.1 28.8L63.1 28.8L61.6 28.8Q61.6 28.4 61.3 28.1Q60.9 27.9 60.4 27.9L60.4 27.9Q60.0 27.9 59.7 28.0Q59.5 28.1 59.3 28.3Q59.2 28.5 59.2 28.7L59.2 28.7Q59.2 29.0 59.3 29.2Q59.5 29.3 59.8 29.5Q60.0 29.6 60.3 29.6L60.3 29.6L61.0 29.8Q61.5 29.9 61.9 30.1Q62.3 30.3 62.6 30.5Q62.9 30.8 63.0 31.1Q63.2 31.5 63.2 31.9L63.2 31.9Q63.2 32.6 62.8 33.1Q62.5 33.6 61.9 33.8Q61.3 34.1 60.4 34.1ZM68.2 34.1L68.2 34.1Q67.3 34.1 66.5 33.7Q65.7 33.2 65.3 32.4Q64.9 31.5 64.9 30.4L64.9 30.4Q64.9 29.2 65.3 28.3Q65.7 27.5 66.5 27.1Q67.3 26.6 68.2 26.6L68.2 26.6Q68.9 26.6 69.4 26.8Q69.9 27.0 70.3 27.3Q70.8 27.6 71.0 28.1Q71.3 28.6 71.4 29.2L71.4 29.2L69.9 29.2Q69.8 28.9 69.7 28.7Q69.5 28.4 69.3 28.3Q69.1 28.1 68.8 28.0Q68.6 28.0 68.3 28.0L68.3 28.0Q67.7 28.0 67.3 28.2Q66.8 28.5 66.6 29.1Q66.4 29.6 66.4 30.4L66.4 30.4Q66.4 31.2 66.6 31.7Q66.8 32.2 67.3 32.5Q67.7 32.8 68.3 32.8L68.3 32.8Q68.6 32.8 68.8 32.7Q69.1 32.6 69.3 32.4Q69.5 32.3 69.7 32.0Q69.8 31.8 69.9 31.5L69.9 31.5L71.4 31.5Q71.3 32.0 71.1 32.5Q70.8 32.9 70.4 33.3Q70.0 33.7 69.5 33.9Q68.9 34.1 68.2 34.1ZM74.7 34L73.3 34L73.3 26.7L74.7 26.7L74.7 29.7L77.9 29.7L77.9 26.7L79.4 26.7L79.4 34L77.9 34L77.9 30.9L74.7 30.9L74.7 34ZM86.4 34L81.5 34L81.5 26.7L86.4 26.7L86.4 28.0L83.0 28.0L83.0 29.7L86.1 29.7L86.1 30.9L83.0 30.9L83.0 32.8L86.4 32.8L86.4 34ZM91.0 34L91.0 34L88.4 34L88.4 26.7L91.0 26.7Q92.1 26.7 92.9 27.2Q93.7 27.6 94.1 28.4Q94.5 29.2 94.5 30.4L94.5 30.4Q94.5 31.5 94.1 32.3Q93.7 33.1 92.9 33.6Q92.1 34 91.0 34ZM89.9 28.0L89.9 32.7L90.9 32.7Q91.6 32.7 92.1 32.5Q92.5 32.2 92.8 31.7Q93.0 31.2 93.0 30.4L93.0 30.4Q93.0 29.5 92.8 29.0Q92.5 28.5 92.1 28.3Q91.6 28.0 90.9 28.0L90.9 28.0L89.9 28.0ZM99.4 34.1L99.4 34.1Q98.5 34.1 97.8 33.8Q97.2 33.4 96.8 32.8Q96.4 32.2 96.4 31.4L96.4 31.4L96.4 26.7L97.9 26.7L97.9 31.3Q97.9 31.7 98.1 32.1Q98.3 32.4 98.6 32.6Q99.0 32.8 99.4 32.8L99.4 32.8Q99.9 32.8 100.2 32.6Q100.6 32.4 100.7 32.1Q100.9 31.7 100.9 31.3L100.9 31.3L100.9 26.7L102.4 26.7L102.4 31.4Q102.4 32.2 102.0 32.8Q101.7 33.4 101.0 33.8Q100.3 34.1 99.4 34.1ZM109.2 34L104.5 34L104.5 26.7L106.0 26.7L106.0 32.8L109.2 32.8L109.2 34ZM111.0 26.7L112.5 26.7L112.5 34L111.0 34L111.0 26.7ZM116.1 34L114.6 34L114.6 26.7L116.3 26.7L118.6 30.4Q118.7 30.7 118.9 31.0Q119.1 31.4 119.3 31.8L119.3 31.8Q119.4 32.0 119.5 32.2L119.5 32.2Q119.5 32.0 119.4 31.8L119.4 31.8Q119.4 31.3 119.4 30.9Q119.4 30.5 119.4 30.2L119.4 30.2L119.4 26.7L120.9 26.7L120.9 34L119.2 34L117.1 30.7Q116.9 30.3 116.7 29.9Q116.5 29.6 116.3 29.1L116.3 29.1Q116.2 28.9 116.0 28.6L116.0 28.6Q116.0 28.9 116.1 29.1L116.1 29.1Q116.1 29.6 116.1 30.0Q116.1 30.4 116.1 30.7L116.1 30.7L116.1 34ZM126.2 34.1L126.2 34.1Q125.2 34.1 124.5 33.6Q123.7 33.2 123.3 32.4Q122.8 31.5 122.8 30.4L122.8 30.4Q122.8 29.2 123.3 28.4Q123.7 27.5 124.5 27.1Q125.3 26.6 126.2 26.6L126.2 26.6Q126.8 26.6 127.4 26.8Q127.9 27.0 128.3 27.3Q128.7 27.6 129.0 28.1Q129.2 28.5 129.3 29.1L129.3 29.1L127.8 29.1Q127.7 28.8 127.6 28.6Q127.4 28.4 127.2 28.2Q127.0 28.1 126.8 28.0Q126.5 28.0 126.2 28.0L126.2 28.0Q125.7 28.0 125.2 28.2Q124.8 28.5 124.6 29.0Q124.3 29.6 124.3 30.4Q124.3 31.1 124.6 31.7Q124.8 32.2 125.2 32.5Q125.7 32.8 126.3 32.8L126.3 32.8Q126.8 32.8 127.2 32.6Q127.5 32.4 127.7 32.0L127.7 32.0Q127.9 31.7 127.9 31.3L127.9 31.3L126.4 31.3L126.4 30.1L129.4 30.1L129.4 31.0Q129.4 32.0 129.0 32.7Q128.6 33.4 127.9 33.7Q127.2 34.1 126.2 34.1Z "/></g><mask id="satori_om-id-0-1"><rect x="20" y="48" width="138" height="18" fill="#fff"/></mask><g  ><path fill="#1a1a1a" d="M25.8 63.1L25.8 63.1Q24.3 63.1 23.2 62.5Q22.0 61.8 21.4 60.6Q20.7 59.3 20.7 57.6L20.7 57.6Q20.7 55.8 21.4 54.5Q22.0 53.3 23.2 52.6Q24.3 51.9 25.8 51.9L25.8 51.9Q26.7 51.9 27.5 52.2Q28.3 52.5 28.9 53.0Q29.5 53.5 29.9 54.2Q30.3 54.9 30.5 55.8L30.5 55.8L28.2 55.8Q28.1 55.4 27.9 55.0Q27.7 54.7 27.4 54.4Q27.1 54.2 26.7 54.1Q26.3 53.9 25.8 53.9L25.8 53.9Q25.0 53.9 24.3 54.4Q23.7 54.8 23.3 55.6Q23.0 56.4 23.0 57.6L23.0 57.6Q23.0 58.7 23.3 59.5Q23.7 60.3 24.3 60.8Q25.0 61.2 25.8 61.2L25.8 61.2Q26.3 61.2 26.7 61.0Q27.1 60.9 27.4 60.7Q27.7 60.4 27.9 60.1Q28.1 59.7 28.2 59.3L28.2 59.3L30.5 59.3Q30.4 60.0 30.0 60.7Q29.6 61.4 29.0 62.0Q28.4 62.5 27.6 62.8Q26.8 63.1 25.8 63.1ZM31.9 52.1L34.1 52.1L34.1 63L31.9 63L31.9 52.1ZM38.0 63L35.8 63L35.8 54.8L38.0 54.8L38.0 63ZM36.9 53.7L36.9 53.7Q36.4 53.7 36.0 53.4Q35.7 53.1 35.7 52.6L35.7 52.6Q35.7 52.1 36.0 51.8Q36.4 51.5 36.9 51.5L36.9 51.5Q37.4 51.5 37.8 51.8Q38.1 52.1 38.1 52.6L38.1 52.6Q38.1 53.1 37.8 53.4Q37.4 53.7 36.9 53.7ZM41.9 58.3L41.9 58.3L41.9 63L39.7 63L39.7 54.8L41.8 54.8L41.8 56.5Q42.1 55.7 42.7 55.3L42.7 55.3Q43.3 54.7 44.4 54.7L44.4 54.7Q45.2 54.7 45.8 55.1Q46.5 55.4 46.8 56.1Q47.2 56.8 47.2 57.8L47.2 57.8L47.2 63L45.0 63L45.0 58.2Q45.0 57.4 44.6 57.0Q44.2 56.5 43.5 56.5L43.5 56.5Q43.0 56.5 42.7 56.7Q42.3 57.0 42.1 57.3Q41.9 57.7 41.9 58.3ZM51.1 63L48.9 63L48.9 54.8L51.1 54.8L51.1 63ZM50.0 53.7L50.0 53.7Q49.5 53.7 49.2 53.4Q48.8 53.1 48.8 52.6L48.8 52.6Q48.8 52.1 49.2 51.8Q49.5 51.5 50.0 51.5L50.0 51.5Q50.5 51.5 50.9 51.8Q51.2 52.1 51.2 52.6L51.2 52.6Q51.2 53.1 50.9 53.4Q50.5 53.7 50.0 53.7ZM56.5 63.2L56.5 63.2Q55.2 63.2 54.3 62.6Q53.4 62.1 53.0 61.2Q52.5 60.2 52.5 58.9L52.5 58.9Q52.5 57.7 53.0 56.7Q53.4 55.8 54.3 55.2Q55.2 54.7 56.5 54.7L56.5 54.7Q57.2 54.7 57.8 54.9Q58.4 55.1 58.9 55.4Q59.4 55.8 59.7 56.3Q60.0 56.8 60.1 57.4L60.1 57.4L58.1 57.8Q58.0 57.5 57.9 57.2Q57.7 57.0 57.5 56.8Q57.3 56.6 57.1 56.5Q56.8 56.4 56.5 56.4L56.5 56.4Q55.9 56.4 55.5 56.8Q55.1 57.1 54.9 57.6Q54.7 58.2 54.7 58.9L54.7 58.9Q54.7 59.7 54.9 60.2Q55.1 60.8 55.5 61.1Q55.9 61.4 56.5 61.4L56.5 61.4Q56.8 61.4 57.1 61.3Q57.3 61.2 57.5 61.0Q57.8 60.9 57.9 60.6Q58.0 60.3 58.1 60.0L58.1 60.0L60.1 60.4Q60.0 61.0 59.7 61.5Q59.4 62.0 58.9 62.4Q58.4 62.8 57.8 63.0Q57.2 63.2 56.5 63.2Z M69.7 63.1L69.7 63.1Q68.3 63.1 67.1 62.5Q66.0 61.8 65.3 60.6Q64.6 59.3 64.6 57.6L64.6 57.6Q64.6 55.8 65.3 54.5Q66.0 53.3 67.1 52.6Q68.3 51.9 69.7 51.9L69.7 51.9Q70.6 51.9 71.4 52.2Q72.2 52.5 72.9 53.0Q73.5 53.5 73.9 54.2Q74.3 54.9 74.4 55.8L74.4 55.8L72.1 55.8Q72.1 55.4 71.9 55.0Q71.7 54.7 71.3 54.4Q71.0 54.2 70.6 54.1Q70.2 53.9 69.8 53.9L69.8 53.9Q68.9 53.9 68.3 54.4Q67.6 54.8 67.3 55.6Q66.9 56.4 66.9 57.6L66.9 57.6Q66.9 58.7 67.3 59.5Q67.6 60.3 68.3 60.8Q68.9 61.2 69.8 61.2L69.8 61.2Q70.2 61.2 70.6 61.0Q71.0 60.9 71.3 60.7Q71.7 60.4 71.9 60.1Q72.1 59.7 72.2 59.3L72.2 59.3L74.4 59.3Q74.3 60.0 74.0 60.7Q73.6 61.4 73.0 62.0Q72.4 62.5 71.6 62.8Q70.7 63.1 69.7 63.1ZM79.5 63.2L79.5 63.2Q78.3 63.2 77.4 62.6Q76.5 62.1 76.0 61.2Q75.5 60.2 75.5 58.9L75.5 58.9Q75.5 57.7 76.0 56.7Q76.5 55.8 77.4 55.2Q78.3 54.7 79.5 54.7L79.5 54.7Q80.7 54.7 81.6 55.2Q82.5 55.8 83.0 56.7Q83.5 57.7 83.5 58.9L83.5 58.9Q83.5 60.2 83.0 61.2Q82.5 62.1 81.6 62.6Q80.7 63.2 79.5 63.2ZM79.5 61.4L79.5 61.4Q80.1 61.4 80.5 61.1Q80.9 60.8 81.1 60.2Q81.3 59.6 81.3 58.9L81.3 58.9Q81.3 58.2 81.1 57.6Q80.9 57.1 80.5 56.8Q80.1 56.4 79.5 56.4L79.5 56.4Q78.9 56.4 78.5 56.8Q78.1 57.1 77.9 57.6Q77.7 58.2 77.7 58.9L77.7 58.9Q77.7 59.6 77.9 60.2Q78.1 60.8 78.5 61.1Q78.9 61.4 79.5 61.4ZM88.6 63.2L88.6 63.2Q87.3 63.2 86.4 62.6Q85.5 62.1 85.0 61.2Q84.5 60.2 84.5 58.9L84.5 58.9Q84.5 57.7 85.0 56.7Q85.5 55.8 86.4 55.2Q87.3 54.7 88.6 54.7L88.6 54.7Q89.8 54.7 90.7 55.2Q91.6 55.8 92.1 56.7Q92.6 57.7 92.6 58.9L92.6 58.9Q92.6 60.2 92.1 61.2Q91.6 62.1 90.7 62.6Q89.8 63.2 88.6 63.2ZM88.6 61.4L88.6 61.4Q89.1 61.4 89.5 61.1Q89.9 60.8 90.1 60.2Q90.3 59.6 90.3 58.9L90.3 58.9Q90.3 58.2 90.1 57.6Q89.9 57.1 89.5 56.8Q89.1 56.4 88.6 56.4L88.6 56.4Q88.0 56.4 87.6 56.8Q87.2 57.1 87.0 57.6Q86.8 58.2 86.8 58.9L86.8 58.9Q86.8 59.6 87.0 60.2Q87.2 60.8 87.6 61.1Q88.0 61.4 88.6 61.4ZM96.1 63L93.9 63L93.9 54.8L96.1 54.8L96.1 56.2L96.2 56.2Q96.4 55.5 96.9 55.1Q97.4 54.7 98.1 54.7L98.1 54.7Q98.3 54.7 98.5 54.7Q98.7 54.7 98.8 54.8L98.8 54.8L98.8 56.7Q98.7 56.7 98.4 56.7Q98.1 56.6 97.9 56.6L97.9 56.6Q97.4 56.6 97.0 56.8Q96.6 57.1 96.4 57.4Q96.1 57.8 96.1 58.3L96.1 58.3L96.1 63ZM102.9 63.1L102.9 63.1Q101.9 63.1 101.2 62.7Q100.4 62.2 100.0 61.2Q99.6 60.3 99.6 58.9L99.6 58.9Q99.6 57.5 100.0 56.6Q100.5 55.6 101.2 55.2Q102.0 54.7 102.9 54.7L102.9 54.7Q103.6 54.7 104.0 54.9Q104.5 55.2 104.8 55.5Q105.1 55.9 105.2 56.2L105.2 56.2L105.3 56.2L105.3 52.1L107.5 52.1L107.5 63L105.3 63L105.3 61.7L105.2 61.7Q105.1 62.0 104.8 62.4Q104.5 62.7 104.0 62.9Q103.6 63.1 102.9 63.1ZM103.6 61.4L103.6 61.4Q104.1 61.4 104.5 61.1Q104.9 60.8 105.1 60.2Q105.3 59.7 105.3 58.9L105.3 58.9Q105.3 58.2 105.1 57.6Q104.9 57.1 104.5 56.8Q104.1 56.5 103.6 56.5L103.6 56.5Q103.0 56.5 102.6 56.8Q102.2 57.1 102.0 57.6Q101.8 58.2 101.8 58.9L101.8 58.9Q101.8 59.6 102.0 60.2Q102.2 60.7 102.6 61.1Q103.0 61.4 103.6 61.4ZM111.4 63L109.2 63L109.2 54.8L111.4 54.8L111.4 63ZM110.3 53.7L110.3 53.7Q109.8 53.7 109.5 53.4Q109.1 53.1 109.1 52.6L109.1 52.6Q109.1 52.1 109.5 51.8Q109.8 51.5 110.3 51.5L110.3 51.5Q110.8 51.5 111.2 51.8Q111.5 52.1 111.5 52.6L111.5 52.6Q111.5 53.1 111.2 53.4Q110.8 53.7 110.3 53.7ZM115.3 58.3L115.3 58.3L115.3 63L113.1 63L113.1 54.8L115.2 54.8L115.2 56.5Q115.5 55.7 116.1 55.3L116.1 55.3Q116.7 54.7 117.8 54.7L117.8 54.7Q118.6 54.7 119.3 55.1Q119.9 55.4 120.2 56.1Q120.6 56.8 120.6 57.8L120.6 57.8L120.6 63L118.4 63L118.4 58.2Q118.4 57.4 118.0 57.0Q117.6 56.5 116.9 56.5L116.9 56.5Q116.4 56.5 116.1 56.7Q115.7 57.0 115.5 57.3Q115.3 57.7 115.3 58.3ZM124.6 63.2L124.6 63.2Q123.8 63.2 123.2 62.9Q122.6 62.6 122.2 62.1Q121.9 61.5 121.9 60.7L121.9 60.7Q121.9 60.0 122.1 59.6Q122.4 59.1 122.8 58.8Q123.2 58.5 123.8 58.4Q124.4 58.3 125.0 58.2L125.0 58.2Q125.7 58.1 126.1 58.1Q126.5 58.0 126.7 57.9Q126.9 57.7 126.9 57.5L126.9 57.5L126.9 57.4Q126.9 57.1 126.8 56.8Q126.6 56.6 126.4 56.5Q126.1 56.3 125.7 56.3L125.7 56.3Q125.2 56.3 124.9 56.5Q124.6 56.6 124.4 56.8Q124.2 57.0 124.1 57.3L124.1 57.3L122.1 57.0Q122.3 56.2 122.8 55.7Q123.3 55.2 124.0 55.0Q124.8 54.7 125.7 54.7L125.7 54.7Q126.3 54.7 127.0 54.9Q127.6 55.0 128.1 55.4Q128.6 55.7 128.9 56.2Q129.1 56.7 129.1 57.5L129.1 57.5L129.1 63L127.1 63L127.1 61.9L127.0 61.9Q126.8 62.2 126.5 62.5Q126.1 62.8 125.7 63.0Q125.2 63.2 124.6 63.2ZM125.2 61.6L125.2 61.6Q125.7 61.6 126.1 61.4Q126.5 61.2 126.7 60.9Q127.0 60.5 127.0 60.1L127.0 60.1L127.0 59.2Q126.9 59.3 126.7 59.3Q126.5 59.4 126.2 59.4Q126.0 59.5 125.7 59.5Q125.5 59.5 125.3 59.6L125.3 59.6Q124.9 59.6 124.6 59.7Q124.3 59.9 124.1 60.1Q124.0 60.3 124.0 60.6L124.0 60.6Q124.0 61.0 124.1 61.2Q124.3 61.4 124.6 61.5Q124.9 61.6 125.2 61.6ZM133.4 54.8L134.9 54.8L134.9 56.5L133.4 56.5L133.4 60.6Q133.4 61.0 133.6 61.2Q133.7 61.4 134.1 61.4L134.1 61.4Q134.3 61.4 134.5 61.3Q134.7 61.3 134.8 61.3L134.8 61.3L135.2 62.9Q134.8 63.0 134.4 63.1Q134.1 63.1 133.7 63.1L133.7 63.1Q132.5 63.1 131.9 62.5Q131.2 61.9 131.2 60.8L131.2 60.8L131.2 56.5L130.1 56.5L130.1 54.8L131.2 54.8L131.2 52.9L133.4 52.9L133.4 54.8ZM138.4 63L136.2 63L136.2 54.8L138.4 54.8L138.4 63ZM137.3 53.7L137.3 53.7Q136.8 53.7 136.5 53.4Q136.1 53.1 136.1 52.6L136.1 52.6Q136.1 52.1 136.5 51.8Q136.8 51.5 137.3 51.5L137.3 51.5Q137.8 51.5 138.2 51.8Q138.5 52.1 138.5 52.6L138.5 52.6Q138.5 53.1 138.2 53.4Q137.8 53.7 137.3 53.7ZM143.8 63.2L143.8 63.2Q142.6 63.2 141.7 62.6Q140.8 62.1 140.3 61.2Q139.8 60.2 139.8 58.9L139.8 58.9Q139.8 57.7 140.3 56.7Q140.8 55.8 141.7 55.2Q142.6 54.7 143.8 54.7L143.8 54.7Q145.0 54.7 145.9 55.2Q146.8 55.8 147.3 56.7Q147.8 57.7 147.8 58.9L147.8 58.9Q147.8 60.2 147.3 61.2Q146.8 62.1 145.9 62.6Q145.0 63.2 143.8 63.2ZM143.8 61.4L143.8 61.4Q144.4 61.4 144.8 61.1Q145.2 60.8 145.4 60.2Q145.6 59.6 145.6 58.9L145.6 58.9Q145.6 58.2 145.4 57.6Q145.2 57.1 144.8 56.8Q144.4 56.4 143.8 56.4L143.8 56.4Q143.2 56.4 142.8 56.8Q142.4 57.1 142.2 57.6Q142.0 58.2 142.0 58.9L142.0 58.9Q142.0 59.6 142.2 60.2Q142.4 60.8 142.8 61.1Q143.2 61.4 143.8 61.4ZM151.4 58.3L151.4 58.3L151.4 63L149.2 63L149.2 54.8L151.2 54.8L151.3 56.5Q151.6 55.7 152.1 55.3L152.1 55.3Q152.8 54.7 153.8 54.7L153.8 54.7Q154.7 54.7 155.3 55.1Q155.9 55.4 156.3 56.1Q156.6 56.8 156.6 57.8L156.6 57.8L156.6 63L154.4 63L154.4 58.2Q154.4 57.4 154.0 57.0Q153.7 56.5 153.0 56.5L153.0 56.5Q152.5 56.5 152.1 56.7Q151.8 57.0 151.6 57.3Q151.4 57.7 151.4 58.3Z "/></g><defs><pattern id="satori_pattern_id-0-2_0" x="0" y="0" width="1" height="1" patternUnits="objectBoundingBox"><radialGradient id="satori_radial_id-0-2_0" spreadMethod="pad"><stop offset="0" stop-color="rgba(251,191,36,0.28)"/><stop offset="0.7" stop-color="rgba(251,191,36,0.08)"/><stop offset="1" stop-color="rgba(251,191,36,0.08)"/></radialGradient><mask id="satori_mask_id-0-2_0"><rect x="0" y="0" width="180" height="180" fill="#fff"/></mask><rect x="0" y="0" width="180" height="180" fill="rgba(251,191,36,0.08)"/><circle cx="90" cy="90" width="180" height="180" r="127.27922061357856" fill="url(#satori_radial_id-0-2_0)" mask="url(#satori_mask_id-0-2_0)"/></pattern><clipPath id="satori_bc-id-0-2"><path x="150" y="66" width="180" height="180" d="M240,66 h0 a90,90 0 0 1 90,90 v0 a90,90 0 0 1 -90,90 h0 a90,90 0 0 1 -90,-90 v0 a90,90 0 0 1 90,-90"/></clipPath></defs><mask id="satori_om-id-0-2"><rect x="151.5" y="67.5" width="177" height="177" fill="#fff"/><path width="180" height="180" fill="none" stroke="#000" stroke-width="3" d="M176.36,92.36 A90,90 0 0 1 240,66 h0 a90,90 0 0 1 90,90 v0 a90,90 0 0 1 -90,90 h0 a90,90 0 0 1 -90,-90 v0 A90,90 0 0 1 176.36,92.36"/></mask><path x="150" y="66" width="180" height="180" fill="url(#satori_pattern_id-0-2_0)" d="M240,66 h0 a90,90 0 0 1 90,90 v0 a90,90 0 0 1 -90,90 h0 a90,90 0 0 1 -90,-90 v0 a90,90 0 0 1 90,-90"/><path width="180" height="180" clip-path="url(#satori_bc-id-0-2)" fill="none" stroke="rgba(251,191,36,0.18)" stroke-width="3" d="M176.36,92.36 A90,90 0 0 1 240,66 h0 a90,90 0 0 1 90,90 v0 a90,90 0 0 1 -90,90 h0 a90,90 0 0 1 -90,-90 v0 A90,90 0 0 1 176.36,92.36"/><defs><pattern id="satori_pattern_id-0-3_0" x="0" y="0" width="1" height="1" patternUnits="objectBoundingBox"><radialGradient id="satori_radial_id-0-3_0" spreadMethod="pad"><stop offset="0" stop-color="rgba(124,58,237,0.28)"/><stop offset="0.7" stop-color="rgba(124,58,237,0.08)"/><stop offset="1" stop-color="rgba(124,58,237,0.08)"/></radialGradient><mask id="satori_mask_id-0-3_0"><rect x="0" y="0" width="180" height="180" fill="#fff"/></mask><rect x="0" y="0" width="180" height="180" fill="rgba(124,58,237,0.08)"/><circle cx="90" cy="90" width="180" height="180" r="127.27922061357856" fill="url(#satori_radial_id-0-3_0)" mask="url(#satori_mask_id-0-3_0)"/></pattern><clipPath id="satori_bc-id-0-3"><path x="92" y="150" width="180" height="180" d="M182,150 h0 a90,90 0 0 1 90,90 v0 a90,90 0 0 1 -90,90 h0 a90,90 0 0 1 -90,-90 v0 a90,90 0 0 1 90,-90"/></clipPath></defs><mask id="satori_om-id-0-3"><rect x="93.5" y="151.5" width="177" height="177" fill="#fff"/><path width="180" height="180" fill="none" stroke="#000" stroke-width="3" d="M118.36,176.36 A90,90 0 0 1 182,150 h0 a90,90 0 0 1 90,90 v0 a90,90 0 0 1 -90,90 h0 a90,90 0 0 1 -90,-90 v0 A90,90 0 0 1 118.36,176.36"/></mask><path x="92" y="150" width="180" height="180" fill="url(#satori_pattern_id-0-3_0)" d="M182,150 h0 a90,90 0 0 1 90,90 v0 a90,90 0 0 1 -90,90 h0 a90,90 0 0 1 -90,-90 v0 a90,90 0 0 1 90,-90"/><path width="180" height="180" clip-path="url(#satori_bc-id-0-3)" fill="none" stroke="rgba(124,58,237,0.18)" stroke-width="3" d="M118.36,176.36 A90,90 0 0 1 182,150 h0 a90,90 0 0 1 90,90 v0 a90,90 0 0 1 -90,90 h0 a90,90 0 0 1 -90,-90 v0 A90,90 0 0 1 118.36,176.36"/><defs><pattern id="satori_pattern_id-0-4_0" x="0" y="0" width="1" height="1" patternUnits="objectBoundingBox"><radialGradient id="satori_radial_id-0-4_0" spreadMethod="pad"><stop offset="0" stop-color="rgba(16,185,129,0.28)"/><stop offset="0.7" stop-color="rgba(16,185,129,0.08)"/><stop offset="1" stop-color="rgba(16,185,129,0.08)"/></radialGradient><mask id="satori_mask_id-0-4_0"><rect x="0" y="0" width="180" height="180" fill="#fff"/></mask><rect x="0" y="0" width="180" height="180" fill="rgba(16,185,129,0.08)"/><circle cx="90" cy="90" width="180" height="180" r="127.27922061357856" fill="url(#satori_radial_id-0-4_0)" mask="url(#satori_mask_id-0-4_0)"/></pattern><clipPath id="satori_bc-id-0-4"><path x="208" y="150" width="180" height="180" d="M298,150 h0 a90,90 0 0 1 90,90 v0 a90,90 0 0 1 -90,90 h0 a90,90 0 0 1 -90,-90 v0 a90,90 0 0 1 90,-90"/></clipPath></defs><mask id="satori_om-id-0-4"><rect x="209.5" y="151.5" width="177" height="177" fill="#fff"/><path width="180" height="180" fill="none" stroke="#000" stroke-width="3" d="M234.36,176.36 A90,90 0 0 1 298,150 h0 a90,90 0 0 1 90,90 v0 a90,90 0 0 1 -90,90 h0 a90,90 0 0 1 -90,-90 v0 A90,90 0 0 1 234.36,176.36"/></mask><path x="208" y="150" width="180" height="180" fill="url(#satori_pattern_id-0-4_0)" d="M298,150 h0 a90,90 0 0 1 90,90 v0 a90,90 0 0 1 -90,90 h0 a90,90 0 0 1 -90,-90 v0 a90,90 0 0 1 90,-90"/><path width="180" height="180" clip-path="url(#satori_bc-id-0-4)" fill="none" stroke="rgba(16,185,129,0.18)" stroke-width="3" d="M234.36,176.36 A90,90 0 0 1 298,150 h0 a90,90 0 0 1 90,90 v0 a90,90 0 0 1 -90,90 h0 a90,90 0 0 1 -90,-90 v0 A90,90 0 0 1 234.36,176.36"/><defs><pattern id="satori_pattern_id-0-5_0" x="0" y="0" width="1" height="1" patternUnits="objectBoundingBox"><radialGradient id="satori_radial_id-0-5_0" spreadMethod="pad"><stop offset="0" stop-color="rgba(251,191,36,0.22)"/><stop offset="0.7" stop-color="rgba(251,191,36,0)"/><stop offset="1" stop-color="rgba(251,191,36,0)"/></radialGradient><mask id="satori_mask_id-0-5_0"><rect x="0" y="0" width="44" height="44" fill="#fff"/></mask><rect x="0" y="0" width="44" height="44" fill="rgba(251,191,36,0)"/><circle cx="22" cy="22" width="44" height="44" r="31.11269837220809" fill="url(#satori_radial_id-0-5_0)" mask="url(#satori_mask_id-0-5_0)"/></pattern></defs><mask id="satori_om-id-0-5"><rect x="218" y="190" width="44" height="44" fill="#fff"/></mask><path x="218" y="190" width="44" height="44" fill="url(#satori_pattern_id-0-5_0)" d="M240,190 h0 a22,22 0 0 1 22,22 v0 a22,22 0 0 1 -22,22 h0 a22,22 0 0 1 -22,-22 v0 a22,22 0 0 1 22,-22"/><mask id="satori_ms-id-0-6-1" maskUnits="userSpaceOnUse"><rect x="0" y="0" width="480" height="420" fill="#fff"/><path x="233" y="205" width="14" height="14" fill="#000"  stroke-width="0" d="M240,205 h0 a7,7 0 0 1 7,7 v0 a7,7 0 0 1 -7,7 h0 a7,7 0 0 1 -7,-7 v0 a7,7 0 0 1 7,-7"/></mask><defs><filter id="satori_s-id-0-6-1" x="-28.57142857142857%" y="-28.57142857142857%" width="157.14285714285714%" height="157.14285714285714%"><feGaussianBlur stdDeviation="2" result="b"/><feFlood flood-color="rgba(251,191,36,0.20)" in="SourceGraphic" result="f"/><feComposite in="f" in2="b" operator="in"/></filter></defs><g mask="url(#satori_ms-id-0-6-1)" filter="url(#satori_s-id-0-6-1)" opacity="1"><path x="233" y="206" width="14" height="14" fill="#fff" stroke="#fff" stroke-width="0" d="M240,206 h0 a7,7 0 0 1 7,7 v0 a7,7 0 0 1 -7,7 h0 a7,7 0 0 1 -7,-7 v0 a7,7 0 0 1 7,-7"/></g><mask id="satori_ms-id-0-6-0" maskUnits="userSpaceOnUse"><rect x="0" y="0" width="480" height="420" fill="#fff"/><path x="233" y="205" width="14" height="14" fill="#000"  stroke-width="6" d="M240,205 h0 a7,7 0 0 1 7,7 v0 a7,7 0 0 1 -7,7 h0 a7,7 0 0 1 -7,-7 v0 a7,7 0 0 1 7,-7"/></mask><defs><filter id="satori_s-id-0-6-0" x="-21.428571428571427%" y="-21.428571428571427%" width="142.85714285714286%" height="142.85714285714286%"><feGaussianBlur stdDeviation="0" result="b"/><feFlood flood-color="rgba(251,191,36,0.12)" in="SourceGraphic" result="f"/><feComposite in="f" in2="b" operator="in"/></filter></defs><g mask="url(#satori_ms-id-0-6-0)" filter="url(#satori_s-id-0-6-0)" opacity="1"><path x="233" y="205" width="14" height="14" fill="#fff" stroke="#fff" stroke-width="6" d="M240,205 h0 a7,7 0 0 1 7,7 v0 a7,7 0 0 1 -7,7 h0 a7,7 0 0 1 -7,-7 v0 a7,7 0 0 1 7,-7"/></g><mask id="satori_om-id-0-6"><rect x="233" y="205" width="14" height="14" fill="#fff"/></mask><path x="233" y="205" width="14" height="14" fill="#fbbf24" d="M240,205 h0 a7,7 0 0 1 7,7 v0 a7,7 0 0 1 -7,7 h0 a7,7 0 0 1 -7,-7 v0 a7,7 0 0 1 7,-7"/><mask id="satori_ms-id-0-7-2" maskUnits="userSpaceOnUse"><rect x="0" y="0" width="480" height="420" fill="#fff"/><path x="212" y="56" width="51" height="21" fill="#000"  stroke-width="2" d="M222.5,56 h30 a10.5,10.5 0 0 1 10.5,10.5 v0 a10.5,10.5 0 0 1 -10.5,10.5 h-30 a10.5,10.5 0 0 1 -10.5,-10.5 v0 a10.5,10.5 0 0 1 10.5,-10.5"/></mask><defs><filter id="satori_s-id-0-7-2" x="-1.9607843137254901%" y="-4.761904761904762%" width="103.921568627451%" height="109.52380952380953%"><feGaussianBlur stdDeviation="0" result="b"/><feFlood flood-color="rgba(251,191,36,0.14)" in="SourceGraphic" result="f"/><feComposite in="f" in2="b" operator="in"/></filter></defs><g mask="url(#satori_ms-id-0-7-2)" filter="url(#satori_s-id-0-7-2)" opacity="1"><path x="212" y="56" width="51" height="21" fill="#fff" stroke="#fff" stroke-width="2" d="M222.5,56 h30 a10.5,10.5 0 0 1 10.5,10.5 v0 a10.5,10.5 0 0 1 -10.5,10.5 h-30 a10.5,10.5 0 0 1 -10.5,-10.5 v0 a10.5,10.5 0 0 1 10.5,-10.5"/></g><mask id="satori_ms-id-0-7-1" maskUnits="userSpaceOnUse"><rect x="0" y="0" width="480" height="420" fill="#fff"/><path x="212" y="56" width="51" height="21" fill="#000"  stroke-width="0" d="M222.5,56 h30 a10.5,10.5 0 0 1 10.5,10.5 v0 a10.5,10.5 0 0 1 -10.5,10.5 h-30 a10.5,10.5 0 0 1 -10.5,-10.5 v0 a10.5,10.5 0 0 1 10.5,-10.5"/></mask><defs><filter id="satori_s-id-0-7-1" x="-70.58823529411765%" y="-171.42857142857142%" width="241.17647058823528%" height="442.8571428571429%"><feGaussianBlur stdDeviation="6" result="b"/><feFlood flood-color="rgba(0,0,0,0.08)" in="SourceGraphic" result="f"/><feComposite in="f" in2="b" operator="in"/></filter></defs><g mask="url(#satori_ms-id-0-7-1)" filter="url(#satori_s-id-0-7-1)" opacity="1"><path x="212" y="60" width="51" height="21" fill="#fff" stroke="#fff" stroke-width="0" d="M222.5,60 h30 a10.5,10.5 0 0 1 10.5,10.5 v0 a10.5,10.5 0 0 1 -10.5,10.5 h-30 a10.5,10.5 0 0 1 -10.5,-10.5 v0 a10.5,10.5 0 0 1 10.5,-10.5"/></g><mask id="satori_ms-id-0-7-0" maskUnits="userSpaceOnUse"><rect x="0" y="0" width="480" height="420" fill="#fff"/><path x="212" y="56" width="51" height="21" fill="#000"  stroke-width="0" d="M222.5,56 h30 a10.5,10.5 0 0 1 10.5,10.5 v0 a10.5,10.5 0 0 1 -10.5,10.5 h-30 a10.5,10.5 0 0 1 -10.5,-10.5 v0 a10.5,10.5 0 0 1 10.5,-10.5"/></mask><defs><filter id="satori_s-id-0-7-0" x="-1.9607843137254901%" y="-4.761904761904762%" width="103.921568627451%" height="109.52380952380953%"><feGaussianBlur stdDeviation="1" result="b"/><feFlood flood-color="rgba(0,0,0,0.05)" in="SourceGraphic" result="f"/><feComposite in="f" in2="b" operator="in"/></filter></defs><g mask="url(#satori_ms-id-0-7-0)" filter="url(#satori_s-id-0-7-0)" opacity="1"><path x="212" y="57" width="51" height="21" fill="#fff" stroke="#fff" stroke-width="0" d="M222.5,57 h30 a10.5,10.5 0 0 1 10.5,10.5 v0 a10.5,10.5 0 0 1 -10.5,10.5 h-30 a10.5,10.5 0 0 1 -10.5,-10.5 v0 a10.5,10.5 0 0 1 10.5,-10.5"/></g><mask id="satori_om-id-0-7"><rect x="212" y="56" width="51" height="21" fill="#fff"/></mask><path x="212" y="56" width="51" height="21" fill="#ffffff" d="M222.5,56 h30 a10.5,10.5 0 0 1 10.5,10.5 v0 a10.5,10.5 0 0 1 -10.5,10.5 h-30 a10.5,10.5 0 0 1 -10.5,-10.5 v0 a10.5,10.5 0 0 1 10.5,-10.5"/><g  ><path fill="rgb(251,191,36)" d="M226.2 71.1L226.2 71.1Q225.2 71.1 224.3 70.6Q223.5 70.1 223.0 69.2Q222.6 68.3 222.6 67.0L222.6 67.0Q222.6 65.7 223.0 64.8Q223.5 63.9 224.3 63.4Q225.2 62.9 226.2 62.9L226.2 62.9Q226.9 62.9 227.4 63.1Q228.0 63.3 228.5 63.6Q228.9 64.0 229.2 64.5Q229.5 65.0 229.6 65.7L229.6 65.7L228.1 65.7Q228.1 65.3 227.9 65.0Q227.7 64.8 227.5 64.6Q227.2 64.4 226.9 64.3Q226.6 64.2 226.2 64.2L226.2 64.2Q225.6 64.2 225.1 64.5Q224.6 64.8 224.3 65.5Q224.0 66.1 224.0 67.0L224.0 67.0Q224.0 67.9 224.3 68.6Q224.6 69.2 225.1 69.5Q225.6 69.8 226.2 69.8L226.2 69.8Q226.6 69.8 226.9 69.7Q227.2 69.6 227.5 69.4Q227.7 69.2 227.9 69.0Q228.1 68.7 228.1 68.3L228.1 68.3L229.6 68.3Q229.5 68.9 229.2 69.4Q229.0 69.9 228.5 70.3Q228.1 70.7 227.5 70.9Q226.9 71.1 226.2 71.1ZM231.0 63.0L232.4 63.0L232.4 71L231.0 71L231.0 63.0ZM235.3 71L233.9 71L233.9 65.0L235.3 65.0L235.3 71ZM234.6 64.1L234.6 64.1Q234.3 64.1 234.1 63.9Q233.8 63.7 233.8 63.4L233.8 63.4Q233.8 63.1 234.1 62.8Q234.3 62.6 234.6 62.6L234.6 62.6Q235.0 62.6 235.2 62.8Q235.5 63.1 235.5 63.4L235.5 63.4Q235.5 63.7 235.2 63.9Q235.0 64.1 234.6 64.1ZM238.3 67.5L238.3 67.5L238.3 71L236.9 71L236.9 65.0L238.3 65.0L238.3 66.2Q238.5 65.6 238.9 65.3L238.9 65.3Q239.4 64.9 240.1 64.9L240.1 64.9Q240.7 64.9 241.2 65.2Q241.7 65.4 241.9 66.0Q242.2 66.5 242.2 67.2L242.2 67.2L242.2 71L240.8 71L240.8 67.4Q240.8 66.8 240.5 66.5Q240.2 66.1 239.6 66.1L239.6 66.1Q239.2 66.1 239.0 66.3Q238.7 66.4 238.5 66.7Q238.3 67.0 238.3 67.5ZM245.2 71L243.8 71L243.8 65.0L245.2 65.0L245.2 71ZM244.5 64.1L244.5 64.1Q244.1 64.1 243.9 63.9Q243.7 63.7 243.7 63.4L243.7 63.4Q243.7 63.1 243.9 62.8Q244.1 62.6 244.5 62.6L244.5 62.6Q244.8 62.6 245.0 62.8Q245.3 63.1 245.3 63.4L245.3 63.4Q245.3 63.7 245.0 63.9Q244.8 64.1 244.5 64.1ZM249.4 71.1L249.4 71.1Q248.5 71.1 247.8 70.7Q247.2 70.3 246.9 69.6Q246.5 69.0 246.5 68.0L246.5 68.0Q246.5 67.1 246.9 66.4Q247.2 65.7 247.8 65.3Q248.5 64.9 249.4 64.9L249.4 64.9Q249.9 64.9 250.3 65.0Q250.7 65.2 251.1 65.4Q251.4 65.7 251.6 66.0Q251.9 66.4 252.0 66.8L252.0 66.8L250.7 67.1Q250.6 66.8 250.5 66.7Q250.4 66.5 250.2 66.3Q250.1 66.2 249.8 66.1Q249.6 66.1 249.4 66.1L249.4 66.1Q248.9 66.1 248.6 66.3Q248.2 66.6 248.1 67.0Q247.9 67.5 247.9 68.0L247.9 68.0Q247.9 68.6 248.1 69.0Q248.2 69.5 248.6 69.7Q248.9 70.0 249.4 70.0L249.4 70.0Q249.6 70.0 249.8 69.9Q250.1 69.8 250.2 69.7Q250.4 69.6 250.5 69.4Q250.6 69.2 250.7 68.9L250.7 68.9L252.0 69.2Q251.9 69.6 251.6 70.0Q251.4 70.4 251.1 70.6Q250.7 70.9 250.3 71.0Q249.9 71.1 249.4 71.1Z "/></g><mask id="satori_ms-id-0-8-2" maskUnits="userSpaceOnUse"><rect x="0" y="0" width="480" height="420" fill="#fff"/><path x="86" y="318" width="66" height="21" fill="#000"  stroke-width="2" d="M96.5,318 h45 a10.5,10.5 0 0 1 10.5,10.5 v0 a10.5,10.5 0 0 1 -10.5,10.5 h-45 a10.5,10.5 0 0 1 -10.5,-10.5 v0 a10.5,10.5 0 0 1 10.5,-10.5"/></mask><defs><filter id="satori_s-id-0-8-2" x="-1.5151515151515151%" y="-4.761904761904762%" width="103.03030303030303%" height="109.52380952380953%"><feGaussianBlur stdDeviation="0" result="b"/><feFlood flood-color="rgba(124,58,237,0.14)" in="SourceGraphic" result="f"/><feComposite in="f" in2="b" operator="in"/></filter></defs><g mask="url(#satori_ms-id-0-8-2)" filter="url(#satori_s-id-0-8-2)" opacity="1"><path x="86" y="318" width="66" height="21" fill="#fff" stroke="#fff" stroke-width="2" d="M96.5,318 h45 a10.5,10.5 0 0 1 10.5,10.5 v0 a10.5,10.5 0 0 1 -10.5,10.5 h-45 a10.5,10.5 0 0 1 -10.5,-10.5 v0 a10.5,10.5 0 0 1 10.5,-10.5"/></g><mask id="satori_ms-id-0-8-1" maskUnits="userSpaceOnUse"><rect x="0" y="0" width="480" height="420" fill="#fff"/><path x="86" y="318" width="66" height="21" fill="#000"  stroke-width="0" d="M96.5,318 h45 a10.5,10.5 0 0 1 10.5,10.5 v0 a10.5,10.5 0 0 1 -10.5,10.5 h-45 a10.5,10.5 0 0 1 -10.5,-10.5 v0 a10.5,10.5 0 0 1 10.5,-10.5"/></mask><defs><filter id="satori_s-id-0-8-1" x="-54.54545454545454%" y="-171.42857142857142%" width="209.0909090909091%" height="442.8571428571429%"><feGaussianBlur stdDeviation="6" result="b"/><feFlood flood-color="rgba(0,0,0,0.08)" in="SourceGraphic" result="f"/><feComposite in="f" in2="b" operator="in"/></filter></defs><g mask="url(#satori_ms-id-0-8-1)" filter="url(#satori_s-id-0-8-1)" opacity="1"><path x="86" y="322" width="66" height="21" fill="#fff" stroke="#fff" stroke-width="0" d="M96.5,322 h45 a10.5,10.5 0 0 1 10.5,10.5 v0 a10.5,10.5 0 0 1 -10.5,10.5 h-45 a10.5,10.5 0 0 1 -10.5,-10.5 v0 a10.5,10.5 0 0 1 10.5,-10.5"/></g><mask id="satori_ms-id-0-8-0" maskUnits="userSpaceOnUse"><rect x="0" y="0" width="480" height="420" fill="#fff"/><path x="86" y="318" width="66" height="21" fill="#000"  stroke-width="0" d="M96.5,318 h45 a10.5,10.5 0 0 1 10.5,10.5 v0 a10.5,10.5 0 0 1 -10.5,10.5 h-45 a10.5,10.5 0 0 1 -10.5,-10.5 v0 a10.5,10.5 0 0 1 10.5,-10.5"/></mask><defs><filter id="satori_s-id-0-8-0" x="-1.5151515151515151%" y="-4.761904761904762%" width="103.03030303030303%" height="109.52380952380953%"><feGaussianBlur stdDeviation="1" result="b"/><feFlood flood-color="rgba(0,0,0,0.05)" in="SourceGraphic" result="f"/><feComposite in="f" in2="b" operator="in"/></filter></defs><g mask="url(#satori_ms-id-0-8-0)" filter="url(#satori_s-id-0-8-0)" opacity="1"><path x="86" y="319" width="66" height="21" fill="#fff" stroke="#fff" stroke-width="0" d="M96.5,319 h45 a10.5,10.5 0 0 1 10.5,10.5 v0 a10.5,10.5 0 0 1 -10.5,10.5 h-45 a10.5,10.5 0 0 1 -10.5,-10.5 v0 a10.5,10.5 0 0 1 10.5,-10.5"/></g><mask id="satori_om-id-0-8"><rect x="86" y="318" width="66" height="21" fill="#fff"/></mask><path x="86" y="318" width="66" height="21" fill="#ffffff" d="M96.5,318 h45 a10.5,10.5 0 0 1 10.5,10.5 v0 a10.5,10.5 0 0 1 -10.5,10.5 h-45 a10.5,10.5 0 0 1 -10.5,-10.5 v0 a10.5,10.5 0 0 1 10.5,-10.5"/><g  ><path fill="rgb(124,58,237)" d="M98.2 333L96.8 333L96.8 325.0L99.8 325.0Q100.7 325.0 101.3 325.3Q102.0 325.6 102.3 326.2Q102.6 326.8 102.6 327.6Q102.6 328.3 102.3 328.9Q102.0 329.4 101.3 329.8L101.3 329.8Q101.3 329.8 101.2 329.8L101.2 329.8L102.9 333L101.3 333L99.7 330.1L98.2 330.1L98.2 333ZM98.2 326.2L98.2 328.9L99.6 328.9Q100.1 328.9 100.5 328.7Q100.8 328.6 101.0 328.3Q101.2 328.0 101.2 327.6L101.2 327.6Q101.2 327.1 101.0 326.8Q100.8 326.5 100.5 326.4Q100.1 326.2 99.6 326.2L99.6 326.2L98.2 326.2ZM106.6 333.1L106.6 333.1Q105.8 333.1 105.1 332.7Q104.5 332.3 104.1 331.6Q103.8 331.0 103.8 330.0L103.8 330.0Q103.8 329.1 104.1 328.4Q104.5 327.7 105.1 327.3Q105.8 326.9 106.6 326.9L106.6 326.9Q107.5 326.9 108.2 327.3Q108.8 327.7 109.2 328.4Q109.5 329.1 109.5 330.0L109.5 330.0Q109.5 331.0 109.2 331.6Q108.8 332.3 108.2 332.7Q107.5 333.1 106.6 333.1ZM106.6 332.0L106.6 332.0Q107.1 332.0 107.4 331.7Q107.8 331.5 107.9 331.0Q108.1 330.6 108.1 330.0L108.1 330.0Q108.1 329.5 107.9 329.0Q107.8 328.6 107.4 328.3Q107.1 328.1 106.6 328.1L106.6 328.1Q106.1 328.1 105.8 328.3Q105.5 328.6 105.3 329.0Q105.2 329.5 105.2 330.0L105.2 330.0Q105.2 330.6 105.3 331.0Q105.5 331.5 105.8 331.7Q106.1 332.0 106.6 332.0ZM112.5 327.0L113.6 327.0L113.6 328.1L112.5 328.1L112.5 331.3Q112.5 331.6 112.6 331.8Q112.7 331.9 113.0 331.9L113.0 331.9Q113.1 331.9 113.3 331.9Q113.5 331.9 113.6 331.9L113.6 331.9L113.8 333.0Q113.5 333.0 113.3 333.1Q113.1 333.1 112.8 333.1L112.8 333.1Q112.0 333.1 111.5 332.7Q111.1 332.2 111.1 331.4L111.1 331.4L111.1 328.1L110.2 328.1L110.2 327.0L111.1 327.0L111.1 325.6L112.5 325.6L112.5 327.0ZM116.5 333.1L116.5 333.1Q115.9 333.1 115.5 332.9Q115.0 332.7 114.8 332.3Q114.5 331.9 114.5 331.3L114.5 331.3Q114.5 330.8 114.7 330.5Q114.9 330.1 115.2 329.9Q115.5 329.7 115.9 329.6Q116.3 329.5 116.8 329.5L116.8 329.5Q117.3 329.4 117.6 329.4Q118.0 329.3 118.1 329.3Q118.3 329.2 118.3 329.0L118.3 329.0L118.3 328.9Q118.3 328.6 118.1 328.4Q118.0 328.2 117.8 328.1Q117.6 328.0 117.2 328.0L117.2 328.0Q116.9 328.0 116.6 328.1Q116.4 328.2 116.2 328.4Q116.0 328.6 116.0 328.8L116.0 328.8L114.7 328.5Q114.8 328.0 115.2 327.6Q115.6 327.3 116.1 327.1Q116.6 326.9 117.2 326.9L117.2 326.9Q117.6 326.9 118.1 327.0Q118.5 327.1 118.9 327.4Q119.2 327.6 119.4 328.0Q119.7 328.4 119.7 329.0L119.7 329.0L119.7 333L118.3 333L118.3 332.2L118.3 332.2Q118.1 332.4 117.9 332.6Q117.7 332.9 117.3 333.0Q117.0 333.1 116.5 333.1ZM116.9 332.1L116.9 332.1Q117.3 332.1 117.6 331.9Q117.9 331.7 118.1 331.5Q118.3 331.2 118.3 330.8L118.3 330.8L118.3 330.1Q118.2 330.2 118.0 330.2Q117.9 330.3 117.7 330.3Q117.5 330.4 117.3 330.4Q117.1 330.4 116.9 330.4L116.9 330.4Q116.6 330.5 116.4 330.6Q116.1 330.7 116.0 330.8Q115.8 331.0 115.8 331.3L115.8 331.3Q115.8 331.6 116.0 331.7Q116.1 331.9 116.3 332.0Q116.6 332.1 116.9 332.1ZM122.9 327.0L124.0 327.0L124.0 328.1L122.9 328.1L122.9 331.3Q122.9 331.6 123.0 331.8Q123.2 331.9 123.5 331.9L123.5 331.9Q123.6 331.9 123.7 331.9Q123.9 331.9 124.0 331.9L124.0 331.9L124.2 333.0Q124.0 333.0 123.7 333.1Q123.5 333.1 123.3 333.1L123.3 333.1Q122.4 333.1 121.9 332.7Q121.5 332.2 121.5 331.4L121.5 331.4L121.5 328.1L120.6 328.1L120.6 327.0L121.5 327.0L121.5 325.6L122.9 325.6L122.9 327.0ZM126.6 333L125.2 333L125.2 327.0L126.6 327.0L126.6 333ZM125.9 326.1L125.9 326.1Q125.6 326.1 125.4 325.9Q125.1 325.7 125.1 325.4L125.1 325.4Q125.1 325.1 125.4 324.8Q125.6 324.6 125.9 324.6L125.9 324.6Q126.3 324.6 126.5 324.8Q126.8 325.1 126.8 325.4L126.8 325.4Q126.8 325.7 126.5 325.9Q126.3 326.1 125.9 326.1ZM130.8 333.1L130.8 333.1Q130.0 333.1 129.3 332.7Q128.7 332.3 128.3 331.6Q128.0 331.0 128.0 330.0L128.0 330.0Q128.0 329.1 128.3 328.4Q128.7 327.7 129.3 327.3Q130.0 326.9 130.8 326.9L130.8 326.9Q131.7 326.9 132.4 327.3Q133.0 327.7 133.4 328.4Q133.7 329.1 133.7 330.0L133.7 330.0Q133.7 331.0 133.4 331.6Q133.0 332.3 132.4 332.7Q131.7 333.1 130.8 333.1ZM130.8 332.0L130.8 332.0Q131.3 332.0 131.7 331.7Q132.0 331.5 132.1 331.0Q132.3 330.6 132.3 330.0L132.3 330.0Q132.3 329.5 132.1 329.0Q132.0 328.6 131.7 328.3Q131.3 328.1 130.8 328.1L130.8 328.1Q130.4 328.1 130.0 328.3Q129.7 328.6 129.6 329.0Q129.4 329.5 129.4 330.0L129.4 330.0Q129.4 330.6 129.6 331.0Q129.7 331.5 130.0 331.7Q130.4 332.0 130.8 332.0ZM136.4 329.5L136.4 329.5L136.4 333L135.0 333L135.0 327.0L136.4 327.0L136.4 328.2Q136.6 327.6 137.0 327.3L137.0 327.3Q137.5 326.9 138.2 326.9L138.2 326.9Q138.9 326.9 139.3 327.2Q139.8 327.4 140.0 328.0Q140.3 328.5 140.3 329.2L140.3 329.2L140.3 333L138.9 333L138.9 329.4Q138.9 328.8 138.6 328.5Q138.3 328.1 137.7 328.1L137.7 328.1Q137.4 328.1 137.1 328.3Q136.8 328.4 136.6 328.7Q136.4 329.0 136.4 329.5Z "/></g><mask id="satori_ms-id-0-9-2" maskUnits="userSpaceOnUse"><rect x="0" y="0" width="480" height="420" fill="#fff"/><path x="364" y="318" width="41" height="21" fill="#000"  stroke-width="2" d="M374.5,318 h20 a10.5,10.5 0 0 1 10.5,10.5 v0 a10.5,10.5 0 0 1 -10.5,10.5 h-20 a10.5,10.5 0 0 1 -10.5,-10.5 v0 a10.5,10.5 0 0 1 10.5,-10.5"/></mask><defs><filter id="satori_s-id-0-9-2" x="-2.4390243902439024%" y="-4.761904761904762%" width="104.8780487804878%" height="109.52380952380953%"><feGaussianBlur stdDeviation="0" result="b"/><feFlood flood-color="rgba(16,185,129,0.14)" in="SourceGraphic" result="f"/><feComposite in="f" in2="b" operator="in"/></filter></defs><g mask="url(#satori_ms-id-0-9-2)" filter="url(#satori_s-id-0-9-2)" opacity="1"><path x="364" y="318" width="41" height="21" fill="#fff" stroke="#fff" stroke-width="2" d="M374.5,318 h20 a10.5,10.5 0 0 1 10.5,10.5 v0 a10.5,10.5 0 0 1 -10.5,10.5 h-20 a10.5,10.5 0 0 1 -10.5,-10.5 v0 a10.5,10.5 0 0 1 10.5,-10.5"/></g><mask id="satori_ms-id-0-9-1" maskUnits="userSpaceOnUse"><rect x="0" y="0" width="480" height="420" fill="#fff"/><path x="364" y="318" width="41" height="21" fill="#000"  stroke-width="0" d="M374.5,318 h20 a10.5,10.5 0 0 1 10.5,10.5 v0 a10.5,10.5 0 0 1 -10.5,10.5 h-20 a10.5,10.5 0 0 1 -10.5,-10.5 v0 a10.5,10.5 0 0 1 10.5,-10.5"/></mask><defs><filter id="satori_s-id-0-9-1" x="-87.8048780487805%" y="-171.42857142857142%" width="275.60975609756093%" height="442.8571428571429%"><feGaussianBlur stdDeviation="6" result="b"/><feFlood flood-color="rgba(0,0,0,0.08)" in="SourceGraphic" result="f"/><feComposite in="f" in2="b" operator="in"/></filter></defs><g mask="url(#satori_ms-id-0-9-1)" filter="url(#satori_s-id-0-9-1)" opacity="1"><path x="364" y="322" width="41" height="21" fill="#fff" stroke="#fff" stroke-width="0" d="M374.5,322 h20 a10.5,10.5 0 0 1 10.5,10.5 v0 a10.5,10.5 0 0 1 -10.5,10.5 h-20 a10.5,10.5 0 0 1 -10.5,-10.5 v0 a10.5,10.5 0 0 1 10.5,-10.5"/></g><mask id="satori_ms-id-0-9-0" maskUnits="userSpaceOnUse"><rect x="0" y="0" width="480" height="420" fill="#fff"/><path x="364" y="318" width="41" height="21" fill="#000"  stroke-width="0" d="M374.5,318 h20 a10.5,10.5 0 0 1 10.5,10.5 v0 a10.5,10.5 0 0 1 -10.5,10.5 h-20 a10.5,10.5 0 0 1 -10.5,-10.5 v0 a10.5,10.5 0 0 1 10.5,-10.5"/></mask><defs><filter id="satori_s-id-0-9-0" x="-2.4390243902439024%" y="-4.761904761904762%" width="104.8780487804878%" height="109.52380952380953%"><feGaussianBlur stdDeviation="1" result="b"/><feFlood flood-color="rgba(0,0,0,0.05)" in="SourceGraphic" result="f"/><feComposite in="f" in2="b" operator="in"/></filter></defs><g mask="url(#satori_ms-id-0-9-0)" filter="url(#satori_s-id-0-9-0)" opacity="1"><path x="364" y="319" width="41" height="21" fill="#fff" stroke="#fff" stroke-width="0" d="M374.5,319 h20 a10.5,10.5 0 0 1 10.5,10.5 v0 a10.5,10.5 0 0 1 -10.5,10.5 h-20 a10.5,10.5 0 0 1 -10.5,-10.5 v0 a10.5,10.5 0 0 1 10.5,-10.5"/></g><mask id="satori_om-id-0-9"><rect x="364" y="318" width="41" height="21" fill="#fff"/></mask><path x="364" y="318" width="41" height="21" fill="#ffffff" d="M374.5,318 h20 a10.5,10.5 0 0 1 10.5,10.5 v0 a10.5,10.5 0 0 1 -10.5,10.5 h-20 a10.5,10.5 0 0 1 -10.5,-10.5 v0 a10.5,10.5 0 0 1 10.5,-10.5"/><g  ><path fill="rgb(16,185,129)" d="M378.2 333.1L378.2 333.1Q377.2 333.1 376.3 332.6Q375.5 332.1 375.0 331.2Q374.6 330.3 374.6 329.0L374.6 329.0Q374.6 327.7 375.0 326.8Q375.5 325.9 376.3 325.4Q377.2 324.9 378.2 324.9L378.2 324.9Q378.9 324.9 379.4 325.1Q380.0 325.3 380.5 325.6Q380.9 326.0 381.2 326.5Q381.5 327.0 381.6 327.7L381.6 327.7L380.1 327.7Q380.1 327.3 379.9 327.0Q379.7 326.8 379.5 326.6Q379.2 326.4 378.9 326.3Q378.6 326.2 378.2 326.2L378.2 326.2Q377.6 326.2 377.1 326.5Q376.6 326.8 376.3 327.5Q376.0 328.1 376.0 329.0L376.0 329.0Q376.0 329.9 376.3 330.6Q376.6 331.2 377.1 331.5Q377.6 331.8 378.2 331.8L378.2 331.8Q378.6 331.8 378.9 331.7Q379.2 331.6 379.5 331.4Q379.7 331.2 379.9 331.0Q380.1 330.7 380.1 330.3L380.1 330.3L381.6 330.3Q381.5 330.9 381.2 331.4Q381.0 331.9 380.5 332.3Q380.1 332.7 379.5 332.9Q378.9 333.1 378.2 333.1ZM384.6 333.1L384.6 333.1Q384.1 333.1 383.6 332.9Q383.1 332.7 382.9 332.3Q382.6 331.9 382.6 331.3L382.6 331.3Q382.6 330.8 382.8 330.5Q383.0 330.1 383.3 329.9Q383.7 329.7 384.1 329.6Q384.5 329.5 384.9 329.5L384.9 329.5Q385.4 329.4 385.8 329.4Q386.1 329.3 386.2 329.3Q386.4 329.2 386.4 329.0L386.4 329.0L386.4 328.9Q386.4 328.6 386.3 328.4Q386.2 328.2 385.9 328.1Q385.7 328.0 385.3 328.0L385.3 328.0Q385.0 328.0 384.7 328.1Q384.5 328.2 384.3 328.4Q384.2 328.6 384.1 328.8L384.1 328.8L382.8 328.5Q383.0 328.0 383.3 327.6Q383.7 327.3 384.2 327.1Q384.7 326.9 385.3 326.9L385.3 326.9Q385.8 326.9 386.2 327.0Q386.6 327.1 387.0 327.4Q387.3 327.6 387.6 328.0Q387.8 328.4 387.8 329.0L387.8 329.0L387.8 333L386.5 333L386.5 332.2L386.4 332.2Q386.3 332.4 386.0 332.6Q385.8 332.9 385.5 333.0Q385.1 333.1 384.6 333.1ZM385.0 332.1L385.0 332.1Q385.4 332.1 385.7 331.9Q386.1 331.7 386.2 331.5Q386.4 331.2 386.4 330.8L386.4 330.8L386.4 330.1Q386.3 330.2 386.2 330.2Q386.0 330.3 385.8 330.3Q385.6 330.4 385.4 330.4Q385.2 330.4 385.1 330.4L385.1 330.4Q384.8 330.5 384.5 330.6Q384.3 330.7 384.1 330.8Q384.0 331.0 384.0 331.3L384.0 331.3Q384.0 331.6 384.1 331.7Q384.2 331.9 384.5 332.0Q384.7 332.1 385.0 332.1ZM389.4 325.0L390.8 325.0L390.8 333L389.4 333L389.4 325.0ZM392.4 325.0L393.8 325.0L393.8 333L392.4 333L392.4 325.0Z "/></g><mask id="satori_ms-id-0-10-1" maskUnits="userSpaceOnUse"><rect x="0" y="0" width="480" height="420" fill="#fff"/><path x="188" y="230" width="87" height="21" fill="#000"  stroke-width="0" d="M198.5,230 h66 a10.5,10.5 0 0 1 10.5,10.5 v0 a10.5,10.5 0 0 1 -10.5,10.5 h-66 a10.5,10.5 0 0 1 -10.5,-10.5 v0 a10.5,10.5 0 0 1 10.5,-10.5"/></mask><defs><filter id="satori_s-id-0-10-1" x="-41.37931034482759%" y="-171.42857142857142%" width="182.75862068965517%" height="442.8571428571429%"><feGaussianBlur stdDeviation="6" result="b"/><feFlood flood-color="rgba(0,0,0,0.05)" in="SourceGraphic" result="f"/><feComposite in="f" in2="b" operator="in"/></filter></defs><g mask="url(#satori_ms-id-0-10-1)" filter="url(#satori_s-id-0-10-1)" opacity="1"><path x="188" y="234" width="87" height="21" fill="#fff" stroke="#fff" stroke-width="0" d="M198.5,234 h66 a10.5,10.5 0 0 1 10.5,10.5 v0 a10.5,10.5 0 0 1 -10.5,10.5 h-66 a10.5,10.5 0 0 1 -10.5,-10.5 v0 a10.5,10.5 0 0 1 10.5,-10.5"/></g><mask id="satori_ms-id-0-10-0" maskUnits="userSpaceOnUse"><rect x="0" y="0" width="480" height="420" fill="#fff"/><path x="188" y="230" width="87" height="21" fill="#000"  stroke-width="0" d="M198.5,230 h66 a10.5,10.5 0 0 1 10.5,10.5 v0 a10.5,10.5 0 0 1 -10.5,10.5 h-66 a10.5,10.5 0 0 1 -10.5,-10.5 v0 a10.5,10.5 0 0 1 10.5,-10.5"/></mask><defs><filter id="satori_s-id-0-10-0" x="-1.1494252873563218%" y="-4.761904761904762%" width="102.29885057471265%" height="109.52380952380953%"><feGaussianBlur stdDeviation="1" result="b"/><feFlood flood-color="rgba(0,0,0,0.03)" in="SourceGraphic" result="f"/><feComposite in="f" in2="b" operator="in"/></filter></defs><g mask="url(#satori_ms-id-0-10-0)" filter="url(#satori_s-id-0-10-0)" opacity="1"><path x="188" y="231" width="87" height="21" fill="#fff" stroke="#fff" stroke-width="0" d="M198.5,231 h66 a10.5,10.5 0 0 1 10.5,10.5 v0 a10.5,10.5 0 0 1 -10.5,10.5 h-66 a10.5,10.5 0 0 1 -10.5,-10.5 v0 a10.5,10.5 0 0 1 10.5,-10.5"/></g><mask id="satori_om-id-0-10"><rect x="188" y="230" width="87" height="21" fill="#fff"/></mask><path x="188" y="230" width="87" height="21" fill="#ffffff" d="M198.5,230 h66 a10.5,10.5 0 0 1 10.5,10.5 v0 a10.5,10.5 0 0 1 -10.5,10.5 h-66 a10.5,10.5 0 0 1 -10.5,-10.5 v0 a10.5,10.5 0 0 1 10.5,-10.5"/><clipPath id="satori_cp-id-0-10-0"><rect x="198" y="236" width="10" height="10"/></clipPath><mask id="satori_om-id-0-10-0"><rect x="198" y="236" width="10" height="10" fill="#fff"/></mask><image x="198" y="236" width="10" height="10" href="data:image/svg+xml;utf8,%3Csvg  fill=%22none%22 xmlns=%22http://www.w3.org/2000/svg%22 width=%2210%22 height=%2210%22 viewBox=%220 0 14 14%22%3E%3Cpath d=%22M2.5 7.2l3 3 6-6.4%22 stroke=%22%23fbbf24%22 stroke-width=%222%22 stroke-linecap=%22round%22 stroke-linejoin=%22round%22%3E%3C/path%3E%3C/svg%3E" preserveAspectRatio="none" clip-path="url(#satori_cp-id-0-10-0)" mask="url(#satori_om-id-0-10-0)"/><mask id="satori_om-id-0-10-0-0"><rect x="198" y="236" width="0" height="10" fill="#fff"/></mask><mask id="satori_om-id-0-10-1"><rect x="214" y="234" width="51" height="13" fill="#fff"/></mask><g  ><path fill="#b45309" d="M216.2 245L214.8 245L214.8 237.0L217.8 237.0Q218.7 237.0 219.3 237.3Q220.0 237.6 220.3 238.2Q220.6 238.8 220.6 239.6Q220.6 240.3 220.3 240.9Q220.0 241.4 219.3 241.8L219.3 241.8Q219.3 241.8 219.2 241.8L219.2 241.8L220.9 245L219.3 245L217.7 242.1L216.2 242.1L216.2 245ZM216.2 238.2L216.2 240.9L217.6 240.9Q218.1 240.9 218.5 240.7Q218.8 240.6 219.0 240.3Q219.2 240.0 219.2 239.6L219.2 239.6Q219.2 239.1 219.0 238.8Q218.8 238.5 218.5 238.4Q218.1 238.2 217.6 238.2L217.6 238.2L216.2 238.2ZM224.7 245.1L224.7 245.1Q223.8 245.1 223.1 244.7Q222.5 244.4 222.1 243.7Q221.8 243.0 221.8 242.0L221.8 242.0Q221.8 241.1 222.1 240.4Q222.5 239.7 223.1 239.3Q223.7 238.9 224.6 238.9L224.6 238.9Q225.1 238.9 225.6 239.1Q226.1 239.3 226.5 239.6Q226.9 240.0 227.1 240.6Q227.3 241.2 227.3 241.9L227.3 241.9L227.3 242.4L223.1 242.4Q223.2 242.9 223.3 243.2L223.3 243.2Q223.5 243.6 223.9 243.8Q224.2 244.0 224.7 244.0L224.7 244.0Q225.0 244.0 225.3 243.9Q225.5 243.9 225.7 243.7Q225.9 243.5 226.0 243.2L226.0 243.2L227.2 243.5Q227.1 244.0 226.7 244.4Q226.4 244.7 225.9 244.9Q225.4 245.1 224.7 245.1ZM223.2 241.4L223.2 241.4L226.0 241.4Q225.9 241.1 225.8 240.8L225.8 240.8Q225.7 240.4 225.4 240.2Q225.1 240.0 224.6 240.0Q224.1 240.0 223.8 240.2Q223.5 240.5 223.3 240.8L223.3 240.8Q223.2 241.1 223.2 241.4ZM230.9 245.1L230.9 245.1Q230.2 245.1 229.7 244.9Q229.2 244.7 228.8 244.3Q228.5 244.0 228.4 243.4L228.4 243.4L229.7 243.2Q229.8 243.6 230.1 243.8Q230.4 244.1 230.9 244.1L230.9 244.1Q231.5 244.1 231.8 243.8Q232.1 243.6 232.1 243.3L232.1 243.3Q232.1 243.1 231.9 242.9Q231.7 242.7 231.3 242.6L231.3 242.6L230.2 242.4Q229.4 242.2 229.0 241.8Q228.5 241.4 228.5 240.7L228.5 240.7Q228.5 240.2 228.8 239.8Q229.2 239.4 229.7 239.1Q230.2 238.9 231.0 238.9L231.0 238.9Q231.6 238.9 232.1 239.1Q232.6 239.3 232.9 239.7Q233.2 240.0 233.4 240.5L233.4 240.5L232.1 240.7Q232.0 240.4 231.7 240.2Q231.5 240.0 231.0 240.0L231.0 240.0Q230.5 240.0 230.2 240.2Q229.9 240.4 229.9 240.7L229.9 240.7Q229.9 240.9 230.1 241.1Q230.3 241.3 230.8 241.4L230.8 241.4L231.8 241.6Q232.7 241.8 233.1 242.2Q233.5 242.6 233.5 243.2L233.5 243.2Q233.5 243.8 233.2 244.2Q232.8 244.6 232.3 244.9Q231.7 245.1 230.9 245.1ZM237.4 245.1L237.4 245.1Q236.5 245.1 235.9 244.7Q235.2 244.3 234.9 243.6Q234.5 243.0 234.5 242.0L234.5 242.0Q234.5 241.1 234.9 240.4Q235.2 239.7 235.9 239.3Q236.5 238.9 237.4 238.9L237.4 238.9Q238.3 238.9 238.9 239.3Q239.6 239.7 239.9 240.4Q240.3 241.1 240.3 242.0L240.3 242.0Q240.3 243.0 239.9 243.6Q239.6 244.3 238.9 244.7Q238.3 245.1 237.4 245.1ZM237.4 244.0L237.4 244.0Q237.9 244.0 238.2 243.7Q238.5 243.5 238.7 243.0Q238.9 242.6 238.9 242.0L238.9 242.0Q238.9 241.5 238.7 241.0Q238.5 240.6 238.2 240.3Q237.9 240.1 237.4 240.1L237.4 240.1Q236.9 240.1 236.6 240.3Q236.3 240.6 236.1 241.0Q236.0 241.5 236.0 242.0L236.0 242.0Q236.0 242.6 236.1 243.0Q236.3 243.5 236.6 243.7Q236.9 244.0 237.4 244.0ZM241.6 237.0L243.0 237.0L243.0 245L241.6 245L241.6 237.0ZM247.9 245L246.3 245L244.1 239.0L245.6 239.0L246.6 242.3Q246.8 242.8 247.0 243.4L247.0 243.4Q247.0 243.6 247.1 243.9L247.1 243.9Q247.1 243.6 247.2 243.4L247.2 243.4Q247.3 242.8 247.5 242.3L247.5 242.3L248.6 239.0L250.1 239.0L247.9 245ZM253.8 245.1L253.8 245.1Q252.9 245.1 252.2 244.7Q251.6 244.4 251.2 243.7Q250.9 243.0 250.9 242.0L250.9 242.0Q250.9 241.1 251.2 240.4Q251.6 239.7 252.2 239.3Q252.9 238.9 253.7 238.9L253.7 238.9Q254.3 238.9 254.8 239.1Q255.3 239.3 255.6 239.6Q256.0 240.0 256.2 240.6Q256.5 241.2 256.5 241.9L256.5 241.9L256.5 242.4L252.3 242.4Q252.3 242.9 252.5 243.2L252.5 243.2Q252.7 243.6 253.0 243.8Q253.4 244.0 253.8 244.0L253.8 244.0Q254.1 244.0 254.4 243.9Q254.6 243.9 254.8 243.7Q255.0 243.5 255.1 243.2L255.1 243.2L256.4 243.5Q256.2 244.0 255.9 244.4Q255.5 244.7 255.0 244.9Q254.5 245.1 253.8 245.1ZM252.3 241.4L252.3 241.4L255.1 241.4Q255.1 241.1 255.0 240.8L255.0 240.8Q254.8 240.4 254.5 240.2Q254.2 240.0 253.7 240.0Q253.3 240.0 252.9 240.2Q252.6 240.5 252.5 240.8L252.5 240.8Q252.3 241.1 252.3 241.4ZM260.0 245.1L260.0 245.1Q259.3 245.1 258.7 244.7Q258.2 244.4 257.8 243.7Q257.5 243.0 257.5 242.0L257.5 242.0Q257.5 241.0 257.8 240.3Q258.2 239.6 258.7 239.3Q259.3 238.9 260.0 238.9L260.0 238.9Q260.5 238.9 260.9 239.1Q261.2 239.3 261.4 239.5Q261.6 239.8 261.7 240.0L261.7 240.0L261.8 240.0L261.8 237.0L263.2 237.0L263.2 245L261.8 245L261.8 244.0L261.7 244.0Q261.6 244.3 261.4 244.5Q261.2 244.8 260.8 244.9Q260.5 245.1 260.0 245.1ZM260.4 244.0L260.4 244.0Q260.8 244.0 261.1 243.7Q261.5 243.5 261.6 243.0Q261.8 242.6 261.8 242.0L261.8 242.0Q261.8 241.4 261.6 241.0Q261.5 240.6 261.1 240.3Q260.8 240.1 260.4 240.1L260.4 240.1Q259.9 240.1 259.6 240.3Q259.3 240.6 259.1 241.0Q258.9 241.4 258.9 242.0L258.9 242.0Q258.9 242.6 259.1 243.0Q259.3 243.4 259.6 243.7Q259.9 244.0 260.4 244.0Z "/></g></svg>