<svg width="560" height="360" viewBox="0 0 560 360" xmlns="http://www.w3.org/2000/svg"><mask id="satori_om-id"><rect x="0" y="0" width="560" height="360" fill="#fff"/></mask><clipPath id="satori_cp-id-0"><rect x="0" y="0" width="560" height="360"/></clipPath><mask id="satori_om-id-0"><rect x="0" y="0" width="560" height="360" fill="#fff"/></mask><image x="0" y="0" width="560" height="360" href="data:image/svg+xml;utf8,%3Csvg  xmlns=%22http://www.w3.org/2000/svg%22 width=%22560%22 height=%22360%22 viewBox=%220 0 560 360%22%3E%3Cline x1=%22110%22 y1=%22123%22 x2=%22140%22 y2=%22137%22 stroke=%22%23e5e7eb%22 stroke-width=%221%22 stroke-dasharray=%223,3%22%3E%3C/line%3E%3Cline x1=%22450%22 y1=%22123%22 x2=%22420%22 y2=%22137%22 stroke=%22%23e5e7eb%22 stroke-width=%221%22 stroke-dasharray=%223,3%22%3E%3C/line%3E%3Cline x1=%22140%22 y1=%22173%22 x2=%22170%22 y2=%22187%22 stroke=%22%23e5e7eb%22 stroke-width=%221%22 stroke-dasharray=%223,3%22%3E%3C/line%3E%3Cline x1=%22420%22 y1=%22173%22 x2=%22390%22 y2=%22187%22 stroke=%22%23e5e7eb%22 stroke-width=%221%22 stroke-dasharray=%223,3%22%3E%3C/line%3E%3Cline x1=%22170%22 y1=%22223%22 x2=%22200%22 y2=%22237%22 stroke=%22%23e5e7eb%22 stroke-width=%221%22 stroke-dasharray=%223,3%22%3E%3C/line%3E%3Cline x1=%22390%22 y1=%22223%22 x2=%22360%22 y2=%22237%22 stroke=%22%23e5e7eb%22 stroke-width=%221%22 stroke-dasharray=%223,3%22%3E%3C/line%3E%3C/svg%3E" preserveAspectRatio="none" clip-path="url(#satori_cp-id-0)" mask="url(#satori_om-id-0)"/><mask id="satori_om-id-0-0"><rect x="0" y="0" width="0" height="360" fill="#fff"/></mask><mask id="satori_om-id-0-1"><rect x="0" y="0" width="0" height="360" fill="#fff"/></mask><mask id="satori_om-id-0-2"><rect x="0" y="0" width="0" height="360" fill="#fff"/></mask><mask id="satori_om-id-0-3"><rect x="0" y="0" width="0" height="360" fill="#fff"/></mask><mask id="satori_om-id-0-4"><rect x="0" y="0" width="0" height="360" fill="#fff"/></mask><mask id="satori_om-id-0-5"><rect x="0" y="0" width="0" height="360" fill="#fff"/></mask><mask id="satori_om-id-1"><rect x="0" y="87" width="560" height="36" fill="#fff"/></mask><defs><clipPath id="satori_bc-id-1-0"><path x="110" y="87" width="340" height="36" d="M120,87 h320 a10,10 0 0 1 10,10 v16 a10,10 0 0 1 -10,10 h-320 a10,10 0 0 1 -10,-10 v-16 a10,10 0 0 1 10,-10"/></clipPath></defs><mask id="satori_om-id-1-0"><rect x="111" y="88" width="338" height="34" fill="#fff"/><path width="340" height="36" fill="none" stroke="#000" stroke-width="2" d="M112.929,89.929 A10,10 0 0 1 120,87 h320 a10,10 0 0 1 10,10 v16 a10,10 0 0 1 -10,10 h-320 a10,10 0 0 1 -10,-10 v-16 A10,10 0 0 1 112.929,89.929"/></mask><path x="110" y="87" width="340" height="36" fill="#f3f4f6" d="M120,87 h320 a10,10 0 0 1 10,10 v16 a10,10 0 0 1 -10,10 h-320 a10,10 0 0 1 -10,-10 v-16 a10,10 0 0 1 10,-10"/><path width="340" height="36" clip-path="url(#satori_bc-id-1-0)" fill="none" stroke="#e5e7eb" stroke-width="2" d="M112.929,89.929 A10,10 0 0 1 120,87 h320 a10,10 0 0 1 10,10 v16 a10,10 0 0 1 -10,10 h-320 a10,10 0 0 1 -10,-10 v-16 A10,10 0 0 1 112.929,89.929"/><mask id="satori_om-id-1-0-0"><rect x="125" y="98" width="96" height="15" fill="#fff"/></mask><g  ><path fill="#6b7280" d="M126.7 110L125.3 110L128.4 101.3L130.0 101.3L133.2 110L131.8 110L131.0 107.7L127.5 107.7L126.7 110ZM127.9 106.6L130.6 106.6L130.1 105.1Q129.9 104.6 129.6 103.7L129.6 103.7Q129.4 103.1 129.2 102.3L129.2 102.3Q129.0 103.1 128.8 103.8L128.8 103.8Q128.6 104.6 128.4 105.1L128.4 105.1L127.9 106.6ZM134.4 101.3L135.7 101.3L135.7 110L134.4 110L134.4 101.3ZM137.4 101.3L138.7 101.3L138.7 110L137.4 110L137.4 101.3Z M146.0 110.1L146.0 110.1Q145.3 110.1 144.7 109.9Q144.2 109.7 143.8 109.3Q143.4 108.9 143.3 108.3L143.3 108.3L144.5 108.1Q144.7 108.6 145.0 108.8Q145.4 109.1 146.0 109.1L146.0 109.1Q146.6 109.1 147.0 108.8Q147.3 108.6 147.3 108.2L147.3 108.2Q147.3 107.9 147.1 107.7Q146.9 107.5 146.4 107.4L146.4 107.4L145.3 107.1Q144.4 106.9 144.0 106.5Q143.5 106.0 143.5 105.3L143.5 105.3Q143.5 104.7 143.8 104.3Q144.2 103.9 144.7 103.6Q145.3 103.4 146.1 103.4L146.1 103.4Q146.8 103.4 147.3 103.6Q147.8 103.8 148.1 104.1Q148.4 104.5 148.5 105.0L148.5 105.0L147.4 105.3Q147.3 104.9 146.9 104.6Q146.6 104.4 146.1 104.4L146.1 104.4Q145.5 104.4 145.2 104.6Q144.8 104.9 144.8 105.2L144.8 105.2Q144.8 105.6 145.1 105.8Q145.3 106.0 145.8 106.1L145.8 106.1L146.9 106.3Q147.8 106.5 148.2 107.0Q148.7 107.4 148.7 108.1L148.7 108.1Q148.7 108.7 148.3 109.2Q148.0 109.6 147.4 109.9Q146.8 110.1 146.0 110.1ZM151.4 106.1L151.4 106.1L151.4 110L150.1 110L150.1 101.3L151.4 101.3L151.4 104.6Q151.6 104.1 152.0 103.8L152.0 103.8Q152.6 103.4 153.3 103.4L153.3 103.4Q154.0 103.4 154.5 103.6Q155.0 103.9 155.3 104.5Q155.6 105.0 155.6 105.8L155.6 105.8L155.6 110L154.3 110L154.3 106.0Q154.3 105.3 153.9 104.9Q153.5 104.5 152.9 104.5L152.9 104.5Q152.5 104.5 152.1 104.7Q151.8 104.9 151.6 105.2Q151.4 105.6 151.4 106.1ZM158.6 110L157.3 110L157.3 103.4L158.6 103.4L158.6 110ZM158.0 102.4L158.0 102.4Q157.6 102.4 157.4 102.2Q157.1 102.0 157.1 101.7L157.1 101.7Q157.1 101.4 157.4 101.1Q157.6 100.9 158.0 100.9L158.0 100.9Q158.3 100.9 158.5 101.1Q158.8 101.4 158.8 101.7L158.8 101.7Q158.8 102.0 158.5 102.2Q158.3 102.4 158.0 102.4ZM162.1 103.4L163.6 103.4L163.6 104.5L162.1 104.5L162.1 110L160.8 110L160.8 104.5L159.6 104.5L159.6 103.4L160.8 103.4L160.8 102.7Q160.8 102.1 161.1 101.7Q161.4 101.3 161.8 101.1Q162.3 100.9 162.8 100.9L162.8 100.9Q163.2 100.9 163.4 100.9Q163.7 101.0 163.8 101.0L163.8 101.0L163.5 102.1Q163.5 102.0 163.3 102.0Q163.2 102.0 163.0 102.0L163.0 102.0Q162.5 102.0 162.3 102.2Q162.1 102.4 162.1 102.9L162.1 102.9L162.1 103.4ZM166.4 103.4L167.7 103.4L167.7 104.5L166.4 104.5L166.4 108.2Q166.4 108.6 166.5 108.8Q166.7 109.0 167.1 109.0L167.1 109.0Q167.2 109.0 167.4 109.0Q167.5 108.9 167.6 108.9L167.6 108.9L167.9 110.0Q167.7 110.0 167.4 110.1Q167.2 110.1 167.0 110.1L167.0 110.1Q166.1 110.1 165.6 109.6Q165.1 109.2 165.1 108.3L165.1 108.3L165.1 104.5L164.1 104.5L164.1 103.4L165.1 103.4L165.1 101.9L166.4 101.9L166.4 103.4ZM171.3 110.1L171.3 110.1Q170.6 110.1 170.0 109.9Q169.5 109.7 169.1 109.3Q168.8 108.9 168.7 108.3L168.7 108.3L169.9 108.1Q170.0 108.6 170.4 108.8Q170.8 109.1 171.3 109.1L171.3 109.1Q171.9 109.1 172.3 108.8Q172.7 108.6 172.7 108.2L172.7 108.2Q172.7 107.9 172.5 107.7Q172.2 107.5 171.8 107.4L171.8 107.4L170.7 107.1Q169.7 106.9 169.3 106.5Q168.9 106.0 168.9 105.3L168.9 105.3Q168.9 104.7 169.2 104.3Q169.5 103.9 170.1 103.6Q170.7 103.4 171.4 103.4L171.4 103.4Q172.1 103.4 172.6 103.6Q173.1 103.8 173.4 104.1Q173.7 104.5 173.9 105.0L173.9 105.0L172.7 105.3Q172.6 104.9 172.3 104.6Q172.0 104.4 171.4 104.4L171.4 104.4Q170.9 104.4 170.5 104.6Q170.2 104.9 170.2 105.2L170.2 105.2Q170.2 105.6 170.4 105.8Q170.6 106.0 171.2 106.1L171.2 106.1L172.2 106.3Q173.1 106.5 173.6 107.0Q174.0 107.4 174.0 108.1L174.0 108.1Q174.0 108.7 173.7 109.2Q173.3 109.6 172.7 109.9Q172.1 110.1 171.3 110.1Z M179.9 106.1L179.9 106.1L179.9 110L178.6 110L178.6 103.4L179.9 103.4L179.9 104.7Q180.1 104.1 180.6 103.8L180.6 103.8Q181.1 103.4 181.9 103.4L181.9 103.4Q182.6 103.4 183.0 103.6Q183.5 103.9 183.8 104.5Q184.1 105.0 184.1 105.8L184.1 105.8L184.1 110L182.8 110L182.8 106.0Q182.8 105.3 182.5 104.9Q182.1 104.5 181.4 104.5L181.4 104.5Q181.0 104.5 180.7 104.7Q180.3 104.9 180.1 105.2Q179.9 105.6 179.9 106.1ZM188.7 110.1L188.7 110.1Q187.7 110.1 187.0 109.7Q186.3 109.3 185.9 108.5Q185.5 107.8 185.5 106.8L185.5 106.8Q185.5 105.8 185.9 105.0Q186.3 104.2 187.0 103.8Q187.6 103.4 188.6 103.4L188.6 103.4Q189.1 103.4 189.6 103.6Q190.2 103.7 190.6 104.1Q191.0 104.5 191.2 105.1Q191.5 105.8 191.5 106.7L191.5 106.7L191.5 107.1L186.8 107.1Q186.9 107.7 187.1 108.1L187.1 108.1Q187.3 108.6 187.7 108.8Q188.1 109.1 188.7 109.1L188.7 109.1Q189.0 109.1 189.3 109.0Q189.6 108.9 189.8 108.7Q190.1 108.4 190.2 108.1L190.2 108.1L191.4 108.4Q191.2 108.9 190.9 109.3Q190.5 109.7 189.9 109.9Q189.4 110.1 188.7 110.1ZM186.8 106.2L186.8 106.2L190.2 106.2Q190.2 105.7 190.0 105.4L190.0 105.4Q189.8 104.9 189.5 104.7Q189.1 104.4 188.6 104.4L188.6 104.4Q188.0 104.4 187.6 104.7Q187.2 105.0 187.0 105.4L187.0 105.4Q186.9 105.7 186.8 106.2ZM195.7 110.1L195.7 110.1Q194.8 110.1 194.0 109.7Q193.3 109.3 193.0 108.5Q192.6 107.8 192.6 106.8L192.6 106.8Q192.6 105.8 193.0 105.0Q193.3 104.2 194.0 103.8Q194.7 103.4 195.6 103.4L195.6 103.4Q196.2 103.4 196.7 103.6Q197.2 103.7 197.6 104.1Q198.0 104.5 198.3 105.1Q198.5 105.8 198.5 106.7L198.5 106.7L198.5 107.1L193.9 107.1Q193.9 107.7 194.1 108.1L194.1 108.1Q194.3 108.6 194.8 108.8Q195.2 109.1 195.7 109.1L195.7 109.1Q196.1 109.1 196.4 109.0Q196.7 108.9 196.9 108.7Q197.1 108.4 197.2 108.1L197.2 108.1L198.4 108.4Q198.3 108.9 197.9 109.3Q197.5 109.7 197.0 109.9Q196.4 110.1 195.7 110.1ZM193.9 106.2L193.9 106.2L197.3 106.2Q197.2 105.7 197.1 105.4L197.1 105.4Q196.9 104.9 196.5 104.7Q196.2 104.4 195.6 104.4L195.6 104.4Q195.1 104.4 194.7 104.7Q194.3 105.0 194.1 105.4L194.1 105.4Q193.9 105.7 193.9 106.2ZM202.4 110.1L202.4 110.1Q201.6 110.1 201.0 109.7Q200.3 109.3 200.0 108.6Q199.6 107.8 199.6 106.7L199.6 106.7Q199.6 105.7 200.0 104.9Q200.4 104.2 201.0 103.8Q201.6 103.4 202.4 103.4L202.4 103.4Q203.0 103.4 203.4 103.6Q203.7 103.8 203.9 104.0Q204.2 104.3 204.3 104.5L204.3 104.5L204.3 104.5L204.3 101.3L205.6 101.3L205.6 110L204.4 110L204.4 109.0L204.3 109.0Q204.2 109.2 203.9 109.5Q203.7 109.7 203.3 109.9Q203.0 110.1 202.4 110.1ZM202.7 109.0L202.7 109.0Q203.2 109.0 203.6 108.7Q204.0 108.4 204.2 107.9Q204.4 107.4 204.4 106.7L204.4 106.7Q204.4 106.0 204.2 105.5Q204.0 105.0 203.6 104.7Q203.2 104.5 202.7 104.5L202.7 104.5Q202.1 104.5 201.7 104.8Q201.3 105.1 201.1 105.6Q201.0 106.1 201.0 106.7L201.0 106.7Q201.0 107.4 201.1 107.9Q201.3 108.4 201.7 108.7Q202.1 109.0 202.7 109.0ZM210.2 110.1L210.2 110.1Q209.2 110.1 208.5 109.7Q207.8 109.3 207.4 108.5Q207.1 107.8 207.1 106.8L207.1 106.8Q207.1 105.8 207.4 105.0Q207.8 104.2 208.5 103.8Q209.2 103.4 210.1 103.4L210.1 103.4Q210.6 103.4 211.2 103.6Q211.7 103.7 212.1 104.1Q212.5 104.5 212.8 105.1Q213.0 105.8 213.0 106.7L213.0 106.7L213.0 107.1L208.3 107.1Q208.4 107.7 208.6 108.1L208.6 108.1Q208.8 108.6 209.2 108.8Q209.6 109.1 210.2 109.1L210.2 109.1Q210.6 109.1 210.9 109.0Q211.1 108.9 211.4 108.7Q211.6 108.4 211.7 108.1L211.7 108.1L212.9 108.4Q212.7 108.9 212.4 109.3Q212.0 109.7 211.4 109.9Q210.9 110.1 210.2 110.1ZM208.4 106.2L208.4 106.2L211.7 106.2Q211.7 105.7 211.5 105.4L211.5 105.4Q211.4 104.9 211.0 104.7Q210.6 104.4 210.1 104.4L210.1 104.4Q209.5 104.4 209.1 104.7Q208.8 105.0 208.6 105.4L208.6 105.4Q208.4 105.7 208.4 106.2ZM216.8 110.1L216.8 110.1Q216.0 110.1 215.4 109.7Q214.8 109.3 214.5 108.6Q214.1 107.8 214.1 106.7L214.1 106.7Q214.1 105.7 214.5 104.9Q214.8 104.2 215.4 103.8Q216.1 103.4 216.8 103.4L216.8 103.4Q217.5 103.4 217.8 103.6Q218.2 103.8 218.4 104.0Q218.6 104.3 218.7 104.5L218.7 104.5L218.8 104.5L218.8 101.3L220.1 101.3L220.1 110L218.8 110L218.8 109.0L218.7 109.0Q218.6 109.2 218.4 109.5Q218.2 109.7 217.8 109.9Q217.4 110.1 216.8 110.1ZM217.1 109.0L217.1 109.0Q217.7 109.0 218.1 108.7Q218.4 108.4 218.6 107.9Q218.8 107.4 218.8 106.7L218.8 106.7Q218.8 106.0 218.6 105.5Q218.4 105.0 218.1 104.7Q217.7 104.5 217.1 104.5L217.1 104.5Q216.6 104.5 216.2 104.8Q215.8 105.1 215.6 105.6Q215.4 106.1 215.4 106.7L215.4 106.7Q215.4 107.4 215.6 107.9Q215.8 108.4 216.2 108.7Q216.6 109.0 217.1 109.0Z "/></g><mask id="satori_ms-id-1-1-1" maskUnits="userSpaceOnUse"><rect x="0" y="0" width="560" height="360" fill="#fff"/><path x="464" y="92" width="50" height="26" fill="#000"  stroke-width="0" d="M477,92 h24 a13,13 0 0 1 13,13 v0 a13,13 0 0 1 -13,13 h-24 a13,13 0 0 1 -13,-13 v0 a13,13 0 0 1 13,-13"/></mask><defs><filter id="satori_s-id-1-1-1" x="-32%" y="-61.53846153846154%" width="164%" height="223.0769230769231%"><feGaussianBlur stdDeviation="4" result="b"/><feFlood flood-color="rgba(0,0,0,0.04)" in="SourceGraphic" result="f"/><feComposite in="f" in2="b" operator="in"/></filter></defs><g mask="url(#satori_ms-id-1-1-1)" filter="url(#satori_s-id-1-1-1)" opacity="1"><path x="464" y="95" width="50" height="26" fill="#fff" stroke="#fff" stroke-width="0" d="M477,95 h24 a13,13 0 0 1 13,13 v0 a13,13 0 0 1 -13,13 h-24 a13,13 0 0 1 -13,-13 v0 a13,13 0 0 1 13,-13"/></g><mask id="satori_ms-id-1-1-0" maskUnits="userSpaceOnUse"><rect x="0" y="0" width="560" height="360" fill="#fff"/><path x="464" y="92" width="50" height="26" fill="#000"  stroke-width="0" d="M477,92 h24 a13,13 0 0 1 13,13 v0 a13,13 0 0 1 -13,13 h-24 a13,13 0 0 1 -13,-13 v0 a13,13 0 0 1 13,-13"/></mask><defs><filter id="satori_s-id-1-1-0" x="-2%" y="-3.8461538461538463%" width="104%" height="107.6923076923077%"><feGaussianBlur stdDeviation="1" result="b"/><feFlood flood-color="rgba(0,0,0,0.03)" in="SourceGraphic" result="f"/><feComposite in="f" in2="b" operator="in"/></filter></defs><g mask="url(#satori_ms-id-1-1-0)" filter="url(#satori_s-id-1-1-0)" opacity="1"><path x="464" y="93" width="50" height="26" fill="#fff" stroke="#fff" stroke-width="0" d="M477,93 h24 a13,13 0 0 1 13,13 v0 a13,13 0 0 1 -13,13 h-24 a13,13 0 0 1 -13,-13 v0 a13,13 0 0 1 13,-13"/></g><mask id="satori_om-id-1-1"><rect x="464" y="92" width="50" height="26" fill="#fff"/></mask><path x="464" y="92" width="50" height="26" fill="#fff" d="M477,92 h24 a13,13 0 0 1 13,13 v0 a13,13 0 0 1 -13,13 h-24 a13,13 0 0 1 -13,-13 v0 a13,13 0 0 1 13,-13"/><mask id="satori_om-id-1-1-0"><rect x="476" y="97" width="26" height="16" fill="#fff"/></mask><g  ><path fill="#6b7280" d="M483.5 110L476.8 110L476.8 108.6L480.1 105.5Q480.6 105.0 480.9 104.7Q481.2 104.4 481.3 104.0Q481.5 103.7 481.5 103.3L481.5 103.3Q481.5 102.9 481.3 102.6Q481.1 102.3 480.8 102.1Q480.4 102.0 480.0 102.0L480.0 102.0Q479.6 102.0 479.2 102.1Q478.9 102.3 478.7 102.6Q478.6 103.0 478.6 103.4L478.6 103.4L476.7 103.4Q476.7 102.5 477.1 101.8Q477.5 101.2 478.3 100.8Q479.0 100.4 480.0 100.4L480.0 100.4Q481.0 100.4 481.8 100.8Q482.5 101.1 482.9 101.8Q483.4 102.4 483.4 103.2L483.4 103.2Q483.4 103.7 483.1 104.2Q482.9 104.8 482.4 105.4Q481.9 106.0 480.9 106.9L480.9 106.9L479.5 108.3L479.5 108.4L483.5 108.4L483.5 110ZM489.2 108.3L484.6 108.3L484.6 106.8L488.6 100.5L491.0 100.5L491.0 106.8L492.2 106.8L492.2 108.3L491.0 108.3L491.0 110L489.2 110L489.2 108.3ZM486.6 106.8L489.2 106.8L489.2 102.7L489.1 102.7L486.6 106.7L486.6 106.8ZM497.2 110.1L497.2 110.1Q496.0 110.1 495.1 109.6Q494.3 109.0 493.8 107.9Q493.4 106.8 493.4 105.3L493.4 105.3Q493.4 103.7 493.8 102.7Q494.3 101.6 495.1 101.0Q496.0 100.4 497.2 100.4L497.2 100.4Q498.4 100.4 499.2 101.0Q500.0 101.6 500.5 102.7Q500.9 103.7 500.9 105.3L500.9 105.3Q500.9 106.8 500.5 107.9Q500.1 109.0 499.2 109.6Q498.4 110.1 497.2 110.1ZM497.2 108.5L497.2 108.5Q497.7 108.5 498.1 108.1Q498.5 107.8 498.8 107.0Q499.0 106.3 499.0 105.3L499.0 105.3Q499.0 104.2 498.8 103.5Q498.5 102.8 498.1 102.4Q497.7 102.0 497.2 102.0L497.2 102.0Q496.6 102.0 496.2 102.4Q495.8 102.8 495.6 103.5Q495.3 104.2 495.3 105.3L495.3 105.3Q495.3 106.3 495.6 107.0Q495.8 107.8 496.2 108.1Q496.6 108.5 497.2 108.5Z "/></g><mask id="satori_om-id-2"><rect x="0" y="137" width="560" height="36" fill="#fff"/></mask><defs><clipPath id="satori_bc-id-2-0"><path x="140" y="137" width="280" height="36" d="M150,137 h260 a10,10 0 0 1 10,10 v16 a10,10 0 0 1 -10,10 h-260 a10,10 0 0 1 -10,-10 v-16 a10,10 0 0 1 10,-10"/></clipPath></defs><mask id="satori_om-id-2-0"><rect x="141" y="138" width="278" height="34" fill="#fff"/><path width="280" height="36" fill="none" stroke="#000" stroke-width="2" d="M142.929,139.929 A10,10 0 0 1 150,137 h260 a10,10 0 0 1 10,10 v16 a10,10 0 0 1 -10,10 h-260 a10,10 0 0 1 -10,-10 v-16 A10,10 0 0 1 142.929,139.929"/></mask><path x="140" y="137" width="280" height="36" fill="#fef3c7" d="M150,137 h260 a10,10 0 0 1 10,10 v16 a10,10 0 0 1 -10,10 h-260 a10,10 0 0 1 -10,-10 v-16 a10,10 0 0 1 10,-10"/><path width="280" height="36" clip-path="url(#satori_bc-id-2-0)" fill="none" stroke="#fde68a" stroke-width="2" d="M142.929,139.929 A10,10 0 0 1 150,137 h260 a10,10 0 0 1 10,10 v16 a10,10 0 0 1 -10,10 h-260 a10,10 0 0 1 -10,-10 v-16 A10,10 0 0 1 142.929,139.929"/><mask id="satori_om-id-2-0-0"><rect x="155" y="148" width="88" height="15" fill="#fff"/></mask><g  ><path fill="#6b7280" d="M156.0 151.3L157.3 151.3L157.3 160L156.0 160L156.0 151.3ZM160.4 156.1L160.4 156.1L160.4 160L159.1 160L159.1 153.4L160.4 153.4L160.4 154.7Q160.6 154.1 161.1 153.8L161.1 153.8Q161.6 153.4 162.4 153.4L162.4 153.4Q163.1 153.4 163.6 153.6Q164.1 153.9 164.3 154.5Q164.6 155.0 164.6 155.8L164.6 155.8L164.6 160L163.3 160L163.3 156.0Q163.3 155.3 163.0 154.9Q162.6 154.5 161.9 154.5L161.9 154.5Q161.5 154.5 161.2 154.7Q160.8 154.9 160.6 155.2Q160.4 155.6 160.4 156.1ZM167.6 160L166.4 160L166.4 153.4L167.6 153.4L167.6 160ZM167.0 152.4L167.0 152.4Q166.7 152.4 166.4 152.2Q166.2 152.0 166.2 151.7L166.2 151.7Q166.2 151.4 166.4 151.1Q166.7 150.9 167.0 150.9L167.0 150.9Q167.3 150.9 167.6 151.1Q167.8 151.4 167.8 151.7L167.8 151.7Q167.8 152.0 167.6 152.2Q167.3 152.4 167.0 152.4ZM170.9 153.4L172.2 153.4L172.2 154.5L170.9 154.5L170.9 158.2Q170.9 158.6 171.0 158.8Q171.2 159.0 171.6 159.0L171.6 159.0Q171.7 159.0 171.9 159.0Q172.0 158.9 172.1 158.9L172.1 158.9L172.4 160.0Q172.2 160.0 171.9 160.1Q171.7 160.1 171.5 160.1L171.5 160.1Q170.6 160.1 170.1 159.6Q169.6 159.2 169.6 158.3L169.6 158.3L169.6 154.5L168.6 154.5L168.6 153.4L169.6 153.4L169.6 151.9L170.9 151.9L170.9 153.4ZM174.8 160L173.5 160L173.5 153.4L174.8 153.4L174.8 160ZM174.1 152.4L174.1 152.4Q173.8 152.4 173.5 152.2Q173.3 152.0 173.3 151.7L173.3 151.7Q173.3 151.4 173.5 151.1Q173.8 150.9 174.1 150.9L174.1 150.9Q174.4 150.9 174.7 151.1Q174.9 151.4 174.9 151.7L174.9 151.7Q174.9 152.0 174.7 152.2Q174.4 152.4 174.1 152.4ZM178.3 160.1L178.3 160.1Q177.7 160.1 177.2 159.9Q176.7 159.7 176.4 159.2Q176.1 158.8 176.1 158.1L176.1 158.1Q176.1 157.6 176.3 157.2Q176.5 156.9 176.9 156.7Q177.3 156.5 177.7 156.3Q178.2 156.2 178.6 156.2L178.6 156.2Q179.2 156.1 179.6 156.1Q179.9 156.0 180.1 155.9Q180.3 155.8 180.3 155.6L180.3 155.6L180.3 155.6Q180.3 155.2 180.1 154.9Q180.0 154.7 179.7 154.6Q179.4 154.4 179.0 154.4L179.0 154.4Q178.6 154.4 178.3 154.5Q178.0 154.7 177.8 154.9Q177.6 155.1 177.5 155.3L177.5 155.3L176.3 155.0Q176.5 154.4 176.9 154.1Q177.3 153.7 177.9 153.5Q178.4 153.4 179 153.4L179 153.4Q179.4 153.4 179.8 153.5Q180.3 153.6 180.7 153.8Q181.1 154.0 181.3 154.5Q181.6 154.9 181.6 155.7L181.6 155.7L181.6 160L180.3 160L180.3 159.1L180.3 159.1Q180.1 159.4 179.9 159.6Q179.6 159.8 179.2 160.0Q178.9 160.1 178.3 160.1ZM178.6 159.1L178.6 159.1Q179.1 159.1 179.5 158.9Q179.9 158.7 180.1 158.4Q180.3 158.0 180.3 157.6L180.3 157.6L180.3 156.8Q180.2 156.9 180.0 156.9Q179.8 157.0 179.6 157.0Q179.3 157.1 179.1 157.1Q178.8 157.1 178.7 157.1L178.7 157.1Q178.3 157.2 178.0 157.3Q177.7 157.4 177.5 157.6Q177.4 157.8 177.4 158.2L177.4 158.2Q177.4 158.5 177.5 158.7Q177.7 158.9 178.0 159.0Q178.2 159.1 178.6 159.1ZM183.3 151.3L184.6 151.3L184.6 160L183.3 160L183.3 151.3Z M192.3 160.1L192.3 160.1Q191.4 160.1 190.7 159.7Q190.0 159.3 189.6 158.5Q189.2 157.8 189.2 156.8L189.2 156.8Q189.2 155.7 189.6 155.0Q190.0 154.2 190.7 153.8Q191.4 153.4 192.3 153.4L192.3 153.4Q192.8 153.4 193.2 153.5Q193.7 153.6 194.0 153.9Q194.4 154.1 194.6 154.5Q194.9 154.8 195.0 155.3L195.0 155.3L193.8 155.6Q193.7 155.3 193.6 155.1Q193.5 154.9 193.3 154.8Q193.1 154.6 192.8 154.5Q192.6 154.5 192.3 154.5L192.3 154.5Q191.7 154.5 191.3 154.8Q190.9 155.1 190.7 155.6Q190.5 156.1 190.5 156.8L190.5 156.8Q190.5 157.4 190.7 157.9Q190.9 158.4 191.3 158.7Q191.7 159.0 192.3 159.0L192.3 159.0Q192.6 159.0 192.8 159.0Q193.1 158.9 193.3 158.7Q193.5 158.6 193.6 158.3Q193.8 158.1 193.8 157.9L193.8 157.9L195.0 158.2Q194.9 158.6 194.7 159.0Q194.4 159.3 194.1 159.6Q193.7 159.9 193.2 160Q192.8 160.1 192.3 160.1ZM199.2 160.1L199.2 160.1Q198.3 160.1 197.6 159.7Q196.9 159.3 196.5 158.5Q196.1 157.8 196.1 156.8L196.1 156.8Q196.1 155.7 196.5 155.0Q196.9 154.2 197.6 153.8Q198.3 153.4 199.2 153.4L199.2 153.4Q200.1 153.4 200.8 153.8Q201.5 154.2 201.9 155.0Q202.3 155.7 202.3 156.8L202.3 156.8Q202.3 157.8 201.9 158.5Q201.5 159.3 200.8 159.7Q200.1 160.1 199.2 160.1ZM199.2 159.0L199.2 159.0Q199.8 159.0 200.2 158.7Q200.6 158.4 200.8 157.9Q201.0 157.4 201.0 156.8L201.0 156.8Q201.0 156.1 200.8 155.6Q200.6 155.1 200.2 154.8Q199.8 154.5 199.2 154.5L199.2 154.5Q198.6 154.5 198.2 154.8Q197.8 155.1 197.6 155.6Q197.5 156.1 197.5 156.8L197.5 156.8Q197.5 157.4 197.6 157.9Q197.8 158.4 198.2 158.7Q198.6 159.0 199.2 159.0ZM207.0 160L205.6 160L203.1 153.4L204.5 153.4L205.8 157.2Q206.0 157.8 206.2 158.4L206.2 158.4Q206.2 158.7 206.3 158.9L206.3 158.9Q206.3 158.7 206.4 158.4L206.4 158.4Q206.6 157.8 206.8 157.2L206.8 157.2L208.1 153.4L209.5 153.4L207.0 160ZM213.4 160.1L213.4 160.1Q212.5 160.1 211.7 159.7Q211.0 159.3 210.7 158.5Q210.3 157.8 210.3 156.8L210.3 156.8Q210.3 155.8 210.7 155.0Q211.0 154.2 211.7 153.8Q212.4 153.4 213.3 153.4L213.3 153.4Q213.9 153.4 214.4 153.6Q214.9 153.7 215.3 154.1Q215.7 154.5 216.0 155.1Q216.2 155.8 216.2 156.7L216.2 156.7L216.2 157.1L211.6 157.1Q211.6 157.7 211.8 158.1L211.8 158.1Q212.0 158.6 212.5 158.8Q212.9 159.1 213.4 159.1L213.4 159.1Q213.8 159.1 214.1 159.0Q214.4 158.9 214.6 158.7Q214.8 158.4 214.9 158.1L214.9 158.1L216.1 158.4Q216.0 158.9 215.6 159.3Q215.2 159.7 214.7 159.9Q214.1 160.1 213.4 160.1ZM211.6 156.2L211.6 156.2L215.0 156.2Q214.9 155.7 214.8 155.4L214.8 155.4Q214.6 154.9 214.2 154.7Q213.9 154.4 213.3 154.4L213.3 154.4Q212.8 154.4 212.4 154.7Q212.0 155.0 211.8 155.4L211.8 155.4Q211.6 155.7 211.6 156.2ZM218.9 160L217.6 160L217.6 153.4L218.9 153.4L218.9 154.5L219.0 154.5Q219.1 154.0 219.6 153.7Q220.0 153.4 220.6 153.4L220.6 153.4Q220.7 153.4 220.9 153.4Q221.1 153.4 221.2 153.4L221.2 153.4L221.2 154.6Q221.1 154.6 220.9 154.6Q220.7 154.6 220.5 154.6L220.5 154.6Q220.0 154.6 219.7 154.7Q219.3 154.9 219.1 155.3Q218.9 155.6 218.9 156.0L218.9 156.0L218.9 160ZM224.1 160.1L224.1 160.1Q223.5 160.1 223.0 159.9Q222.5 159.7 222.2 159.2Q221.9 158.8 221.9 158.1L221.9 158.1Q221.9 157.6 222.1 157.2Q222.3 156.9 222.7 156.7Q223.1 156.5 223.5 156.3Q224.0 156.2 224.4 156.2L224.4 156.2Q225.0 156.1 225.4 156.1Q225.7 156.0 225.9 155.9Q226.1 155.8 226.1 155.6L226.1 155.6L226.1 155.6Q226.1 155.2 225.9 154.9Q225.8 154.7 225.5 154.6Q225.2 154.4 224.8 154.4L224.8 154.4Q224.4 154.4 224.1 154.5Q223.8 154.7 223.6 154.9Q223.4 155.1 223.3 155.3L223.3 155.3L222.1 155.0Q222.3 154.4 222.7 154.1Q223.1 153.7 223.7 153.5Q224.2 153.4 224.8 153.4L224.8 153.4Q225.2 153.4 225.6 153.5Q226.1 153.6 226.5 153.8Q226.9 154.0 227.1 154.5Q227.4 154.9 227.4 155.7L227.4 155.7L227.4 160L226.1 160L226.1 159.1L226.1 159.1Q225.9 159.4 225.7 159.6Q225.4 159.8 225.0 160.0Q224.7 160.1 224.1 160.1ZM224.4 159.1L224.4 159.1Q224.9 159.1 225.3 158.9Q225.7 158.7 225.9 158.4Q226.1 158.0 226.1 157.6L226.1 157.6L226.1 156.8Q226.0 156.9 225.8 156.9Q225.6 157.0 225.4 157.0Q225.1 157.1 224.9 157.1Q224.6 157.1 224.5 157.1L224.5 157.1Q224.1 157.2 223.8 157.3Q223.5 157.4 223.3 157.6Q223.2 157.8 223.2 158.2L223.2 158.2Q223.2 158.5 223.3 158.7Q223.5 158.9 223.8 159.0Q224.0 159.1 224.4 159.1ZM231.8 162.6L231.8 162.6Q231.1 162.6 230.5 162.4Q230.0 162.2 229.6 161.9Q229.2 161.6 229.1 161.2L229.1 161.2L230.1 160.7Q230.3 160.8 230.4 161.1Q230.6 161.3 231.0 161.4Q231.3 161.6 231.8 161.6L231.8 161.6Q232.6 161.6 233.0 161.2Q233.5 160.8 233.5 160.1L233.5 160.1L233.5 158.8L233.4 158.8Q233.3 159.0 233.1 159.3Q232.9 159.5 232.5 159.7Q232.1 159.9 231.5 159.9L231.5 159.9Q230.8 159.9 230.1 159.5Q229.5 159.2 229.2 158.5Q228.8 157.7 228.8 156.7L228.8 156.7Q228.8 155.7 229.2 154.9Q229.5 154.2 230.1 153.8Q230.8 153.4 231.5 153.4L231.5 153.4Q232.2 153.4 232.5 153.6Q232.9 153.8 233.1 154.0Q233.3 154.3 233.4 154.5L233.4 154.5L233.5 154.5L233.5 153.4L234.8 153.4L234.8 160.1Q234.8 161.0 234.4 161.5Q234.0 162.1 233.3 162.3Q232.7 162.6 231.8 162.6ZM231.8 158.8L231.8 158.8Q232.4 158.8 232.8 158.6Q233.1 158.3 233.3 157.8Q233.5 157.4 233.5 156.7L233.5 156.7Q233.5 156.0 233.3 155.5Q233.1 155.0 232.8 154.7Q232.4 154.5 231.8 154.5L231.8 154.5Q231.3 154.5 230.9 154.8Q230.5 155.1 230.3 155.6Q230.1 156.1 230.1 156.7L230.1 156.7Q230.1 157.3 230.3 157.8Q230.5 158.3 230.9 158.6Q231.3 158.8 231.8 158.8ZM239.4 160.1L239.4 160.1Q238.4 160.1 237.7 159.7Q237.0 159.3 236.6 158.5Q236.2 157.8 236.2 156.8L236.2 156.8Q236.2 155.8 236.6 155.0Q237.0 154.2 237.7 153.8Q238.3 153.4 239.2 153.4L239.2 153.4Q239.8 153.4 240.3 153.6Q240.9 153.7 241.3 154.1Q241.7 154.5 241.9 155.1Q242.2 155.8 242.2 156.7L242.2 156.7L242.2 157.1L237.5 157.1Q237.5 157.7 237.8 158.1L237.8 158.1Q238.0 158.6 238.4 158.8Q238.8 159.1 239.4 159.1L239.4 159.1Q239.7 159.1 240.0 159.0Q240.3 158.9 240.5 158.7Q240.7 158.4 240.9 158.1L240.9 158.1L242.1 158.4Q241.9 158.9 241.5 159.3Q241.2 159.7 240.6 159.9Q240.1 160.1 239.4 160.1ZM237.5 156.2L237.5 156.2L240.9 156.2Q240.9 155.7 240.7 155.4L240.7 155.4Q240.5 154.9 240.2 154.7Q239.8 154.4 239.2 154.4L239.2 154.4Q238.7 154.4 238.3 154.7Q237.9 155.0 237.7 155.4L237.7 155.4Q237.6 155.7 237.5 156.2Z "/></g><mask id="satori_ms-id-2-1-1" maskUnits="userSpaceOnUse"><rect x="0" y="0" width="560" height="360" fill="#fff"/><path x="434" y="142" width="49" height="26" fill="#000"  stroke-width="0" d="M447,142 h23 a13,13 0 0 1 13,13 v0 a13,13 0 0 1 -13,13 h-23 a13,13 0 0 1 -13,-13 v0 a13,13 0 0 1 13,-13"/></mask><defs><filter id="satori_s-id-2-1-1" x="-32.6530612244898%" y="-61.53846153846154%" width="165.3061224489796%" height="223.0769230769231%"><feGaussianBlur stdDeviation="4" result="b"/><feFlood flood-color="rgba(0,0,0,0.04)" in="SourceGraphic" result="f"/><feComposite in="f" in2="b" operator="in"/></filter></defs><g mask="url(#satori_ms-id-2-1-1)" filter="url(#satori_s-id-2-1-1)" opacity="1"><path x="434" y="145" width="49" height="26" fill="#fff" stroke="#fff" stroke-width="0" d="M447,145 h23 a13,13 0 0 1 13,13 v0 a13,13 0 0 1 -13,13 h-23 a13,13 0 0 1 -13,-13 v0 a13,13 0 0 1 13,-13"/></g><mask id="satori_ms-id-2-1-0" maskUnits="userSpaceOnUse"><rect x="0" y="0" width="560" height="360" fill="#fff"/><path x="434" y="142" width="49" height="26" fill="#000"  stroke-width="0" d="M447,142 h23 a13,13 0 0 1 13,13 v0 a13,13 0 0 1 -13,13 h-23 a13,13 0 0 1 -13,-13 v0 a13,13 0 0 1 13,-13"/></mask><defs><filter id="satori_s-id-2-1-0" x="-2.0408163265306123%" y="-3.8461538461538463%" width="104.08163265306123%" height="107.6923076923077%"><feGaussianBlur stdDeviation="1" result="b"/><feFlood flood-color="rgba(0,0,0,0.03)" in="SourceGraphic" result="f"/><feComposite in="f" in2="b" operator="in"/></filter></defs><g mask="url(#satori_ms-id-2-1-0)" filter="url(#satori_s-id-2-1-0)" opacity="1"><path x="434" y="143" width="49" height="26" fill="#fff" stroke="#fff" stroke-width="0" d="M447,143 h23 a13,13 0 0 1 13,13 v0 a13,13 0 0 1 -13,13 h-23 a13,13 0 0 1 -13,-13 v0 a13,13 0 0 1 13,-13"/></g><mask id="satori_om-id-2-1"><rect x="434" y="142" width="49" height="26" fill="#fff"/></mask><path x="434" y="142" width="49" height="26" fill="#fff" d="M447,142 h23 a13,13 0 0 1 13,13 v0 a13,13 0 0 1 -13,13 h-23 a13,13 0 0 1 -13,-13 v0 a13,13 0 0 1 13,-13"/><mask id="satori_om-id-2-1-0"><rect x="446" y="147" width="25" height="16" fill="#fff"/></mask><g  ><path fill="#a16207" d="M453.5 160L446.8 160L446.8 158.6L450.1 155.5Q450.6 155.0 450.9 154.7Q451.2 154.4 451.3 154.0Q451.5 153.7 451.5 153.3L451.5 153.3Q451.5 152.9 451.3 152.6Q451.1 152.3 450.8 152.1Q450.4 152.0 450.0 152.0L450.0 152.0Q449.6 152.0 449.2 152.1Q448.9 152.3 448.7 152.6Q448.6 153.0 448.6 153.4L448.6 153.4L446.7 153.4Q446.7 152.5 447.1 151.8Q447.5 151.2 448.3 150.8Q449.0 150.4 450.0 150.4L450.0 150.4Q451.0 150.4 451.8 150.8Q452.5 151.1 452.9 151.8Q453.4 152.4 453.4 153.2L453.4 153.2Q453.4 153.7 453.1 154.2Q452.9 154.8 452.4 155.4Q451.9 156.0 450.9 156.9L450.9 156.9L449.5 158.3L449.5 158.4L453.5 158.4L453.5 160ZM458.4 160.1L458.4 160.1Q457.3 160.1 456.5 159.8Q455.8 159.4 455.3 158.8Q454.8 158.2 454.8 157.3L454.8 157.3L456.8 157.3Q456.8 157.7 457.0 158.0Q457.2 158.2 457.6 158.4Q457.9 158.5 458.4 158.5L458.4 158.5Q458.8 158.5 459.2 158.4Q459.6 158.2 459.8 157.9Q460.0 157.6 460.0 157.2L460.0 157.2Q460.0 156.8 459.8 156.5Q459.5 156.2 459.1 156.1Q458.8 155.9 458.2 155.9L458.2 155.9L457.3 155.9L457.3 154.5L458.2 154.5Q458.7 154.5 459.0 154.3Q459.4 154.1 459.6 153.9Q459.8 153.6 459.8 153.2L459.8 153.2Q459.8 152.8 459.6 152.5Q459.4 152.3 459.1 152.1Q458.8 152.0 458.4 152.0L458.4 152.0Q458.0 152.0 457.6 152.1Q457.3 152.3 457.1 152.5Q456.9 152.8 456.9 153.2L456.9 153.2L455.0 153.2Q455.0 152.4 455.5 151.7Q455.9 151.1 456.7 150.8Q457.4 150.4 458.4 150.4L458.4 150.4Q459.4 150.4 460.1 150.8Q460.8 151.1 461.2 151.7Q461.6 152.3 461.6 153.1L461.6 153.1Q461.6 153.9 461.1 154.4Q460.7 154.9 459.9 155.1L459.9 155.1L459.9 155.2Q460.6 155.2 461.0 155.5Q461.5 155.8 461.7 156.3Q462.0 156.8 462.0 157.4L462.0 157.4Q462.0 158.2 461.5 158.8Q461.1 159.4 460.2 159.8Q459.4 160.1 458.4 160.1ZM470.1 160L463.4 160L463.4 158.6L466.7 155.5Q467.2 155.0 467.4 154.7Q467.7 154.4 467.9 154.0Q468.1 153.7 468.1 153.3L468.1 153.3Q468.1 152.9 467.9 152.6Q467.7 152.3 467.3 152.1Q467.0 152.0 466.6 152.0L466.6 152.0Q466.1 152.0 465.8 152.1Q465.5 152.3 465.3 152.6Q465.1 153.0 465.1 153.4L465.1 153.4L463.3 153.4Q463.3 152.5 463.7 151.8Q464.1 151.2 464.9 150.8Q465.6 150.4 466.6 150.4L466.6 150.4Q467.6 150.4 468.4 150.8Q469.1 151.1 469.5 151.8Q469.9 152.4 469.9 153.2L469.9 153.2Q469.9 153.7 469.7 154.2Q469.5 154.8 469.0 155.4Q468.5 156.0 467.5 156.9L467.5 156.9L466.1 158.3L466.1 158.4L470.1 158.4L470.1 160Z "/></g><mask id="satori_om-id-3"><rect x="0" y="187" width="560" height="36" fill="#fff"/></mask><defs><clipPath id="satori_bc-id-3-0"><path x="170" y="187" width="220" height="36" d="M180,187 h200 a10,10 0 0 1 10,10 v16 a10,10 0 0 1 -10,10 h-200 a10,10 0 0 1 -10,-10 v-16 a10,10 0 0 1 10,-10"/></clipPath></defs><mask id="satori_om-id-3-0"><rect x="171" y="188" width="218" height="34" fill="#fff"/><path width="220" height="36" fill="none" stroke="#000" stroke-width="2" d="M172.929,189.929 A10,10 0 0 1 180,187 h200 a10,10 0 0 1 10,10 v16 a10,10 0 0 1 -10,10 h-200 a10,10 0 0 1 -10,-10 v-16 A10,10 0 0 1 172.929,189.929"/></mask><path x="170" y="187" width="220" height="36" fill="#fde29a" d="M180,187 h200 a10,10 0 0 1 10,10 v16 a10,10 0 0 1 -10,10 h-200 a10,10 0 0 1 -10,-10 v-16 a10,10 0 0 1 10,-10"/><path width="220" height="36" clip-path="url(#satori_bc-id-3-0)" fill="none" stroke="#fcd34d" stroke-width="2" d="M172.929,189.929 A10,10 0 0 1 180,187 h200 a10,10 0 0 1 10,10 v16 a10,10 0 0 1 -10,10 h-200 a10,10 0 0 1 -10,-10 v-16 A10,10 0 0 1 172.929,189.929"/><mask id="satori_om-id-3-0-0"><rect x="185" y="198" width="103" height="15" fill="#fff"/></mask><g  ><path fill="#6b7280" d="M186.7 210L185.3 210L188.4 201.3L190.0 201.3L193.2 210L191.8 210L191.0 207.7L187.5 207.7L186.7 210ZM187.9 206.6L190.6 206.6L190.1 205.1Q189.9 204.6 189.6 203.7L189.6 203.7Q189.4 203.1 189.2 202.3L189.2 202.3Q189.0 203.1 188.8 203.8L188.8 203.8Q188.6 204.6 188.4 205.1L188.4 205.1L187.9 206.6ZM196.2 203.4L197.6 203.4L197.6 204.5L196.2 204.5L196.2 210L194.9 210L194.9 204.5L193.6 204.5L193.6 203.4L194.9 203.4L194.9 202.7Q194.9 202.1 195.1 201.7Q195.4 201.3 195.9 201.1Q196.3 200.9 196.8 200.9L196.8 200.9Q197.2 200.9 197.5 200.9Q197.8 201.0 197.9 201.0L197.9 201.0L197.6 202.1Q197.5 202.0 197.4 202.0Q197.2 202.0 197.0 202.0L197.0 202.0Q196.6 202.0 196.4 202.2Q196.2 202.4 196.2 202.9L196.2 202.9L196.2 203.4ZM200.4 203.4L201.7 203.4L201.7 204.5L200.4 204.5L200.4 208.2Q200.4 208.6 200.6 208.8Q200.8 209.0 201.1 209.0L201.1 209.0Q201.2 209.0 201.4 209.0Q201.6 208.9 201.7 208.9L201.7 208.9L201.9 210.0Q201.7 210.0 201.5 210.1Q201.2 210.1 201.0 210.1L201.0 210.1Q200.1 210.1 199.6 209.6Q199.1 209.2 199.1 208.3L199.1 208.3L199.1 204.5L198.2 204.5L198.2 203.4L199.1 203.4L199.1 201.9L200.4 201.9L200.4 203.4ZM205.8 210.1L205.8 210.1Q204.9 210.1 204.2 209.7Q203.5 209.3 203.1 208.5Q202.7 207.8 202.7 206.8L202.7 206.8Q202.7 205.8 203.1 205.0Q203.5 204.2 204.1 203.8Q204.8 203.4 205.7 203.4L205.7 203.4Q206.3 203.4 206.8 203.6Q207.3 203.7 207.7 204.1Q208.2 204.5 208.4 205.1Q208.6 205.8 208.6 206.7L208.6 206.7L208.6 207.1L204.0 207.1Q204.0 207.7 204.2 208.1L204.2 208.1Q204.5 208.6 204.9 208.8Q205.3 209.1 205.8 209.1L205.8 209.1Q206.2 209.1 206.5 209.0Q206.8 208.9 207.0 208.7Q207.2 208.4 207.3 208.1L207.3 208.1L208.5 208.4Q208.4 208.9 208.0 209.3Q207.6 209.7 207.1 209.9Q206.5 210.1 205.8 210.1ZM204.0 206.2L204.0 206.2L207.4 206.2Q207.3 205.7 207.2 205.4L207.2 205.4Q207.0 204.9 206.6 204.7Q206.3 204.4 205.7 204.4L205.7 204.4Q205.2 204.4 204.8 204.7Q204.4 205.0 204.2 205.4L204.2 205.4Q204.0 205.7 204.0 206.2ZM211.3 210L210.1 210L210.1 203.4L211.3 203.4L211.3 204.5L211.4 204.5Q211.6 204.0 212.0 203.7Q212.5 203.4 213.0 203.4L213.0 203.4Q213.2 203.4 213.3 203.4Q213.5 203.4 213.6 203.4L213.6 203.4L213.6 204.6Q213.5 204.6 213.3 204.6Q213.1 204.6 212.9 204.6L212.9 204.6Q212.5 204.6 212.1 204.7Q211.7 204.9 211.5 205.3Q211.3 205.6 211.3 206.0L211.3 206.0L211.3 210Z M220.7 210.1L220.7 210.1Q219.7 210.1 219.0 209.7Q218.4 209.3 218.0 208.5Q217.6 207.8 217.6 206.8L217.6 206.8Q217.6 205.7 218.0 205.0Q218.4 204.2 219.0 203.8Q219.7 203.4 220.7 203.4L220.7 203.4Q221.6 203.4 222.3 203.8Q223.0 204.2 223.3 205.0Q223.7 205.7 223.7 206.8L223.7 206.8Q223.7 207.8 223.3 208.5Q223.0 209.3 222.3 209.7Q221.6 210.1 220.7 210.1ZM220.7 209.0L220.7 209.0Q221.3 209.0 221.6 208.7Q222.0 208.4 222.2 207.9Q222.4 207.4 222.4 206.8L222.4 206.8Q222.4 206.1 222.2 205.6Q222.0 205.1 221.6 204.8Q221.3 204.5 220.7 204.5L220.7 204.5Q220.1 204.5 219.7 204.8Q219.3 205.1 219.1 205.6Q218.9 206.1 218.9 206.8L218.9 206.8Q218.9 207.4 219.1 207.9Q219.3 208.4 219.7 208.7Q220.1 209.0 220.7 209.0ZM226.4 212.4L225.1 212.4L225.1 203.4L226.4 203.4L226.4 204.5L226.5 204.5Q226.6 204.3 226.8 204.0Q227.0 203.8 227.4 203.6Q227.8 203.4 228.4 203.4L228.4 203.4Q229.2 203.4 229.8 203.8Q230.4 204.2 230.8 204.9Q231.1 205.7 231.1 206.7L231.1 206.7Q231.1 207.8 230.8 208.6Q230.4 209.3 229.8 209.7Q229.2 210.1 228.4 210.1L228.4 210.1Q227.8 210.1 227.4 209.9Q227.1 209.7 226.8 209.5Q226.6 209.2 226.5 209.0L226.5 209.0L226.4 209.0L226.4 212.4ZM228.1 209.0L228.1 209.0Q228.7 209.0 229.1 208.7Q229.4 208.4 229.6 207.9Q229.8 207.4 229.8 206.7L229.8 206.7Q229.8 206.1 229.6 205.6Q229.4 205.1 229.1 204.8Q228.7 204.5 228.1 204.5L228.1 204.5Q227.6 204.5 227.2 204.7Q226.8 205.0 226.6 205.5Q226.4 206.0 226.4 206.7L226.4 206.7Q226.4 207.4 226.6 207.9Q226.8 208.4 227.2 208.7Q227.6 209.0 228.1 209.0ZM234.1 203.4L235.4 203.4L235.4 204.5L234.1 204.5L234.1 208.2Q234.1 208.6 234.2 208.8Q234.4 209.0 234.8 209.0L234.8 209.0Q234.9 209.0 235.0 209.0Q235.2 208.9 235.3 208.9L235.3 208.9L235.5 210.0Q235.3 210.0 235.1 210.1Q234.9 210.1 234.6 210.1L234.6 210.1Q233.8 210.1 233.3 209.6Q232.8 209.2 232.8 208.3L232.8 208.3L232.8 204.5L231.8 204.5L231.8 203.4L232.8 203.4L232.8 201.9L234.1 201.9L234.1 203.4ZM237.9 210L236.7 210L236.7 203.4L237.9 203.4L237.9 210ZM237.3 202.4L237.3 202.4Q237.0 202.4 236.7 202.2Q236.5 202.0 236.5 201.7L236.5 201.7Q236.5 201.4 236.7 201.1Q237.0 200.9 237.3 200.9L237.3 200.9Q237.6 200.9 237.9 201.1Q238.1 201.4 238.1 201.7L238.1 201.7Q238.1 202.0 237.9 202.2Q237.6 202.4 237.3 202.4ZM241.0 210L239.7 210L239.7 203.4L240.9 203.4L240.9 204.7Q241.1 204.3 241.3 204.1L241.3 204.1Q241.6 203.7 242.0 203.5Q242.3 203.3 242.8 203.3L242.8 203.3Q243.5 203.3 243.9 203.8L243.9 203.8Q244.3 204.1 244.4 204.7L244.4 204.7Q244.6 204.4 244.8 204.1L244.8 204.1Q245.1 203.7 245.6 203.5Q246.0 203.3 246.5 203.3L246.5 203.3Q247.1 203.3 247.6 203.6Q248.0 203.8 248.3 204.3Q248.6 204.8 248.6 205.6L248.6 205.6L248.6 210L247.3 210L247.3 205.7Q247.3 205.1 246.9 204.8Q246.6 204.5 246.1 204.5L246.1 204.5Q245.7 204.5 245.4 204.6Q245.1 204.8 244.9 205.1Q244.8 205.4 244.8 205.8L244.8 205.8L244.8 210L243.5 210L243.5 205.6Q243.5 205.1 243.2 204.8Q242.8 204.5 242.3 204.5L242.3 204.5Q241.9 204.5 241.6 204.6Q241.3 204.8 241.1 205.1Q241.0 205.5 241.0 205.9L241.0 205.9L241.0 210ZM251.6 210L250.3 210L250.3 203.4L251.6 203.4L251.6 210ZM251.0 202.4L251.0 202.4Q250.6 202.4 250.4 202.2Q250.2 202.0 250.2 201.7L250.2 201.7Q250.2 201.4 250.4 201.1Q250.6 200.9 251.0 200.9L251.0 200.9Q251.3 200.9 251.6 201.1Q251.8 201.4 251.8 201.7L251.8 201.7Q251.8 202.0 251.6 202.2Q251.3 202.4 251.0 202.4ZM258.5 210L253.2 210L253.2 209.1L256.7 204.6L256.7 204.6L253.3 204.6L253.3 203.4L258.4 203.4L258.4 204.4L255.0 208.8L255.0 208.9L258.5 208.9L258.5 210ZM261.9 210.1L261.9 210.1Q261.3 210.1 260.8 209.9Q260.3 209.7 260.0 209.2Q259.7 208.8 259.7 208.1L259.7 208.1Q259.7 207.6 259.9 207.2Q260.1 206.9 260.5 206.7Q260.8 206.5 261.3 206.3Q261.7 206.2 262.2 206.2L262.2 206.2Q262.8 206.1 263.1 206.1Q263.5 206.0 263.7 205.9Q263.9 205.8 263.9 205.6L263.9 205.6L263.9 205.6Q263.9 205.2 263.7 204.9Q263.6 204.7 263.3 204.6Q263.0 204.4 262.6 204.4L262.6 204.4Q262.2 204.4 261.9 204.5Q261.6 204.7 261.4 204.9Q261.2 205.1 261.1 205.3L261.1 205.3L259.9 205.0Q260.1 204.4 260.5 204.1Q260.9 203.7 261.5 203.5Q262.0 203.4 262.6 203.4L262.6 203.4Q263.0 203.4 263.4 203.5Q263.9 203.6 264.3 203.8Q264.7 204.0 264.9 204.5Q265.1 204.9 265.1 205.7L265.1 205.7L265.1 210L263.9 210L263.9 209.1L263.8 209.1Q263.7 209.4 263.5 209.6Q263.2 209.8 262.8 210.0Q262.4 210.1 261.9 210.1ZM262.2 209.1L262.2 209.1Q262.7 209.1 263.1 208.9Q263.5 208.7 263.7 208.4Q263.9 208.0 263.9 207.6L263.9 207.6L263.9 206.8Q263.8 206.9 263.6 206.9Q263.4 207.0 263.1 207.0Q262.9 207.1 262.7 207.1Q262.4 207.1 262.3 207.1L262.3 207.1Q261.9 207.2 261.6 207.3Q261.3 207.4 261.1 207.6Q260.9 207.8 260.9 208.2L260.9 208.2Q260.9 208.5 261.1 208.7Q261.3 208.9 261.5 209.0Q261.8 209.1 262.2 209.1ZM268.4 203.4L269.7 203.4L269.7 204.5L268.4 204.5L268.4 208.2Q268.4 208.6 268.5 208.8Q268.7 209.0 269.1 209.0L269.1 209.0Q269.2 209.0 269.4 209.0Q269.5 208.9 269.6 208.9L269.6 208.9L269.9 210.0Q269.7 210.0 269.4 210.1Q269.2 210.1 269.0 210.1L269.0 210.1Q268.1 210.1 267.6 209.6Q267.1 209.2 267.1 208.3L267.1 208.3L267.1 204.5L266.1 204.5L266.1 203.4L267.1 203.4L267.1 201.9L268.4 201.9L268.4 203.4ZM272.3 210L271.0 210L271.0 203.4L272.3 203.4L272.3 210ZM271.6 202.4L271.6 202.4Q271.3 202.4 271.0 202.2Q270.8 202.0 270.8 201.7L270.8 201.7Q270.8 201.4 271.0 201.1Q271.3 200.9 271.6 200.9L271.6 200.9Q271.9 200.9 272.2 201.1Q272.4 201.4 272.4 201.7L272.4 201.7Q272.4 202.0 272.2 202.2Q271.9 202.4 271.6 202.4ZM276.7 210.1L276.7 210.1Q275.8 210.1 275.1 209.7Q274.4 209.3 274.1 208.5Q273.7 207.8 273.7 206.8L273.7 206.8Q273.7 205.7 274.1 205.0Q274.4 204.2 275.1 203.8Q275.8 203.4 276.7 203.4L276.7 203.4Q277.7 203.4 278.4 203.8Q279.0 204.2 279.4 205.0Q279.8 205.7 279.8 206.8L279.8 206.8Q279.8 207.8 279.4 208.5Q279.0 209.3 278.4 209.7Q277.7 210.1 276.7 210.1ZM276.7 209.0L276.7 209.0Q277.3 209.0 277.7 208.7Q278.1 208.4 278.3 207.9Q278.5 207.4 278.5 206.8L278.5 206.8Q278.5 206.1 278.3 205.6Q278.1 205.1 277.7 204.8Q277.3 204.5 276.7 204.5L276.7 204.5Q276.1 204.5 275.8 204.8Q275.4 205.1 275.2 205.6Q275.0 206.1 275.0 206.8L275.0 206.8Q275.0 207.4 275.2 207.9Q275.4 208.4 275.8 208.7Q276.1 209.0 276.7 209.0ZM282.5 206.1L282.5 206.1L282.5 210L281.2 210L281.2 203.4L282.5 203.4L282.5 204.7Q282.7 204.1 283.2 203.8L283.2 203.8Q283.7 203.4 284.5 203.4L284.5 203.4Q285.2 203.4 285.7 203.6Q286.2 203.9 286.4 204.5Q286.7 205.0 286.7 205.8L286.7 205.8L286.7 210L285.4 210L285.4 206.0Q285.4 205.3 285.1 204.9Q284.7 204.5 284.0 204.5L284.0 204.5Q283.6 204.5 283.3 204.7Q282.9 204.9 282.7 205.2Q282.5 205.6 282.5 206.1Z "/></g><mask id="satori_ms-id-3-1-1" maskUnits="userSpaceOnUse"><rect x="0" y="0" width="560" height="360" fill="#fff"/><path x="404" y="192" width="50" height="26" fill="#000"  stroke-width="0" d="M417,192 h24 a13,13 0 0 1 13,13 v0 a13,13 0 0 1 -13,13 h-24 a13,13 0 0 1 -13,-13 v0 a13,13 0 0 1 13,-13"/></mask><defs><filter id="satori_s-id-3-1-1" x="-32%" y="-61.53846153846154%" width="164%" height="223.0769230769231%"><feGaussianBlur stdDeviation="4" result="b"/><feFlood flood-color="rgba(0,0,0,0.04)" in="SourceGraphic" result="f"/><feComposite in="f" in2="b" operator="in"/></filter></defs><g mask="url(#satori_ms-id-3-1-1)" filter="url(#satori_s-id-3-1-1)" opacity="1"><path x="404" y="195" width="50" height="26" fill="#fff" stroke="#fff" stroke-width="0" d="M417,195 h24 a13,13 0 0 1 13,13 v0 a13,13 0 0 1 -13,13 h-24 a13,13 0 0 1 -13,-13 v0 a13,13 0 0 1 13,-13"/></g><mask id="satori_ms-id-3-1-0" maskUnits="userSpaceOnUse"><rect x="0" y="0" width="560" height="360" fill="#fff"/><path x="404" y="192" width="50" height="26" fill="#000"  stroke-width="0" d="M417,192 h24 a13,13 0 0 1 13,13 v0 a13,13 0 0 1 -13,13 h-24 a13,13 0 0 1 -13,-13 v0 a13,13 0 0 1 13,-13"/></mask><defs><filter id="satori_s-id-3-1-0" x="-2%" y="-3.8461538461538463%" width="104%" height="107.6923076923077%"><feGaussianBlur stdDeviation="1" result="b"/><feFlood flood-color="rgba(0,0,0,0.03)" in="SourceGraphic" result="f"/><feComposite in="f" in2="b" operator="in"/></filter></defs><g mask="url(#satori_ms-id-3-1-0)" filter="url(#satori_s-id-3-1-0)" opacity="1"><path x="404" y="193" width="50" height="26" fill="#fff" stroke="#fff" stroke-width="0" d="M417,193 h24 a13,13 0 0 1 13,13 v0 a13,13 0 0 1 -13,13 h-24 a13,13 0 0 1 -13,-13 v0 a13,13 0 0 1 13,-13"/></g><mask id="satori_om-id-3-1"><rect x="404" y="192" width="50" height="26" fill="#fff"/></mask><path x="404" y="192" width="50" height="26" fill="#fff" d="M417,192 h24 a13,13 0 0 1 13,13 v0 a13,13 0 0 1 -13,13 h-24 a13,13 0 0 1 -13,-13 v0 a13,13 0 0 1 13,-13"/><mask id="satori_om-id-3-1-0"><rect x="416" y="197" width="26" height="16" fill="#fff"/></mask><g  ><path fill="#a16207" d="M423.5 210L416.8 210L416.8 208.6L420.1 205.5Q420.6 205.0 420.9 204.7Q421.2 204.4 421.3 204.0Q421.5 203.7 421.5 203.3L421.5 203.3Q421.5 202.9 421.3 202.6Q421.1 202.3 420.8 202.1Q420.4 202.0 420.0 202.0L420.0 202.0Q419.6 202.0 419.2 202.1Q418.9 202.3 418.7 202.6Q418.6 203.0 418.6 203.4L418.6 203.4L416.7 203.4Q416.7 202.5 417.1 201.8Q417.5 201.2 418.3 200.8Q419.0 200.4 420.0 200.4L420.0 200.4Q421.0 200.4 421.8 200.8Q422.5 201.1 422.9 201.8Q423.4 202.4 423.4 203.2L423.4 203.2Q423.4 203.7 423.1 204.2Q422.9 204.8 422.4 205.4Q421.9 206.0 420.9 206.9L420.9 206.9L419.5 208.3L419.5 208.4L423.5 208.4L423.5 210ZM429.2 208.3L424.6 208.3L424.6 206.8L428.6 200.5L431.0 200.5L431.0 206.8L432.2 206.8L432.2 208.3L431.0 208.3L431.0 210L429.2 210L429.2 208.3ZM426.6 206.8L429.2 206.8L429.2 202.7L429.1 202.7L426.6 206.7L426.6 206.8ZM437.2 210.1L437.2 210.1Q436.0 210.1 435.1 209.6Q434.3 209.0 433.8 207.9Q433.4 206.8 433.4 205.3L433.4 205.3Q433.4 203.7 433.8 202.7Q434.3 201.6 435.1 201.0Q436.0 200.4 437.2 200.4L437.2 200.4Q438.4 200.4 439.2 201.0Q440.0 201.6 440.5 202.7Q440.9 203.7 440.9 205.3L440.9 205.3Q440.9 206.8 440.5 207.9Q440.1 209.0 439.2 209.6Q438.4 210.1 437.2 210.1ZM437.2 208.5L437.2 208.5Q437.7 208.5 438.1 208.1Q438.5 207.8 438.8 207.0Q439.0 206.3 439.0 205.3L439.0 205.3Q439.0 204.2 438.8 203.5Q438.5 202.8 438.1 202.4Q437.7 202.0 437.2 202.0L437.2 202.0Q436.6 202.0 436.2 202.4Q435.8 202.8 435.6 203.5Q435.3 204.2 435.3 205.3L435.3 205.3Q435.3 206.3 435.6 207.0Q435.8 207.8 436.2 208.1Q436.6 208.5 437.2 208.5Z "/></g><mask id="satori_om-id-4"><rect x="0" y="237" width="560" height="36" fill="#fff"/></mask><defs><clipPath id="satori_bc-id-4-0"><path x="200" y="237" width="160" height="36" d="M210,237 h140 a10,10 0 0 1 10,10 v16 a10,10 0 0 1 -10,10 h-140 a10,10 0 0 1 -10,-10 v-16 a10,10 0 0 1 10,-10"/></clipPath></defs><mask id="satori_om-id-4-0"><rect x="201" y="238" width="158" height="34" fill="#fff"/><path width="160" height="36" fill="none" stroke="#000" stroke-width="2" d="M202.929,239.929 A10,10 0 0 1 210,237 h140 a10,10 0 0 1 10,10 v16 a10,10 0 0 1 -10,10 h-140 a10,10 0 0 1 -10,-10 v-16 A10,10 0 0 1 202.929,239.929"/></mask><path x="200" y="237" width="160" height="36" fill="#fbbf24" d="M210,237 h140 a10,10 0 0 1 10,10 v16 a10,10 0 0 1 -10,10 h-140 a10,10 0 0 1 -10,-10 v-16 a10,10 0 0 1 10,-10"/><path width="160" height="36" clip-path="url(#satori_bc-id-4-0)" fill="none" stroke="#f59e0b" stroke-width="2" d="M202.929,239.929 A10,10 0 0 1 210,237 h140 a10,10 0 0 1 10,10 v16 a10,10 0 0 1 -10,10 h-140 a10,10 0 0 1 -10,-10 v-16 A10,10 0 0 1 202.929,239.929"/><mask id="satori_om-id-4-0-0"><rect x="215" y="248" width="78" height="15" fill="#fff"/></mask><g  ><path fill="#92400e" d="M217.3 260L216.0 260L216.0 251.3L221.4 251.3L221.4 252.4L217.3 252.4L217.3 255.2L221.0 255.2L221.0 256.4L217.3 256.4L217.3 260ZM225.2 260.1L225.2 260.1Q224.5 260.1 224 259.8Q223.5 259.5 223.2 259.0Q222.9 258.4 222.9 257.6L222.9 257.6L222.9 253.4L224.2 253.4L224.2 257.5Q224.2 258.2 224.6 258.6Q225.0 259.0 225.6 259.0L225.6 259.0Q226.1 259.0 226.4 258.8Q226.7 258.6 226.9 258.2Q227.1 257.8 227.1 257.3L227.1 257.3L227.1 253.4L228.4 253.4L228.4 260L227.2 260L227.2 258.7Q226.9 259.4 226.5 259.7L226.5 259.7Q225.9 260.1 225.2 260.1ZM230.2 251.3L231.4 251.3L231.4 260L230.2 260L230.2 251.3ZM233.2 251.3L234.5 251.3L234.5 260L233.2 260L233.2 251.3ZM236.1 262.4L236.1 262.4L236.4 261.3L236.6 261.3Q236.9 261.4 237.2 261.4Q237.4 261.3 237.6 261.1Q237.8 260.9 238.0 260.5L238.0 260.5L238.1 260.0L235.6 253.4L237.0 253.4L238.3 257.2Q238.5 257.8 238.7 258.4L238.7 258.4Q238.7 258.6 238.8 258.9L238.8 258.9Q238.8 258.6 238.9 258.4L238.9 258.4Q239.1 257.8 239.3 257.2L239.3 257.2L240.6 253.4L242.0 253.4L239.1 260.9Q238.9 261.4 238.6 261.8Q238.3 262.1 237.9 262.3Q237.5 262.5 237.0 262.5L237.0 262.5Q236.7 262.5 236.5 262.5Q236.2 262.4 236.1 262.4Z M249.1 260.1L249.1 260.1Q248.1 260.1 247.4 259.7Q246.8 259.3 246.4 258.5Q246.0 257.8 246.0 256.8L246.0 256.8Q246.0 255.7 246.4 255.0Q246.8 254.2 247.4 253.8Q248.1 253.4 249.1 253.4L249.1 253.4Q249.6 253.4 250.0 253.5Q250.5 253.6 250.8 253.9Q251.2 254.1 251.4 254.5Q251.7 254.8 251.8 255.3L251.8 255.3L250.6 255.6Q250.5 255.3 250.4 255.1Q250.2 254.9 250.1 254.8Q249.9 254.6 249.6 254.5Q249.4 254.5 249.1 254.5L249.1 254.5Q248.5 254.5 248.1 254.8Q247.7 255.1 247.5 255.6Q247.3 256.1 247.3 256.8L247.3 256.8Q247.3 257.4 247.5 257.9Q247.7 258.4 248.1 258.7Q248.5 259.0 249.1 259.0L249.1 259.0Q249.4 259.0 249.6 259.0Q249.9 258.9 250.1 258.7Q250.3 258.6 250.4 258.3Q250.5 258.1 250.6 257.9L250.6 257.9L251.8 258.2Q251.7 258.6 251.5 259.0Q251.2 259.3 250.8 259.6Q250.5 259.9 250.0 260Q249.6 260.1 249.1 260.1ZM256.0 260.1L256.0 260.1Q255.1 260.1 254.4 259.7Q253.7 259.3 253.3 258.5Q252.9 257.8 252.9 256.8L252.9 256.8Q252.9 255.7 253.3 255.0Q253.7 254.2 254.4 253.8Q255.1 253.4 256.0 253.4L256.0 253.4Q256.9 253.4 257.6 253.8Q258.3 254.2 258.7 255.0Q259.1 255.7 259.1 256.8L259.1 256.8Q259.1 257.8 258.7 258.5Q258.3 259.3 257.6 259.7Q256.9 260.1 256.0 260.1ZM256.0 259.0L256.0 259.0Q256.6 259.0 257.0 258.7Q257.4 258.4 257.6 257.9Q257.7 257.4 257.7 256.8L257.7 256.8Q257.7 256.1 257.6 255.6Q257.4 255.1 257.0 254.8Q256.6 254.5 256.0 254.5L256.0 254.5Q255.4 254.5 255.0 254.8Q254.6 255.1 254.4 255.6Q254.2 256.1 254.2 256.8L254.2 256.8Q254.2 257.4 254.4 257.9Q254.6 258.4 255.0 258.7Q255.4 259.0 256.0 259.0ZM263.8 260L262.4 260L259.9 253.4L261.3 253.4L262.6 257.2Q262.8 257.8 262.9 258.4L262.9 258.4Q263.0 258.7 263.1 258.9L263.1 258.9Q263.1 258.7 263.2 258.4L263.2 258.4Q263.3 257.8 263.6 257.2L263.6 257.2L264.9 253.4L266.2 253.4L263.8 260ZM270.2 260.1L270.2 260.1Q269.2 260.1 268.5 259.7Q267.8 259.3 267.5 258.5Q267.1 257.8 267.1 256.8L267.1 256.8Q267.1 255.8 267.4 255.0Q267.8 254.2 268.5 253.8Q269.2 253.4 270.1 253.4L270.1 253.4Q270.7 253.4 271.2 253.6Q271.7 253.7 272.1 254.1Q272.5 254.5 272.8 255.1Q273.0 255.8 273.0 256.7L273.0 256.7L273.0 257.1L268.4 257.1Q268.4 257.7 268.6 258.1L268.6 258.1Q268.8 258.6 269.2 258.8Q269.7 259.1 270.2 259.1L270.2 259.1Q270.6 259.1 270.9 259.0Q271.2 258.9 271.4 258.7Q271.6 258.4 271.7 258.1L271.7 258.1L272.9 258.4Q272.8 258.9 272.4 259.3Q272.0 259.7 271.5 259.9Q270.9 260.1 270.2 260.1ZM268.4 256.2L268.4 256.2L271.7 256.2Q271.7 255.7 271.6 255.4L271.6 255.4Q271.4 254.9 271.0 254.7Q270.6 254.4 270.1 254.4L270.1 254.4Q269.5 254.4 269.2 254.7Q268.8 255.0 268.6 255.4L268.6 255.4Q268.4 255.7 268.4 256.2ZM275.7 260L274.4 260L274.4 253.4L275.7 253.4L275.7 254.5L275.7 254.5Q275.9 254.0 276.4 253.7Q276.8 253.4 277.4 253.4L277.4 253.4Q277.5 253.4 277.7 253.4Q277.8 253.4 277.9 253.4L277.9 253.4L277.9 254.6Q277.9 254.6 277.7 254.6Q277.5 254.6 277.3 254.6L277.3 254.6Q276.8 254.6 276.5 254.7Q276.1 254.9 275.9 255.3Q275.7 255.6 275.7 256.0L275.7 256.0L275.7 260ZM281.9 260.1L281.9 260.1Q280.9 260.1 280.2 259.7Q279.5 259.3 279.1 258.5Q278.8 257.8 278.8 256.8L278.8 256.8Q278.8 255.8 279.1 255.0Q279.5 254.2 280.2 253.8Q280.9 253.4 281.8 253.4L281.8 253.4Q282.3 253.4 282.9 253.6Q283.4 253.7 283.8 254.1Q284.2 254.5 284.5 255.1Q284.7 255.8 284.7 256.7L284.7 256.7L284.7 257.1L280.1 257.1Q280.1 257.7 280.3 258.1L280.3 258.1Q280.5 258.6 280.9 258.8Q281.4 259.1 281.9 259.1L281.9 259.1Q282.3 259.1 282.6 259.0Q282.9 258.9 283.1 258.7Q283.3 258.4 283.4 258.1L283.4 258.1L284.6 258.4Q284.4 258.9 284.1 259.3Q283.7 259.7 283.1 259.9Q282.6 260.1 281.9 260.1ZM280.1 256.2L280.1 256.2L283.4 256.2Q283.4 255.7 283.3 255.4L283.3 255.4Q283.1 254.9 282.7 254.7Q282.3 254.4 281.8 254.4L281.8 254.4Q281.2 254.4 280.8 254.7Q280.5 255.0 280.3 255.4L280.3 255.4Q280.1 255.7 280.1 256.2ZM288.6 260.1L288.6 260.1Q287.8 260.1 287.1 259.7Q286.5 259.3 286.2 258.6Q285.8 257.8 285.8 256.7L285.8 256.7Q285.8 255.7 286.2 254.9Q286.5 254.2 287.1 253.8Q287.8 253.4 288.6 253.4L288.6 253.4Q289.2 253.4 289.5 253.6Q289.9 253.8 290.1 254.0Q290.3 254.3 290.4 254.5L290.4 254.5L290.5 254.5L290.5 251.3L291.8 251.3L291.8 260L290.5 260L290.5 259.0L290.4 259.0Q290.3 259.2 290.1 259.5Q289.9 259.7 289.5 259.9Q289.1 260.1 288.6 260.1ZM288.8 259.0L288.8 259.0Q289.4 259.0 289.8 258.7Q290.1 258.4 290.3 257.9Q290.5 257.4 290.5 256.7L290.5 256.7Q290.5 256.0 290.3 255.5Q290.1 255.0 289.8 254.7Q289.4 254.5 288.8 254.5L288.8 254.5Q288.3 254.5 287.9 254.8Q287.5 255.1 287.3 255.6Q287.1 256.1 287.1 256.7L287.1 256.7Q287.1 257.4 287.3 257.9Q287.5 258.4 287.9 258.7Q288.3 259.0 288.8 259.0Z "/></g><mask id="satori_ms-id-4-1-1" maskUnits="userSpaceOnUse"><rect x="0" y="0" width="560" height="360" fill="#fff"/><path x="374" y="242" width="86" height="26" fill="#000"  stroke-width="0" d="M387,242 h60 a13,13 0 0 1 13,13 v0 a13,13 0 0 1 -13,13 h-60 a13,13 0 0 1 -13,-13 v0 a13,13 0 0 1 13,-13"/></mask><defs><filter id="satori_s-id-4-1-1" x="-18.6046511627907%" y="-61.53846153846154%" width="137.2093023255814%" height="223.0769230769231%"><feGaussianBlur stdDeviation="4" result="b"/><feFlood flood-color="rgba(0,0,0,0.04)" in="SourceGraphic" result="f"/><feComposite in="f" in2="b" operator="in"/></filter></defs><g mask="url(#satori_ms-id-4-1-1)" filter="url(#satori_s-id-4-1-1)" opacity="1"><path x="374" y="245" width="86" height="26" fill="#fff" stroke="#fff" stroke-width="0" d="M387,245 h60 a13,13 0 0 1 13,13 v0 a13,13 0 0 1 -13,13 h-60 a13,13 0 0 1 -13,-13 v0 a13,13 0 0 1 13,-13"/></g><mask id="satori_ms-id-4-1-0" maskUnits="userSpaceOnUse"><rect x="0" y="0" width="560" height="360" fill="#fff"/><path x="374" y="242" width="86" height="26" fill="#000"  stroke-width="0" d="M387,242 h60 a13,13 0 0 1 13,13 v0 a13,13 0 0 1 -13,13 h-60 a13,13 0 0 1 -13,-13 v0 a13,13 0 0 1 13,-13"/></mask><defs><filter id="satori_s-id-4-1-0" x="-1.1627906976744187%" y="-3.8461538461538463%" width="102.32558139534885%" height="107.6923076923077%"><feGaussianBlur stdDeviation="1" result="b"/><feFlood flood-color="rgba(0,0,0,0.03)" in="SourceGraphic" result="f"/><feComposite in="f" in2="b" operator="in"/></filter></defs><g mask="url(#satori_ms-id-4-1-0)" filter="url(#satori_s-id-4-1-0)" opacity="1"><path x="374" y="243" width="86" height="26" fill="#fff" stroke="#fff" stroke-width="0" d="M387,243 h60 a13,13 0 0 1 13,13 v0 a13,13 0 0 1 -13,13 h-60 a13,13 0 0 1 -13,-13 v0 a13,13 0 0 1 13,-13"/></g><mask id="satori_om-id-4-1"><rect x="374" y="242" width="86" height="26" fill="#fff"/></mask><path x="374" y="242" width="86" height="26" fill="#fff" d="M387,242 h60 a13,13 0 0 1 13,13 v0 a13,13 0 0 1 -13,13 h-60 a13,13 0 0 1 -13,-13 v0 a13,13 0 0 1 13,-13"/><clipPath id="satori_cp-id-4-1-0"><rect x="386" y="249" width="12" height="12"/></clipPath><mask id="satori_om-id-4-1-0"><rect x="386" y="249" width="12" height="12" fill="#fff"/></mask><image x="386" y="249" width="12" height="12" href="data:image/svg+xml;utf8,%3Csvg  fill=%22none%22 xmlns=%22http://www.w3.org/2000/svg%22 width=%2212%22 height=%2212%22 viewBox=%220 0 16 16%22%3E%3Cpath d=%22M3 8.2l3 3 7-7%22 stroke=%22%2316a34a%22 stroke-width=%222%22 stroke-linecap=%22round%22 stroke-linejoin=%22round%22%3E%3C/path%3E%3C/svg%3E" preserveAspectRatio="none" clip-path="url(#satori_cp-id-4-1-0)" mask="url(#satori_om-id-4-1-0)"/><mask id="satori_om-id-4-1-0-0"><rect x="386" y="249" width="0" height="12" fill="#fff"/></mask><mask id="satori_om-id-4-1-1"><rect x="404" y="247" width="44" height="16" fill="#fff"/></mask><g  ><path fill="#16a34a" d="M408.4 260.1L408.4 260.1Q407.2 260.1 406.3 259.6Q405.5 259.0 405.0 257.9Q404.6 256.8 404.6 255.3L404.6 255.3Q404.6 253.7 405.0 252.7Q405.5 251.6 406.3 251.0Q407.2 250.4 408.4 250.4L408.4 250.4Q409.6 250.4 410.4 251.0Q411.3 251.6 411.7 252.7Q412.2 253.7 412.2 255.3L412.2 255.3Q412.2 256.8 411.7 257.9Q411.3 259.0 410.4 259.6Q409.6 260.1 408.4 260.1ZM408.4 258.5L408.4 258.5Q409.0 258.5 409.4 258.1Q409.8 257.8 410.0 257.0Q410.2 256.3 410.2 255.3L410.2 255.3Q410.2 254.2 410.0 253.5Q409.8 252.8 409.4 252.4Q409.0 252.0 408.4 252.0L408.4 252.0Q407.8 252.0 407.4 252.4Q407.0 252.8 406.8 253.5Q406.6 254.2 406.6 255.3L406.6 255.3Q406.6 256.3 406.8 257.0Q407.0 257.8 407.4 258.1Q407.8 258.5 408.4 258.5Z M419.8 262.8L419.8 262.8Q418.9 262.8 418.3 262.6Q417.6 262.4 417.2 262.0Q416.8 261.6 416.6 261.1L416.6 261.1L418.3 260.6Q418.3 260.8 418.5 261.0Q418.7 261.2 419.0 261.3Q419.3 261.4 419.8 261.4L419.8 261.4Q420.5 261.4 420.9 261.1Q421.4 260.8 421.4 260.1L421.4 260.1L421.4 258.7L421.2 258.7Q421.1 259.0 420.8 259.3Q420.6 259.6 420.2 259.7Q419.8 259.9 419.2 259.9L419.2 259.9Q418.4 259.9 417.8 259.5Q417.1 259.1 416.7 258.4Q416.4 257.6 416.4 256.4L416.4 256.4Q416.4 255.2 416.8 254.4Q417.2 253.6 417.8 253.2Q418.5 252.8 419.3 252.8L419.3 252.8Q419.9 252.8 420.3 253.0Q420.7 253.2 420.9 253.5Q421.2 253.8 421.3 254.1L421.3 254.1L421.4 254.1L421.4 252.9L423.2 252.9L423.2 259.9Q423.2 260.9 422.8 261.5Q422.4 262.2 421.6 262.5Q420.8 262.8 419.8 262.8ZM419.8 258.5L419.8 258.5Q420.3 258.5 420.7 258.2Q421.0 258.0 421.2 257.5Q421.4 257.1 421.4 256.4L421.4 256.4Q421.4 255.8 421.2 255.3Q421.0 254.9 420.7 254.6Q420.3 254.3 419.8 254.3L419.8 254.3Q419.3 254.3 419.0 254.6Q418.7 254.9 418.5 255.3Q418.3 255.8 418.3 256.4L418.3 256.4Q418.3 257.0 418.5 257.5Q418.7 258.0 419.0 258.2Q419.3 258.5 419.8 258.5ZM426.9 260.1L426.9 260.1Q426.2 260.1 425.6 259.9Q425.1 259.7 424.8 259.2Q424.5 258.7 424.5 258.0L424.5 258.0Q424.5 257.4 424.7 257.0Q424.9 256.6 425.3 256.4Q425.7 256.1 426.2 256.0Q426.6 255.9 427.2 255.8L427.2 255.8Q427.8 255.8 428.2 255.7Q428.5 255.7 428.7 255.5Q428.9 255.4 428.9 255.2L428.9 255.2L428.9 255.2Q428.9 254.9 428.8 254.7Q428.6 254.4 428.4 254.3Q428.1 254.2 427.8 254.2L427.8 254.2Q427.4 254.2 427.1 254.3Q426.9 254.4 426.7 254.6Q426.5 254.8 426.4 255.0L426.4 255.0L424.7 254.8Q424.9 254.1 425.3 253.7Q425.7 253.3 426.4 253.0Q427.0 252.8 427.8 252.8L427.8 252.8Q428.4 252.8 428.9 253.0Q429.4 253.1 429.9 253.4Q430.3 253.7 430.5 254.1Q430.8 254.6 430.8 255.2L430.8 255.2L430.8 260L429.0 260L429.0 259.0L428.9 259.0Q428.8 259.3 428.5 259.6Q428.2 259.8 427.8 260.0Q427.4 260.1 426.9 260.1ZM427.4 258.8L427.4 258.8Q427.8 258.8 428.2 258.6Q428.5 258.4 428.7 258.1Q428.9 257.8 428.9 257.5L428.9 257.5L428.9 256.7Q428.8 256.8 428.6 256.8Q428.5 256.9 428.3 256.9Q428.1 256.9 427.9 257.0Q427.7 257.0 427.5 257.0L427.5 257.0Q427.1 257.1 426.9 257.2Q426.6 257.3 426.5 257.5Q426.3 257.7 426.3 258.0L426.3 258.0Q426.3 258.2 426.5 258.4Q426.6 258.6 426.8 258.7Q427.1 258.8 427.4 258.8ZM434.3 262.7L432.4 262.7L432.4 252.9L434.3 252.9L434.3 254.1L434.4 254.1Q434.5 253.8 434.8 253.5Q435.0 253.2 435.4 253.0Q435.8 252.8 436.4 252.8L436.4 252.8Q437.2 252.8 437.8 253.2Q438.5 253.6 438.9 254.4Q439.3 255.3 439.3 256.5L439.3 256.5Q439.3 257.6 438.9 258.5Q438.5 259.3 437.9 259.7Q437.2 260.1 436.4 260.1L436.4 260.1Q435.8 260.1 435.4 259.9Q435.0 259.7 434.8 259.4Q434.5 259.1 434.4 258.9L434.4 258.9L434.3 258.9L434.3 262.7ZM435.8 258.6L435.8 258.6Q436.3 258.6 436.6 258.3Q437.0 258.0 437.2 257.6Q437.3 257.1 437.3 256.5L437.3 256.5Q437.3 255.8 437.2 255.4Q437.0 254.9 436.6 254.6Q436.3 254.3 435.8 254.3L435.8 254.3Q435.3 254.3 435.0 254.6Q434.6 254.9 434.5 255.3Q434.3 255.8 434.3 256.5L434.3 256.5Q434.3 257.1 434.5 257.6Q434.6 258.1 435.0 258.3Q435.3 258.6 435.8 258.6ZM443.4 260.1L443.4 260.1Q442.6 260.1 441.9 259.9Q441.3 259.7 440.8 259.2Q440.4 258.7 440.3 258.1L440.3 258.1L442.1 257.8Q442.2 258.2 442.6 258.5Q442.9 258.7 443.5 258.7L443.5 258.7Q444.0 258.7 444.3 258.5Q444.7 258.3 444.7 258.0L444.7 258.0Q444.7 257.7 444.4 257.6Q444.2 257.4 443.7 257.3L443.7 257.3L442.5 257.0Q441.5 256.8 441.0 256.3Q440.5 255.8 440.5 255.0L440.5 255.0Q440.5 254.3 440.9 253.8Q441.2 253.3 441.9 253.1Q442.6 252.8 443.5 252.8L443.5 252.8Q444.3 252.8 444.9 253.0Q445.5 253.3 445.9 253.7Q446.3 254.1 446.4 254.7L446.4 254.7L444.7 255.0Q444.6 254.6 444.3 254.4Q444.0 254.2 443.5 254.2L443.5 254.2Q443.0 254.2 442.7 254.4Q442.4 254.6 442.4 254.9L442.4 254.9Q442.4 255.2 442.6 255.4Q442.8 255.5 443.3 255.6L443.3 255.6L444.6 255.9Q445.6 256.1 446.1 256.6Q446.6 257.0 446.6 257.8L446.6 257.8Q446.6 258.5 446.2 259.0Q445.8 259.6 445.1 259.8Q444.4 260.1 443.4 260.1Z "/></g></svg>