<svg width="560" height="400" viewBox="0 0 560 400" xmlns="http://www.w3.org/2000/svg"><mask id="satori_om-id"><rect x="0" y="0" width="560" height="400" fill="#fff"/></mask><mask id="satori_om-id-0"><rect x="0" y="0" width="560" height="400" fill="#fff"/></mask><clipPath id="satori_cp-id-0-0"><rect x="0" y="0" width="560" height="400"/></clipPath><mask id="satori_om-id-0-0"><rect x="0" y="0" width="560" height="400" fill="#fff"/></mask><image x="0" y="0" width="560" height="400" href="data:image/svg+xml;utf8,%3Csvg  fill=%22none%22 xmlns=%22http://www.w3.org/2000/svg%22 width=%22560%22 height=%22400%22 viewBox=%220 0 560 400%22%3E%3Cdefs%3E%3ClinearGradient id=%22prismGrad%22 x1=%220%22 y1=%220%22 x2=%221%22 y2=%221%22%3E%3Cstop offset=%220%25%22 stop-color=%22%23ffffff%22%3E%3C/stop%3E%3Cstop offset=%22100%25%22 stop-color=%22%23f3f4f6%22%3E%3C/stop%3E%3C/linearGradient%3E%3Cfilter id=%22glow%22 x=%22-20%25%22 y=%22-20%25%22 width=%22140%25%22 height=%22140%25%22%3E%3CfeGaussianBlur stdDeviation=%223%22 result=%22blur%22%3E%3C/feGaussianBlur%3E%3CfeMerge%3E%3CfeMergeNode in=%22blur%22%3E%3C/feMergeNode%3E%3CfeMergeNode in=%22SourceGraphic%22%3E%3C/feMergeNode%3E%3C/feMerge%3E%3C/filter%3E%3C/defs%3E%3Cline x1=%2270%22 y1=%22200%22 x2=%22200%22 y2=%22200%22 stroke=%22%239ca3af%22 stroke-width=%225%22 stroke-linecap=%22round%22 filter=%22url(%23glow)%22%3E%3C/line%3E%3Cline x1=%22320%22 y1=%22200%22 x2=%22467%22 y2=%22115%22 stroke=%22%23fbbf24%22 stroke-width=%224.5%22 stroke-linecap=%22round%22%3E%3C/line%3E%3Cline x1=%22320%22 y1=%22200%22 x2=%22487%22 y2=%22170%22 stroke=%22%237c3aed%22 stroke-width=%223%22 stroke-linecap=%22round%22%3E%3C/line%3E%3Cline x1=%22320%22 y1=%22200%22 x2=%22487%22 y2=%22230%22 stroke=%22%2310b981%22 stroke-width=%223%22 stroke-linecap=%22round%22%3E%3C/line%3E%3Cline x1=%22320%22 y1=%22200%22 x2=%22467%22 y2=%22285%22 stroke=%22%234f46e5%22 stroke-width=%223%22 stroke-linecap=%22round%22%3E%3C/line%3E%3Cpolygon points=%22200,120 200,280 320,200%22 fill=%22url(%23prismGrad)%22 stroke=%22%23d1d5db%22 stroke-width=%221.5%22 stroke-linejoin=%22round%22%3E%3C/polygon%3E%3C/svg%3E" preserveAspectRatio="none" clip-path="url(#satori_cp-id-0-0)" mask="url(#satori_om-id-0-0)"/><mask id="satori_om-id-0-0-0"><rect x="0" y="0" width="0" height="400" fill="#fff"/></mask><mask id="satori_om-id-0-0-0-0"><rect x="0" y="0" width="0" height="400" fill="#fff"/></mask><mask id="satori_om-id-0-0-0-0-0"><rect x="0" y="0" width="0" height="400" fill="#fff"/></mask><mask id="satori_om-id-0-0-0-0-1"><rect x="0" y="0" width="0" height="400" fill="#fff"/></mask><mask id="satori_om-id-0-0-0-1"><rect x="0" y="0" width="0" height="400" fill="#fff"/></mask><mask id="satori_om-id-0-0-0-1-0"><rect x="0" y="0" width="0" height="400" fill="#fff"/></mask><mask id="satori_om-id-0-0-0-1-1"><rect x="0" y="0" width="0" height="400" fill="#fff"/></mask><mask id="satori_om-id-0-0-0-1-1-0"><rect x="0" y="0" width="0" height="400" fill="#fff"/></mask><mask id="satori_om-id-0-0-0-1-1-1"><rect x="0" y="0" width="0" height="400" fill="#fff"/></mask><mask id="satori_om-id-0-0-1"><rect x="0" y="0" width="0" height="400" fill="#fff"/></mask><mask id="satori_om-id-0-0-2"><rect x="0" y="0" width="0" height="400" fill="#fff"/></mask><mask id="satori_om-id-0-0-3"><rect x="0" y="0" width="0" height="400" fill="#fff"/></mask><mask id="satori_om-id-0-0-4"><rect x="0" y="0" width="0" height="400" fill="#fff"/></mask><mask id="satori_om-id-0-0-5"><rect x="0" y="0" width="0" height="400" fill="#fff"/></mask><mask id="satori_om-id-0-0-6"><rect x="0" y="0" width="0" height="400" fill="#fff"/></mask><mask id="satori_ms-id-0-1-1" maskUnits="userSpaceOnUse"><rect x="0" y="0" width="560" height="400" fill="#fff"/><path x="16" y="188" width="118" height="21" fill="#000"  stroke-width="0" d="M26.5,188 h97 a10.5,10.5 0 0 1 10.5,10.5 v0 a10.5,10.5 0 0 1 -10.5,10.5 h-97 a10.5,10.5 0 0 1 -10.5,-10.5 v0 a10.5,10.5 0 0 1 10.5,-10.5"/></mask><defs><filter id="satori_s-id-0-1-1" x="-30.508474576271187%" y="-171.42857142857142%" width="161.01694915254237%" height="442.8571428571429%"><feGaussianBlur stdDeviation="6" result="b"/><feFlood flood-color="rgba(0,0,0,0.04)" in="SourceGraphic" result="f"/><feComposite in="f" in2="b" operator="in"/></filter></defs><g mask="url(#satori_ms-id-0-1-1)" filter="url(#satori_s-id-0-1-1)" opacity="1"><path x="16" y="192" width="118" height="21" fill="#fff" stroke="#fff" stroke-width="0" d="M26.5,192 h97 a10.5,10.5 0 0 1 10.5,10.5 v0 a10.5,10.5 0 0 1 -10.5,10.5 h-97 a10.5,10.5 0 0 1 -10.5,-10.5 v0 a10.5,10.5 0 0 1 10.5,-10.5"/></g><mask id="satori_ms-id-0-1-0" maskUnits="userSpaceOnUse"><rect x="0" y="0" width="560" height="400" fill="#fff"/><path x="16" y="188" width="118" height="21" fill="#000"  stroke-width="0" d="M26.5,188 h97 a10.5,10.5 0 0 1 10.5,10.5 v0 a10.5,10.5 0 0 1 -10.5,10.5 h-97 a10.5,10.5 0 0 1 -10.5,-10.5 v0 a10.5,10.5 0 0 1 10.5,-10.5"/></mask><defs><filter id="satori_s-id-0-1-0" x="-0.847457627118644%" y="-4.761904761904762%" width="101.69491525423729%" height="109.52380952380953%"><feGaussianBlur stdDeviation="1" result="b"/><feFlood flood-color="rgba(0,0,0,0.03)" in="SourceGraphic" result="f"/><feComposite in="f" in2="b" operator="in"/></filter></defs><g mask="url(#satori_ms-id-0-1-0)" filter="url(#satori_s-id-0-1-0)" opacity="1"><path x="16" y="189" width="118" height="21" fill="#fff" stroke="#fff" stroke-width="0" d="M26.5,189 h97 a10.5,10.5 0 0 1 10.5,10.5 v0 a10.5,10.5 0 0 1 -10.5,10.5 h-97 a10.5,10.5 0 0 1 -10.5,-10.5 v0 a10.5,10.5 0 0 1 10.5,-10.5"/></g><mask id="satori_om-id-0-1"><rect x="16" y="188" width="118" height="21" fill="#fff"/></mask><path x="16" y="188" width="118" height="21" fill="#ffffff" d="M26.5,188 h97 a10.5,10.5 0 0 1 10.5,10.5 v0 a10.5,10.5 0 0 1 -10.5,10.5 h-97 a10.5,10.5 0 0 1 -10.5,-10.5 v0 a10.5,10.5 0 0 1 10.5,-10.5"/><g  ><path fill="#6b7280" d="M30.2 203.1L30.2 203.1Q29.2 203.1 28.3 202.6Q27.5 202.1 27.0 201.2Q26.6 200.3 26.6 199.0L26.6 199.0Q26.6 197.7 27.0 196.8Q27.5 195.9 28.3 195.4Q29.2 194.9 30.2 194.9L30.2 194.9Q30.9 194.9 31.4 195.1Q32.0 195.3 32.5 195.6Q32.9 196.0 33.2 196.5Q33.5 197.0 33.6 197.7L33.6 197.7L32.1 197.7Q32.1 197.3 31.9 197.0Q31.7 196.8 31.5 196.6Q31.2 196.4 30.9 196.3Q30.6 196.2 30.2 196.2L30.2 196.2Q29.6 196.2 29.1 196.5Q28.6 196.8 28.3 197.5Q28.0 198.1 28.0 199.0L28.0 199.0Q28.0 199.9 28.3 200.6Q28.6 201.2 29.1 201.5Q29.6 201.8 30.2 201.8L30.2 201.8Q30.6 201.8 30.9 201.7Q31.2 201.6 31.5 201.4Q31.7 201.2 31.9 201.0Q32.1 200.7 32.1 200.3L32.1 200.3L33.6 200.3Q33.5 200.9 33.2 201.4Q33.0 201.9 32.5 202.3Q32.1 202.7 31.5 202.9Q30.9 203.1 30.2 203.1ZM37.5 203.1L37.5 203.1Q36.6 203.1 35.9 202.7Q35.3 202.3 34.9 201.6Q34.6 201.0 34.6 200.0L34.6 200.0Q34.6 199.1 34.9 198.4Q35.3 197.7 35.9 197.3Q36.6 196.9 37.5 196.9L37.5 196.9Q38.3 196.9 39.0 197.3Q39.6 197.7 40.0 198.4Q40.3 199.1 40.3 200.0L40.3 200.0Q40.3 201.0 40.0 201.6Q39.6 202.3 39.0 202.7Q38.3 203.1 37.5 203.1ZM37.5 202.0L37.5 202.0Q37.9 202.0 38.3 201.7Q38.6 201.5 38.7 201.0Q38.9 200.6 38.9 200.0L38.9 200.0Q38.9 199.5 38.7 199.0Q38.6 198.6 38.3 198.3Q37.9 198.1 37.5 198.1L37.5 198.1Q37.0 198.1 36.6 198.3Q36.3 198.6 36.2 199.0Q36.0 199.5 36.0 200.0L36.0 200.0Q36.0 200.6 36.2 201.0Q36.3 201.5 36.6 201.7Q37.0 202.0 37.5 202.0ZM42.9 199.5L42.9 199.5L42.9 203L41.5 203L41.5 197.0L42.9 197.0L42.9 198.2Q43.1 197.6 43.5 197.3L43.5 197.3Q44.0 196.9 44.7 196.9L44.7 196.9Q45.4 196.9 45.8 197.2Q46.3 197.4 46.5 198.0Q46.8 198.5 46.8 199.2L46.8 199.2L46.8 203L45.4 203L45.4 199.4Q45.4 198.8 45.1 198.5Q44.8 198.1 44.2 198.1L44.2 198.1Q43.9 198.1 43.6 198.3Q43.3 198.4 43.1 198.7Q42.9 199.0 42.9 199.5ZM50.5 203.1L50.5 203.1Q49.9 203.1 49.3 202.9Q48.8 202.7 48.4 202.3Q48.1 202.0 48.0 201.4L48.0 201.4L49.3 201.2Q49.4 201.6 49.7 201.8Q50.1 202.1 50.6 202.1L50.6 202.1Q51.1 202.1 51.4 201.8Q51.7 201.6 51.7 201.3L51.7 201.3Q51.7 201.1 51.5 200.9Q51.3 200.7 50.9 200.6L50.9 200.6L49.9 200.4Q49.0 200.2 48.6 199.8Q48.2 199.4 48.2 198.7L48.2 198.7Q48.2 198.2 48.5 197.8Q48.8 197.4 49.3 197.1Q49.9 196.9 50.6 196.9L50.6 196.9Q51.3 196.9 51.8 197.1Q52.3 197.3 52.6 197.7Q52.9 198.0 53.0 198.5L53.0 198.5L51.7 198.7Q51.6 198.4 51.4 198.2Q51.1 198.0 50.6 198.0L50.6 198.0Q50.2 198.0 49.9 198.2Q49.6 198.4 49.6 198.7L49.6 198.7Q49.6 198.9 49.8 199.1Q50.0 199.3 50.4 199.4L50.4 199.4L51.4 199.6Q52.3 199.8 52.7 200.2Q53.1 200.6 53.1 201.2L53.1 201.2Q53.1 201.8 52.8 202.2Q52.5 202.6 51.9 202.9Q51.3 203.1 50.5 203.1ZM55.9 197.0L57.1 197.0L57.1 198.1L55.9 198.1L55.9 201.3Q55.9 201.6 56.1 201.8Q56.2 201.9 56.5 201.9L56.5 201.9Q56.6 201.9 56.8 201.9Q56.9 201.9 57.0 201.9L57.0 201.9L57.3 203.0Q57.0 203.0 56.8 203.1Q56.5 203.1 56.3 203.1L56.3 203.1Q55.5 203.1 55.0 202.7Q54.5 202.2 54.5 201.4L54.5 201.4L54.5 198.1L53.7 198.1L53.7 197.0L54.5 197.0L54.5 195.6L55.9 195.6L55.9 197.0ZM59.6 203L58.2 203L58.2 197.0L59.6 197.0L59.6 198.0L59.6 198.0Q59.8 197.5 60.2 197.2Q60.6 196.9 61.1 196.9L61.1 196.9Q61.2 196.9 61.4 196.9Q61.5 196.9 61.6 197.0L61.6 197.0L61.6 198.2Q61.5 198.2 61.3 198.2Q61.1 198.2 60.9 198.2L60.9 198.2Q60.6 198.2 60.3 198.3Q59.9 198.5 59.8 198.8Q59.6 199.1 59.6 199.5L59.6 199.5L59.6 203ZM64.2 203.1L64.2 203.1Q63.7 203.1 63.2 202.9Q62.8 202.7 62.5 202.3Q62.2 201.9 62.2 201.3L62.2 201.3Q62.2 200.8 62.4 200.5Q62.6 200.1 62.9 199.9Q63.3 199.7 63.7 199.6Q64.1 199.5 64.5 199.5L64.5 199.5Q65.0 199.4 65.4 199.4Q65.7 199.3 65.9 199.3Q66.0 199.2 66.0 199.0L66.0 199.0L66.0 198.9Q66.0 198.6 65.9 198.4Q65.8 198.2 65.5 198.1Q65.3 198.0 65.0 198.0L65.0 198.0Q64.6 198.0 64.4 198.1Q64.1 198.2 63.9 198.4Q63.8 198.6 63.7 198.8L63.7 198.8L62.4 198.5Q62.6 198.0 63.0 197.6Q63.3 197.3 63.8 197.1Q64.3 196.9 65.0 196.9L65.0 196.9Q65.4 196.9 65.8 197.0Q66.2 197.1 66.6 197.4Q67.0 197.6 67.2 198.0Q67.4 198.4 67.4 199.0L67.4 199.0L67.4 203L66.1 203L66.1 202.2L66.0 202.2Q65.9 202.4 65.6 202.6Q65.4 202.9 65.1 203.0Q64.7 203.1 64.2 203.1ZM64.6 202.1L64.6 202.1Q65.0 202.1 65.4 201.9Q65.7 201.7 65.8 201.5Q66.0 201.2 66.0 200.8L66.0 200.8L66.0 200.1Q65.9 200.2 65.8 200.2Q65.6 200.3 65.4 200.3Q65.2 200.4 65.0 200.4Q64.8 200.4 64.7 200.4L64.7 200.4Q64.4 200.5 64.1 200.6Q63.9 200.7 63.7 200.8Q63.6 201.0 63.6 201.3L63.6 201.3Q63.6 201.6 63.7 201.7Q63.9 201.9 64.1 202.0Q64.3 202.1 64.6 202.1ZM70.3 203L68.9 203L68.9 197.0L70.3 197.0L70.3 203ZM69.6 196.1L69.6 196.1Q69.2 196.1 69.0 195.9Q68.8 195.7 68.8 195.4L68.8 195.4Q68.8 195.1 69.0 194.8Q69.2 194.6 69.6 194.6L69.6 194.6Q69.9 194.6 70.2 194.8Q70.4 195.1 70.4 195.4L70.4 195.4Q70.4 195.7 70.2 195.9Q69.9 196.1 69.6 196.1ZM73.2 199.5L73.2 199.5L73.2 203L71.8 203L71.8 197.0L73.1 197.0L73.1 198.2Q73.3 197.6 73.7 197.3L73.7 197.3Q74.2 196.9 75.0 196.9L75.0 196.9Q75.6 196.9 76.0 197.2Q76.5 197.4 76.8 198.0Q77.0 198.5 77.0 199.2L77.0 199.2L77.0 203L75.6 203L75.6 199.4Q75.6 198.8 75.3 198.5Q75.0 198.1 74.4 198.1L74.4 198.1Q74.1 198.1 73.8 198.3Q73.5 198.4 73.3 198.7Q73.2 199.0 73.2 199.5ZM80.1 197.0L81.3 197.0L81.3 198.1L80.1 198.1L80.1 201.3Q80.1 201.6 80.2 201.8Q80.4 201.9 80.7 201.9L80.7 201.9Q80.8 201.9 81.0 201.9Q81.1 201.9 81.2 201.9L81.2 201.9L81.4 203.0Q81.2 203.0 81.0 203.1Q80.7 203.1 80.5 203.1L80.5 203.1Q79.6 203.1 79.2 202.7Q78.7 202.2 78.7 201.4L78.7 201.4L78.7 198.1L77.9 198.1L77.9 197.0L78.7 197.0L78.7 195.6L80.1 195.6L80.1 197.0Z M87.8 203.1L87.8 203.1Q86.9 203.1 86.2 202.7Q85.6 202.3 85.2 201.6Q84.9 201.0 84.9 200.0L84.9 200.0Q84.9 199.1 85.2 198.4Q85.6 197.7 86.2 197.3Q86.9 196.9 87.8 196.9L87.8 196.9Q88.3 196.9 88.7 197.0Q89.1 197.2 89.4 197.4Q89.8 197.7 90.0 198.0Q90.2 198.4 90.3 198.8L90.3 198.8L89.0 199.1Q89.0 198.8 88.9 198.7Q88.8 198.5 88.6 198.3Q88.4 198.2 88.2 198.1Q88.0 198.1 87.8 198.1L87.8 198.1Q87.3 198.1 87.0 198.3Q86.6 198.6 86.5 199.0Q86.3 199.5 86.3 200.0L86.3 200.0Q86.3 200.6 86.5 201.0Q86.6 201.5 87.0 201.7Q87.3 202.0 87.8 202.0L87.8 202.0Q88.0 202.0 88.2 201.9Q88.4 201.8 88.6 201.7Q88.8 201.6 88.9 201.4Q89.0 201.2 89.1 200.9L89.1 200.9L90.4 201.2Q90.3 201.6 90.0 202.0Q89.8 202.4 89.5 202.6Q89.1 202.9 88.7 203.0Q88.3 203.1 87.8 203.1ZM93.0 199.5L93.0 199.5L93.0 203L91.6 203L91.6 195.0L92.9 195.0L92.9 198.1Q93.2 197.6 93.5 197.3L93.5 197.3Q94.0 196.9 94.8 196.9L94.8 196.9Q95.4 196.9 95.8 197.2Q96.3 197.4 96.6 198.0Q96.8 198.5 96.8 199.2L96.8 199.2L96.8 203L95.4 203L95.4 199.4Q95.4 198.8 95.1 198.5Q94.8 198.1 94.2 198.1L94.2 198.1Q93.9 198.1 93.6 198.3Q93.3 198.4 93.1 198.7Q93.0 199.0 93.0 199.5ZM100.0 203.1L100.0 203.1Q99.4 203.1 98.9 202.9Q98.5 202.7 98.2 202.3Q98.0 201.9 98.0 201.3L98.0 201.3Q98.0 200.8 98.1 200.5Q98.3 200.1 98.7 199.9Q99.0 199.7 99.4 199.6Q99.8 199.5 100.2 199.5L100.2 199.5Q100.8 199.4 101.1 199.4Q101.4 199.3 101.6 199.3Q101.7 199.2 101.7 199.0L101.7 199.0L101.7 198.9Q101.7 198.6 101.6 198.4Q101.5 198.2 101.3 198.1Q101.0 198.0 100.7 198.0L100.7 198.0Q100.3 198.0 100.1 198.1Q99.8 198.2 99.7 198.4Q99.5 198.6 99.4 198.8L99.4 198.8L98.1 198.5Q98.3 198.0 98.7 197.6Q99.0 197.3 99.6 197.1Q100.1 196.9 100.7 196.9L100.7 196.9Q101.1 196.9 101.5 197.0Q102.0 197.1 102.3 197.4Q102.7 197.6 102.9 198.0Q103.1 198.4 103.1 199.0L103.1 199.0L103.1 203L101.8 203L101.8 202.2L101.7 202.2Q101.6 202.4 101.4 202.6Q101.1 202.9 100.8 203.0Q100.4 203.1 100.0 203.1ZM100.3 202.1L100.3 202.1Q100.8 202.1 101.1 201.9Q101.4 201.7 101.6 201.5Q101.7 201.2 101.7 200.8L101.7 200.8L101.7 200.1Q101.7 200.2 101.5 200.2Q101.3 200.3 101.1 200.3Q100.9 200.4 100.7 200.4Q100.5 200.4 100.4 200.4L100.4 200.4Q100.1 200.5 99.8 200.6Q99.6 200.7 99.5 200.8Q99.3 201.0 99.3 201.3L99.3 201.3Q99.3 201.6 99.4 201.7Q99.6 201.9 99.8 202.0Q100.0 202.1 100.3 202.1ZM106.0 199.5L106.0 199.5L106.0 203L104.6 203L104.6 197.0L105.9 197.0L105.9 198.2Q106.2 197.6 106.6 197.3L106.6 197.3Q107.1 196.9 107.8 196.9L107.8 196.9Q108.4 196.9 108.9 197.2Q109.3 197.4 109.6 198.0Q109.9 198.5 109.9 199.2L109.9 199.2L109.9 203L108.5 203L108.5 199.4Q108.5 198.8 108.1 198.5Q107.8 198.1 107.3 198.1L107.3 198.1Q106.9 198.1 106.6 198.3Q106.3 198.4 106.2 198.7Q106.0 199.0 106.0 199.5ZM113.9 205.4L113.9 205.4Q113.2 205.4 112.7 205.2Q112.1 205.0 111.8 204.7Q111.5 204.4 111.3 204.0L111.3 204.0L112.5 203.6Q112.6 203.7 112.8 203.9Q112.9 204.1 113.2 204.2Q113.5 204.3 113.9 204.3L113.9 204.3Q114.6 204.3 115.0 204.0Q115.4 203.7 115.4 203.1L115.4 203.1L115.4 201.9L115.2 201.9Q115.1 202.1 114.9 202.4Q114.7 202.6 114.4 202.8Q114.1 202.9 113.5 202.9L113.5 202.9Q112.9 202.9 112.3 202.6Q111.7 202.3 111.4 201.6Q111.1 201.0 111.1 200.0L111.1 200.0Q111.1 199.0 111.4 198.3Q111.7 197.6 112.3 197.3Q112.9 196.9 113.6 196.9L113.6 196.9Q114.1 196.9 114.4 197.1Q114.8 197.3 115.0 197.5Q115.2 197.8 115.3 198.0L115.3 198.0L115.4 198.0L115.4 197.0L116.7 197.0L116.7 203.0Q116.7 203.8 116.4 204.3Q116.0 204.9 115.4 205.1Q114.7 205.4 113.9 205.4ZM113.9 201.8L113.9 201.8Q114.4 201.8 114.7 201.6Q115.0 201.4 115.2 201.0Q115.4 200.5 115.4 200.0L115.4 200.0Q115.4 199.4 115.2 199.0Q115.0 198.5 114.7 198.3Q114.4 198.1 113.9 198.1L113.9 198.1Q113.5 198.1 113.1 198.3Q112.8 198.6 112.7 199.0Q112.5 199.4 112.5 200.0L112.5 200.0Q112.5 200.5 112.7 200.9Q112.8 201.4 113.1 201.6Q113.5 201.8 113.9 201.8ZM120.9 203.1L120.9 203.1Q120.0 203.1 119.3 202.7Q118.7 202.4 118.3 201.7Q118.0 201.0 118.0 200.0L118.0 200.0Q118.0 199.1 118.3 198.4Q118.6 197.7 119.3 197.3Q119.9 196.9 120.8 196.9L120.8 196.9Q121.3 196.9 121.8 197.1Q122.3 197.3 122.7 197.6Q123.1 198.0 123.3 198.6Q123.5 199.2 123.5 199.9L123.5 199.9L123.5 200.4L119.3 200.4Q119.4 200.9 119.5 201.2L119.5 201.2Q119.7 201.6 120.1 201.8Q120.4 202.0 120.9 202.0L120.9 202.0Q121.2 202.0 121.4 201.9Q121.7 201.9 121.9 201.7Q122.1 201.5 122.1 201.2L122.1 201.2L123.4 201.5Q123.3 202.0 122.9 202.4Q122.6 202.7 122.1 202.9Q121.5 203.1 120.9 203.1ZM119.3 199.4L119.3 199.4L122.2 199.4Q122.1 199.1 122.0 198.8L122.0 198.8Q121.9 198.4 121.6 198.2Q121.2 198.0 120.8 198.0Q120.3 198.0 120.0 198.2Q119.7 198.5 119.5 198.8L119.5 198.8Q119.4 199.1 119.3 199.4Z "/></g><mask id="satori_ms-id-0-2-1" maskUnits="userSpaceOnUse"><rect x="0" y="0" width="560" height="400" fill="#fff"/><path x="473" y="103" width="54" height="21" fill="#000"  stroke-width="0" d="M483.5,103 h33 a10.5,10.5 0 0 1 10.5,10.5 v0 a10.5,10.5 0 0 1 -10.5,10.5 h-33 a10.5,10.5 0 0 1 -10.5,-10.5 v0 a10.5,10.5 0 0 1 10.5,-10.5"/></mask><defs><filter id="satori_s-id-0-2-1" x="-66.66666666666666%" y="-171.42857142857142%" width="233.33333333333334%" height="442.8571428571429%"><feGaussianBlur stdDeviation="6" result="b"/><feFlood flood-color="rgba(0,0,0,0.04)" in="SourceGraphic" result="f"/><feComposite in="f" in2="b" operator="in"/></filter></defs><g mask="url(#satori_ms-id-0-2-1)" filter="url(#satori_s-id-0-2-1)" opacity="1"><path x="473" y="107" width="54" height="21" fill="#fff" stroke="#fff" stroke-width="0" d="M483.5,107 h33 a10.5,10.5 0 0 1 10.5,10.5 v0 a10.5,10.5 0 0 1 -10.5,10.5 h-33 a10.5,10.5 0 0 1 -10.5,-10.5 v0 a10.5,10.5 0 0 1 10.5,-10.5"/></g><mask id="satori_ms-id-0-2-0" maskUnits="userSpaceOnUse"><rect x="0" y="0" width="560" height="400" fill="#fff"/><path x="473" y="103" width="54" height="21" fill="#000"  stroke-width="0" d="M483.5,103 h33 a10.5,10.5 0 0 1 10.5,10.5 v0 a10.5,10.5 0 0 1 -10.5,10.5 h-33 a10.5,10.5 0 0 1 -10.5,-10.5 v0 a10.5,10.5 0 0 1 10.5,-10.5"/></mask><defs><filter id="satori_s-id-0-2-0" x="-1.8518518518518516%" y="-4.761904761904762%" width="103.7037037037037%" height="109.52380952380953%"><feGaussianBlur stdDeviation="1" result="b"/><feFlood flood-color="rgba(0,0,0,0.03)" in="SourceGraphic" result="f"/><feComposite in="f" in2="b" operator="in"/></filter></defs><g mask="url(#satori_ms-id-0-2-0)" filter="url(#satori_s-id-0-2-0)" opacity="1"><path x="473" y="104" width="54" height="21" fill="#fff" stroke="#fff" stroke-width="0" d="M483.5,104 h33 a10.5,10.5 0 0 1 10.5,10.5 v0 a10.5,10.5 0 0 1 -10.5,10.5 h-33 a10.5,10.5 0 0 1 -10.5,-10.5 v0 a10.5,10.5 0 0 1 10.5,-10.5"/></g><mask id="satori_om-id-0-2"><rect x="473" y="103" width="54" height="21" fill="#fff"/></mask><path x="473" y="103" width="54" height="21" fill="#ffffff" d="M483.5,103 h33 a10.5,10.5 0 0 1 10.5,10.5 v0 a10.5,10.5 0 0 1 -10.5,10.5 h-33 a10.5,10.5 0 0 1 -10.5,-10.5 v0 a10.5,10.5 0 0 1 10.5,-10.5"/><g  ><path fill="#fbbf24" d="M489.0 118L485.8 118L485.8 110.0L488.9 110.0Q489.7 110.0 490.3 110.3Q490.9 110.5 491.2 111.0Q491.5 111.5 491.5 112.1L491.5 112.1Q491.5 112.6 491.3 112.9Q491.1 113.3 490.8 113.5Q490.4 113.7 490.1 113.8L490.1 113.8L490.1 113.9Q490.5 113.9 490.9 114.1Q491.3 114.4 491.5 114.8Q491.8 115.2 491.8 115.8L491.8 115.8Q491.8 116.4 491.5 116.9Q491.2 117.4 490.6 117.7Q490.0 118 489.0 118L489.0 118ZM487.2 114.4L487.2 116.8L488.8 116.8Q489.6 116.8 490.0 116.5Q490.3 116.2 490.3 115.7L490.3 115.7Q490.3 115.4 490.1 115.1Q490.0 114.8 489.6 114.6Q489.3 114.4 488.9 114.4L488.9 114.4L487.2 114.4ZM487.2 111.2L487.2 113.4L488.7 113.4Q489.1 113.4 489.4 113.3Q489.7 113.1 489.8 112.9Q490.0 112.6 490.0 112.3L490.0 112.3Q490.0 111.8 489.7 111.5Q489.4 111.2 488.7 111.2L488.7 111.2L487.2 111.2ZM493.0 110.0L494.4 110.0L494.4 118L493.0 118L493.0 110.0ZM498.5 118.1L498.5 118.1Q497.6 118.1 497.0 117.7Q496.3 117.3 496.0 116.6Q495.6 116.0 495.6 115.0L495.6 115.0Q495.6 114.1 496.0 113.4Q496.3 112.7 497.0 112.3Q497.6 111.9 498.5 111.9L498.5 111.9Q499.4 111.9 500.0 112.3Q500.6 112.7 501.0 113.4Q501.3 114.1 501.3 115.0L501.3 115.0Q501.3 116.0 501.0 116.6Q500.6 117.3 500.0 117.7Q499.4 118.1 498.5 118.1ZM498.5 117.0L498.5 117.0Q499.0 117.0 499.3 116.7Q499.6 116.5 499.8 116.0Q499.9 115.6 499.9 115.0L499.9 115.0Q499.9 114.5 499.8 114.0Q499.6 113.6 499.3 113.3Q499.0 113.1 498.5 113.1L498.5 113.1Q498.0 113.1 497.7 113.3Q497.3 113.6 497.2 114.0Q497.0 114.5 497.0 115.0L497.0 115.0Q497.0 115.6 497.2 116.0Q497.3 116.5 497.7 116.7Q498.0 117.0 498.5 117.0ZM505.2 118.1L505.2 118.1Q504.3 118.1 503.7 117.7Q503.0 117.3 502.7 116.6Q502.3 116.0 502.3 115.0L502.3 115.0Q502.3 114.1 502.7 113.4Q503.0 112.7 503.7 112.3Q504.3 111.9 505.2 111.9L505.2 111.9Q505.7 111.9 506.1 112.0Q506.5 112.2 506.9 112.4Q507.2 112.7 507.4 113.0Q507.7 113.4 507.8 113.8L507.8 113.8L506.5 114.1Q506.4 113.8 506.3 113.7Q506.2 113.5 506.0 113.3Q505.9 113.2 505.6 113.1Q505.4 113.1 505.2 113.1L505.2 113.1Q504.7 113.1 504.4 113.3Q504.1 113.6 503.9 114.0Q503.7 114.5 503.7 115.0L503.7 115.0Q503.7 115.6 503.9 116.0Q504.1 116.5 504.4 116.7Q504.7 117.0 505.2 117.0L505.2 117.0Q505.4 117.0 505.7 116.9Q505.9 116.8 506.0 116.7Q506.2 116.6 506.3 116.4Q506.4 116.2 506.5 115.9L506.5 115.9L507.8 116.2Q507.7 116.6 507.5 117.0Q507.2 117.4 506.9 117.6Q506.5 117.9 506.1 118.0Q505.7 118.1 505.2 118.1ZM510.4 118L509.0 118L509.0 110.0L510.4 110.0L510.4 114.4L510.5 114.4L512.6 112.0L514.3 112.0L511.9 114.6L514.4 118L512.7 118L510.9 115.4L510.4 116.0L510.4 118Z "/></g><mask id="satori_ms-id-0-3-1" maskUnits="userSpaceOnUse"><rect x="0" y="0" width="560" height="400" fill="#fff"/><path x="493" y="158" width="45" height="21" fill="#000"  stroke-width="0" d="M503.5,158 h24 a10.5,10.5 0 0 1 10.5,10.5 v0 a10.5,10.5 0 0 1 -10.5,10.5 h-24 a10.5,10.5 0 0 1 -10.5,-10.5 v0 a10.5,10.5 0 0 1 10.5,-10.5"/></mask><defs><filter id="satori_s-id-0-3-1" x="-80%" y="-171.42857142857142%" width="260%" height="442.8571428571429%"><feGaussianBlur stdDeviation="6" result="b"/><feFlood flood-color="rgba(0,0,0,0.04)" in="SourceGraphic" result="f"/><feComposite in="f" in2="b" operator="in"/></filter></defs><g mask="url(#satori_ms-id-0-3-1)" filter="url(#satori_s-id-0-3-1)" opacity="1"><path x="493" y="162" width="45" height="21" fill="#fff" stroke="#fff" stroke-width="0" d="M503.5,162 h24 a10.5,10.5 0 0 1 10.5,10.5 v0 a10.5,10.5 0 0 1 -10.5,10.5 h-24 a10.5,10.5 0 0 1 -10.5,-10.5 v0 a10.5,10.5 0 0 1 10.5,-10.5"/></g><mask id="satori_ms-id-0-3-0" maskUnits="userSpaceOnUse"><rect x="0" y="0" width="560" height="400" fill="#fff"/><path x="493" y="158" width="45" height="21" fill="#000"  stroke-width="0" d="M503.5,158 h24 a10.5,10.5 0 0 1 10.5,10.5 v0 a10.5,10.5 0 0 1 -10.5,10.5 h-24 a10.5,10.5 0 0 1 -10.5,-10.5 v0 a10.5,10.5 0 0 1 10.5,-10.5"/></mask><defs><filter id="satori_s-id-0-3-0" x="-2.2222222222222223%" y="-4.761904761904762%" width="104.44444444444446%" height="109.52380952380953%"><feGaussianBlur stdDeviation="1" result="b"/><feFlood flood-color="rgba(0,0,0,0.03)" in="SourceGraphic" result="f"/><feComposite in="f" in2="b" operator="in"/></filter></defs><g mask="url(#satori_ms-id-0-3-0)" filter="url(#satori_s-id-0-3-0)" opacity="1"><path x="493" y="159" width="45" height="21" fill="#fff" stroke="#fff" stroke-width="0" d="M503.5,159 h24 a10.5,10.5 0 0 1 10.5,10.5 v0 a10.5,10.5 0 0 1 -10.5,10.5 h-24 a10.5,10.5 0 0 1 -10.5,-10.5 v0 a10.5,10.5 0 0 1 10.5,-10.5"/></g><mask id="satori_om-id-0-3"><rect x="493" y="158" width="45" height="21" fill="#fff"/></mask><path x="493" y="158" width="45" height="21" fill="#ffffff" d="M503.5,158 h24 a10.5,10.5 0 0 1 10.5,10.5 v0 a10.5,10.5 0 0 1 -10.5,10.5 h-24 a10.5,10.5 0 0 1 -10.5,-10.5 v0 a10.5,10.5 0 0 1 10.5,-10.5"/><g  ><path fill="#7c3aed" d="M509.2 173.1L509.2 173.1Q508.2 173.1 507.3 172.6Q506.5 172.1 506.0 171.2Q505.6 170.3 505.6 169.0L505.6 169.0Q505.6 167.7 506.0 166.8Q506.5 165.9 507.3 165.4Q508.2 164.9 509.2 164.9L509.2 164.9Q509.9 164.9 510.4 165.1Q511.0 165.3 511.5 165.6Q511.9 166.0 512.2 166.5Q512.5 167.0 512.6 167.7L512.6 167.7L511.1 167.7Q511.1 167.3 510.9 167.0Q510.7 166.8 510.5 166.6Q510.2 166.4 509.9 166.3Q509.6 166.2 509.2 166.2L509.2 166.2Q508.6 166.2 508.1 166.5Q507.6 166.8 507.3 167.5Q507.0 168.1 507.0 169.0L507.0 169.0Q507.0 169.9 507.3 170.6Q507.6 171.2 508.1 171.5Q508.6 171.8 509.2 171.8L509.2 171.8Q509.6 171.8 509.9 171.7Q510.2 171.6 510.5 171.4Q510.7 171.2 510.9 171.0Q511.1 170.7 511.1 170.3L511.1 170.3L512.6 170.3Q512.5 170.9 512.2 171.4Q512.0 171.9 511.5 172.3Q511.1 172.7 510.5 172.9Q509.9 173.1 509.2 173.1ZM515.5 173.1L515.5 173.1Q515.0 173.1 514.5 172.9Q514.0 172.7 513.8 172.3Q513.5 171.9 513.5 171.3L513.5 171.3Q513.5 170.8 513.7 170.5Q513.9 170.1 514.2 169.9Q514.5 169.7 515.0 169.6Q515.4 169.5 515.8 169.5L515.8 169.5Q516.3 169.4 516.6 169.4Q517.0 169.3 517.1 169.3Q517.3 169.2 517.3 169.0L517.3 169.0L517.3 168.9Q517.3 168.6 517.2 168.4Q517.0 168.2 516.8 168.1Q516.6 168.0 516.2 168.0L516.2 168.0Q515.9 168.0 515.6 168.1Q515.4 168.2 515.2 168.4Q515.1 168.6 515.0 168.8L515.0 168.8L513.7 168.5Q513.9 168.0 514.2 167.6Q514.6 167.3 515.1 167.1Q515.6 166.9 516.2 166.9L516.2 166.9Q516.7 166.9 517.1 167.0Q517.5 167.1 517.9 167.4Q518.2 167.6 518.5 168.0Q518.7 168.4 518.7 169.0L518.7 169.0L518.7 173L517.3 173L517.3 172.2L517.3 172.2Q517.2 172.4 516.9 172.6Q516.7 172.9 516.3 173.0Q516.0 173.1 515.5 173.1ZM515.9 172.1L515.9 172.1Q516.3 172.1 516.6 171.9Q516.9 171.7 517.1 171.5Q517.3 171.2 517.3 170.8L517.3 170.8L517.3 170.1Q517.2 170.2 517.1 170.2Q516.9 170.3 516.7 170.3Q516.5 170.4 516.3 170.4Q516.1 170.4 516.0 170.4L516.0 170.4Q515.7 170.5 515.4 170.6Q515.2 170.7 515.0 170.8Q514.9 171.0 514.9 171.3L514.9 171.3Q514.9 171.6 515.0 171.7Q515.1 171.9 515.4 172.0Q515.6 172.1 515.9 172.1ZM520.2 165.0L521.6 165.0L521.6 173L520.2 173L520.2 165.0ZM523.0 165.0L524.4 165.0L524.4 173L523.0 173L523.0 165.0Z "/></g><mask id="satori_ms-id-0-4-1" maskUnits="userSpaceOnUse"><rect x="0" y="0" width="560" height="400" fill="#fff"/><path x="493" y="218" width="54" height="21" fill="#000"  stroke-width="0" d="M503.5,218 h33 a10.5,10.5 0 0 1 10.5,10.5 v0 a10.5,10.5 0 0 1 -10.5,10.5 h-33 a10.5,10.5 0 0 1 -10.5,-10.5 v0 a10.5,10.5 0 0 1 10.5,-10.5"/></mask><defs><filter id="satori_s-id-0-4-1" x="-66.66666666666666%" y="-171.42857142857142%" width="233.33333333333334%" height="442.8571428571429%"><feGaussianBlur stdDeviation="6" result="b"/><feFlood flood-color="rgba(0,0,0,0.04)" in="SourceGraphic" result="f"/><feComposite in="f" in2="b" operator="in"/></filter></defs><g mask="url(#satori_ms-id-0-4-1)" filter="url(#satori_s-id-0-4-1)" opacity="1"><path x="493" y="222" width="54" height="21" fill="#fff" stroke="#fff" stroke-width="0" d="M503.5,222 h33 a10.5,10.5 0 0 1 10.5,10.5 v0 a10.5,10.5 0 0 1 -10.5,10.5 h-33 a10.5,10.5 0 0 1 -10.5,-10.5 v0 a10.5,10.5 0 0 1 10.5,-10.5"/></g><mask id="satori_ms-id-0-4-0" maskUnits="userSpaceOnUse"><rect x="0" y="0" width="560" height="400" fill="#fff"/><path x="493" y="218" width="54" height="21" fill="#000"  stroke-width="0" d="M503.5,218 h33 a10.5,10.5 0 0 1 10.5,10.5 v0 a10.5,10.5 0 0 1 -10.5,10.5 h-33 a10.5,10.5 0 0 1 -10.5,-10.5 v0 a10.5,10.5 0 0 1 10.5,-10.5"/></mask><defs><filter id="satori_s-id-0-4-0" x="-1.8518518518518516%" y="-4.761904761904762%" width="103.7037037037037%" height="109.52380952380953%"><feGaussianBlur stdDeviation="1" result="b"/><feFlood flood-color="rgba(0,0,0,0.03)" in="SourceGraphic" result="f"/><feComposite in="f" in2="b" operator="in"/></filter></defs><g mask="url(#satori_ms-id-0-4-0)" filter="url(#satori_s-id-0-4-0)" opacity="1"><path x="493" y="219" width="54" height="21" fill="#fff" stroke="#fff" stroke-width="0" d="M503.5,219 h33 a10.5,10.5 0 0 1 10.5,10.5 v0 a10.5,10.5 0 0 1 -10.5,10.5 h-33 a10.5,10.5 0 0 1 -10.5,-10.5 v0 a10.5,10.5 0 0 1 10.5,-10.5"/></g><mask id="satori_om-id-0-4"><rect x="493" y="218" width="54" height="21" fill="#fff"/></mask><path x="493" y="218" width="54" height="21" fill="#ffffff" d="M503.5,218 h33 a10.5,10.5 0 0 1 10.5,10.5 v0 a10.5,10.5 0 0 1 -10.5,10.5 h-33 a10.5,10.5 0 0 1 -10.5,-10.5 v0 a10.5,10.5 0 0 1 10.5,-10.5"/><g  ><path fill="#10b981" d="M509.2 233.1L509.2 233.1Q508.2 233.1 507.3 232.6Q506.5 232.1 506.0 231.2Q505.6 230.3 505.6 229.0L505.6 229.0Q505.6 227.7 506.0 226.8Q506.5 225.9 507.3 225.4Q508.2 224.9 509.2 224.9L509.2 224.9Q509.9 224.9 510.4 225.1Q511.0 225.3 511.5 225.6Q511.9 226.0 512.2 226.5Q512.5 227.0 512.6 227.7L512.6 227.7L511.1 227.7Q511.1 227.3 510.9 227.0Q510.7 226.8 510.5 226.6Q510.2 226.4 509.9 226.3Q509.6 226.2 509.2 226.2L509.2 226.2Q508.6 226.2 508.1 226.5Q507.6 226.8 507.3 227.5Q507.0 228.1 507.0 229.0L507.0 229.0Q507.0 229.9 507.3 230.6Q507.6 231.2 508.1 231.5Q508.6 231.8 509.2 231.8L509.2 231.8Q509.6 231.8 509.9 231.7Q510.2 231.6 510.5 231.4Q510.7 231.2 510.9 231.0Q511.1 230.7 511.1 230.3L511.1 230.3L512.6 230.3Q512.5 230.9 512.2 231.4Q512.0 231.9 511.5 232.3Q511.1 232.7 510.5 232.9Q509.9 233.1 509.2 233.1ZM513.8 225.0L515.2 225.0L515.2 233L513.8 233L513.8 225.0ZM518.1 233L516.7 233L516.7 227.0L518.1 227.0L518.1 233ZM517.4 226.1L517.4 226.1Q517.1 226.1 516.9 225.9Q516.6 225.7 516.6 225.4L516.6 225.4Q516.6 225.1 516.9 224.8Q517.1 224.6 517.4 224.6L517.4 224.6Q517.8 224.6 518.0 224.8Q518.2 225.1 518.2 225.4L518.2 225.4Q518.2 225.7 518.0 225.9Q517.8 226.1 517.4 226.1ZM521.0 229.5L521.0 229.5L521.0 233L519.6 233L519.6 227.0L520.9 227.0L520.9 228.2Q521.2 227.6 521.6 227.3L521.6 227.3Q522.1 226.9 522.8 226.9L522.8 226.9Q523.4 226.9 523.9 227.2Q524.3 227.4 524.6 228.0Q524.9 228.5 524.9 229.2L524.9 229.2L524.9 233L523.5 233L523.5 229.4Q523.5 228.8 523.1 228.5Q522.8 228.1 522.3 228.1L522.3 228.1Q521.9 228.1 521.6 228.3Q521.3 228.4 521.2 228.7Q521.0 229.0 521.0 229.5ZM527.7 233L526.3 233L526.3 227.0L527.7 227.0L527.7 233ZM527.0 226.1L527.0 226.1Q526.7 226.1 526.5 225.9Q526.2 225.7 526.2 225.4L526.2 225.4Q526.2 225.1 526.5 224.8Q526.7 224.6 527.0 224.6L527.0 224.6Q527.4 224.6 527.6 224.8Q527.8 225.1 527.8 225.4L527.8 225.4Q527.8 225.7 527.6 225.9Q527.4 226.1 527.0 226.1ZM531.8 233.1L531.8 233.1Q530.9 233.1 530.3 232.7Q529.7 232.3 529.3 231.6Q528.9 231.0 528.9 230.0L528.9 230.0Q528.9 229.1 529.3 228.4Q529.7 227.7 530.3 227.3Q530.9 226.9 531.8 226.9L531.8 226.9Q532.3 226.9 532.7 227.0Q533.2 227.2 533.5 227.4Q533.9 227.7 534.1 228.0Q534.3 228.4 534.4 228.8L534.4 228.8L533.1 229.1Q533.0 228.8 532.9 228.7Q532.8 228.5 532.7 228.3Q532.5 228.2 532.3 228.1Q532.1 228.1 531.8 228.1L531.8 228.1Q531.3 228.1 531.0 228.3Q530.7 228.6 530.5 229.0Q530.4 229.5 530.4 230.0L530.4 230.0Q530.4 230.6 530.5 231.0Q530.7 231.5 531.0 231.7Q531.3 232.0 531.8 232.0L531.8 232.0Q532.1 232.0 532.3 231.9Q532.5 231.8 532.7 231.7Q532.8 231.6 533.0 231.4Q533.1 231.2 533.1 230.9L533.1 230.9L534.4 231.2Q534.3 231.6 534.1 232.0Q533.9 232.4 533.5 232.6Q533.2 232.9 532.8 233.0Q532.3 233.1 531.8 233.1Z "/></g><mask id="satori_ms-id-0-5-1" maskUnits="userSpaceOnUse"><rect x="0" y="0" width="560" height="400" fill="#fff"/><path x="473" y="273" width="77" height="21" fill="#000"  stroke-width="0" d="M483.5,273 h56 a10.5,10.5 0 0 1 10.5,10.5 v0 a10.5,10.5 0 0 1 -10.5,10.5 h-56 a10.5,10.5 0 0 1 -10.5,-10.5 v0 a10.5,10.5 0 0 1 10.5,-10.5"/></mask><defs><filter id="satori_s-id-0-5-1" x="-46.75324675324675%" y="-171.42857142857142%" width="193.5064935064935%" height="442.8571428571429%"><feGaussianBlur stdDeviation="6" result="b"/><feFlood flood-color="rgba(0,0,0,0.04)" in="SourceGraphic" result="f"/><feComposite in="f" in2="b" operator="in"/></filter></defs><g mask="url(#satori_ms-id-0-5-1)" filter="url(#satori_s-id-0-5-1)" opacity="1"><path x="473" y="277" width="77" height="21" fill="#fff" stroke="#fff" stroke-width="0" d="M483.5,277 h56 a10.5,10.5 0 0 1 10.5,10.5 v0 a10.5,10.5 0 0 1 -10.5,10.5 h-56 a10.5,10.5 0 0 1 -10.5,-10.5 v0 a10.5,10.5 0 0 1 10.5,-10.5"/></g><mask id="satori_ms-id-0-5-0" maskUnits="userSpaceOnUse"><rect x="0" y="0" width="560" height="400" fill="#fff"/><path x="473" y="273" width="77" height="21" fill="#000"  stroke-width="0" d="M483.5,273 h56 a10.5,10.5 0 0 1 10.5,10.5 v0 a10.5,10.5 0 0 1 -10.5,10.5 h-56 a10.5,10.5 0 0 1 -10.5,-10.5 v0 a10.5,10.5 0 0 1 10.5,-10.5"/></mask><defs><filter id="satori_s-id-0-5-0" x="-1.2987012987012987%" y="-4.761904761904762%" width="102.59740259740259%" height="109.52380952380953%"><feGaussianBlur stdDeviation="1" result="b"/><feFlood flood-color="rgba(0,0,0,0.03)" in="SourceGraphic" result="f"/><feComposite in="f" in2="b" operator="in"/></filter></defs><g mask="url(#satori_ms-id-0-5-0)" filter="url(#satori_s-id-0-5-0)" opacity="1"><path x="473" y="274" width="77" height="21" fill="#fff" stroke="#fff" stroke-width="0" d="M483.5,274 h56 a10.5,10.5 0 0 1 10.5,10.5 v0 a10.5,10.5 0 0 1 -10.5,10.5 h-56 a10.5,10.5 0 0 1 -10.5,-10.5 v0 a10.5,10.5 0 0 1 10.5,-10.5"/></g><mask id="satori_om-id-0-5"><rect x="473" y="273" width="77" height="21" fill="#fff"/></mask><path x="473" y="273" width="77" height="21" fill="#ffffff" d="M483.5,273 h56 a10.5,10.5 0 0 1 10.5,10.5 v0 a10.5,10.5 0 0 1 -10.5,10.5 h-56 a10.5,10.5 0 0 1 -10.5,-10.5 v0 a10.5,10.5 0 0 1 10.5,-10.5"/><g  ><path fill="#4f46e5" d="M486.8 288L485.3 288L488.1 280.0L489.9 280.0L492.7 288L491.2 288L490.5 286.0L487.5 286.0L486.8 288ZM487.9 284.9L490.1 284.9L489.7 283.8Q489.5 283.2 489.3 282.4L489.3 282.4Q489.1 281.8 489.0 281.1L489.0 281.1Q488.8 281.8 488.6 282.4L488.6 282.4Q488.4 283.2 488.2 283.8L488.2 283.8L487.9 284.9ZM495.4 282.0L496.5 282.0L496.5 283.1L495.4 283.1L495.4 286.3Q495.4 286.6 495.5 286.8Q495.6 286.9 496.0 286.9L496.0 286.9Q496.1 286.9 496.2 286.9Q496.4 286.9 496.5 286.9L496.5 286.9L496.7 288.0Q496.5 288.0 496.2 288.1Q496.0 288.1 495.8 288.1L495.8 288.1Q494.9 288.1 494.4 287.7Q494.0 287.2 494.0 286.4L494.0 286.4L494.0 283.1L493.1 283.1L493.1 282.0L494.0 282.0L494.0 280.6L495.4 280.6L495.4 282.0ZM499.2 282.0L500.4 282.0L500.4 283.1L499.2 283.1L499.2 286.3Q499.2 286.6 499.4 286.8Q499.5 286.9 499.8 286.9L499.8 286.9Q499.9 286.9 500.1 286.9Q500.3 286.9 500.4 286.9L500.4 286.9L500.6 288.0Q500.3 288.0 500.1 288.1Q499.9 288.1 499.6 288.1L499.6 288.1Q498.8 288.1 498.3 287.7Q497.8 287.2 497.8 286.4L497.8 286.4L497.8 283.1L497.0 283.1L497.0 282.0L497.8 282.0L497.8 280.6L499.2 280.6L499.2 282.0ZM504.2 288.1L504.2 288.1Q503.3 288.1 502.6 287.7Q502.0 287.4 501.6 286.7Q501.2 286.0 501.2 285.0L501.2 285.0Q501.2 284.1 501.6 283.4Q501.9 282.7 502.6 282.3Q503.2 281.9 504.1 281.9L504.1 281.9Q504.6 281.9 505.1 282.1Q505.6 282.3 506.0 282.6Q506.4 283.0 506.6 283.6Q506.8 284.2 506.8 284.9L506.8 284.9L506.8 285.4L502.6 285.4Q502.7 285.9 502.8 286.2L502.8 286.2Q503.0 286.6 503.4 286.8Q503.7 287.0 504.2 287.0L504.2 287.0Q504.5 287.0 504.7 286.9Q505.0 286.9 505.2 286.7Q505.4 286.5 505.4 286.2L505.4 286.2L506.7 286.5Q506.6 287.0 506.2 287.4Q505.9 287.7 505.4 287.9Q504.8 288.1 504.2 288.1ZM502.6 284.4L502.6 284.4L505.5 284.4Q505.4 284.1 505.3 283.8L505.3 283.8Q505.2 283.4 504.8 283.2Q504.5 283.0 504.1 283.0Q503.6 283.0 503.3 283.2Q503.0 283.5 502.8 283.8L502.8 283.8Q502.7 284.1 502.6 284.4ZM509.4 284.5L509.4 284.5L509.4 288L508.0 288L508.0 282.0L509.3 282.0L509.4 283.2Q509.6 282.6 510.0 282.3L510.0 282.3Q510.5 281.9 511.2 281.9L511.2 281.9Q511.8 281.9 512.3 282.2Q512.8 282.4 513.0 283.0Q513.3 283.5 513.3 284.2L513.3 284.2L513.3 288L511.9 288L511.9 284.4Q511.9 283.8 511.6 283.5Q511.2 283.1 510.7 283.1L510.7 283.1Q510.3 283.1 510.0 283.3Q509.7 283.4 509.6 283.7Q509.4 284.0 509.4 284.5ZM517.0 288.1L517.0 288.1Q516.2 288.1 515.7 287.7Q515.1 287.4 514.8 286.7Q514.5 286.0 514.5 285.0L514.5 285.0Q514.5 284.0 514.8 283.3Q515.1 282.6 515.7 282.3Q516.3 281.9 517.0 281.9L517.0 281.9Q517.5 281.9 517.8 282.1Q518.2 282.3 518.4 282.5Q518.6 282.8 518.7 283.0L518.7 283.0L518.7 283.0L518.7 280.0L520.1 280.0L520.1 288L518.8 288L518.8 287.0L518.7 287.0Q518.6 287.3 518.4 287.5Q518.2 287.8 517.8 287.9Q517.5 288.1 517.0 288.1ZM517.3 287.0L517.3 287.0Q517.8 287.0 518.1 286.7Q518.4 286.5 518.6 286.0Q518.8 285.6 518.8 285.0L518.8 285.0Q518.8 284.4 518.6 284.0Q518.4 283.6 518.1 283.3Q517.8 283.1 517.3 283.1L517.3 283.1Q516.9 283.1 516.5 283.3Q516.2 283.6 516.1 284.0Q515.9 284.4 515.9 285.0L515.9 285.0Q515.9 285.6 516.1 286.0Q516.2 286.4 516.6 286.7Q516.9 287.0 517.3 287.0ZM523.0 288L521.6 288L521.6 282.0L523.0 282.0L523.0 288ZM522.3 281.1L522.3 281.1Q522.0 281.1 521.7 280.9Q521.5 280.7 521.5 280.4L521.5 280.4Q521.5 280.1 521.7 279.8Q522.0 279.6 522.3 279.6L522.3 279.6Q522.6 279.6 522.9 279.8Q523.1 280.1 523.1 280.4L523.1 280.4Q523.1 280.7 522.9 280.9Q522.6 281.1 522.3 281.1ZM525.9 284.5L525.9 284.5L525.9 288L524.5 288L524.5 282.0L525.8 282.0L525.8 283.2Q526.1 282.6 526.5 282.3L526.5 282.3Q526.9 281.9 527.7 281.9L527.7 281.9Q528.3 281.9 528.8 282.2Q529.2 282.4 529.5 283.0Q529.7 283.5 529.7 284.2L529.7 284.2L529.7 288L528.3 288L528.3 284.4Q528.3 283.8 528.0 283.5Q527.7 283.1 527.2 283.1L527.2 283.1Q526.8 283.1 526.5 283.3Q526.2 283.4 526.1 283.7Q525.9 284.0 525.9 284.5ZM533.8 290.4L533.8 290.4Q533.1 290.4 532.6 290.2Q532.0 290.0 531.7 289.7Q531.3 289.4 531.2 289.0L531.2 289.0L532.4 288.6Q532.5 288.7 532.6 288.9Q532.8 289.1 533.1 289.2Q533.4 289.3 533.8 289.3L533.8 289.3Q534.5 289.3 534.8 289.0Q535.2 288.7 535.2 288.1L535.2 288.1L535.2 286.9L535.1 286.9Q535.0 287.1 534.8 287.4Q534.6 287.6 534.3 287.8Q533.9 287.9 533.4 287.9L533.4 287.9Q532.7 287.9 532.2 287.6Q531.6 287.3 531.3 286.6Q531.0 286.0 531.0 285.0L531.0 285.0Q531.0 284.0 531.3 283.3Q531.6 282.6 532.2 282.3Q532.7 281.9 533.4 281.9L533.4 281.9Q534.0 281.9 534.3 282.1Q534.7 282.3 534.9 282.5Q535.1 282.8 535.2 283.0L535.2 283.0L535.2 283.0L535.2 282.0L536.6 282.0L536.6 288.0Q536.6 288.8 536.3 289.3Q535.9 289.9 535.3 290.1Q534.6 290.4 533.8 290.4ZM533.8 286.8L533.8 286.8Q534.3 286.8 534.6 286.6Q534.9 286.4 535.1 286.0Q535.2 285.5 535.2 285.0L535.2 285.0Q535.2 284.4 535.1 284.0Q534.9 283.5 534.6 283.3Q534.3 283.1 533.8 283.1L533.8 283.1Q533.3 283.1 533.0 283.3Q532.7 283.6 532.5 284.0Q532.4 284.4 532.4 285.0L532.4 285.0Q532.4 285.5 532.5 285.9Q532.7 286.4 533.0 286.6Q533.4 286.8 533.8 286.8Z "/></g></svg>