<svg width="540" height="420" viewBox="0 0 540 420" xmlns="http://www.w3.org/2000/svg"><mask id="satori_om-id"><rect x="0" y="0" width="540" height="420" fill="#fff"/></mask><mask id="satori_om-id-0"><rect x="0" y="0" width="540" height="420" fill="#fff"/></mask><clipPath id="satori_cp-id-0-0"><rect x="0" y="0" width="540" height="420"/></clipPath><mask id="satori_om-id-0-0"><rect x="0" y="0" width="540" height="420" fill="#fff"/></mask><image x="0" y="0" width="540" height="420" href="data:image/svg+xml;utf8,%3Csvg  fill=%22none%22 xmlns=%22http://www.w3.org/2000/svg%22 width=%22540%22 height=%22420%22 viewBox=%220 0 540 420%22%3E%3Cline x1=%22268%22 y1=%22222%22 x2=%22110%22 y2=%22118%22 stroke=%22%23d1d5db%22 stroke-width=%221%22%3E%3C/line%3E%3Cline x1=%22268%22 y1=%22222%22 x2=%22420%22 y2=%22102%22 stroke=%22%23d1d5db%22 stroke-width=%221%22%3E%3C/line%3E%3Cline x1=%22268%22 y1=%22222%22 x2=%2296%22 y2=%22312%22 stroke=%22%23d1d5db%22 stroke-width=%221%22%3E%3C/line%3E%3Cline x1=%22268%22 y1=%22222%22 x2=%22432%22 y2=%22310%22 stroke=%22%23d1d5db%22 stroke-width=%221%22%3E%3C/line%3E%3Cline x1=%22268%22 y1=%22222%22 x2=%22184%22 y2=%22178%22 stroke=%22%23d1d5db%22 stroke-width=%221%22%3E%3C/line%3E%3Cline x1=%22268%22 y1=%22222%22 x2=%22358%22 y2=%22168%22 stroke=%22%23d1d5db%22 stroke-width=%221%22%3E%3C/line%3E%3Cline x1=%22268%22 y1=%22222%22 x2=%22250%22 y2=%22340%22 stroke=%22%23d1d5db%22 stroke-width=%221%22%3E%3C/line%3E%3Cline x1=%22110%22 y1=%22118%22 x2=%22200%22 y2=%2270%22 stroke=%22%23d1d5db%22 stroke-width=%221%22%3E%3C/line%3E%3Cline x1=%22110%22 y1=%22118%22 x2=%2250%22 y2=%22220%22 stroke=%22%23d1d5db%22 stroke-width=%221%22%3E%3C/line%3E%3Cline x1=%22110%22 y1=%22118%22 x2=%22184%22 y2=%22178%22 stroke=%22%23d1d5db%22 stroke-width=%221%22%3E%3C/line%3E%3Cline x1=%22420%22 y1=%22102%22 x2=%22340%22 y2=%2260%22 stroke=%22%23d1d5db%22 stroke-width=%221%22%3E%3C/line%3E%3Cline x1=%22420%22 y1=%22102%22 x2=%22358%22 y2=%22168%22 stroke=%22%23d1d5db%22 stroke-width=%221%22%3E%3C/line%3E%3Cline x1=%22420%22 y1=%22102%22 x2=%22498%22 y2=%22218%22 stroke=%22%23d1d5db%22 stroke-width=%221%22%3E%3C/line%3E%3Cline x1=%2296%22 y1=%22312%22 x2=%2250%22 y2=%22220%22 stroke=%22%23d1d5db%22 stroke-width=%221%22%3E%3C/line%3E%3Cline x1=%2296%22 y1=%22312%22 x2=%22156%22 y2=%22268%22 stroke=%22%23d1d5db%22 stroke-width=%221%22%3E%3C/line%3E%3Cline x1=%2296%22 y1=%22312%22 x2=%22250%22 y2=%22340%22 stroke=%22%23d1d5db%22 stroke-width=%221%22%3E%3C/line%3E%3Cline x1=%22432%22 y1=%22310%22 x2=%22498%22 y2=%22218%22 stroke=%22%23d1d5db%22 stroke-width=%221%22%3E%3C/line%3E%3Cline x1=%22432%22 y1=%22310%22 x2=%22372%22 y2=%22364%22 stroke=%22%23d1d5db%22 stroke-width=%221%22%3E%3C/line%3E%3Cline x1=%22432%22 y1=%22310%22 x2=%22250%22 y2=%22340%22 stroke=%22%23d1d5db%22 stroke-width=%221%22%3E%3C/line%3E%3Cline x1=%22200%22 y1=%2270%22 x2=%22340%22 y2=%2260%22 stroke=%22%23d1d5db%22 stroke-width=%221%22%3E%3C/line%3E%3Cline x1=%2250%22 y1=%22220%22 x2=%22156%22 y2=%22268%22 stroke=%22%23d1d5db%22 stroke-width=%221%22%3E%3C/line%3E%3Cline x1=%22498%22 y1=%22218%22 x2=%22372%22 y2=%22364%22 stroke=%22%23d1d5db%22 stroke-width=%221%22%3E%3C/line%3E%3Ccircle cx=%22200%22 cy=%2270%22 r=%224%22 fill=%22%239ca3af%22%3E%3C/circle%3E%3Ccircle cx=%22340%22 cy=%2260%22 r=%224%22 fill=%22%239ca3af%22%3E%3C/circle%3E%3Ccircle cx=%22184%22 cy=%22178%22 r=%224%22 fill=%22%239ca3af%22%3E%3C/circle%3E%3Ccircle cx=%22358%22 cy=%22168%22 r=%224%22 fill=%22%239ca3af%22%3E%3C/circle%3E%3Ccircle cx=%2250%22 cy=%22220%22 r=%224%22 fill=%22%239ca3af%22%3E%3C/circle%3E%3Ccircle cx=%22498%22 cy=%22218%22 r=%224%22 fill=%22%239ca3af%22%3E%3C/circle%3E%3Ccircle cx=%22250%22 cy=%22340%22 r=%224%22 fill=%22%239ca3af%22%3E%3C/circle%3E%3Ccircle cx=%22372%22 cy=%22364%22 r=%224%22 fill=%22%239ca3af%22%3E%3C/circle%3E%3Ccircle cx=%22156%22 cy=%22268%22 r=%224%22 fill=%22%239ca3af%22%3E%3C/circle%3E%3Ccircle cx=%22110%22 cy=%22118%22 r=%229%22 fill=%22%231f2937%22%3E%3C/circle%3E%3Ccircle cx=%22420%22 cy=%22102%22 r=%229%22 fill=%22%234f46e5%22%3E%3C/circle%3E%3Ccircle cx=%2296%22 cy=%22312%22 r=%229%22 fill=%22%234f46e5%22%3E%3C/circle%3E%3Ccircle cx=%22432%22 cy=%22310%22 r=%229%22 fill=%22%231f2937%22%3E%3C/circle%3E%3Ccircle cx=%22268%22 cy=%22222%22 r=%2222%22 fill=%22%23fbbf24%22 opacity=%220.12%22%3E%3C/circle%3E%3Ccircle cx=%22268%22 cy=%22222%22 r=%2216%22 fill=%22%23fbbf24%22 opacity=%220.18%22%3E%3C/circle%3E%3Ccircle cx=%22268%22 cy=%22222%22 r=%2211%22 fill=%22%23fbbf24%22%3E%3C/circle%3E%3C/svg%3E" preserveAspectRatio="none" clip-path="url(#satori_cp-id-0-0)" mask="url(#satori_om-id-0-0)"/><mask id="satori_om-id-0-0-0"><rect x="0" y="0" width="0" height="420" fill="#fff"/></mask><mask id="satori_om-id-0-0-1"><rect x="0" y="0" width="0" height="420" fill="#fff"/></mask><mask id="satori_om-id-0-0-2"><rect x="0" y="0" width="0" height="420" fill="#fff"/></mask><mask id="satori_om-id-0-0-3"><rect x="0" y="0" width="0" height="420" fill="#fff"/></mask><mask id="satori_om-id-0-0-4"><rect x="0" y="0" width="0" height="420" fill="#fff"/></mask><mask id="satori_om-id-0-0-5"><rect x="0" y="0" width="0" height="420" fill="#fff"/></mask><mask id="satori_om-id-0-0-6"><rect x="0" y="0" width="0" height="420" fill="#fff"/></mask><mask id="satori_om-id-0-0-7"><rect x="0" y="0" width="0" height="420" fill="#fff"/></mask><mask id="satori_om-id-0-0-8"><rect x="0" y="0" width="0" height="420" fill="#fff"/></mask><mask id="satori_om-id-0-0-9"><rect x="0" y="0" width="0" height="420" fill="#fff"/></mask><mask id="satori_om-id-0-0-10"><rect x="0" y="0" width="0" height="420" fill="#fff"/></mask><mask id="satori_om-id-0-0-11"><rect x="0" y="0" width="0" height="420" fill="#fff"/></mask><mask id="satori_om-id-0-0-12"><rect x="0" y="0" width="0" height="420" fill="#fff"/></mask><mask id="satori_om-id-0-0-13"><rect x="0" y="0" width="0" height="420" fill="#fff"/></mask><mask id="satori_om-id-0-0-14"><rect x="0" y="0" width="0" height="420" fill="#fff"/></mask><mask id="satori_om-id-0-0-15"><rect x="0" y="0" width="0" height="420" fill="#fff"/></mask><mask id="satori_om-id-0-0-16"><rect x="0" y="0" width="0" height="420" fill="#fff"/></mask><mask id="satori_om-id-0-0-17"><rect x="0" y="0" width="0" height="420" fill="#fff"/></mask><mask id="satori_om-id-0-0-18"><rect x="0" y="0" width="0" height="420" fill="#fff"/></mask><mask id="satori_om-id-0-0-19"><rect x="0" y="0" width="0" height="420" fill="#fff"/></mask><mask id="satori_om-id-0-0-20"><rect x="0" y="0" width="0" height="420" fill="#fff"/></mask><mask id="satori_om-id-0-0-21"><rect x="0" y="0" width="0" height="420" fill="#fff"/></mask><mask id="satori_om-id-0-0-22"><rect x="0" y="0" width="0" height="420" fill="#fff"/></mask><mask id="satori_om-id-0-0-23"><rect x="0" y="0" width="0" height="420" fill="#fff"/></mask><mask id="satori_om-id-0-0-24"><rect x="0" y="0" width="0" height="420" fill="#fff"/></mask><mask id="satori_om-id-0-0-25"><rect x="0" y="0" width="0" height="420" fill="#fff"/></mask><mask id="satori_om-id-0-0-26"><rect x="0" y="0" width="0" height="420" fill="#fff"/></mask><mask id="satori_om-id-0-0-27"><rect x="0" y="0" width="0" height="420" fill="#fff"/></mask><mask id="satori_om-id-0-0-28"><rect x="0" y="0" width="0" height="420" fill="#fff"/></mask><mask id="satori_om-id-0-0-29"><rect x="0" y="0" width="0" height="420" fill="#fff"/></mask><mask id="satori_om-id-0-0-30"><rect x="0" y="0" width="0" height="420" fill="#fff"/></mask><mask id="satori_om-id-0-0-31"><rect x="0" y="0" width="0" height="420" fill="#fff"/></mask><mask id="satori_om-id-0-0-32"><rect x="0" y="0" width="0" height="420" fill="#fff"/></mask><mask id="satori_om-id-0-0-33"><rect x="0" y="0" width="0" height="420" fill="#fff"/></mask><mask id="satori_om-id-0-0-34"><rect x="0" y="0" width="0" height="420" fill="#fff"/></mask><mask id="satori_om-id-0-0-35"><rect x="0" y="0" width="0" height="420" fill="#fff"/></mask><mask id="satori_om-id-0-0-36"><rect x="0" y="0" width="0" height="420" fill="#fff"/></mask><mask id="satori_om-id-0-0-37"><rect x="0" y="0" width="0" height="420" fill="#fff"/></mask><mask id="satori_om-id-0-1"><rect x="270" y="22" width="162" height="22" fill="#fff"/></mask><path x="270" y="22" width="162" height="22" fill="#fefce8" d="M281,22 h140 a11,11 0 0 1 11,11 v0 a11,11 0 0 1 -11,11 h-140 a11,11 0 0 1 -11,-11 v0 a11,11 0 0 1 11,-11" transform="matrix(1.00,0.00,0.00,1.00,-81.00,0.00)"/><g  ><path fill="#a16207" d="M284.1 37L282.7 37L282.7 29.7L284.1 29.7L284.1 31.7L284.1 33.4Q284.2 33.3 284.2 33.3L284.2 33.3Q284.4 32.9 284.7 32.6Q284.9 32.2 285.3 31.8L285.3 31.8L287.0 29.7L288.9 29.7L286.1 32.9L288.9 37L287.2 37L285.1 33.9L284.1 34.9L284.1 37ZM292.6 37L291.1 37L291.1 29.7L292.7 29.7L295.0 33.4Q295.2 33.7 295.4 34.0Q295.5 34.4 295.7 34.8L295.7 34.8Q295.8 35.0 295.9 35.2L295.9 35.2Q295.9 35.0 295.9 34.8L295.9 34.8Q295.9 34.3 295.9 33.9Q295.8 33.5 295.8 33.2L295.8 33.2L295.8 29.7L297.4 29.7L297.4 37L295.7 37L293.6 33.7Q293.4 33.3 293.2 32.9Q293.0 32.6 292.8 32.1L292.8 32.1Q292.6 31.9 292.5 31.6L292.5 31.6Q292.5 31.9 292.5 32.1L292.5 32.1Q292.5 32.6 292.6 33.0Q292.6 33.4 292.6 33.7L292.6 33.7L292.6 37ZM303.1 37.1L303.1 37.1Q302.1 37.1 301.3 36.7Q300.6 36.2 300.1 35.4Q299.7 34.5 299.7 33.4L299.7 33.4Q299.7 32.2 300.1 31.3Q300.6 30.5 301.3 30.1Q302.1 29.6 303.1 29.6L303.1 29.6Q304.0 29.6 304.8 30.1Q305.6 30.5 306.0 31.3Q306.5 32.2 306.5 33.4L306.5 33.4Q306.5 34.5 306.0 35.4Q305.6 36.2 304.8 36.7Q304.0 37.1 303.1 37.1ZM303.1 35.8L303.1 35.8Q303.6 35.8 304.1 35.5Q304.5 35.2 304.7 34.7Q304.9 34.1 304.9 33.4L304.9 33.4Q304.9 32.6 304.7 32.0Q304.5 31.5 304.1 31.2Q303.6 31.0 303.1 31.0L303.1 31.0Q302.5 31.0 302.1 31.2Q301.7 31.5 301.4 32.0Q301.2 32.6 301.2 33.4L301.2 33.4Q301.2 34.1 301.4 34.7Q301.7 35.2 302.1 35.5Q302.5 35.8 303.1 35.8ZM312.0 37L310.3 37L308.4 29.7L310.0 29.7L310.8 33.3Q310.9 33.8 311.0 34.3Q311.1 34.8 311.2 35.3L311.2 35.3Q311.2 35.4 311.2 35.5L311.2 35.5Q311.2 35.4 311.3 35.3L311.3 35.3Q311.3 34.8 311.4 34.3Q311.5 33.8 311.6 33.3L311.6 33.3L312.5 29.7L314.1 29.7L315.0 33.3Q315.1 33.8 315.2 34.3Q315.3 34.8 315.4 35.3L315.4 35.3Q315.4 35.4 315.4 35.5L315.4 35.5Q315.4 35.4 315.4 35.3L315.4 35.3Q315.5 34.8 315.6 34.3Q315.7 33.8 315.8 33.3L315.8 33.3L316.6 29.7L318.3 29.7L316.3 37L314.6 37L313.6 33.3Q313.5 32.7 313.4 31.9L313.4 31.9Q313.3 31.7 313.3 31.5L313.3 31.5Q313.3 31.7 313.2 31.9L313.2 31.9Q313.1 32.6 313.0 33.3L313.0 33.3L312.0 37ZM325.0 37L320.4 37L320.4 29.7L321.8 29.7L321.8 35.8L325.0 35.8L325.0 37ZM332.1 37L327.2 37L327.2 29.7L332.1 29.7L332.1 31.0L328.7 31.0L328.7 32.7L331.8 32.7L331.8 33.9L328.7 33.9L328.7 35.8L332.1 35.8L332.1 37ZM337.0 37L337.0 37L334.5 37L334.5 29.7L337.1 29.7Q338.2 29.7 338.9 30.2Q339.7 30.6 340.2 31.4Q340.6 32.2 340.6 33.4L340.6 33.4Q340.6 34.5 340.2 35.3Q339.7 36.1 338.9 36.6Q338.2 37 337.0 37ZM336.0 31.0L336.0 35.7L337.0 35.7Q337.7 35.7 338.1 35.5Q338.6 35.2 338.9 34.7Q339.1 34.2 339.1 33.4L339.1 33.4Q339.1 32.5 338.9 32.0Q338.6 31.5 338.1 31.3Q337.7 31.0 337.0 31.0L337.0 31.0L336.0 31.0ZM346.1 37.1L346.1 37.1Q345.1 37.1 344.3 36.6Q343.6 36.2 343.1 35.4Q342.7 34.5 342.7 33.4L342.7 33.4Q342.7 32.2 343.2 31.4Q343.6 30.5 344.4 30.1Q345.1 29.6 346.1 29.6L346.1 29.6Q346.7 29.6 347.2 29.8Q347.8 30.0 348.2 30.3Q348.6 30.6 348.9 31.1Q349.1 31.5 349.2 32.1L349.2 32.1L347.7 32.1Q347.6 31.8 347.5 31.6Q347.3 31.4 347.1 31.2Q346.9 31.1 346.7 31.0Q346.4 31.0 346.1 31.0L346.1 31.0Q345.6 31.0 345.1 31.2Q344.7 31.5 344.5 32.0Q344.2 32.6 344.2 33.4Q344.2 34.1 344.5 34.7Q344.7 35.2 345.1 35.5Q345.6 35.8 346.1 35.8L346.1 35.8Q346.7 35.8 347.0 35.6Q347.4 35.4 347.6 35.0L347.6 35.0Q347.8 34.7 347.8 34.3L347.8 34.3L346.2 34.3L346.2 33.1L349.3 33.1L349.3 34.0Q349.3 35.0 348.9 35.7Q348.5 36.4 347.7 36.7Q347.0 37.1 346.1 37.1ZM356.5 37L351.6 37L351.6 29.7L356.5 29.7L356.5 31.0L353.1 31.0L353.1 32.7L356.2 32.7L356.2 33.9L353.1 33.9L353.1 35.8L356.5 35.8L356.5 37Z M363.9 37L362.5 37L362.5 29.7L365.3 29.7Q366.1 29.7 366.7 30.0Q367.3 30.4 367.6 30.9Q367.9 31.5 367.9 32.2L367.9 32.2Q367.9 32.9 367.6 33.5Q367.3 34.0 366.7 34.3Q366.1 34.6 365.3 34.6L365.3 34.6L363.9 34.6L363.9 37ZM363.9 31.0L363.9 33.4L365.0 33.4Q365.5 33.4 365.8 33.3Q366.1 33.1 366.2 32.8Q366.4 32.5 366.4 32.2Q366.4 31.8 366.2 31.5Q366.1 31.3 365.8 31.1Q365.5 31.0 365.0 31.0L365.0 31.0L363.9 31.0ZM375.0 37L370.1 37L370.1 29.7L375.0 29.7L375.0 31.0L371.6 31.0L371.6 32.7L374.7 32.7L374.7 33.9L371.6 33.9L371.6 35.8L375.0 35.8L375.0 37ZM378.9 37L377.4 37L377.4 29.7L380.2 29.7Q381.1 29.7 381.7 30.0Q382.2 30.3 382.5 30.8Q382.8 31.4 382.8 32.1Q382.8 32.8 382.5 33.3Q382.2 33.9 381.6 34.1L381.6 34.1Q381.6 34.1 381.6 34.2L381.6 34.2L383.1 37L381.5 37L380.1 34.4L378.9 34.4L378.9 37ZM378.9 31.0L378.9 33.2L380.0 33.2Q380.4 33.2 380.7 33.1Q381.0 32.9 381.2 32.7Q381.3 32.5 381.3 32.1L381.3 32.1Q381.3 31.7 381.2 31.5Q381.0 31.2 380.7 31.1Q380.4 31.0 380.0 31.0L380.0 31.0L378.9 31.0ZM387.8 37.1L387.8 37.1Q387.0 37.1 386.3 36.8Q385.7 36.6 385.3 36.0Q384.9 35.5 384.9 34.7L384.9 34.7L386.4 34.7Q386.4 35.1 386.6 35.4Q386.8 35.6 387.1 35.7Q387.4 35.8 387.8 35.8L387.8 35.8Q388.2 35.8 388.5 35.7Q388.8 35.6 389.0 35.4Q389.1 35.2 389.1 34.9L389.1 34.9Q389.1 34.7 389.0 34.5Q388.8 34.3 388.6 34.2Q388.3 34.1 387.9 34.0L387.9 34.0L387.1 33.8Q386.2 33.6 385.6 33.1Q385.1 32.6 385.1 31.8L385.1 31.8Q385.1 31.2 385.5 30.7Q385.8 30.2 386.5 29.9Q387.1 29.6 387.9 29.6L387.9 29.6Q388.7 29.6 389.3 29.9Q389.9 30.2 390.2 30.7Q390.5 31.2 390.5 31.8L390.5 31.8L389.1 31.8Q389.1 31.4 388.7 31.1Q388.4 30.9 387.8 30.9L387.8 30.9Q387.5 30.9 387.2 31.0Q386.9 31.1 386.8 31.3Q386.7 31.5 386.7 31.7L386.7 31.7Q386.7 32.0 386.8 32.2Q387.0 32.3 387.2 32.5Q387.5 32.6 387.8 32.6L387.8 32.6L388.5 32.8Q388.9 32.9 389.3 33.1Q389.7 33.3 390.0 33.5Q390.3 33.8 390.5 34.1Q390.6 34.5 390.6 34.9L390.6 34.9Q390.6 35.6 390.3 36.1Q390.0 36.6 389.4 36.8Q388.7 37.1 387.8 37.1ZM392.9 29.7L394.4 29.7L394.4 37L392.9 37L392.9 29.7ZM399.6 37.1L399.6 37.1Q398.7 37.1 398.1 36.8Q397.4 36.6 397.1 36.0Q396.7 35.5 396.7 34.7L396.7 34.7L398.1 34.7Q398.2 35.1 398.4 35.4Q398.5 35.6 398.9 35.7Q399.2 35.8 399.6 35.8L399.6 35.8Q400.0 35.8 400.3 35.7Q400.6 35.6 400.7 35.4Q400.9 35.2 400.9 34.9L400.9 34.9Q400.9 34.7 400.8 34.5Q400.6 34.3 400.3 34.2Q400.0 34.1 399.6 34.0L399.6 34.0L398.8 33.8Q397.9 33.6 397.4 33.1Q396.9 32.6 396.9 31.8L396.9 31.8Q396.9 31.2 397.2 30.7Q397.6 30.2 398.2 29.9Q398.8 29.6 399.6 29.6L399.6 29.6Q400.4 29.6 401.0 29.9Q401.6 30.2 402.0 30.7Q402.3 31.2 402.3 31.8L402.3 31.8L400.9 31.8Q400.8 31.4 400.5 31.1Q400.2 30.9 399.6 30.9L399.6 30.9Q399.2 30.9 399.0 31.0Q398.7 31.1 398.5 31.3Q398.4 31.5 398.4 31.7L398.4 31.7Q398.4 32.0 398.6 32.2Q398.7 32.3 399.0 32.5Q399.3 32.6 399.6 32.6L399.6 32.6L400.2 32.8Q400.7 32.9 401.1 33.1Q401.5 33.3 401.8 33.5Q402.1 33.8 402.2 34.1Q402.4 34.5 402.4 34.9L402.4 34.9Q402.4 35.6 402.1 36.1Q401.7 36.6 401.1 36.8Q400.5 37.1 399.6 37.1ZM406.6 31.0L404.4 31.0L404.4 29.7L410.3 29.7L410.3 31.0L408.1 31.0L408.1 37L406.6 37L406.6 31.0ZM415.2 37.1L415.2 37.1Q414.3 37.1 413.7 36.8Q413.0 36.6 412.7 36.0Q412.3 35.5 412.3 34.7L412.3 34.7L413.8 34.7Q413.8 35.1 414.0 35.4Q414.2 35.6 414.5 35.7Q414.8 35.8 415.2 35.8L415.2 35.8Q415.6 35.8 415.9 35.7Q416.2 35.6 416.4 35.4Q416.5 35.2 416.5 34.9L416.5 34.9Q416.5 34.7 416.4 34.5Q416.2 34.3 415.9 34.2Q415.7 34.1 415.3 34.0L415.3 34.0L414.5 33.8Q413.5 33.6 413.0 33.1Q412.5 32.6 412.5 31.8L412.5 31.8Q412.5 31.2 412.9 30.7Q413.2 30.2 413.8 29.9Q414.4 29.6 415.2 29.6L415.2 29.6Q416.0 29.6 416.6 29.9Q417.2 30.2 417.6 30.7Q417.9 31.2 417.9 31.8L417.9 31.8L416.5 31.8Q416.4 31.4 416.1 31.1Q415.8 30.9 415.2 30.9L415.2 30.9Q414.8 30.9 414.6 31.0Q414.3 31.1 414.2 31.3Q414.0 31.5 414.0 31.7L414.0 31.7Q414.0 32.0 414.2 32.2Q414.4 32.3 414.6 32.5Q414.9 32.6 415.2 32.6L415.2 32.6L415.9 32.8Q416.3 32.9 416.7 33.1Q417.1 33.3 417.4 33.5Q417.7 33.8 417.9 34.1Q418.0 34.5 418.0 34.9L418.0 34.9Q418.0 35.6 417.7 36.1Q417.4 36.6 416.7 36.8Q416.1 37.1 415.2 37.1Z " transform="matrix(1.00,0.00,0.00,1.00,-81.00,0.00)"/></g><mask id="satori_ms-id-0-2-1" maskUnits="userSpaceOnUse"><rect x="0" y="0" width="540" height="420" fill="#fff"/><path x="124" y="90" width="95" height="21" fill="#000"  stroke-width="0" d="M134.5,90 h74 a10.5,10.5 0 0 1 10.5,10.5 v0 a10.5,10.5 0 0 1 -10.5,10.5 h-74 a10.5,10.5 0 0 1 -10.5,-10.5 v0 a10.5,10.5 0 0 1 10.5,-10.5"/></mask><defs><filter id="satori_s-id-0-2-1" x="-37.89473684210527%" y="-171.42857142857142%" width="175.78947368421052%" height="442.8571428571429%"><feGaussianBlur stdDeviation="6" result="b"/><feFlood flood-color="rgba(0,0,0,0.04)" in="SourceGraphic" result="f"/><feComposite in="f" in2="b" operator="in"/></filter></defs><g mask="url(#satori_ms-id-0-2-1)" filter="url(#satori_s-id-0-2-1)" opacity="1"><path x="124" y="94" width="95" height="21" fill="#fff" stroke="#fff" stroke-width="0" d="M134.5,94 h74 a10.5,10.5 0 0 1 10.5,10.5 v0 a10.5,10.5 0 0 1 -10.5,10.5 h-74 a10.5,10.5 0 0 1 -10.5,-10.5 v0 a10.5,10.5 0 0 1 10.5,-10.5"/></g><mask id="satori_ms-id-0-2-0" maskUnits="userSpaceOnUse"><rect x="0" y="0" width="540" height="420" fill="#fff"/><path x="124" y="90" width="95" height="21" fill="#000"  stroke-width="0" d="M134.5,90 h74 a10.5,10.5 0 0 1 10.5,10.5 v0 a10.5,10.5 0 0 1 -10.5,10.5 h-74 a10.5,10.5 0 0 1 -10.5,-10.5 v0 a10.5,10.5 0 0 1 10.5,-10.5"/></mask><defs><filter id="satori_s-id-0-2-0" x="-1.0526315789473684%" y="-4.761904761904762%" width="102.10526315789474%" height="109.52380952380953%"><feGaussianBlur stdDeviation="1" result="b"/><feFlood flood-color="rgba(0,0,0,0.03)" in="SourceGraphic" result="f"/><feComposite in="f" in2="b" operator="in"/></filter></defs><g mask="url(#satori_ms-id-0-2-0)" filter="url(#satori_s-id-0-2-0)" opacity="1"><path x="124" y="91" width="95" height="21" fill="#fff" stroke="#fff" stroke-width="0" d="M134.5,91 h74 a10.5,10.5 0 0 1 10.5,10.5 v0 a10.5,10.5 0 0 1 -10.5,10.5 h-74 a10.5,10.5 0 0 1 -10.5,-10.5 v0 a10.5,10.5 0 0 1 10.5,-10.5"/></g><mask id="satori_om-id-0-2"><rect x="124" y="90" width="95" height="21" fill="#fff"/></mask><path x="124" y="90" width="95" height="21" fill="#fff" d="M134.5,90 h74 a10.5,10.5 0 0 1 10.5,10.5 v0 a10.5,10.5 0 0 1 -10.5,10.5 h-74 a10.5,10.5 0 0 1 -10.5,-10.5 v0 a10.5,10.5 0 0 1 10.5,-10.5"/><g  ><path fill="#1a1a1a" d="M136.2 105L134.8 105L134.8 97.0L137.8 97.0Q138.7 97.0 139.3 97.3Q140.0 97.7 140.3 98.3Q140.6 98.9 140.6 99.6L140.6 99.6Q140.6 100.4 140.3 101.0Q140.0 101.6 139.3 101.9Q138.7 102.3 137.8 102.3L137.8 102.3L136.2 102.3L136.2 105ZM136.2 98.2L136.2 101.1L137.6 101.1Q138.1 101.1 138.5 100.9Q138.8 100.7 139.0 100.4Q139.2 100.1 139.2 99.6Q139.2 99.2 139.0 98.9Q138.8 98.6 138.5 98.4Q138.1 98.2 137.6 98.2L137.6 98.2L136.2 98.2ZM143.2 105L141.8 105L141.8 99.0L143.2 99.0L143.2 100.0L143.3 100.0Q143.4 99.5 143.8 99.2Q144.2 98.9 144.7 98.9L144.7 98.9Q144.9 98.9 145 98.9Q145.1 98.9 145.2 99.0L145.2 99.0L145.2 100.2Q145.2 100.2 145.0 100.2Q144.8 100.2 144.6 100.2L144.6 100.2Q144.2 100.2 143.9 100.3Q143.6 100.5 143.4 100.8Q143.2 101.1 143.2 101.5L143.2 101.5L143.2 105ZM148.8 105.1L148.8 105.1Q147.9 105.1 147.3 104.7Q146.6 104.3 146.3 103.6Q145.9 103.0 145.9 102.0L145.9 102.0Q145.9 101.1 146.3 100.4Q146.6 99.7 147.3 99.3Q147.9 98.9 148.8 98.9L148.8 98.9Q149.7 98.9 150.3 99.3Q151.0 99.7 151.3 100.4Q151.7 101.1 151.7 102.0L151.7 102.0Q151.7 103.0 151.3 103.6Q151.0 104.3 150.3 104.7Q149.7 105.1 148.8 105.1ZM148.8 104.0L148.8 104.0Q149.3 104.0 149.6 103.7Q149.9 103.5 150.1 103.0Q150.3 102.6 150.3 102.0L150.3 102.0Q150.3 101.5 150.1 101.0Q149.9 100.6 149.6 100.3Q149.3 100.1 148.8 100.1L148.8 100.1Q148.3 100.1 148.0 100.3Q147.7 100.6 147.5 101.0Q147.4 101.5 147.4 102.0L147.4 102.0Q147.4 102.6 147.5 103.0Q147.7 103.5 148.0 103.7Q148.3 104.0 148.8 104.0ZM155.5 107.4L155.5 107.4Q154.8 107.4 154.2 107.2Q153.7 107.0 153.4 106.7Q153.0 106.4 152.9 106.0L152.9 106.0L154.1 105.6Q154.1 105.7 154.3 105.9Q154.5 106.1 154.8 106.2Q155.0 106.3 155.5 106.3L155.5 106.3Q156.1 106.3 156.5 106.0Q156.9 105.7 156.9 105.1L156.9 105.1L156.9 103.9L156.8 103.9Q156.7 104.1 156.5 104.4Q156.3 104.6 156.0 104.8Q155.6 104.9 155.1 104.9L155.1 104.9Q154.4 104.9 153.9 104.6Q153.3 104.3 153.0 103.6Q152.6 103.0 152.6 102.0L152.6 102.0Q152.6 101.0 153.0 100.3Q153.3 99.6 153.9 99.3Q154.4 98.9 155.1 98.9L155.1 98.9Q155.7 98.9 156.0 99.1Q156.3 99.3 156.5 99.5Q156.7 99.8 156.9 100.0L156.9 100.0L156.9 100.0L156.9 99.0L158.3 99.0L158.3 105.0Q158.3 105.8 157.9 106.3Q157.6 106.9 156.9 107.1Q156.3 107.4 155.5 107.4ZM155.5 103.8L155.5 103.8Q156.0 103.8 156.3 103.6Q156.6 103.4 156.8 103.0Q156.9 102.5 156.9 102.0L156.9 102.0Q156.9 101.4 156.8 101.0Q156.6 100.5 156.3 100.3Q156.0 100.1 155.5 100.1L155.5 100.1Q155.0 100.1 154.7 100.3Q154.4 100.6 154.2 101.0Q154.1 101.4 154.1 102.0L154.1 102.0Q154.1 102.5 154.2 102.9Q154.4 103.4 154.7 103.6Q155.0 103.8 155.5 103.8ZM161.2 105L159.8 105L159.8 99.0L161.1 99.0L161.1 100.0L161.2 100.0Q161.4 99.5 161.8 99.2Q162.2 98.9 162.7 98.9L162.7 98.9Q162.8 98.9 162.9 98.9Q163.1 98.9 163.2 99.0L163.2 99.0L163.2 100.2Q163.1 100.2 162.9 100.2Q162.7 100.2 162.5 100.2L162.5 100.2Q162.1 100.2 161.8 100.3Q161.5 100.5 161.4 100.8Q161.2 101.1 161.2 101.5L161.2 101.5L161.2 105ZM165.8 105.1L165.8 105.1Q165.3 105.1 164.8 104.9Q164.3 104.7 164.1 104.3Q163.8 103.9 163.8 103.3L163.8 103.3Q163.8 102.8 164.0 102.5Q164.2 102.1 164.5 101.9Q164.8 101.7 165.3 101.6Q165.7 101.5 166.1 101.5L166.1 101.5Q166.6 101.4 167.0 101.4Q167.3 101.3 167.4 101.3Q167.6 101.2 167.6 101.0L167.6 101.0L167.6 100.9Q167.6 100.6 167.5 100.4Q167.3 100.2 167.1 100.1Q166.9 100.0 166.5 100.0L166.5 100.0Q166.2 100.0 165.9 100.1Q165.7 100.2 165.5 100.4Q165.4 100.6 165.3 100.8L165.3 100.8L164.0 100.5Q164.2 100.0 164.5 99.6Q164.9 99.3 165.4 99.1Q165.9 98.9 166.5 98.9L166.5 98.9Q167.0 98.9 167.4 99.0Q167.8 99.1 168.2 99.4Q168.5 99.6 168.8 100.0Q169.0 100.4 169.0 101.0L169.0 101.0L169.0 105L167.6 105L167.6 104.2L167.6 104.2Q167.5 104.4 167.2 104.6Q167.0 104.9 166.6 105.0Q166.3 105.1 165.8 105.1ZM166.2 104.1L166.2 104.1Q166.6 104.1 166.9 103.9Q167.2 103.7 167.4 103.5Q167.6 103.2 167.6 102.8L167.6 102.8L167.6 102.1Q167.5 102.2 167.4 102.2Q167.2 102.3 167.0 102.3Q166.8 102.4 166.6 102.4Q166.4 102.4 166.3 102.4L166.3 102.4Q166.0 102.5 165.7 102.6Q165.5 102.7 165.3 102.8Q165.2 103.0 165.2 103.3L165.2 103.3Q165.2 103.6 165.3 103.7Q165.4 103.9 165.7 104.0Q165.9 104.1 166.2 104.1ZM171.9 105L170.5 105L170.5 99.0L171.8 99.0L171.8 100.1Q171.9 99.8 172.1 99.6L172.1 99.6Q172.4 99.2 172.8 99.1Q173.1 98.9 173.5 98.9L173.5 98.9Q174.2 98.9 174.6 99.3L174.6 99.3Q174.9 99.6 175.1 100.2L175.1 100.2Q175.2 99.9 175.4 99.6L175.4 99.6Q175.7 99.3 176.1 99.1Q176.5 98.9 177.0 98.9L177.0 98.9Q177.5 98.9 178.0 99.1Q178.4 99.4 178.6 99.8Q178.9 100.3 178.9 101.0L178.9 101.0L178.9 105L177.5 105L177.5 101.2Q177.5 100.6 177.2 100.3Q176.9 100.1 176.4 100.1L176.4 100.1Q176.1 100.1 175.9 100.2Q175.6 100.4 175.5 100.6Q175.4 100.9 175.4 101.2L175.4 101.2L175.4 105L174.0 105L174.0 101.1Q174.0 100.6 173.7 100.4Q173.4 100.1 173.0 100.1L173.0 100.1Q172.7 100.1 172.4 100.2Q172.2 100.4 172.0 100.6Q171.9 100.9 171.9 101.3L171.9 101.3L171.9 105Z M184.5 105L183.1 105L183.1 99.0L184.5 99.0L184.5 100.0L184.6 100.0Q184.7 99.5 185.1 99.2Q185.5 98.9 186.0 98.9L186.0 98.9Q186.2 98.9 186.3 98.9Q186.4 98.9 186.6 99.0L186.6 99.0L186.6 100.2Q186.5 100.2 186.3 100.2Q186.1 100.2 185.9 100.2L185.9 100.2Q185.5 100.2 185.2 100.3Q184.9 100.5 184.7 100.8Q184.5 101.1 184.5 101.5L184.5 101.5L184.5 105ZM189.6 105.1L189.6 105.1Q188.9 105.1 188.5 104.8Q188.0 104.5 187.8 104.0Q187.5 103.5 187.5 102.8L187.5 102.8L187.5 99.0L188.9 99.0L188.9 102.6Q188.9 103.2 189.2 103.5Q189.5 103.9 190.1 103.9L190.1 103.9Q190.5 103.9 190.7 103.7Q191.0 103.6 191.2 103.3Q191.4 102.9 191.4 102.5L191.4 102.5L191.4 99.0L192.8 99.0L192.8 105L191.4 105L191.4 103.8Q191.2 104.4 190.8 104.7L190.8 104.7Q190.3 105.1 189.6 105.1ZM194.2 97.0L195.6 97.0L195.6 105L194.2 105L194.2 97.0ZM199.8 105.1L199.8 105.1Q198.9 105.1 198.2 104.7Q197.6 104.4 197.2 103.7Q196.9 103.0 196.9 102.0L196.9 102.0Q196.9 101.1 197.2 100.4Q197.6 99.7 198.2 99.3Q198.8 98.9 199.7 98.9L199.7 98.9Q200.2 98.9 200.7 99.1Q201.2 99.3 201.6 99.6Q202.0 100.0 202.2 100.6Q202.4 101.2 202.4 101.9L202.4 101.9L202.4 102.4L198.2 102.4Q198.3 102.9 198.4 103.2L198.4 103.2Q198.6 103.6 199.0 103.8Q199.3 104.0 199.8 104.0L199.8 104.0Q200.1 104.0 200.3 103.9Q200.6 103.9 200.8 103.7Q201.0 103.5 201.1 103.2L201.1 103.2L202.3 103.5Q202.2 104.0 201.8 104.4Q201.5 104.7 201.0 104.9Q200.4 105.1 199.8 105.1ZM198.2 101.4L198.2 101.4L201.1 101.4Q201.0 101.1 200.9 100.8L200.9 100.8Q200.8 100.4 200.5 100.2Q200.2 100.0 199.7 100.0Q199.2 100.0 198.9 100.2Q198.6 100.5 198.4 100.8L198.4 100.8Q198.3 101.1 198.2 101.4ZM205.9 105.1L205.9 105.1Q205.2 105.1 204.7 104.9Q204.1 104.7 203.8 104.3Q203.5 104.0 203.4 103.4L203.4 103.4L204.7 103.2Q204.8 103.6 205.1 103.8Q205.4 104.1 205.9 104.1L205.9 104.1Q206.4 104.1 206.7 103.8Q207.0 103.6 207.0 103.3L207.0 103.3Q207.0 103.1 206.8 102.9Q206.6 102.7 206.2 102.6L206.2 102.6L205.2 102.4Q204.4 102.2 203.9 101.8Q203.5 101.4 203.5 100.7L203.5 100.7Q203.5 100.2 203.8 99.8Q204.1 99.4 204.7 99.1Q205.2 98.9 205.9 98.9L205.9 98.9Q206.6 98.9 207.1 99.1Q207.6 99.3 207.9 99.7Q208.2 100.0 208.3 100.5L208.3 100.5L207.1 100.7Q207.0 100.4 206.7 100.2Q206.5 100.0 206.0 100.0L206.0 100.0Q205.5 100.0 205.2 100.2Q204.9 100.4 204.9 100.7L204.9 100.7Q204.9 100.9 205.1 101.1Q205.3 101.3 205.8 101.4L205.8 101.4L206.8 101.6Q207.6 101.8 208.1 102.2Q208.5 102.6 208.5 103.2L208.5 103.2Q208.5 103.8 208.1 104.2Q207.8 104.6 207.2 104.9Q206.7 105.1 205.9 105.1Z "/></g><mask id="satori_ms-id-0-3-1" maskUnits="userSpaceOnUse"><rect x="0" y="0" width="540" height="420" fill="#fff"/><path x="308" y="74" width="106" height="21" fill="#000"  stroke-width="0" d="M318.5,74 h85 a10.5,10.5 0 0 1 10.5,10.5 v0 a10.5,10.5 0 0 1 -10.5,10.5 h-85 a10.5,10.5 0 0 1 -10.5,-10.5 v0 a10.5,10.5 0 0 1 10.5,-10.5"/></mask><defs><filter id="satori_s-id-0-3-1" x="-33.9622641509434%" y="-171.42857142857142%" width="167.9245283018868%" height="442.8571428571429%"><feGaussianBlur stdDeviation="6" result="b"/><feFlood flood-color="rgba(0,0,0,0.04)" in="SourceGraphic" result="f"/><feComposite in="f" in2="b" operator="in"/></filter></defs><g mask="url(#satori_ms-id-0-3-1)" filter="url(#satori_s-id-0-3-1)" opacity="1"><path x="308" y="78" width="106" height="21" fill="#fff" stroke="#fff" stroke-width="0" d="M318.5,78 h85 a10.5,10.5 0 0 1 10.5,10.5 v0 a10.5,10.5 0 0 1 -10.5,10.5 h-85 a10.5,10.5 0 0 1 -10.5,-10.5 v0 a10.5,10.5 0 0 1 10.5,-10.5"/></g><mask id="satori_ms-id-0-3-0" maskUnits="userSpaceOnUse"><rect x="0" y="0" width="540" height="420" fill="#fff"/><path x="308" y="74" width="106" height="21" fill="#000"  stroke-width="0" d="M318.5,74 h85 a10.5,10.5 0 0 1 10.5,10.5 v0 a10.5,10.5 0 0 1 -10.5,10.5 h-85 a10.5,10.5 0 0 1 -10.5,-10.5 v0 a10.5,10.5 0 0 1 10.5,-10.5"/></mask><defs><filter id="satori_s-id-0-3-0" x="-0.9433962264150944%" y="-4.761904761904762%" width="101.88679245283019%" height="109.52380952380953%"><feGaussianBlur stdDeviation="1" result="b"/><feFlood flood-color="rgba(0,0,0,0.03)" in="SourceGraphic" result="f"/><feComposite in="f" in2="b" operator="in"/></filter></defs><g mask="url(#satori_ms-id-0-3-0)" filter="url(#satori_s-id-0-3-0)" opacity="1"><path x="308" y="75" width="106" height="21" fill="#fff" stroke="#fff" stroke-width="0" d="M318.5,75 h85 a10.5,10.5 0 0 1 10.5,10.5 v0 a10.5,10.5 0 0 1 -10.5,10.5 h-85 a10.5,10.5 0 0 1 -10.5,-10.5 v0 a10.5,10.5 0 0 1 10.5,-10.5"/></g><mask id="satori_om-id-0-3"><rect x="308" y="74" width="106" height="21" fill="#fff"/></mask><path x="308" y="74" width="106" height="21" fill="#fff" d="M318.5,74 h85 a10.5,10.5 0 0 1 10.5,10.5 v0 a10.5,10.5 0 0 1 -10.5,10.5 h-85 a10.5,10.5 0 0 1 -10.5,-10.5 v0 a10.5,10.5 0 0 1 10.5,-10.5"/><g  ><path fill="#1a1a1a" d="M322.0 89L318.8 89L318.8 81.0L321.9 81.0Q322.7 81.0 323.3 81.3Q323.9 81.5 324.2 82.0Q324.5 82.5 324.5 83.1L324.5 83.1Q324.5 83.6 324.3 83.9Q324.1 84.3 323.8 84.5Q323.4 84.7 323.1 84.8L323.1 84.8L323.1 84.9Q323.5 84.9 323.9 85.1Q324.3 85.4 324.5 85.8Q324.8 86.2 324.8 86.8L324.8 86.8Q324.8 87.4 324.5 87.9Q324.2 88.4 323.6 88.7Q323.0 89 322.0 89L322.0 89ZM320.2 85.4L320.2 87.8L321.8 87.8Q322.6 87.8 323.0 87.5Q323.3 87.2 323.3 86.7L323.3 86.7Q323.3 86.4 323.1 86.1Q323.0 85.8 322.6 85.6Q322.3 85.4 321.9 85.4L321.9 85.4L320.2 85.4ZM320.2 82.2L320.2 84.4L321.7 84.4Q322.1 84.4 322.4 84.3Q322.7 84.1 322.8 83.9Q323.0 83.6 323.0 83.3L323.0 83.3Q323.0 82.8 322.7 82.5Q322.4 82.2 321.7 82.2L321.7 82.2L320.2 82.2ZM326.0 81.0L327.4 81.0L327.4 89L326.0 89L326.0 81.0ZM331.5 89.1L331.5 89.1Q330.6 89.1 330.0 88.7Q329.3 88.3 329.0 87.6Q328.6 87.0 328.6 86.0L328.6 86.0Q328.6 85.1 329.0 84.4Q329.3 83.7 330.0 83.3Q330.6 82.9 331.5 82.9L331.5 82.9Q332.4 82.9 333.0 83.3Q333.6 83.7 334.0 84.4Q334.3 85.1 334.3 86.0L334.3 86.0Q334.3 87.0 334.0 87.6Q333.6 88.3 333.0 88.7Q332.4 89.1 331.5 89.1ZM331.5 88.0L331.5 88.0Q332.0 88.0 332.3 87.7Q332.6 87.5 332.8 87.0Q332.9 86.6 332.9 86.0L332.9 86.0Q332.9 85.5 332.8 85.0Q332.6 84.6 332.3 84.3Q332.0 84.1 331.5 84.1L331.5 84.1Q331.0 84.1 330.7 84.3Q330.3 84.6 330.2 85.0Q330.0 85.5 330.0 86.0L330.0 86.0Q330.0 86.6 330.2 87.0Q330.3 87.5 330.7 87.7Q331.0 88.0 331.5 88.0ZM338.2 89.1L338.2 89.1Q337.3 89.1 336.7 88.7Q336.0 88.3 335.7 87.6Q335.3 87.0 335.3 86.0L335.3 86.0Q335.3 85.1 335.7 84.4Q336.0 83.7 336.7 83.3Q337.3 82.9 338.2 82.9L338.2 82.9Q338.7 82.9 339.1 83.0Q339.5 83.2 339.9 83.4Q340.2 83.7 340.4 84.0Q340.7 84.4 340.8 84.8L340.8 84.8L339.5 85.1Q339.4 84.8 339.3 84.7Q339.2 84.5 339.0 84.3Q338.9 84.2 338.6 84.1Q338.4 84.1 338.2 84.1L338.2 84.1Q337.7 84.1 337.4 84.3Q337.1 84.6 336.9 85.0Q336.7 85.5 336.7 86.0L336.7 86.0Q336.7 86.6 336.9 87.0Q337.1 87.5 337.4 87.7Q337.7 88.0 338.2 88.0L338.2 88.0Q338.4 88.0 338.7 87.9Q338.9 87.8 339.0 87.7Q339.2 87.6 339.3 87.4Q339.4 87.2 339.5 86.9L339.5 86.9L340.8 87.2Q340.7 87.6 340.5 88.0Q340.2 88.4 339.9 88.6Q339.5 88.9 339.1 89.0Q338.7 89.1 338.2 89.1ZM343.4 89L342.0 89L342.0 81.0L343.4 81.0L343.4 85.4L343.5 85.4L345.6 83.0L347.3 83.0L344.9 85.6L347.4 89L345.7 89L343.9 86.4L343.4 87.0L343.4 89Z M352.6 83.0L353.8 83.0L353.8 84.1L352.6 84.1L352.6 87.3Q352.6 87.6 352.8 87.8Q352.9 87.9 353.2 87.9L353.2 87.9Q353.3 87.9 353.5 87.9Q353.6 87.9 353.7 87.9L353.7 87.9L354.0 89.0Q353.7 89.0 353.5 89.1Q353.2 89.1 353.0 89.1L353.0 89.1Q352.2 89.1 351.7 88.7Q351.2 88.2 351.2 87.4L351.2 87.4L351.2 84.1L350.4 84.1L350.4 83.0L351.2 83.0L351.2 81.6L352.6 81.6L352.6 83.0ZM357.5 89.1L357.5 89.1Q356.6 89.1 356.0 88.7Q355.3 88.4 355.0 87.7Q354.6 87.0 354.6 86.0L354.6 86.0Q354.6 85.1 355.0 84.4Q355.3 83.7 356.0 83.3Q356.6 82.9 357.5 82.9L357.5 82.9Q358.0 82.9 358.5 83.1Q359.0 83.3 359.4 83.6Q359.8 84.0 360.0 84.6Q360.2 85.2 360.2 85.9L360.2 85.9L360.2 86.4L356.0 86.4Q356.0 86.9 356.2 87.2L356.2 87.2Q356.4 87.6 356.8 87.8Q357.1 88.0 357.6 88.0L357.6 88.0Q357.9 88.0 358.1 87.9Q358.4 87.9 358.6 87.7Q358.7 87.5 358.8 87.2L358.8 87.2L360.1 87.5Q360.0 88.0 359.6 88.4Q359.3 88.7 358.7 88.9Q358.2 89.1 357.5 89.1ZM356.0 85.4L356.0 85.4L358.8 85.4Q358.8 85.1 358.7 84.8L358.7 84.8Q358.5 84.4 358.2 84.2Q357.9 84.0 357.5 84.0Q357.0 84.0 356.7 84.2Q356.4 84.5 356.2 84.8L356.2 84.8Q356.1 85.1 356.0 85.4ZM362.8 89L361.4 89L361.4 83.0L362.7 83.0L362.8 84.1Q362.9 83.8 363.1 83.6L363.1 83.6Q363.3 83.2 363.7 83.1Q364.1 82.9 364.5 82.9L364.5 82.9Q365.1 82.9 365.5 83.3L365.5 83.3Q365.8 83.6 366.0 84.2L366.0 84.2Q366.1 83.9 366.3 83.6L366.3 83.6Q366.6 83.3 367.0 83.1Q367.4 82.9 367.9 82.9L367.9 82.9Q368.5 82.9 368.9 83.1Q369.3 83.4 369.6 83.8Q369.8 84.3 369.8 85.0L369.8 85.0L369.8 89L368.4 89L368.4 85.2Q368.4 84.6 368.1 84.3Q367.8 84.1 367.4 84.1L367.4 84.1Q367.0 84.1 366.8 84.2Q366.6 84.4 366.4 84.6Q366.3 84.9 366.3 85.2L366.3 85.2L366.3 89L364.9 89L364.9 85.1Q364.9 84.6 364.6 84.4Q364.4 84.1 363.9 84.1L363.9 84.1Q363.6 84.1 363.4 84.2Q363.1 84.4 362.9 84.6Q362.8 84.9 362.8 85.3L362.8 85.3L362.8 89ZM372.7 91.2L371.3 91.2L371.3 83.0L372.7 83.0L372.7 84.0L372.8 84.0Q372.9 83.8 373.1 83.5Q373.3 83.3 373.6 83.1Q373.9 82.9 374.5 82.9L374.5 82.9Q375.2 82.9 375.7 83.3Q376.3 83.6 376.6 84.3Q377.0 85.0 377.0 86.0L377.0 86.0Q377.0 87.0 376.6 87.7Q376.3 88.4 375.7 88.7Q375.2 89.1 374.5 89.1L374.5 89.1Q374.0 89.1 373.6 88.9Q373.3 88.8 373.1 88.5Q372.9 88.3 372.8 88.0L372.8 88.0L372.7 88.0L372.7 91.2ZM374.1 88.0L374.1 88.0Q374.6 88.0 374.9 87.7Q375.2 87.4 375.4 87.0Q375.5 86.6 375.5 86.0L375.5 86.0Q375.5 85.4 375.4 85.0Q375.2 84.6 374.9 84.3Q374.6 84.1 374.1 84.1L374.1 84.1Q373.6 84.1 373.3 84.3Q373 84.6 372.8 85.0Q372.7 85.4 372.7 86.0L372.7 86.0Q372.7 86.6 372.8 87.0Q373 87.5 373.3 87.7Q373.6 88.0 374.1 88.0ZM378.2 81.0L379.6 81.0L379.6 89L378.2 89L378.2 81.0ZM382.7 89.1L382.7 89.1Q382.2 89.1 381.7 88.9Q381.2 88.7 381.0 88.3Q380.7 87.9 380.7 87.3L380.7 87.3Q380.7 86.8 380.9 86.5Q381.1 86.1 381.4 85.9Q381.7 85.7 382.2 85.6Q382.6 85.5 383.0 85.5L383.0 85.5Q383.5 85.4 383.8 85.4Q384.2 85.3 384.3 85.3Q384.5 85.2 384.5 85.0L384.5 85.0L384.5 84.9Q384.5 84.6 384.4 84.4Q384.2 84.2 384.0 84.1Q383.8 84.0 383.4 84.0L383.4 84.0Q383.1 84.0 382.8 84.1Q382.6 84.2 382.4 84.4Q382.3 84.6 382.2 84.8L382.2 84.8L380.9 84.5Q381.1 84.0 381.4 83.6Q381.8 83.3 382.3 83.1Q382.8 82.9 383.4 82.9L383.4 82.9Q383.9 82.9 384.3 83.0Q384.7 83.1 385.1 83.4Q385.4 83.6 385.7 84.0Q385.9 84.4 385.9 85.0L385.9 85.0L385.9 89L384.5 89L384.5 88.2L384.5 88.2Q384.4 88.4 384.1 88.6Q383.9 88.9 383.5 89.0Q383.2 89.1 382.7 89.1ZM383.1 88.1L383.1 88.1Q383.5 88.1 383.8 87.9Q384.1 87.7 384.3 87.5Q384.5 87.2 384.5 86.8L384.5 86.8L384.5 86.1Q384.4 86.2 384.3 86.2Q384.1 86.3 383.9 86.3Q383.7 86.4 383.5 86.4Q383.3 86.4 383.2 86.4L383.2 86.4Q382.9 86.5 382.6 86.6Q382.4 86.7 382.2 86.8Q382.1 87.0 382.1 87.3L382.1 87.3Q382.1 87.6 382.2 87.7Q382.3 87.9 382.6 88.0Q382.8 88.1 383.1 88.1ZM389.0 83.0L390.1 83.0L390.1 84.1L389.0 84.1L389.0 87.3Q389.0 87.6 389.1 87.8Q389.3 87.9 389.6 87.9L389.6 87.9Q389.7 87.9 389.8 87.9Q390.0 87.9 390.1 87.9L390.1 87.9L390.3 89.0Q390.1 89.0 389.8 89.1Q389.6 89.1 389.4 89.1L389.4 89.1Q388.5 89.1 388.0 88.7Q387.6 88.2 387.6 87.4L387.6 87.4L387.6 84.1L386.7 84.1L386.7 83.0L387.6 83.0L387.6 81.6L389.0 81.6L389.0 83.0ZM393.9 89.1L393.9 89.1Q393.0 89.1 392.3 88.7Q391.7 88.4 391.3 87.7Q391.0 87.0 391.0 86.0L391.0 86.0Q391.0 85.1 391.3 84.4Q391.7 83.7 392.3 83.3Q392.9 82.9 393.8 82.9L393.8 82.9Q394.4 82.9 394.9 83.1Q395.3 83.3 395.7 83.6Q396.1 84.0 396.3 84.6Q396.6 85.2 396.6 85.9L396.6 85.9L396.6 86.4L392.4 86.4Q392.4 86.9 392.6 87.2L392.6 87.2Q392.8 87.6 393.1 87.8Q393.5 88.0 393.9 88.0L393.9 88.0Q394.2 88.0 394.5 87.9Q394.7 87.9 394.9 87.7Q395.1 87.5 395.2 87.2L395.2 87.2L396.5 87.5Q396.3 88.0 396.0 88.4Q395.6 88.7 395.1 88.9Q394.6 89.1 393.9 89.1ZM392.4 85.4L392.4 85.4L395.2 85.4Q395.2 85.1 395.0 84.8L395.0 84.8Q394.9 84.4 394.6 84.2Q394.3 84.0 393.8 84.0Q393.4 84.0 393.0 84.2Q392.7 84.5 392.5 84.8L392.5 84.8Q392.4 85.1 392.4 85.4ZM400.0 89.1L400.0 89.1Q399.3 89.1 398.8 88.9Q398.3 88.7 397.9 88.3Q397.6 88.0 397.5 87.4L397.5 87.4L398.8 87.2Q398.9 87.6 399.2 87.8Q399.5 88.1 400.0 88.1L400.0 88.1Q400.6 88.1 400.9 87.8Q401.2 87.6 401.2 87.3L401.2 87.3Q401.2 87.1 401.0 86.9Q400.8 86.7 400.4 86.6L400.4 86.6L399.3 86.4Q398.5 86.2 398.1 85.8Q397.6 85.4 397.6 84.7L397.6 84.7Q397.6 84.2 398.0 83.8Q398.3 83.4 398.8 83.1Q399.4 82.9 400.1 82.9L400.1 82.9Q400.8 82.9 401.2 83.1Q401.7 83.3 402.0 83.7Q402.3 84.0 402.5 84.5L402.5 84.5L401.2 84.7Q401.1 84.4 400.8 84.2Q400.6 84.0 400.1 84.0L400.1 84.0Q399.6 84.0 399.3 84.2Q399.0 84.4 399.0 84.7L399.0 84.7Q399.0 84.9 399.2 85.1Q399.4 85.3 399.9 85.4L399.9 85.4L400.9 85.6Q401.8 85.8 402.2 86.2Q402.6 86.6 402.6 87.2L402.6 87.2Q402.6 87.8 402.3 88.2Q401.9 88.6 401.4 88.9Q400.8 89.1 400.0 89.1Z "/></g><mask id="satori_ms-id-0-4-1" maskUnits="userSpaceOnUse"><rect x="0" y="0" width="540" height="420" fill="#fff"/><path x="110" y="326" width="82" height="21" fill="#000"  stroke-width="0" d="M120.5,326 h61 a10.5,10.5 0 0 1 10.5,10.5 v0 a10.5,10.5 0 0 1 -10.5,10.5 h-61 a10.5,10.5 0 0 1 -10.5,-10.5 v0 a10.5,10.5 0 0 1 10.5,-10.5"/></mask><defs><filter id="satori_s-id-0-4-1" x="-43.90243902439025%" y="-171.42857142857142%" width="187.80487804878047%" height="442.8571428571429%"><feGaussianBlur stdDeviation="6" result="b"/><feFlood flood-color="rgba(0,0,0,0.04)" in="SourceGraphic" result="f"/><feComposite in="f" in2="b" operator="in"/></filter></defs><g mask="url(#satori_ms-id-0-4-1)" filter="url(#satori_s-id-0-4-1)" opacity="1"><path x="110" y="330" width="82" height="21" fill="#fff" stroke="#fff" stroke-width="0" d="M120.5,330 h61 a10.5,10.5 0 0 1 10.5,10.5 v0 a10.5,10.5 0 0 1 -10.5,10.5 h-61 a10.5,10.5 0 0 1 -10.5,-10.5 v0 a10.5,10.5 0 0 1 10.5,-10.5"/></g><mask id="satori_ms-id-0-4-0" maskUnits="userSpaceOnUse"><rect x="0" y="0" width="540" height="420" fill="#fff"/><path x="110" y="326" width="82" height="21" fill="#000"  stroke-width="0" d="M120.5,326 h61 a10.5,10.5 0 0 1 10.5,10.5 v0 a10.5,10.5 0 0 1 -10.5,10.5 h-61 a10.5,10.5 0 0 1 -10.5,-10.5 v0 a10.5,10.5 0 0 1 10.5,-10.5"/></mask><defs><filter id="satori_s-id-0-4-0" x="-1.2195121951219512%" y="-4.761904761904762%" width="102.4390243902439%" height="109.52380952380953%"><feGaussianBlur stdDeviation="1" result="b"/><feFlood flood-color="rgba(0,0,0,0.03)" in="SourceGraphic" result="f"/><feComposite in="f" in2="b" operator="in"/></filter></defs><g mask="url(#satori_ms-id-0-4-0)" filter="url(#satori_s-id-0-4-0)" opacity="1"><path x="110" y="327" width="82" height="21" fill="#fff" stroke="#fff" stroke-width="0" d="M120.5,327 h61 a10.5,10.5 0 0 1 10.5,10.5 v0 a10.5,10.5 0 0 1 -10.5,10.5 h-61 a10.5,10.5 0 0 1 -10.5,-10.5 v0 a10.5,10.5 0 0 1 10.5,-10.5"/></g><mask id="satori_om-id-0-4"><rect x="110" y="326" width="82" height="21" fill="#fff"/></mask><path x="110" y="326" width="82" height="21" fill="#fff" d="M120.5,326 h61 a10.5,10.5 0 0 1 10.5,10.5 v0 a10.5,10.5 0 0 1 -10.5,10.5 h-61 a10.5,10.5 0 0 1 -10.5,-10.5 v0 a10.5,10.5 0 0 1 10.5,-10.5"/><g  ><path fill="#1a1a1a" d="M124.2 341.1L124.2 341.1Q123.2 341.1 122.3 340.6Q121.5 340.1 121.0 339.2Q120.6 338.3 120.6 337.0L120.6 337.0Q120.6 335.7 121.0 334.8Q121.5 333.9 122.3 333.4Q123.2 332.9 124.2 332.9L124.2 332.9Q124.9 332.9 125.4 333.1Q126.0 333.3 126.5 333.6Q126.9 334.0 127.2 334.5Q127.5 335.0 127.6 335.7L127.6 335.7L126.1 335.7Q126.1 335.3 125.9 335.0Q125.7 334.8 125.5 334.6Q125.2 334.4 124.9 334.3Q124.6 334.2 124.2 334.2L124.2 334.2Q123.6 334.2 123.1 334.5Q122.6 334.8 122.3 335.5Q122.0 336.1 122.0 337.0L122.0 337.0Q122.0 337.9 122.3 338.6Q122.6 339.2 123.1 339.5Q123.6 339.8 124.2 339.8L124.2 339.8Q124.6 339.8 124.9 339.7Q125.2 339.6 125.5 339.4Q125.7 339.2 125.9 339.0Q126.1 338.7 126.1 338.3L126.1 338.3L127.6 338.3Q127.5 338.9 127.2 339.4Q127.0 339.9 126.5 340.3Q126.1 340.7 125.5 340.9Q124.9 341.1 124.2 341.1ZM131.5 341.1L131.5 341.1Q130.6 341.1 129.9 340.7Q129.3 340.3 128.9 339.6Q128.6 339.0 128.6 338.0L128.6 338.0Q128.6 337.1 128.9 336.4Q129.3 335.7 129.9 335.3Q130.6 334.9 131.5 334.9L131.5 334.9Q132.3 334.9 133.0 335.3Q133.6 335.7 134.0 336.4Q134.3 337.1 134.3 338.0L134.3 338.0Q134.3 339.0 134.0 339.6Q133.6 340.3 133.0 340.7Q132.3 341.1 131.5 341.1ZM131.5 340.0L131.5 340.0Q131.9 340.0 132.3 339.7Q132.6 339.5 132.7 339.0Q132.9 338.6 132.9 338.0L132.9 338.0Q132.9 337.5 132.7 337.0Q132.6 336.6 132.3 336.3Q131.9 336.1 131.5 336.1L131.5 336.1Q131.0 336.1 130.6 336.3Q130.3 336.6 130.2 337.0Q130.0 337.5 130.0 338.0L130.0 338.0Q130.0 338.6 130.2 339.0Q130.3 339.5 130.6 339.7Q131.0 340.0 131.5 340.0ZM136.9 337.5L136.9 337.5L136.9 341L135.5 341L135.5 335.0L136.9 335.0L136.9 336.2Q137.1 335.6 137.5 335.3L137.5 335.3Q138.0 334.9 138.7 334.9L138.7 334.9Q139.4 334.9 139.8 335.2Q140.3 335.4 140.5 336.0Q140.8 336.5 140.8 337.2L140.8 337.2L140.8 341L139.4 341L139.4 337.4Q139.4 336.8 139.1 336.5Q138.8 336.1 138.2 336.1L138.2 336.1Q137.9 336.1 137.6 336.3Q137.3 336.4 137.1 336.7Q136.9 337.0 136.9 337.5ZM144.5 341.1L144.5 341.1Q143.9 341.1 143.3 340.9Q142.8 340.7 142.4 340.3Q142.1 340.0 142.0 339.4L142.0 339.4L143.3 339.2Q143.4 339.6 143.7 339.8Q144.1 340.1 144.6 340.1L144.6 340.1Q145.1 340.1 145.4 339.8Q145.7 339.6 145.7 339.3L145.7 339.3Q145.7 339.1 145.5 338.9Q145.3 338.7 144.9 338.6L144.9 338.6L143.9 338.4Q143.0 338.2 142.6 337.8Q142.2 337.4 142.2 336.7L142.2 336.7Q142.2 336.2 142.5 335.8Q142.8 335.4 143.3 335.1Q143.9 334.9 144.6 334.9L144.6 334.9Q145.3 334.9 145.8 335.1Q146.3 335.3 146.6 335.7Q146.9 336.0 147.0 336.5L147.0 336.5L145.7 336.7Q145.6 336.4 145.4 336.2Q145.1 336.0 144.6 336.0L144.6 336.0Q144.2 336.0 143.9 336.2Q143.6 336.4 143.6 336.7L143.6 336.7Q143.6 336.9 143.8 337.1Q144.0 337.3 144.4 337.4L144.4 337.4L145.4 337.6Q146.3 337.8 146.7 338.2Q147.1 338.6 147.1 339.2L147.1 339.2Q147.1 339.8 146.8 340.2Q146.5 340.6 145.9 340.9Q145.3 341.1 144.5 341.1ZM149.9 335.0L151.1 335.0L151.1 336.1L149.9 336.1L149.9 339.3Q149.9 339.6 150.1 339.8Q150.2 339.9 150.5 339.9L150.5 339.9Q150.6 339.9 150.8 339.9Q150.9 339.9 151.0 339.9L151.0 339.9L151.3 341.0Q151.0 341.0 150.8 341.1Q150.5 341.1 150.3 341.1L150.3 341.1Q149.5 341.1 149.0 340.7Q148.5 340.2 148.5 339.4L148.5 339.4L148.5 336.1L147.7 336.1L147.7 335.0L148.5 335.0L148.5 333.6L149.9 333.6L149.9 335.0ZM153.6 341L152.2 341L152.2 335.0L153.6 335.0L153.6 336.0L153.6 336.0Q153.8 335.5 154.2 335.2Q154.6 334.9 155.1 334.9L155.1 334.9Q155.2 334.9 155.4 334.9Q155.5 334.9 155.6 335.0L155.6 335.0L155.6 336.2Q155.5 336.2 155.3 336.2Q155.1 336.2 154.9 336.2L154.9 336.2Q154.6 336.2 154.3 336.3Q153.9 336.5 153.8 336.8Q153.6 337.1 153.6 337.5L153.6 337.5L153.6 341ZM158.2 341.1L158.2 341.1Q157.7 341.1 157.2 340.9Q156.8 340.7 156.5 340.3Q156.2 339.9 156.2 339.3L156.2 339.3Q156.2 338.8 156.4 338.5Q156.6 338.1 156.9 337.9Q157.3 337.7 157.7 337.6Q158.1 337.5 158.5 337.5L158.5 337.5Q159.0 337.4 159.4 337.4Q159.7 337.3 159.9 337.3Q160.0 337.2 160.0 337.0L160.0 337.0L160.0 336.9Q160.0 336.6 159.9 336.4Q159.8 336.2 159.5 336.1Q159.3 336.0 159.0 336.0L159.0 336.0Q158.6 336.0 158.4 336.1Q158.1 336.2 157.9 336.4Q157.8 336.6 157.7 336.8L157.7 336.8L156.4 336.5Q156.6 336.0 157.0 335.6Q157.3 335.3 157.8 335.1Q158.3 334.9 159.0 334.9L159.0 334.9Q159.4 334.9 159.8 335.0Q160.2 335.1 160.6 335.4Q161.0 335.6 161.2 336.0Q161.4 336.4 161.4 337.0L161.4 337.0L161.4 341L160.1 341L160.1 340.2L160.0 340.2Q159.9 340.4 159.6 340.6Q159.4 340.9 159.1 341.0Q158.7 341.1 158.2 341.1ZM158.6 340.1L158.6 340.1Q159.0 340.1 159.4 339.9Q159.7 339.7 159.8 339.5Q160.0 339.2 160.0 338.8L160.0 338.8L160.0 338.1Q159.9 338.2 159.8 338.2Q159.6 338.3 159.4 338.3Q159.2 338.4 159.0 338.4Q158.8 338.4 158.7 338.4L158.7 338.4Q158.4 338.5 158.1 338.6Q157.9 338.7 157.7 338.8Q157.6 339.0 157.6 339.3L157.6 339.3Q157.6 339.6 157.7 339.7Q157.9 339.9 158.1 340.0Q158.3 340.1 158.6 340.1ZM164.3 341L162.9 341L162.9 335.0L164.3 335.0L164.3 341ZM163.6 334.1L163.6 334.1Q163.2 334.1 163.0 333.9Q162.8 333.7 162.8 333.4L162.8 333.4Q162.8 333.1 163.0 332.8Q163.2 332.6 163.6 332.6L163.6 332.6Q163.9 332.6 164.2 332.8Q164.4 333.1 164.4 333.4L164.4 333.4Q164.4 333.7 164.2 333.9Q163.9 334.1 163.6 334.1ZM167.2 337.5L167.2 337.5L167.2 341L165.8 341L165.8 335.0L167.1 335.0L167.1 336.2Q167.3 335.6 167.7 335.3L167.7 335.3Q168.2 334.9 169.0 334.9L169.0 334.9Q169.6 334.9 170.0 335.2Q170.5 335.4 170.8 336.0Q171.0 336.5 171.0 337.2L171.0 337.2L171.0 341L169.6 341L169.6 337.4Q169.6 336.8 169.3 336.5Q169.0 336.1 168.4 336.1L168.4 336.1Q168.1 336.1 167.8 336.3Q167.5 336.4 167.3 336.7Q167.2 337.0 167.2 337.5ZM174.1 335.0L175.3 335.0L175.3 336.1L174.1 336.1L174.1 339.3Q174.1 339.6 174.2 339.8Q174.4 339.9 174.7 339.9L174.7 339.9Q174.8 339.9 175.0 339.9Q175.1 339.9 175.2 339.9L175.2 339.9L175.4 341.0Q175.2 341.0 175.0 341.1Q174.7 341.1 174.5 341.1L174.5 341.1Q173.6 341.1 173.2 340.7Q172.7 340.2 172.7 339.4L172.7 339.4L172.7 336.1L171.9 336.1L171.9 335.0L172.7 335.0L172.7 333.6L174.1 333.6L174.1 335.0ZM178.6 341.1L178.6 341.1Q178.0 341.1 177.4 340.9Q176.9 340.7 176.5 340.3Q176.2 340.0 176.1 339.4L176.1 339.4L177.4 339.2Q177.5 339.6 177.8 339.8Q178.2 340.1 178.7 340.1L178.7 340.1Q179.2 340.1 179.5 339.8Q179.8 339.6 179.8 339.3L179.8 339.3Q179.8 339.1 179.6 338.9Q179.4 338.7 179.0 338.6L179.0 338.6L178.0 338.4Q177.1 338.2 176.7 337.8Q176.3 337.4 176.3 336.7L176.3 336.7Q176.3 336.2 176.6 335.8Q176.9 335.4 177.4 335.1Q178.0 334.9 178.7 334.9L178.7 334.9Q179.4 334.9 179.9 335.1Q180.4 335.3 180.7 335.7Q181.0 336.0 181.1 336.5L181.1 336.5L179.8 336.7Q179.7 336.4 179.5 336.2Q179.2 336.0 178.7 336.0L178.7 336.0Q178.3 336.0 178.0 336.2Q177.7 336.4 177.7 336.7L177.7 336.7Q177.7 336.9 177.9 337.1Q178.1 337.3 178.5 337.4L178.5 337.4L179.5 337.6Q180.4 337.8 180.8 338.2Q181.2 338.6 181.2 339.2L181.2 339.2Q181.2 339.8 180.9 340.2Q180.6 340.6 180.0 340.9Q179.4 341.1 178.6 341.1Z "/></g><mask id="satori_ms-id-0-5-1" maskUnits="userSpaceOnUse"><rect x="0" y="0" width="540" height="420" fill="#fff"/><path x="314" y="324" width="115" height="21" fill="#000"  stroke-width="0" d="M324.5,324 h94 a10.5,10.5 0 0 1 10.5,10.5 v0 a10.5,10.5 0 0 1 -10.5,10.5 h-94 a10.5,10.5 0 0 1 -10.5,-10.5 v0 a10.5,10.5 0 0 1 10.5,-10.5"/></mask><defs><filter id="satori_s-id-0-5-1" x="-31.30434782608696%" y="-171.42857142857142%" width="162.6086956521739%" height="442.8571428571429%"><feGaussianBlur stdDeviation="6" result="b"/><feFlood flood-color="rgba(0,0,0,0.04)" in="SourceGraphic" result="f"/><feComposite in="f" in2="b" operator="in"/></filter></defs><g mask="url(#satori_ms-id-0-5-1)" filter="url(#satori_s-id-0-5-1)" opacity="1"><path x="314" y="328" width="115" height="21" fill="#fff" stroke="#fff" stroke-width="0" d="M324.5,328 h94 a10.5,10.5 0 0 1 10.5,10.5 v0 a10.5,10.5 0 0 1 -10.5,10.5 h-94 a10.5,10.5 0 0 1 -10.5,-10.5 v0 a10.5,10.5 0 0 1 10.5,-10.5"/></g><mask id="satori_ms-id-0-5-0" maskUnits="userSpaceOnUse"><rect x="0" y="0" width="540" height="420" fill="#fff"/><path x="314" y="324" width="115" height="21" fill="#000"  stroke-width="0" d="M324.5,324 h94 a10.5,10.5 0 0 1 10.5,10.5 v0 a10.5,10.5 0 0 1 -10.5,10.5 h-94 a10.5,10.5 0 0 1 -10.5,-10.5 v0 a10.5,10.5 0 0 1 10.5,-10.5"/></mask><defs><filter id="satori_s-id-0-5-0" x="-0.8695652173913043%" y="-4.761904761904762%" width="101.7391304347826%" height="109.52380952380953%"><feGaussianBlur stdDeviation="1" result="b"/><feFlood flood-color="rgba(0,0,0,0.03)" in="SourceGraphic" result="f"/><feComposite in="f" in2="b" operator="in"/></filter></defs><g mask="url(#satori_ms-id-0-5-0)" filter="url(#satori_s-id-0-5-0)" opacity="1"><path x="314" y="325" width="115" height="21" fill="#fff" stroke="#fff" stroke-width="0" d="M324.5,325 h94 a10.5,10.5 0 0 1 10.5,10.5 v0 a10.5,10.5 0 0 1 -10.5,10.5 h-94 a10.5,10.5 0 0 1 -10.5,-10.5 v0 a10.5,10.5 0 0 1 10.5,-10.5"/></g><mask id="satori_om-id-0-5"><rect x="314" y="324" width="115" height="21" fill="#fff"/></mask><path x="314" y="324" width="115" height="21" fill="#fff" d="M324.5,324 h94 a10.5,10.5 0 0 1 10.5,10.5 v0 a10.5,10.5 0 0 1 -10.5,10.5 h-94 a10.5,10.5 0 0 1 -10.5,-10.5 v0 a10.5,10.5 0 0 1 10.5,-10.5"/><g  ><path fill="#1a1a1a" d="M327.6 339.1L327.6 339.1Q326.7 339.1 326.0 338.8Q325.3 338.5 324.9 338.0Q324.5 337.4 324.5 336.6L324.5 336.6L325.9 336.6Q326.0 337.1 326.2 337.3Q326.4 337.6 326.8 337.8Q327.2 337.9 327.6 337.9L327.6 337.9Q328.1 337.9 328.4 337.8Q328.8 337.6 329.0 337.3Q329.2 337.1 329.2 336.7L329.2 336.7Q329.2 336.4 329.0 336.2Q328.9 336.0 328.5 335.9Q328.2 335.7 327.8 335.6L327.8 335.6L326.9 335.4Q325.9 335.1 325.3 334.6Q324.7 334.1 324.7 333.2L324.7 333.2Q324.7 332.5 325.1 332.0Q325.5 331.5 326.2 331.2Q326.8 330.9 327.7 330.9L327.7 330.9Q328.5 330.9 329.2 331.2Q329.8 331.5 330.2 332.0Q330.5 332.5 330.5 333.2L330.5 333.2L329.1 333.2Q329.1 332.7 328.7 332.4Q328.3 332.1 327.6 332.1L327.6 332.1Q327.2 332.1 326.9 332.2Q326.5 332.4 326.4 332.6Q326.2 332.9 326.2 333.2L326.2 333.2Q326.2 333.5 326.4 333.7Q326.6 333.9 326.9 334.1Q327.2 334.2 327.5 334.3L327.5 334.3L328.3 334.5Q328.7 334.6 329.2 334.7Q329.6 334.9 329.9 335.2Q330.2 335.5 330.4 335.8Q330.6 336.2 330.6 336.8L330.6 336.8Q330.6 337.5 330.3 338.0Q329.9 338.5 329.2 338.8Q328.6 339.1 327.6 339.1ZM333.3 339L331.9 339L331.9 333.0L333.3 333.0L333.3 339ZM332.6 332.1L332.6 332.1Q332.3 332.1 332.0 331.9Q331.8 331.7 331.8 331.4L331.8 331.4Q331.8 331.1 332.0 330.8Q332.3 330.6 332.6 330.6L332.6 330.6Q332.9 330.6 333.2 330.8Q333.4 331.1 333.4 331.4L333.4 331.4Q333.4 331.7 333.2 331.9Q332.9 332.1 332.6 332.1ZM336.4 333.0L337.6 333.0L337.6 334.1L336.4 334.1L336.4 337.3Q336.4 337.6 336.5 337.8Q336.7 337.9 337.0 337.9L337.0 337.9Q337.1 337.9 337.2 337.9Q337.4 337.9 337.5 337.9L337.5 337.9L337.7 339.0Q337.5 339.0 337.2 339.1Q337.0 339.1 336.8 339.1L336.8 339.1Q335.9 339.1 335.5 338.7Q335.0 338.2 335.0 337.4L335.0 337.4L335.0 334.1L334.1 334.1L334.1 333.0L335.0 333.0L335.0 331.6L336.4 331.6L336.4 333.0ZM341.3 339.1L341.3 339.1Q340.4 339.1 339.8 338.7Q339.1 338.4 338.7 337.7Q338.4 337.0 338.4 336.0L338.4 336.0Q338.4 335.1 338.7 334.4Q339.1 333.7 339.7 333.3Q340.4 332.9 341.2 332.9L341.2 332.9Q341.8 332.9 342.3 333.1Q342.8 333.3 343.1 333.6Q343.5 334.0 343.7 334.6Q344.0 335.2 344.0 335.9L344.0 335.9L344.0 336.4L339.8 336.4Q339.8 336.9 340.0 337.2L340.0 337.2Q340.2 337.6 340.5 337.8Q340.9 338.0 341.3 338.0L341.3 338.0Q341.6 338.0 341.9 337.9Q342.1 337.9 342.3 337.7Q342.5 337.5 342.6 337.2L342.6 337.2L343.9 337.5Q343.7 338.0 343.4 338.4Q343.0 338.7 342.5 338.9Q342.0 339.1 341.3 339.1ZM339.8 335.4L339.8 335.4L342.6 335.4Q342.6 335.1 342.5 334.8L342.5 334.8Q342.3 334.4 342.0 334.2Q341.7 334.0 341.2 334.0Q340.8 334.0 340.4 334.2Q340.1 334.5 340.0 334.8L340.0 334.8Q339.8 335.1 339.8 335.4Z M349.3 339L347.9 339L347.9 333.0L349.3 333.0L349.3 334.0L349.4 334.0Q349.5 333.5 349.9 333.2Q350.3 332.9 350.8 332.9L350.8 332.9Q351.0 332.9 351.1 332.9Q351.2 332.9 351.3 333.0L351.3 333.0L351.3 334.2Q351.3 334.2 351.1 334.2Q350.9 334.2 350.7 334.2L350.7 334.2Q350.3 334.2 350.0 334.3Q349.7 334.5 349.5 334.8Q349.3 335.1 349.3 335.5L349.3 335.5L349.3 339ZM355.0 339.1L355.0 339.1Q354.0 339.1 353.4 338.7Q352.7 338.4 352.4 337.7Q352.0 337.0 352.0 336.0L352.0 336.0Q352.0 335.1 352.4 334.4Q352.7 333.7 353.4 333.3Q354.0 332.9 354.9 332.9L354.9 332.9Q355.4 332.9 355.9 333.1Q356.4 333.3 356.8 333.6Q357.2 334.0 357.4 334.6Q357.6 335.2 357.6 335.9L357.6 335.9L357.6 336.4L353.4 336.4Q353.4 336.9 353.6 337.2L353.6 337.2Q353.8 337.6 354.2 337.8Q354.5 338.0 355.0 338.0L355.0 338.0Q355.3 338.0 355.5 337.9Q355.8 337.9 356.0 337.7Q356.1 337.5 356.2 337.2L356.2 337.2L357.5 337.5Q357.4 338.0 357.0 338.4Q356.7 338.7 356.1 338.9Q355.6 339.1 355.0 339.1ZM353.4 335.4L353.4 335.4L356.2 335.4Q356.2 335.1 356.1 334.8L356.1 334.8Q355.9 334.4 355.6 334.2Q355.3 334.0 354.9 334.0Q354.4 334.0 354.1 334.2Q353.8 334.5 353.6 334.8L353.6 334.8Q353.5 335.1 353.4 335.4ZM364.2 333.0L364.2 341.2L362.8 341.2L362.8 338.0L362.7 338.0Q362.6 338.3 362.4 338.5Q362.2 338.8 361.9 338.9Q361.5 339.1 361.0 339.1L361.0 339.1Q360.3 339.1 359.7 338.7Q359.2 338.4 358.9 337.7Q358.5 337.0 358.5 336.0L358.5 336.0Q358.5 335.0 358.9 334.3Q359.2 333.6 359.8 333.3Q360.3 332.9 361.0 332.9L361.0 332.9Q361.5 332.9 361.9 333.1Q362.2 333.3 362.4 333.5Q362.6 333.8 362.7 334.0L362.7 334.0L362.8 334.0L362.8 333.0L364.2 333.0ZM361.4 338.0L361.4 338.0Q361.9 338.0 362.2 337.7Q362.5 337.5 362.7 337.0Q362.8 336.6 362.8 336.0L362.8 336.0Q362.8 335.4 362.7 335.0Q362.5 334.6 362.2 334.3Q361.9 334.1 361.4 334.1L361.4 334.1Q360.9 334.1 360.6 334.3Q360.3 334.6 360.1 335.0Q360.0 335.4 360.0 336.0L360.0 336.0Q360.0 336.6 360.1 337.0Q360.3 337.4 360.6 337.7Q360.9 338.0 361.4 338.0ZM367.7 339.1L367.7 339.1Q367.1 339.1 366.6 338.8Q366.2 338.5 365.9 338.0Q365.7 337.5 365.7 336.8L365.7 336.8L365.7 333.0L367.1 333.0L367.1 336.6Q367.1 337.2 367.4 337.5Q367.7 337.9 368.2 337.9L368.2 337.9Q368.6 337.9 368.9 337.7Q369.2 337.6 369.4 337.3Q369.5 336.9 369.5 336.5L369.5 336.5L369.5 333.0L370.9 333.0L370.9 339L369.6 339L369.6 337.8Q369.3 338.4 368.9 338.7L368.9 338.7Q368.4 339.1 367.7 339.1ZM373.8 339L372.4 339L372.4 333.0L373.8 333.0L373.8 339ZM373.1 332.1L373.1 332.1Q372.8 332.1 372.5 331.9Q372.3 331.7 372.3 331.4L372.3 331.4Q372.3 331.1 372.5 330.8Q372.8 330.6 373.1 330.6L373.1 330.6Q373.4 330.6 373.7 330.8Q373.9 331.1 373.9 331.4L373.9 331.4Q373.9 331.7 373.7 331.9Q373.4 332.1 373.1 332.1ZM376.7 339L375.3 339L375.3 333.0L376.6 333.0L376.6 334.0L376.7 334.0Q376.9 333.5 377.3 333.2Q377.7 332.9 378.2 332.9L378.2 332.9Q378.3 332.9 378.4 332.9Q378.6 332.9 378.7 333.0L378.7 333.0L378.7 334.2Q378.6 334.2 378.4 334.2Q378.2 334.2 378.0 334.2L378.0 334.2Q377.6 334.2 377.3 334.3Q377.0 334.5 376.9 334.8Q376.7 335.1 376.7 335.5L376.7 335.5L376.7 339ZM382.3 339.1L382.3 339.1Q381.4 339.1 380.7 338.7Q380.1 338.4 379.7 337.7Q379.4 337.0 379.4 336.0L379.4 336.0Q379.4 335.1 379.7 334.4Q380.1 333.7 380.7 333.3Q381.4 332.9 382.2 332.9L382.2 332.9Q382.8 332.9 383.3 333.1Q383.8 333.3 384.1 333.6Q384.5 334.0 384.7 334.6Q385.0 335.2 385.0 335.9L385.0 335.9L385.0 336.4L380.8 336.4Q380.8 336.9 381.0 337.2L381.0 337.2Q381.2 337.6 381.5 337.8Q381.9 338.0 382.3 338.0L382.3 338.0Q382.6 338.0 382.9 337.9Q383.1 337.9 383.3 337.7Q383.5 337.5 383.6 337.2L383.6 337.2L384.9 337.5Q384.7 338.0 384.4 338.4Q384.0 338.7 383.5 338.9Q383.0 339.1 382.3 339.1ZM380.8 335.4L380.8 335.4L383.6 335.4Q383.6 335.1 383.5 334.8L383.5 334.8Q383.3 334.4 383.0 334.2Q382.7 334.0 382.2 334.0Q381.8 334.0 381.4 334.2Q381.1 334.5 380.9 334.8L380.9 334.8Q380.8 335.1 380.8 335.4ZM387.6 339L386.2 339L386.2 333.0L387.5 333.0L387.5 334.1Q387.6 333.8 387.8 333.6L387.8 333.6Q388.1 333.2 388.5 333.1Q388.8 332.9 389.2 332.9L389.2 332.9Q389.9 332.9 390.3 333.3L390.3 333.3Q390.6 333.6 390.8 334.2L390.8 334.2Q390.9 333.9 391.1 333.6L391.1 333.6Q391.4 333.3 391.8 333.1Q392.2 332.9 392.7 332.9L392.7 332.9Q393.2 332.9 393.6 333.1Q394.1 333.4 394.3 333.8Q394.6 334.3 394.6 335.0L394.6 335.0L394.6 339L393.2 339L393.2 335.2Q393.2 334.6 392.9 334.3Q392.6 334.1 392.1 334.1L392.1 334.1Q391.8 334.1 391.6 334.2Q391.3 334.4 391.2 334.6Q391.0 334.9 391.0 335.2L391.0 335.2L391.0 339L389.7 339L389.7 335.1Q389.7 334.6 389.4 334.4Q389.1 334.1 388.7 334.1L388.7 334.1Q388.4 334.1 388.1 334.2Q387.9 334.4 387.7 334.6Q387.6 334.9 387.6 335.3L387.6 335.3L387.6 339ZM398.7 339.1L398.7 339.1Q397.8 339.1 397.2 338.7Q396.5 338.4 396.1 337.7Q395.8 337.0 395.8 336.0L395.8 336.0Q395.8 335.1 396.1 334.4Q396.5 333.7 397.1 333.3Q397.8 332.9 398.6 332.9L398.6 332.9Q399.2 332.9 399.7 333.1Q400.2 333.3 400.5 333.6Q400.9 334.0 401.1 334.6Q401.4 335.2 401.4 335.9L401.4 335.9L401.4 336.4L397.2 336.4Q397.2 336.9 397.4 337.2L397.4 337.2Q397.6 337.6 397.9 337.8Q398.3 338.0 398.7 338.0L398.7 338.0Q399.0 338.0 399.3 337.9Q399.5 337.9 399.7 337.7Q399.9 337.5 400.0 337.2L400.0 337.2L401.3 337.5Q401.1 338.0 400.8 338.4Q400.4 338.7 399.9 338.9Q399.4 339.1 398.7 339.1ZM397.2 335.4L397.2 335.4L400.0 335.4Q400.0 335.1 399.9 334.8L399.9 334.8Q399.7 334.4 399.4 334.2Q399.1 334.0 398.6 334.0Q398.2 334.0 397.8 334.2Q397.5 334.5 397.4 334.8L397.4 334.8Q397.2 335.1 397.2 335.4ZM404.0 335.5L404.0 335.5L404.0 339L402.6 339L402.6 333.0L403.9 333.0L403.9 334.2Q404.1 333.6 404.5 333.3L404.5 333.3Q405.0 332.9 405.8 332.9L405.8 332.9Q406.4 332.9 406.8 333.2Q407.3 333.4 407.6 334.0Q407.8 334.5 407.8 335.2L407.8 335.2L407.8 339L406.4 339L406.4 335.4Q406.4 334.8 406.1 334.5Q405.8 334.1 405.2 334.1L405.2 334.1Q404.9 334.1 404.6 334.3Q404.3 334.4 404.1 334.7Q404.0 335.0 404.0 335.5ZM410.9 333.0L412.1 333.0L412.1 334.1L410.9 334.1L410.9 337.3Q410.9 337.6 411.0 337.8Q411.2 337.9 411.5 337.9L411.5 337.9Q411.6 337.9 411.8 337.9Q411.9 337.9 412.0 337.9L412.0 337.9L412.2 339.0Q412.0 339.0 411.8 339.1Q411.5 339.1 411.3 339.1L411.3 339.1Q410.4 339.1 410.0 338.7Q409.5 338.2 409.5 337.4L409.5 337.4L409.5 334.1L408.7 334.1L408.7 333.0L409.5 333.0L409.5 331.6L410.9 331.6L410.9 333.0ZM415.4 339.1L415.4 339.1Q414.8 339.1 414.2 338.9Q413.7 338.7 413.4 338.3Q413.0 338.0 412.9 337.4L412.9 337.4L414.2 337.2Q414.3 337.6 414.7 337.8Q415.0 338.1 415.5 338.1L415.5 338.1Q416.0 338.1 416.3 337.8Q416.6 337.6 416.6 337.3L416.6 337.3Q416.6 337.1 416.4 336.9Q416.2 336.7 415.8 336.6L415.8 336.6L414.8 336.4Q413.9 336.2 413.5 335.8Q413.1 335.4 413.1 334.7L413.1 334.7Q413.1 334.2 413.4 333.8Q413.7 333.4 414.2 333.1Q414.8 332.9 415.5 332.9L415.5 332.9Q416.2 332.9 416.7 333.1Q417.2 333.3 417.5 333.7Q417.8 334.0 417.9 334.5L417.9 334.5L416.6 334.7Q416.5 334.4 416.3 334.2Q416.0 334.0 415.5 334.0L415.5 334.0Q415.1 334.0 414.8 334.2Q414.5 334.4 414.5 334.7L414.5 334.7Q414.5 334.9 414.7 335.1Q414.9 335.3 415.3 335.4L415.3 335.4L416.3 335.6Q417.2 335.8 417.6 336.2Q418.0 336.6 418.0 337.2L418.0 337.2Q418.0 337.8 417.7 338.2Q417.4 338.6 416.8 338.9Q416.2 339.1 415.4 339.1Z "/></g><mask id="satori_ms-id-0-6-1" maskUnits="userSpaceOnUse"><rect x="0" y="0" width="540" height="420" fill="#fff"/><path x="210" y="176" width="107" height="23" fill="#000"  stroke-width="0" d="M221.5,176 h84 a11.5,11.5 0 0 1 11.5,11.5 v0 a11.5,11.5 0 0 1 -11.5,11.5 h-84 a11.5,11.5 0 0 1 -11.5,-11.5 v0 a11.5,11.5 0 0 1 11.5,-11.5"/></mask><defs><filter id="satori_s-id-0-6-1" x="-33.64485981308411%" y="-156.52173913043478%" width="167.28971962616822%" height="413.0434782608695%"><feGaussianBlur stdDeviation="6" result="b"/><feFlood flood-color="rgba(251,191,36,0.10)" in="SourceGraphic" result="f"/><feComposite in="f" in2="b" operator="in"/></filter></defs><g mask="url(#satori_ms-id-0-6-1)" filter="url(#satori_s-id-0-6-1)" opacity="1"><path x="210" y="180" width="107" height="23" fill="#fff" stroke="#fff" stroke-width="0" d="M221.5,180 h84 a11.5,11.5 0 0 1 11.5,11.5 v0 a11.5,11.5 0 0 1 -11.5,11.5 h-84 a11.5,11.5 0 0 1 -11.5,-11.5 v0 a11.5,11.5 0 0 1 11.5,-11.5"/></g><mask id="satori_ms-id-0-6-0" maskUnits="userSpaceOnUse"><rect x="0" y="0" width="540" height="420" fill="#fff"/><path x="210" y="176" width="107" height="23" fill="#000"  stroke-width="0" d="M221.5,176 h84 a11.5,11.5 0 0 1 11.5,11.5 v0 a11.5,11.5 0 0 1 -11.5,11.5 h-84 a11.5,11.5 0 0 1 -11.5,-11.5 v0 a11.5,11.5 0 0 1 11.5,-11.5"/></mask><defs><filter id="satori_s-id-0-6-0" x="-0.9345794392523363%" y="-4.3478260869565215%" width="101.86915887850468%" height="108.69565217391303%"><feGaussianBlur stdDeviation="1" result="b"/><feFlood flood-color="rgba(251,191,36,0.06)" in="SourceGraphic" result="f"/><feComposite in="f" in2="b" operator="in"/></filter></defs><g mask="url(#satori_ms-id-0-6-0)" filter="url(#satori_s-id-0-6-0)" opacity="1"><path x="210" y="177" width="107" height="23" fill="#fff" stroke="#fff" stroke-width="0" d="M221.5,177 h84 a11.5,11.5 0 0 1 11.5,11.5 v0 a11.5,11.5 0 0 1 -11.5,11.5 h-84 a11.5,11.5 0 0 1 -11.5,-11.5 v0 a11.5,11.5 0 0 1 11.5,-11.5"/></g><mask id="satori_om-id-0-6"><rect x="210" y="176" width="107" height="23" fill="#fff"/></mask><path x="210" y="176" width="107" height="23" fill="#fff" d="M221.5,176 h84 a11.5,11.5 0 0 1 11.5,11.5 v0 a11.5,11.5 0 0 1 -11.5,11.5 h-84 a11.5,11.5 0 0 1 -11.5,-11.5 v0 a11.5,11.5 0 0 1 11.5,-11.5"/><mask id="satori_ms-id-0-6-0-0" maskUnits="userSpaceOnUse"><rect x="0" y="0" width="540" height="420" fill="#fff"/><path x="218" y="184" width="8" height="8" fill="#000"  stroke-width="4" d="M222,184 h0 a4,4 0 0 1 4,4 v0 a4,4 0 0 1 -4,4 h0 a4,4 0 0 1 -4,-4 v0 a4,4 0 0 1 4,-4"/></mask><defs><filter id="satori_s-id-0-6-0-0" x="-225%" y="-225%" width="550%" height="550%"><feGaussianBlur stdDeviation="4" result="b"/><feFlood flood-color="rgba(251,191,36,0.30)" in="SourceGraphic" result="f"/><feComposite in="f" in2="b" operator="in"/></filter></defs><g mask="url(#satori_ms-id-0-6-0-0)" filter="url(#satori_s-id-0-6-0-0)" opacity="1"><path x="218" y="184" width="8" height="8" fill="#fff" stroke="#fff" stroke-width="4" d="M222,184 h0 a4,4 0 0 1 4,4 v0 a4,4 0 0 1 -4,4 h0 a4,4 0 0 1 -4,-4 v0 a4,4 0 0 1 4,-4"/></g><mask id="satori_om-id-0-6-0"><rect x="218" y="184" width="8" height="8" fill="#fff"/></mask><path x="218" y="184" width="8" height="8" fill="#fbbf24" d="M222,184 h0 a4,4 0 0 1 4,4 v0 a4,4 0 0 1 -4,4 h0 a4,4 0 0 1 -4,-4 v0 a4,4 0 0 1 4,-4"/><mask id="satori_om-id-0-6-1"><rect x="232" y="181" width="73" height="13" fill="#fff"/></mask><g  ><path fill="#1a1a1a" d="M234.1 192L232.3 192L235.0 184.0L237.1 184.0L239.9 192L238.1 192L237.5 190.1L234.7 190.1L234.1 192ZM235.1 188.9L237.1 188.9L236.8 188.1Q236.6 187.4 236.4 186.5L236.4 186.5Q236.2 185.9 236.1 185.3L236.1 185.3Q235.9 185.9 235.8 186.5L235.8 186.5Q235.5 187.4 235.3 188.1L235.3 188.1L235.1 188.9ZM243.6 192.1L243.6 192.1Q242.7 192.1 242.0 191.7Q241.4 191.3 241.0 190.6Q240.6 189.9 240.6 189.0L240.6 189.0Q240.6 188.1 241.0 187.4Q241.4 186.7 242.0 186.3Q242.7 185.9 243.6 185.9L243.6 185.9Q244.1 185.9 244.6 186.1Q245.0 186.2 245.4 186.5Q245.7 186.7 245.9 187.1Q246.2 187.5 246.3 187.9L246.3 187.9L244.8 188.2Q244.7 188.0 244.6 187.8Q244.5 187.6 244.4 187.5Q244.2 187.3 244.0 187.3Q243.8 187.2 243.6 187.2L243.6 187.2Q243.2 187.2 242.9 187.4Q242.6 187.6 242.4 188.1Q242.3 188.5 242.3 189.0L242.3 189.0Q242.3 189.6 242.4 190.0Q242.6 190.4 242.9 190.6Q243.2 190.9 243.6 190.9L243.6 190.9Q243.8 190.9 244.0 190.8Q244.2 190.7 244.4 190.6Q244.5 190.4 244.6 190.2Q244.7 190.0 244.8 189.8L244.8 189.8L246.3 190.1Q246.2 190.6 246.0 190.9Q245.7 191.3 245.4 191.6Q245.0 191.8 244.6 192.0Q244.1 192.1 243.6 192.1ZM249.2 186.0L250.4 186.0L250.4 187.2L249.2 187.2L249.2 190.2Q249.2 190.5 249.4 190.7Q249.5 190.8 249.8 190.8L249.8 190.8Q249.9 190.8 250.0 190.8Q250.2 190.8 250.3 190.7L250.3 190.7L250.5 191.9Q250.3 192.0 250.0 192.1Q249.7 192.1 249.5 192.1L249.5 192.1Q248.6 192.1 248.1 191.6Q247.6 191.2 247.6 190.4L247.6 190.4L247.6 187.2L246.8 187.2L246.8 186.0L247.6 186.0L247.6 184.6L249.2 184.6L249.2 186.0ZM253.0 192L251.4 192L251.4 186.0L253.0 186.0L253.0 192ZM252.2 185.2L252.2 185.2Q251.8 185.2 251.6 185.0Q251.3 184.7 251.3 184.4L251.3 184.4Q251.3 184.0 251.6 183.8Q251.8 183.6 252.2 183.6L252.2 183.6Q252.6 183.6 252.8 183.8Q253.1 184.0 253.1 184.4L253.1 184.4Q253.1 184.7 252.8 185.0Q252.6 185.2 252.2 185.2ZM257.9 192L256.1 192L253.9 186.0L255.6 186.0L256.6 189.1Q256.8 189.7 256.9 190.3L256.9 190.3Q257.0 190.5 257.0 190.8L257.0 190.8Q257.1 190.5 257.1 190.3L257.1 190.3Q257.2 189.7 257.4 189.1L257.4 189.1L258.4 186.0L260.1 186.0L257.9 192ZM263.7 192.1L263.7 192.1Q262.8 192.1 262.1 191.7Q261.4 191.4 261.1 190.7Q260.7 190.0 260.7 189.0L260.7 189.0Q260.7 188.1 261.1 187.4Q261.4 186.7 262.1 186.3Q262.7 185.9 263.6 185.9L263.6 185.9Q264.2 185.9 264.7 186.1Q265.2 186.3 265.6 186.7Q266.0 187.1 266.2 187.6Q266.4 188.2 266.4 189.0L266.4 189.0L266.4 189.4L262.3 189.4Q262.3 189.9 262.5 190.2L262.5 190.2Q262.7 190.5 263.0 190.7Q263.3 190.9 263.7 190.9L263.7 190.9Q264.0 190.9 264.2 190.8Q264.5 190.7 264.6 190.6Q264.8 190.4 264.9 190.2L264.9 190.2L266.3 190.5Q266.2 191.0 265.8 191.3Q265.5 191.7 264.9 191.9Q264.4 192.1 263.7 192.1ZM262.3 188.4L262.3 188.4L264.9 188.4Q264.8 188.1 264.7 187.9L264.7 187.9Q264.6 187.5 264.3 187.3Q264.0 187.1 263.6 187.1L263.6 187.1Q263.2 187.1 262.9 187.3Q262.6 187.5 262.5 187.8L262.5 187.8Q262.4 188.1 262.3 188.4Z M271.3 189.1L271.3 189.1Q270.9 189.1 270.6 188.9Q270.4 188.6 270.4 188.2L270.4 188.2Q270.4 187.8 270.6 187.5Q270.9 187.3 271.3 187.3L271.3 187.3Q271.7 187.3 271.9 187.5Q272.2 187.8 272.2 188.2L272.2 188.2Q272.2 188.6 271.9 188.9Q271.7 189.1 271.3 189.1Z M282.1 192L276.4 192L276.4 190.8L279.2 188.2Q279.6 187.8 279.8 187.5Q280.1 187.2 280.2 187.0Q280.4 186.7 280.4 186.4L280.4 186.4Q280.4 186.0 280.2 185.7Q280.0 185.5 279.8 185.3Q279.5 185.2 279.1 185.2L279.1 185.2Q278.7 185.2 278.5 185.4Q278.2 185.5 278.0 185.8Q277.9 186.1 277.9 186.5L277.9 186.5L276.3 186.5Q276.3 185.7 276.7 185.1Q277.0 184.5 277.7 184.2Q278.3 183.9 279.1 183.9L279.1 183.9Q280.0 183.9 280.6 184.2Q281.2 184.5 281.6 185.0Q281.9 185.6 281.9 186.3L281.9 186.3Q281.9 186.7 281.8 187.1Q281.6 187.6 281.1 188.1Q280.7 188.6 279.9 189.4L279.9 189.4L278.7 190.6L278.7 190.7L282.1 190.7L282.1 192ZM286.4 192.1L286.4 192.1Q285.4 192.1 284.6 191.6Q283.9 191.1 283.5 190.2Q283.2 189.3 283.2 188.0L283.2 188.0Q283.2 186.7 283.5 185.8Q283.9 184.9 284.6 184.4Q285.4 183.9 286.4 183.9L286.4 183.9Q287.4 183.9 288.1 184.4Q288.8 184.9 289.2 185.8Q289.6 186.7 289.6 188.0L289.6 188.0Q289.6 189.3 289.2 190.2Q288.8 191.1 288.1 191.6Q287.4 192.1 286.4 192.1ZM286.4 190.7L286.4 190.7Q286.9 190.7 287.2 190.4Q287.5 190.1 287.7 189.5Q287.9 188.9 287.9 188.0L287.9 188.0Q287.9 187.1 287.7 186.5Q287.5 185.9 287.2 185.6Q286.9 185.2 286.4 185.2L286.4 185.2Q285.9 185.2 285.5 185.6Q285.2 185.9 285.0 186.5Q284.8 187.1 284.8 188.0L284.8 188.0Q284.8 188.9 285.0 189.5Q285.2 190.1 285.5 190.4Q285.9 190.7 286.4 190.7ZM296.4 192L290.7 192L290.7 190.8L293.6 188.2Q293.9 187.8 294.2 187.5Q294.4 187.2 294.6 187.0Q294.7 186.7 294.7 186.4L294.7 186.4Q294.7 186.0 294.5 185.7Q294.4 185.5 294.1 185.3Q293.8 185.2 293.5 185.2L293.5 185.2Q293.1 185.2 292.8 185.4Q292.5 185.5 292.4 185.8Q292.2 186.1 292.2 186.5L292.2 186.5L290.7 186.5Q290.7 185.7 291.0 185.1Q291.4 184.5 292.0 184.2Q292.6 183.9 293.5 183.9L293.5 183.9Q294.3 183.9 295.0 184.2Q295.6 184.5 295.9 185.0Q296.3 185.6 296.3 186.3L296.3 186.3Q296.3 186.7 296.1 187.1Q295.9 187.6 295.5 188.1Q295.0 188.6 294.2 189.4L294.2 189.4L293.0 190.6L293.0 190.7L296.4 190.7L296.4 192ZM300.7 192.1L300.7 192.1Q300.1 192.1 299.5 191.9Q298.9 191.7 298.5 191.2Q298.0 190.8 297.8 190.0Q297.5 189.3 297.5 188.2L297.5 188.2Q297.5 187.2 297.7 186.4Q298.0 185.6 298.4 185.0Q298.8 184.5 299.4 184.2Q300.0 183.9 300.7 183.9L300.7 183.9Q301.5 183.9 302.1 184.2Q302.7 184.5 303.1 185.0Q303.5 185.6 303.6 186.2L303.6 186.2L301.9 186.2Q301.8 185.8 301.5 185.5Q301.2 185.3 300.7 185.3L300.7 185.3Q300.2 185.3 299.8 185.6Q299.5 185.9 299.3 186.5Q299.1 187.1 299.1 187.9L299.1 187.9L299.2 187.9Q299.4 187.5 299.7 187.3Q300.0 187.0 300.4 186.9Q300.7 186.7 301.2 186.7L301.2 186.7Q301.9 186.7 302.4 187.1Q303.0 187.4 303.3 188.0Q303.6 188.6 303.6 189.3L303.6 189.3Q303.6 190.1 303.3 190.8Q302.9 191.4 302.2 191.8Q301.6 192.1 300.7 192.1ZM300.7 190.8L300.7 190.8Q301.1 190.8 301.4 190.6Q301.7 190.4 301.9 190.1Q302.0 189.8 302.0 189.4L302.0 189.4Q302.0 189.0 301.9 188.6Q301.7 188.3 301.4 188.1Q301.1 187.9 300.7 187.9L300.7 187.9Q300.4 187.9 300.1 188.1Q299.9 188.2 299.7 188.4Q299.5 188.6 299.4 188.8Q299.3 189.1 299.3 189.4L299.3 189.4Q299.3 189.8 299.5 190.1Q299.6 190.4 300.0 190.6Q300.3 190.8 300.7 190.8Z "/></g><mask id="satori_om-id-0-7"><rect x="270" y="372" width="197" height="22" fill="#fff"/></mask><g  ><path fill="#1a1a1a" d="M271.2 375.9L273.9 375.9L273.9 389L271.2 389L271.2 375.9ZM278.6 383.3L278.6 383.3L278.6 389L276.0 389L276.0 379.2L278.5 379.2L278.5 381.2Q278.9 380.3 279.5 379.7L279.5 379.7Q280.3 379.1 281.6 379.1L281.6 379.1Q282.6 379.1 283.4 379.5Q284.1 379.9 284.5 380.8Q285.0 381.6 285.0 382.8L285.0 382.8L285.0 389L282.3 389L282.3 383.2Q282.3 382.3 281.8 381.8Q281.4 381.3 280.5 381.3L280.5 381.3Q280.0 381.3 279.6 381.5Q279.1 381.7 278.9 382.2Q278.6 382.7 278.6 383.3ZM290.9 389.2L290.9 389.2Q289.7 389.2 288.8 388.9Q287.9 388.5 287.3 387.9Q286.8 387.2 286.6 386.3L286.6 386.3L289.0 385.9Q289.2 386.6 289.7 386.9Q290.2 387.3 291.0 387.3L291.0 387.3Q291.8 387.3 292.2 387.0Q292.6 386.7 292.6 386.2L292.6 386.2Q292.6 385.9 292.3 385.6Q292.0 385.4 291.4 385.2L291.4 385.2L289.7 384.9Q288.2 384.6 287.5 383.9Q286.8 383.2 286.8 382.1L286.8 382.1Q286.8 381.2 287.4 380.5Q287.9 379.8 288.8 379.4Q289.7 379.1 291.0 379.1L291.0 379.1Q292.1 379.1 293.0 379.4Q293.8 379.7 294.4 380.3Q294.9 380.9 295.1 381.7L295.1 381.7L292.7 382.1Q292.6 381.6 292.2 381.3Q291.7 380.9 291.0 380.9L291.0 380.9Q290.4 380.9 289.9 381.2Q289.5 381.5 289.5 381.9L289.5 381.9Q289.5 382.3 289.8 382.6Q290.0 382.8 290.7 383.0L290.7 383.0L292.5 383.3Q293.9 383.6 294.6 384.3Q295.3 384.9 295.3 386.0L295.3 386.0Q295.3 386.9 294.8 387.7Q294.2 388.4 293.2 388.8Q292.2 389.2 290.9 389.2ZM300.0 379.2L301.8 379.2L301.8 381.2L300.0 381.2L300.0 386.1Q300.0 386.6 300.2 386.8Q300.4 387.0 300.9 387.0L300.9 387.0Q301.0 387.0 301.3 387.0Q301.6 387.0 301.7 386.9L301.7 386.9L302.1 388.9Q301.6 389.0 301.2 389.1Q300.8 389.1 300.4 389.1L300.4 389.1Q298.9 389.1 298.1 388.4Q297.3 387.7 297.3 386.4L297.3 386.4L297.3 381.2L296.0 381.2L296.0 379.2L297.3 379.2L297.3 376.8L300.0 376.8L300.0 379.2ZM306.0 389L303.3 389L303.3 379.2L306.0 379.2L306.0 389ZM304.7 377.9L304.7 377.9Q304.1 377.9 303.6 377.5Q303.2 377.1 303.2 376.5L303.2 376.5Q303.2 376.0 303.6 375.6Q304.1 375.2 304.7 375.2L304.7 375.2Q305.3 375.2 305.7 375.6Q306.1 376.0 306.1 376.5L306.1 376.5Q306.1 377.1 305.7 377.5Q305.3 377.9 304.7 377.9ZM311.1 379.2L312.9 379.2L312.9 381.2L311.1 381.2L311.1 386.1Q311.1 386.6 311.3 386.8Q311.5 387.0 312.0 387.0L312.0 387.0Q312.1 387.0 312.4 387.0Q312.7 387.0 312.8 386.9L312.8 386.9L313.2 388.9Q312.7 389.0 312.3 389.1Q311.9 389.1 311.5 389.1L311.5 389.1Q310.0 389.1 309.2 388.4Q308.4 387.7 308.4 386.4L308.4 386.4L308.4 381.2L307.1 381.2L307.1 379.2L308.4 379.2L308.4 376.8L311.1 376.8L311.1 379.2ZM317.8 389.1L317.8 389.1Q316.8 389.1 316.0 388.7Q315.3 388.2 314.9 387.4Q314.4 386.6 314.4 385.4L314.4 385.4L314.4 379.2L317.1 379.2L317.1 385.0Q317.1 385.9 317.6 386.4Q318.0 386.9 318.9 386.9L318.9 386.9Q319.4 386.9 319.9 386.7Q320.3 386.4 320.5 386.0Q320.8 385.5 320.8 384.9L320.8 384.9L320.8 379.2L323.4 379.2L323.4 389L320.9 389L320.9 387.0Q320.5 387.9 319.9 388.5L319.9 388.5Q319.1 389.1 317.8 389.1ZM328.5 379.2L330.4 379.2L330.4 381.2L328.5 381.2L328.5 386.1Q328.5 386.6 328.7 386.8Q328.9 387.0 329.4 387.0L329.4 387.0Q329.6 387.0 329.8 387.0Q330.1 387.0 330.2 386.9L330.2 386.9L330.6 388.9Q330.2 389.0 329.7 389.1Q329.3 389.1 328.9 389.1L328.9 389.1Q327.4 389.1 326.7 388.4Q325.9 387.7 325.9 386.4L325.9 386.4L325.9 381.2L324.5 381.2L324.5 379.2L325.9 379.2L325.9 376.8L328.5 376.8L328.5 379.2ZM334.5 389L331.9 389L331.9 379.2L334.5 379.2L334.5 389ZM333.2 377.9L333.2 377.9Q332.6 377.9 332.2 377.5Q331.8 377.1 331.8 376.5L331.8 376.5Q331.8 376.0 332.2 375.6Q332.6 375.2 333.2 375.2L333.2 375.2Q333.8 375.2 334.2 375.6Q334.7 376.0 334.7 376.5L334.7 376.5Q334.7 377.1 334.2 377.5Q333.8 377.9 333.2 377.9ZM341.0 389.2L341.0 389.2Q339.5 389.2 338.4 388.6Q337.3 387.9 336.8 386.8Q336.2 385.6 336.2 384.1L336.2 384.1Q336.2 382.6 336.8 381.5Q337.3 380.3 338.4 379.7Q339.5 379.1 341.0 379.1L341.0 379.1Q342.5 379.1 343.5 379.7Q344.6 380.3 345.2 381.5Q345.8 382.6 345.8 384.1L345.8 384.1Q345.8 385.6 345.2 386.8Q344.6 387.9 343.5 388.6Q342.5 389.2 341.0 389.2ZM341.0 387.1L341.0 387.1Q341.7 387.1 342.2 386.7Q342.6 386.3 342.9 385.7Q343.1 385.0 343.1 384.1L343.1 384.1Q343.1 383.3 342.9 382.6Q342.6 381.9 342.2 381.5Q341.7 381.1 341.0 381.1L341.0 381.1Q340.3 381.1 339.8 381.5Q339.3 381.9 339.1 382.6Q338.9 383.3 338.9 384.1L338.9 384.1Q338.9 385.0 339.1 385.7Q339.3 386.3 339.8 386.7Q340.3 387.1 341.0 387.1ZM350.1 383.3L350.1 383.3L350.1 389L347.4 389L347.4 379.2L349.9 379.2L350.0 381.2Q350.3 380.3 351.0 379.7L351.0 379.7Q351.8 379.1 353.0 379.1L353.0 379.1Q354.0 379.1 354.8 379.5Q355.6 379.9 356.0 380.8Q356.4 381.6 356.4 382.8L356.4 382.8L356.4 389L353.8 389L353.8 383.2Q353.8 382.3 353.3 381.8Q352.8 381.3 352.0 381.3L352.0 381.3Q351.4 381.3 351.0 381.5Q350.6 381.7 350.3 382.2Q350.1 382.7 350.1 383.3ZM361.2 389.2L361.2 389.2Q360.3 389.2 359.5 388.9Q358.8 388.5 358.4 387.9Q357.9 387.2 357.9 386.2L357.9 386.2Q357.9 385.4 358.2 384.9Q358.5 384.3 359.1 384.0Q359.6 383.7 360.3 383.5Q360.9 383.3 361.6 383.2L361.6 383.2Q362.5 383.1 363.0 383.1Q363.5 383.0 363.8 382.8Q364.0 382.7 364.0 382.4L364.0 382.4L364.0 382.3Q364.0 381.9 363.9 381.6Q363.7 381.3 363.3 381.2Q363.0 381.0 362.5 381.0L362.5 381.0Q362.0 381.0 361.6 381.2Q361.2 381.3 361.0 381.6Q360.8 381.8 360.6 382.1L360.6 382.1L358.2 381.7Q358.5 380.9 359.1 380.3Q359.7 379.7 360.5 379.4Q361.4 379.1 362.5 379.1L362.5 379.1Q363.3 379.1 364.0 379.2Q364.8 379.4 365.4 379.8Q366.0 380.2 366.3 380.9Q366.7 381.5 366.7 382.4L366.7 382.4L366.7 389L364.2 389L364.2 387.6L364.1 387.6Q363.8 388.1 363.5 388.4Q363.1 388.8 362.5 389.0Q361.9 389.2 361.2 389.2ZM362.0 387.3L362.0 387.3Q362.6 387.3 363.1 387.1Q363.5 386.8 363.8 386.4Q364.0 386.0 364.0 385.5L364.0 385.5L364.0 384.4Q363.9 384.5 363.7 384.6Q363.5 384.6 363.2 384.7Q362.9 384.8 362.6 384.8Q362.3 384.8 362.1 384.9L362.1 384.9Q361.6 384.9 361.2 385.1Q360.9 385.3 360.7 385.5Q360.5 385.8 360.5 386.2L360.5 386.2Q360.5 386.6 360.7 386.8Q360.9 387.1 361.2 387.2Q361.5 387.3 362.0 387.3ZM368.7 375.9L371.4 375.9L371.4 389L368.7 389L368.7 375.9Z M383.3 389.2L383.3 389.2Q381.6 389.2 380.2 388.4Q378.8 387.6 378.0 386.1Q377.2 384.6 377.2 382.5L377.2 382.5Q377.2 380.3 378.0 378.8Q378.8 377.3 380.2 376.5Q381.6 375.7 383.3 375.7L383.3 375.7Q384.4 375.7 385.4 376.0Q386.3 376.4 387.1 377.0Q387.8 377.5 388.3 378.4Q388.8 379.3 388.9 380.4L388.9 380.4L386.2 380.4Q386.1 379.8 385.9 379.4Q385.6 379.0 385.3 378.7Q384.9 378.4 384.4 378.3Q383.9 378.1 383.4 378.1L383.4 378.1Q382.3 378.1 381.6 378.6Q380.8 379.1 380.4 380.1Q379.9 381.1 379.9 382.5L379.9 382.5Q379.9 383.9 380.4 384.8Q380.8 385.8 381.6 386.3Q382.3 386.8 383.3 386.8L383.3 386.8Q383.9 386.8 384.4 386.6Q384.9 386.5 385.2 386.2Q385.6 385.9 385.9 385.5Q386.1 385.1 386.2 384.5L386.2 384.5L388.9 384.5Q388.8 385.4 388.4 386.3Q388.0 387.1 387.2 387.8Q386.5 388.4 385.5 388.8Q384.5 389.2 383.3 389.2ZM395.0 389.2L395.0 389.2Q393.6 389.2 392.5 388.6Q391.4 387.9 390.8 386.8Q390.2 385.6 390.2 384.1L390.2 384.1Q390.2 382.6 390.8 381.5Q391.4 380.3 392.5 379.7Q393.6 379.1 395.0 379.1L395.0 379.1Q396.5 379.1 397.6 379.7Q398.7 380.3 399.3 381.5Q399.9 382.6 399.9 384.1L399.9 384.1Q399.9 385.6 399.3 386.8Q398.7 387.9 397.6 388.6Q396.5 389.2 395.0 389.2ZM395.0 387.1L395.0 387.1Q395.8 387.1 396.2 386.7Q396.7 386.3 396.9 385.7Q397.2 385.0 397.2 384.1L397.2 384.1Q397.2 383.3 396.9 382.6Q396.7 381.9 396.2 381.5Q395.8 381.1 395.0 381.1L395.0 381.1Q394.3 381.1 393.9 381.5Q393.4 381.9 393.2 382.6Q392.9 383.3 392.9 384.1L392.9 384.1Q392.9 385.0 393.2 385.7Q393.4 386.3 393.9 386.7Q394.3 387.1 395.0 387.1ZM404.2 383.3L404.2 383.3L404.2 389L401.5 389L401.5 379.2L404.0 379.2L404.0 381.2Q404.4 380.3 405.1 379.7L405.1 379.7Q405.8 379.1 407.1 379.1L407.1 379.1Q408.1 379.1 408.9 379.5Q409.6 379.9 410.1 380.8Q410.5 381.6 410.5 382.8L410.5 382.8L410.5 389L407.8 389L407.8 383.2Q407.8 382.3 407.4 381.8Q406.9 381.3 406.1 381.3L406.1 381.3Q405.5 381.3 405.1 381.5Q404.6 381.7 404.4 382.2Q404.2 382.7 404.2 383.3ZM415.6 379.2L417.4 379.2L417.4 381.2L415.6 381.2L415.6 386.1Q415.6 386.6 415.8 386.8Q416.0 387.0 416.5 387.0L416.5 387.0Q416.6 387.0 416.9 387.0Q417.2 387.0 417.3 386.9L417.3 386.9L417.7 388.9Q417.3 389.0 416.8 389.1Q416.4 389.1 416.0 389.1L416.0 389.1Q414.5 389.1 413.7 388.4Q412.9 387.7 412.9 386.4L412.9 386.4L412.9 381.2L411.6 381.2L411.6 379.2L412.9 379.2L412.9 376.8L415.6 376.8L415.6 379.2ZM421.6 389L419.0 389L419.0 379.2L421.6 379.2L421.6 389ZM420.3 377.9L420.3 377.9Q419.7 377.9 419.3 377.5Q418.8 377.1 418.8 376.5L418.8 376.5Q418.8 376.0 419.3 375.6Q419.7 375.2 420.3 375.2L420.3 375.2Q420.9 375.2 421.3 375.6Q421.7 376.0 421.7 376.5L421.7 376.5Q421.7 377.1 421.3 377.5Q420.9 377.9 420.3 377.9ZM426.3 383.3L426.3 383.3L426.3 389L423.6 389L423.6 379.2L426.1 379.2L426.2 381.2Q426.5 380.3 427.2 379.7L427.2 379.7Q428.0 379.1 429.2 379.1L429.2 379.1Q430.2 379.1 431.0 379.5Q431.8 379.9 432.2 380.8Q432.6 381.6 432.6 382.8L432.6 382.8L432.6 389L430.0 389L430.0 383.2Q430.0 382.3 429.5 381.8Q429.0 381.3 428.2 381.3L428.2 381.3Q427.6 381.3 427.2 381.5Q426.8 381.7 426.5 382.2Q426.3 382.7 426.3 383.3ZM438.1 389.1L438.1 389.1Q437.0 389.1 436.3 388.7Q435.5 388.2 435.1 387.4Q434.7 386.6 434.7 385.4L434.7 385.4L434.7 379.2L437.3 379.2L437.3 385.0Q437.3 385.9 437.8 386.4Q438.3 386.9 439.1 386.9L439.1 386.9Q439.6 386.9 440.1 386.7Q440.5 386.4 440.8 386.0Q441.0 385.5 441.0 384.9L441.0 384.9L441.0 379.2L443.6 379.2L443.6 389L441.1 389L441.1 387.0Q440.7 387.9 440.1 388.5L440.1 388.5Q439.3 389.1 438.1 389.1ZM448.3 389L445.7 389L445.7 379.2L448.3 379.2L448.3 389ZM447.0 377.9L447.0 377.9Q446.4 377.9 446.0 377.5Q445.6 377.1 445.6 376.5L445.6 376.5Q445.6 376.0 446.0 375.6Q446.4 375.2 447.0 375.2L447.0 375.2Q447.6 375.2 448.0 375.6Q448.5 376.0 448.5 376.5L448.5 376.5Q448.5 377.1 448.0 377.5Q447.6 377.9 447.0 377.9ZM453.4 379.2L455.3 379.2L455.3 381.2L453.4 381.2L453.4 386.1Q453.4 386.6 453.6 386.8Q453.9 387.0 454.3 387.0L454.3 387.0Q454.5 387.0 454.8 387.0Q455.0 387.0 455.2 386.9L455.2 386.9L455.5 388.9Q455.1 389.0 454.7 389.1Q454.2 389.1 453.8 389.1L453.8 389.1Q452.4 389.1 451.6 388.4Q450.8 387.7 450.8 386.4L450.8 386.4L450.8 381.2L449.5 381.2L449.5 379.2L450.8 379.2L450.8 376.8L453.4 376.8L453.4 379.2ZM456.7 392.5L456.7 392.5L457.3 390.5L457.7 390.6Q458.2 390.7 458.6 390.7Q459.0 390.6 459.3 390.3Q459.5 390.0 459.6 389.6L459.6 389.6L459.7 389.0L456.0 379.2L458.8 379.2L460.4 384.3Q460.7 385.2 460.9 386.2L460.9 386.2Q461.0 386.5 461.0 386.9L461.0 386.9Q461.1 386.5 461.2 386.2L461.2 386.2Q461.4 385.2 461.8 384.3L461.8 384.3L463.5 379.2L466.2 379.2L462.1 390.2Q461.8 391.0 461.3 391.5Q460.8 392.1 460.1 392.4Q459.4 392.7 458.5 392.7L458.5 392.7Q457.9 392.7 457.5 392.7Q457.0 392.6 456.7 392.5Z " transform="matrix(1.00,0.00,0.00,1.00,-98.50,0.00)"/></g></svg>