<svg width="520" height="440" viewBox="0 0 520 440" xmlns="http://www.w3.org/2000/svg"><mask id="satori_om-id"><rect x="0" y="0" width="520" height="440" fill="#fff"/></mask><mask id="satori_om-id-0"><rect x="183" y="27" width="155" height="38" fill="#fff"/></mask><mask id="satori_om-id-0-0"><rect x="214" y="27" width="94" height="12" fill="#fff"/></mask><g  ><path fill="#d97706" d="M217.3 37.1L217.3 37.1Q216.5 37.1 215.8 36.8Q215.2 36.6 214.8 36.0Q214.4 35.5 214.4 34.7L214.4 34.7L215.9 34.7Q215.9 35.1 216.1 35.4Q216.3 35.6 216.6 35.7Q216.9 35.8 217.3 35.8L217.3 35.8Q217.7 35.8 218.0 35.7Q218.3 35.6 218.5 35.4Q218.6 35.2 218.6 34.9L218.6 34.9Q218.6 34.7 218.5 34.5Q218.3 34.3 218.1 34.2Q217.8 34.1 217.4 34.0L217.4 34.0L216.6 33.8Q215.7 33.6 215.1 33.1Q214.6 32.6 214.6 31.8L214.6 31.8Q214.6 31.2 215.0 30.7Q215.3 30.2 215.9 29.9Q216.6 29.6 217.3 29.6L217.3 29.6Q218.2 29.6 218.8 29.9Q219.4 30.2 219.7 30.7Q220.0 31.2 220.0 31.8L220.0 31.8L218.6 31.8Q218.6 31.4 218.2 31.1Q217.9 30.9 217.3 30.9L217.3 30.9Q217.0 30.9 216.7 31.0Q216.4 31.1 216.3 31.3Q216.1 31.5 216.1 31.7L216.1 31.7Q216.1 32.0 216.3 32.2Q216.5 32.3 216.7 32.5Q217.0 32.6 217.3 32.6L217.3 32.6L218.0 32.8Q218.4 32.9 218.8 33.1Q219.2 33.3 219.5 33.5Q219.8 33.8 220.0 34.1Q220.1 34.5 220.1 34.9L220.1 34.9Q220.1 35.6 219.8 36.1Q219.5 36.6 218.8 36.8Q218.2 37.1 217.3 37.1ZM226.8 37L225.3 37L225.3 34.3L222.6 29.7L224.3 29.7L225.6 32.0Q225.8 32.3 225.9 32.7L225.9 32.7Q226.0 32.8 226.0 33.0L226.0 33.0Q226.1 32.8 226.2 32.7L226.2 32.7Q226.3 32.3 226.5 32.0L226.5 32.0L227.7 29.7L229.4 29.7L226.8 34.3L226.8 37ZM234.8 37.1L234.8 37.1Q233.9 37.1 233.3 36.8Q232.6 36.6 232.3 36.0Q231.9 35.5 231.9 34.7L231.9 34.7L233.3 34.7Q233.4 35.1 233.5 35.4Q233.7 35.6 234.1 35.7Q234.4 35.8 234.8 35.8L234.8 35.8Q235.2 35.8 235.5 35.7Q235.8 35.6 235.9 35.4Q236.1 35.2 236.1 34.9L236.1 34.9Q236.1 34.7 235.9 34.5Q235.8 34.3 235.5 34.2Q235.2 34.1 234.8 34.0L234.8 34.0L234.0 33.8Q233.1 33.6 232.6 33.1Q232.1 32.6 232.1 31.8L232.1 31.8Q232.1 31.2 232.4 30.7Q232.8 30.2 233.4 29.9Q234.0 29.6 234.8 29.6L234.8 29.6Q235.6 29.6 236.2 29.9Q236.8 30.2 237.1 30.7Q237.5 31.2 237.5 31.8L237.5 31.8L236.1 31.8Q236.0 31.4 235.7 31.1Q235.3 30.9 234.8 30.9L234.8 30.9Q234.4 30.9 234.1 31.0Q233.9 31.1 233.7 31.3Q233.6 31.5 233.6 31.7L233.6 31.7Q233.6 32.0 233.8 32.2Q233.9 32.3 234.2 32.5Q234.5 32.6 234.8 32.6L234.8 32.6L235.4 32.8Q235.9 32.9 236.3 33.1Q236.7 33.3 237.0 33.5Q237.3 33.8 237.4 34.1Q237.6 34.5 237.6 34.9L237.6 34.9Q237.6 35.6 237.3 36.1Q236.9 36.6 236.3 36.8Q235.7 37.1 234.8 37.1ZM242.4 31.0L240.2 31.0L240.2 29.7L246.1 29.7L246.1 31.0L243.9 31.0L243.9 37L242.4 37L242.4 31.0ZM253.8 37L248.9 37L248.9 29.7L253.8 29.7L253.8 31.0L250.4 31.0L250.4 32.7L253.6 32.7L253.6 33.9L250.4 33.9L250.4 35.8L253.8 35.8L253.8 37ZM258.3 37L256.8 37L256.8 29.7L259.1 29.7L260.3 33.1Q260.4 33.3 260.4 33.7Q260.5 34.0 260.6 34.5L260.6 34.5Q260.7 34.9 260.8 35.3L260.8 35.3Q260.9 34.9 261.0 34.5L261.0 34.5Q261.1 34.1 261.2 33.7Q261.3 33.3 261.4 33.1L261.4 33.1L262.5 29.7L264.8 29.7L264.8 37L263.3 37L263.3 33.6Q263.3 33.3 263.3 33.0Q263.3 32.6 263.3 32.2Q263.4 31.8 263.4 31.4L263.4 31.4Q263.4 31.2 263.4 31.0L263.4 31.0Q263.3 31.2 263.3 31.4L263.3 31.4Q263.2 31.9 263.0 32.3Q262.9 32.7 262.8 33.0Q262.7 33.3 262.6 33.6L262.6 33.6L261.4 37L260.2 37L259.0 33.6Q258.9 33.3 258.8 33.0Q258.7 32.7 258.6 32.3Q258.5 31.9 258.3 31.4L258.3 31.4Q258.3 31.2 258.2 31.1L258.2 31.1Q258.2 31.2 258.2 31.4L258.2 31.4Q258.3 31.8 258.3 32.2Q258.3 32.6 258.3 33.0Q258.3 33.3 258.3 33.6L258.3 33.6L258.3 37ZM268.0 33.4L271.3 33.4L271.3 34.6L268.0 34.6L268.0 33.4ZM277.6 37L275.9 37L274.0 29.7L275.6 29.7L276.5 33.3Q276.6 33.8 276.6 34.3Q276.7 34.8 276.8 35.3L276.8 35.3Q276.8 35.4 276.8 35.5L276.8 35.5Q276.9 35.4 276.9 35.3L276.9 35.3Q277.0 34.8 277.1 34.3Q277.2 33.8 277.3 33.3L277.3 33.3L278.2 29.7L279.7 29.7L280.6 33.3Q280.7 33.8 280.8 34.3Q280.9 34.8 281.0 35.3L281.0 35.3Q281.0 35.4 281.0 35.5L281.0 35.5Q281.0 35.4 281.1 35.3L281.1 35.3Q281.1 34.8 281.2 34.3Q281.3 33.8 281.4 33.3L281.4 33.3L282.3 29.7L283.9 29.7L281.9 37L280.2 37L279.3 33.3Q279.1 32.7 279.0 31.9L279.0 31.9Q279.0 31.7 278.9 31.5L278.9 31.5Q278.9 31.7 278.9 31.9L278.9 31.9Q278.8 32.6 278.6 33.3L278.6 33.3L277.6 37ZM286.6 29.7L288.1 29.7L288.1 37L286.6 37L286.6 29.7ZM293.7 37L293.7 37L291.2 37L291.2 29.7L293.8 29.7Q294.9 29.7 295.7 30.2Q296.4 30.6 296.9 31.4Q297.3 32.2 297.3 33.4L297.3 33.4Q297.3 34.5 296.9 35.3Q296.4 36.1 295.7 36.6Q294.9 37 293.7 37ZM292.7 31.0L292.7 35.7L293.7 35.7Q294.4 35.7 294.9 35.5Q295.3 35.2 295.6 34.7Q295.8 34.2 295.8 33.4L295.8 33.4Q295.8 32.5 295.6 32.0Q295.3 31.5 294.9 31.3Q294.4 31.0 293.7 31.0L293.7 31.0L292.7 31.0ZM305.1 37L300.2 37L300.2 29.7L305.1 29.7L305.1 31.0L301.7 31.0L301.7 32.7L304.8 32.7L304.8 33.9L301.7 33.9L301.7 35.8L305.1 35.8L305.1 37Z "/></g><mask id="satori_om-id-0-1"><rect x="183" y="43" width="155" height="22" fill="#fff"/></mask><g  ><path fill="#1a1a1a" d="M186.8 60L184.2 60L184.2 46.9L188.3 46.9L190.4 52.9Q190.6 53.3 190.7 54.0Q190.9 54.7 191.1 55.4L191.1 55.4Q191.3 56.2 191.4 56.9L191.4 56.9Q191.6 56.2 191.7 55.5L191.7 55.5Q191.9 54.7 192.1 54.0Q192.2 53.3 192.4 52.9L192.4 52.9L194.5 46.9L198.6 46.9L198.6 60L195.9 60L195.9 53.8Q195.9 53.4 195.9 52.8Q195.9 52.1 195.9 51.4Q196.0 50.6 196.0 49.9L196.0 49.9Q196.0 49.5 196.0 49.2L196.0 49.2Q195.9 49.6 195.8 50.0L195.8 50.0Q195.6 50.7 195.4 51.5Q195.2 52.2 195.0 52.8Q194.8 53.4 194.7 53.8L194.7 53.8L192.5 60L190.3 60L188.1 53.8Q187.9 53.4 187.7 52.8Q187.6 52.2 187.3 51.5Q187.1 50.8 186.9 50.0L186.9 50.0Q186.8 49.6 186.8 49.3L186.8 49.3Q186.8 49.6 186.8 49.8L186.8 49.8Q186.8 50.6 186.8 51.3Q186.8 52.1 186.8 52.7Q186.8 53.4 186.8 53.8L186.8 53.8L186.8 60ZM204.1 60.1L204.1 60.1Q203.1 60.1 202.3 59.7Q201.5 59.2 201.1 58.4Q200.7 57.6 200.7 56.4L200.7 56.4L200.7 50.2L203.4 50.2L203.4 56.0Q203.4 56.9 203.8 57.4Q204.3 57.9 205.1 57.9L205.1 57.9Q205.7 57.9 206.1 57.7Q206.6 57.4 206.8 57.0Q207.0 56.5 207.0 55.9L207.0 55.9L207.0 50.2L209.7 50.2L209.7 60L207.2 60L207.2 58.0Q206.8 58.9 206.1 59.5L206.1 59.5Q205.3 60.1 204.1 60.1ZM211.7 46.9L214.4 46.9L214.4 60L211.7 60L211.7 46.9ZM219.5 50.2L221.3 50.2L221.3 52.2L219.5 52.2L219.5 57.1Q219.5 57.6 219.7 57.8Q219.9 58.0 220.4 58.0L220.4 58.0Q220.5 58.0 220.8 58.0Q221.1 58.0 221.2 57.9L221.2 57.9L221.6 59.9Q221.1 60.0 220.7 60.1Q220.3 60.1 219.9 60.1L219.9 60.1Q218.4 60.1 217.6 59.4Q216.8 58.7 216.8 57.4L216.8 57.4L216.8 52.2L215.5 52.2L215.5 50.2L216.8 50.2L216.8 47.8L219.5 47.8L219.5 50.2ZM225.5 60L222.9 60L222.9 50.2L225.5 50.2L225.5 60ZM224.2 48.9L224.2 48.9Q223.6 48.9 223.1 48.5Q222.7 48.1 222.7 47.5L222.7 47.5Q222.7 47.0 223.1 46.6Q223.6 46.2 224.2 46.2L224.2 46.2Q224.8 46.2 225.2 46.6Q225.6 47.0 225.6 47.5L225.6 47.5Q225.6 48.1 225.2 48.5Q224.8 48.9 224.2 48.9ZM227.7 53.6L233.6 53.6L233.6 55.7L227.7 55.7L227.7 53.6ZM240.5 60L240.5 60L235.8 60L235.8 46.9L240.5 46.9Q242.5 46.9 243.9 47.7Q245.3 48.5 246.1 49.9Q246.8 51.4 246.8 53.4L246.8 53.4Q246.8 55.5 246.1 57.0Q245.3 58.4 243.9 59.2Q242.5 60 240.5 60ZM238.5 49.2L238.5 57.7L240.3 57.7Q241.6 57.7 242.4 57.2Q243.3 56.8 243.7 55.9Q244.2 54.9 244.2 53.4L244.2 53.4Q244.2 52.0 243.7 51.0Q243.3 50.1 242.4 49.7Q241.6 49.2 240.3 49.2L240.3 49.2L238.5 49.2ZM253.0 60.2L253.0 60.2Q251.5 60.2 250.5 59.6Q249.4 59.0 248.8 57.8Q248.2 56.7 248.2 55.1L248.2 55.1Q248.2 53.6 248.8 52.5Q249.4 51.3 250.4 50.7Q251.5 50.1 252.9 50.1L252.9 50.1Q253.9 50.1 254.7 50.4Q255.6 50.7 256.2 51.3Q256.8 51.9 257.2 52.8Q257.5 53.8 257.5 55.0L257.5 55.0L257.5 55.8L250.8 55.8Q250.8 56.5 251.1 57.0L251.1 57.0Q251.4 57.6 251.9 57.9Q252.4 58.2 253.1 58.2L253.1 58.2Q253.6 58.2 253.9 58.1Q254.3 57.9 254.6 57.7Q254.8 57.4 255.0 57.0L255.0 57.0L257.4 57.5Q257.1 58.3 256.6 58.9Q256.0 59.5 255.1 59.9Q254.2 60.2 253.0 60.2ZM250.8 54.1L250.8 54.1L255.0 54.1Q254.9 53.6 254.8 53.2L254.8 53.2Q254.5 52.7 254.1 52.3Q253.6 52.0 252.9 52.0L252.9 52.0Q252.3 52.0 251.8 52.4Q251.3 52.7 251.1 53.2L251.1 53.2Q250.9 53.6 250.8 54.1ZM261.8 63.7L259.1 63.7L259.1 50.2L261.7 50.2L261.7 51.8L261.9 51.8Q262.1 51.4 262.4 51.0Q262.7 50.6 263.3 50.3Q263.8 50.1 264.7 50.1L264.7 50.1Q265.8 50.1 266.7 50.6Q267.6 51.2 268.1 52.3Q268.7 53.4 268.7 55.1L268.7 55.1Q268.7 56.7 268.1 57.9Q267.6 59.0 266.7 59.6Q265.8 60.2 264.7 60.2L264.7 60.2Q263.9 60.2 263.3 59.9Q262.7 59.6 262.4 59.2Q262.1 58.8 261.9 58.4L261.9 58.4L261.8 58.4L261.8 63.7ZM263.8 58.0L263.8 58.0Q264.5 58.0 265.0 57.7Q265.5 57.3 265.7 56.6Q266.0 56.0 266.0 55.1L266.0 55.1Q266.0 54.2 265.7 53.6Q265.5 52.9 265.0 52.5Q264.5 52.2 263.8 52.2L263.8 52.2Q263.2 52.2 262.7 52.5Q262.2 52.9 262.0 53.5Q261.7 54.2 261.7 55.1L261.7 55.1Q261.7 56.0 262.0 56.6Q262.2 57.3 262.7 57.7Q263.2 58.0 263.8 58.0ZM273.1 60.2L273.1 60.2Q272.1 60.2 271.4 59.9Q270.6 59.5 270.2 58.9Q269.8 58.2 269.8 57.2L269.8 57.2Q269.8 56.4 270.1 55.9Q270.4 55.3 270.9 55.0Q271.4 54.7 272.1 54.5Q272.8 54.3 273.5 54.2L273.5 54.2Q274.4 54.1 274.9 54.1Q275.4 54.0 275.6 53.8Q275.9 53.7 275.9 53.4L275.9 53.4L275.9 53.3Q275.9 52.9 275.7 52.6Q275.5 52.3 275.2 52.2Q274.8 52.0 274.3 52.0L274.3 52.0Q273.8 52.0 273.5 52.2Q273.1 52.3 272.8 52.6Q272.6 52.8 272.5 53.1L272.5 53.1L270.1 52.7Q270.3 51.9 270.9 51.3Q271.5 50.7 272.4 50.4Q273.3 50.1 274.4 50.1L274.4 50.1Q275.1 50.1 275.9 50.2Q276.6 50.4 277.2 50.8Q277.8 51.2 278.2 51.9Q278.5 52.5 278.5 53.4L278.5 53.4L278.5 60L276.0 60L276.0 58.6L275.9 58.6Q275.7 59.1 275.3 59.4Q274.9 59.8 274.3 60.0Q273.8 60.2 273.1 60.2ZM273.8 58.3L273.8 58.3Q274.4 58.3 274.9 58.1Q275.4 57.8 275.6 57.4Q275.9 57.0 275.9 56.5L275.9 56.5L275.9 55.4Q275.8 55.5 275.5 55.6Q275.3 55.6 275.0 55.7Q274.7 55.8 274.4 55.8Q274.2 55.8 273.9 55.9L273.9 55.9Q273.5 55.9 273.1 56.1Q272.7 56.3 272.5 56.5Q272.3 56.8 272.3 57.2L272.3 57.2Q272.3 57.6 272.5 57.8Q272.7 58.1 273.0 58.2Q273.4 58.3 273.8 58.3ZM283.2 60L280.6 60L280.6 50.2L283.1 50.2L283.1 51.9L283.2 51.9Q283.5 51.0 284.2 50.5Q284.8 50.0 285.6 50.0L285.6 50.0Q285.8 50.0 286.1 50.1Q286.3 50.1 286.5 50.1L286.5 50.1L286.5 52.5Q286.3 52.4 286.0 52.4Q285.6 52.4 285.3 52.4L285.3 52.4Q284.7 52.4 284.2 52.6Q283.8 52.9 283.5 53.3Q283.2 53.8 283.2 54.4L283.2 54.4L283.2 60ZM290.8 50.2L292.6 50.2L292.6 52.2L290.8 52.2L290.8 57.1Q290.8 57.6 291.0 57.8Q291.2 58.0 291.7 58.0L291.7 58.0Q291.8 58.0 292.1 58.0Q292.4 58.0 292.5 57.9L292.5 57.9L292.9 59.9Q292.4 60.0 292.0 60.1Q291.6 60.1 291.2 60.1L291.2 60.1Q289.7 60.1 288.9 59.4Q288.1 58.7 288.1 57.4L288.1 57.4L288.1 52.2L286.8 52.2L286.8 50.2L288.1 50.2L288.1 47.8L290.8 47.8L290.8 50.2ZM296.8 60L294.1 60L294.1 50.2L296.6 50.2L296.7 52.1Q296.9 51.5 297.2 51.1L297.2 51.1Q297.6 50.6 298.2 50.3Q298.8 50.0 299.5 50.0L299.5 50.0Q300.6 50.0 301.2 50.7L301.2 50.7Q301.7 51.2 302.0 52.2L302.0 52.2Q302.2 51.6 302.6 51.2L302.6 51.2Q303.1 50.6 303.8 50.3Q304.4 50.0 305.2 50.0L305.2 50.0Q306.1 50.0 306.8 50.4Q307.5 50.8 307.9 51.6Q308.3 52.3 308.3 53.4L308.3 53.4L308.3 60L305.7 60L305.7 53.9Q305.7 53.0 305.2 52.6Q304.8 52.2 304.1 52.2L304.1 52.2Q303.6 52.2 303.3 52.4Q302.9 52.7 302.7 53.0Q302.5 53.4 302.5 54.0L302.5 54.0L302.5 60L300.0 60L300.0 53.8Q300.0 53.1 299.5 52.7Q299.1 52.2 298.4 52.2L298.4 52.2Q298.0 52.2 297.6 52.4Q297.2 52.7 297.0 53.1Q296.8 53.5 296.8 54.1L296.8 54.1L296.8 60ZM314.8 60.2L314.8 60.2Q313.3 60.2 312.2 59.6Q311.2 59.0 310.6 57.8Q310.0 56.7 310.0 55.1L310.0 55.1Q310.0 53.6 310.6 52.5Q311.1 51.3 312.2 50.7Q313.3 50.1 314.7 50.1L314.7 50.1Q315.7 50.1 316.5 50.4Q317.3 50.7 318.0 51.3Q318.6 51.9 319.0 52.8Q319.3 53.8 319.3 55.0L319.3 55.0L319.3 55.8L312.6 55.8Q312.6 56.5 312.9 57.0L312.9 57.0Q313.2 57.6 313.7 57.9Q314.2 58.2 314.9 58.2L314.9 58.2Q315.3 58.2 315.7 58.1Q316.1 57.9 316.4 57.7Q316.6 57.4 316.8 57.0L316.8 57.0L319.2 57.5Q318.9 58.3 318.3 58.9Q317.8 59.5 316.9 59.9Q316.0 60.2 314.8 60.2ZM312.6 54.1L312.6 54.1L316.8 54.1Q316.7 53.6 316.6 53.2L316.6 53.2Q316.3 52.7 315.9 52.3Q315.4 52.0 314.7 52.0L314.7 52.0Q314.0 52.0 313.6 52.4Q313.1 52.7 312.8 53.2L312.8 53.2Q312.7 53.6 312.6 54.1ZM323.6 54.3L323.6 54.3L323.6 60L320.9 60L320.9 50.2L323.4 50.2L323.5 52.2Q323.8 51.3 324.5 50.7L324.5 50.7Q325.3 50.1 326.5 50.1L326.5 50.1Q327.5 50.1 328.3 50.5Q329.1 50.9 329.5 51.8Q329.9 52.6 329.9 53.8L329.9 53.8L329.9 60L327.3 60L327.3 54.2Q327.3 53.3 326.8 52.8Q326.3 52.3 325.5 52.3L325.5 52.3Q324.9 52.3 324.5 52.5Q324.1 52.7 323.8 53.2Q323.6 53.7 323.6 54.3ZM335.0 50.2L336.8 50.2L336.8 52.2L335.0 52.2L335.0 57.1Q335.0 57.6 335.2 57.8Q335.4 58.0 335.9 58.0L335.9 58.0Q336.1 58.0 336.3 58.0Q336.6 58.0 336.7 57.9L336.7 57.9L337.1 59.9Q336.7 60.0 336.2 60.1Q335.8 60.1 335.4 60.1L335.4 60.1Q333.9 60.1 333.2 59.4Q332.4 58.7 332.4 57.4L332.4 57.4L332.4 52.2L331.0 52.2L331.0 50.2L332.4 50.2L332.4 47.8L335.0 47.8L335.0 50.2Z "/></g><mask id="satori_om-id-1"><rect x="104" y="77" width="312" height="292" fill="#fff"/></mask><clipPath id="satori_cp-id-1-0"><rect x="104" y="77" width="312" height="292"/></clipPath><mask id="satori_om-id-1-0"><rect x="104" y="77" width="312" height="292" fill="#fff"/></mask><image x="104" y="77" width="312" height="292" href="data:image/svg+xml;utf8,%3Csvg  fill=%22none%22 xmlns=%22http://www.w3.org/2000/svg%22 width=%22312%22 height=%22292%22 viewBox=%220 0 312 292%22%3E%3Cpolygon points=%2287.0,50.0 70.5,78.6 37.5,78.6 21.0,50.0 37.5,21.4 70.5,21.4%22 fill=%22rgba(107,114,128,0.04)%22 stroke=%22%239ca3af%22 stroke-width=%221.5%22 stroke-opacity=%220.55%22%3E%3C/polygon%3E%3Cpolygon points=%2287.0,109.0 70.5,137.6 37.5,137.6 21.0,109.0 37.5,80.4 70.5,80.4%22 fill=%22%23fbbf24%22 stroke=%22%23d97706%22 stroke-width=%221.5%22%3E%3C/polygon%3E%3Cpolygon points=%2287.0,168.0 70.5,196.6 37.5,196.6 21.0,168.0 37.5,139.4 70.5,139.4%22 fill=%22rgba(107,114,128,0.04)%22 stroke=%22%239ca3af%22 stroke-width=%221.5%22 stroke-opacity=%220.55%22%3E%3C/polygon%3E%3Cpolygon points=%2287.0,227.0 70.5,255.6 37.5,255.6 21.0,227.0 37.5,198.4 70.5,198.4%22 fill=%22%23ffffff%22 stroke=%22%239ca3af%22 stroke-width=%221.5%22 stroke-opacity=%220.55%22%3E%3C/polygon%3E%3Cpolygon points=%22138.0,79.5 121.5,108.1 88.5,108.1 72.0,79.5 88.5,50.9 121.5,50.9%22 fill=%22%23fbbf24%22 stroke=%22%23d97706%22 stroke-width=%221.5%22%3E%3C/polygon%3E%3Cpolygon points=%22138.0,138.5 121.5,167.1 88.5,167.1 72.0,138.5 88.5,109.9 121.5,109.9%22 fill=%22rgba(107,114,128,0.04)%22 stroke=%22%239ca3af%22 stroke-width=%221.5%22 stroke-opacity=%220.55%22%3E%3C/polygon%3E%3Cpolygon points=%22138.0,197.5 121.5,226.1 88.5,226.1 72.0,197.5 88.5,168.9 121.5,168.9%22 fill=%22%23fbbf24%22 stroke=%22%23d97706%22 stroke-width=%221.5%22%3E%3C/polygon%3E%3Cpolygon points=%22189.0,50.0 172.5,78.6 139.5,78.6 123.0,50.0 139.5,21.4 172.5,21.4%22 fill=%22rgba(107,114,128,0.04)%22 stroke=%22%239ca3af%22 stroke-width=%221.5%22 stroke-opacity=%220.55%22%3E%3C/polygon%3E%3Cpolygon points=%22189.0,109.0 172.5,137.6 139.5,137.6 123.0,109.0 139.5,80.4 172.5,80.4%22 fill=%22%23fbbf24%22 stroke=%22%23d97706%22 stroke-width=%221.5%22%3E%3C/polygon%3E%3Cpolygon points=%22189.0,168.0 172.5,196.6 139.5,196.6 123.0,168.0 139.5,139.4 172.5,139.4%22 fill=%22%23fbbf24%22 stroke=%22%23d97706%22 stroke-width=%221.5%22%3E%3C/polygon%3E%3Cpolygon points=%22189.0,227.0 172.5,255.6 139.5,255.6 123.0,227.0 139.5,198.4 172.5,198.4%22 fill=%22%23ffffff%22 stroke=%22%239ca3af%22 stroke-width=%221.5%22 stroke-opacity=%220.55%22%3E%3C/polygon%3E%3Cpolygon points=%22240.0,79.5 223.5,108.1 190.5,108.1 174.0,79.5 190.5,50.9 223.5,50.9%22 fill=%22%23fbbf24%22 stroke=%22%23d97706%22 stroke-width=%221.5%22%3E%3C/polygon%3E%3Cpolygon points=%22240.0,138.5 223.5,167.1 190.5,167.1 174.0,138.5 190.5,109.9 223.5,109.9%22 fill=%22rgba(107,114,128,0.04)%22 stroke=%22%239ca3af%22 stroke-width=%221.5%22 stroke-opacity=%220.55%22%3E%3C/polygon%3E%3Cpolygon points=%22240.0,197.5 223.5,226.1 190.5,226.1 174.0,197.5 190.5,168.9 223.5,168.9%22 fill=%22%23fbbf24%22 stroke=%22%23d97706%22 stroke-width=%221.5%22%3E%3C/polygon%3E%3Cpolygon points=%22291.0,50.0 274.5,78.6 241.5,78.6 225.0,50.0 241.5,21.4 274.5,21.4%22 fill=%22rgba(107,114,128,0.04)%22 stroke=%22%239ca3af%22 stroke-width=%221.5%22 stroke-opacity=%220.55%22%3E%3C/polygon%3E%3Cpolygon points=%22291.0,109.0 274.5,137.6 241.5,137.6 225.0,109.0 241.5,80.4 274.5,80.4%22 fill=%22%23fbbf24%22 stroke=%22%23d97706%22 stroke-width=%221.5%22%3E%3C/polygon%3E%3Cpolygon points=%22291.0,168.0 274.5,196.6 241.5,196.6 225.0,168.0 241.5,139.4 274.5,139.4%22 fill=%22rgba(107,114,128,0.04)%22 stroke=%22%239ca3af%22 stroke-width=%221.5%22 stroke-opacity=%220.55%22%3E%3C/polygon%3E%3Cpolygon points=%22291.0,227.0 274.5,255.6 241.5,255.6 225.0,227.0 241.5,198.4 274.5,198.4%22 fill=%22%23ffffff%22 stroke=%22%239ca3af%22 stroke-width=%221.5%22 stroke-opacity=%220.55%22%3E%3C/polygon%3E%3C/svg%3E" preserveAspectRatio="none" clip-path="url(#satori_cp-id-1-0)" mask="url(#satori_om-id-1-0)"/><mask id="satori_om-id-1-0-0"><rect x="104" y="77" width="0" height="292" fill="#fff"/></mask><mask id="satori_om-id-1-0-1"><rect x="104" y="77" width="0" height="292" fill="#fff"/></mask><mask id="satori_om-id-1-0-2"><rect x="104" y="77" width="0" height="292" fill="#fff"/></mask><mask id="satori_om-id-1-0-3"><rect x="104" y="77" width="0" height="292" fill="#fff"/></mask><mask id="satori_om-id-1-0-4"><rect x="104" y="77" width="0" height="292" fill="#fff"/></mask><mask id="satori_om-id-1-0-5"><rect x="104" y="77" width="0" height="292" fill="#fff"/></mask><mask id="satori_om-id-1-0-6"><rect x="104" y="77" width="0" height="292" fill="#fff"/></mask><mask id="satori_om-id-1-0-7"><rect x="104" y="77" width="0" height="292" fill="#fff"/></mask><mask id="satori_om-id-1-0-8"><rect x="104" y="77" width="0" height="292" fill="#fff"/></mask><mask id="satori_om-id-1-0-9"><rect x="104" y="77" width="0" height="292" fill="#fff"/></mask><mask id="satori_om-id-1-0-10"><rect x="104" y="77" width="0" height="292" fill="#fff"/></mask><mask id="satori_om-id-1-0-11"><rect x="104" y="77" width="0" height="292" fill="#fff"/></mask><mask id="satori_om-id-1-0-12"><rect x="104" y="77" width="0" height="292" fill="#fff"/></mask><mask id="satori_om-id-1-0-13"><rect x="104" y="77" width="0" height="292" fill="#fff"/></mask><mask id="satori_om-id-1-0-14"><rect x="104" y="77" width="0" height="292" fill="#fff"/></mask><mask id="satori_om-id-1-0-15"><rect x="104" y="77" width="0" height="292" fill="#fff"/></mask><mask id="satori_om-id-1-0-16"><rect x="104" y="77" width="0" height="292" fill="#fff"/></mask><mask id="satori_om-id-1-0-17"><rect x="104" y="77" width="0" height="292" fill="#fff"/></mask><mask id="satori_ms-id-1-1-0" maskUnits="userSpaceOnUse"><rect x="0" y="0" width="520" height="440" fill="#fff"/><path x="138" y="166" width="40" height="40" fill="#000"  stroke-width="0" d="M158,166 h0 a20,20 0 0 1 20,20 v0 a20,20 0 0 1 -20,20 h0 a20,20 0 0 1 -20,-20 v0 a20,20 0 0 1 20,-20"/></mask><defs><filter id="satori_s-id-1-1-0" x="NaN%" y="NaN%" width="NaN%" height="NaN%"><feGaussianBlur stdDeviation="NaN" result="b"/><feFlood flood-color="none" in="SourceGraphic" result="f"/><feComposite in="f" in2="b" operator="in"/></filter></defs><g mask="url(#satori_ms-id-1-1-0)" filter="url(#satori_s-id-1-1-0)" opacity="1"><path x="NaN" y="NaN" width="40" height="40" fill="#fff" stroke="#fff" stroke-width="0" d="MNaN,NaN h0 a20,20 0 0 1 20,20 v0 a20,20 0 0 1 -20,20 h0 a20,20 0 0 1 -20,-20 v0 a20,20 0 0 1 20,-20"/></g><mask id="satori_om-id-1-1"><rect x="138" y="166" width="40" height="40" fill="#fff"/></mask><mask id="satori_om-id-1-1-0"><rect x="151" y="181" width="15" height="11" fill="#fff"/></mask><g  ><path fill="#78350f" d="M151.7 183.0L153.4 183.0L153.4 191L151.7 191L151.7 183.0ZM156.9 191L155.3 191L155.3 183.0L157.8 183.0L159.1 186.7Q159.1 186.9 159.3 187.3Q159.4 187.7 159.5 188.2L159.5 188.2Q159.6 188.7 159.7 189.1L159.7 189.1Q159.8 188.7 159.9 188.2L159.9 188.2Q160.0 187.8 160.1 187.3Q160.2 186.9 160.3 186.7L160.3 186.7L161.5 183.0L164.1 183.0L164.1 191L162.4 191L162.4 187.2Q162.4 187.0 162.4 186.6Q162.4 186.2 162.4 185.7Q162.5 185.3 162.5 184.8L162.5 184.8Q162.5 184.6 162.5 184.4L162.5 184.4Q162.4 184.6 162.4 184.9L162.4 184.9Q162.2 185.3 162.1 185.8Q162.0 186.2 161.9 186.6Q161.8 187.0 161.7 187.2L161.7 187.2L160.3 191L159.0 191L157.6 187.2Q157.5 187.0 157.4 186.6Q157.3 186.2 157.2 185.8Q157.1 185.4 156.9 184.9L156.9 184.9Q156.9 184.7 156.8 184.5L156.8 184.5Q156.8 184.6 156.8 184.8L156.8 184.8Q156.8 185.2 156.9 185.7Q156.9 186.2 156.9 186.6Q156.9 187.0 156.9 187.2L156.9 187.2L156.9 191Z "/></g><mask id="satori_ms-id-1-2-0" maskUnits="userSpaceOnUse"><rect x="0" y="0" width="520" height="440" fill="#fff"/><path x="189" y="137" width="40" height="40" fill="#000"  stroke-width="0" d="M209,137 h0 a20,20 0 0 1 20,20 v0 a20,20 0 0 1 -20,20 h0 a20,20 0 0 1 -20,-20 v0 a20,20 0 0 1 20,-20"/></mask><defs><filter id="satori_s-id-1-2-0" x="NaN%" y="NaN%" width="NaN%" height="NaN%"><feGaussianBlur stdDeviation="NaN" result="b"/><feFlood flood-color="none" in="SourceGraphic" result="f"/><feComposite in="f" in2="b" operator="in"/></filter></defs><g mask="url(#satori_ms-id-1-2-0)" filter="url(#satori_s-id-1-2-0)" opacity="1"><path x="NaN" y="NaN" width="40" height="40" fill="#fff" stroke="#fff" stroke-width="0" d="MNaN,NaN h0 a20,20 0 0 1 20,20 v0 a20,20 0 0 1 -20,20 h0 a20,20 0 0 1 -20,-20 v0 a20,20 0 0 1 20,-20"/></g><mask id="satori_om-id-1-2"><rect x="189" y="137" width="40" height="40" fill="#fff"/></mask><mask id="satori_om-id-1-2-0"><rect x="200" y="152" width="18" height="11" fill="#fff"/></mask><g  ><path fill="#78350f" d="M206.1 162L200.7 162L200.7 154.0L206.1 154.0L206.1 155.4L202.4 155.4L202.4 157.3L205.8 157.3L205.8 158.6L202.4 158.6L202.4 160.6L206.1 160.6L206.1 162ZM209.5 162L207.8 162L207.8 154.0L210.4 154.0L211.7 157.7Q211.7 157.9 211.8 158.3Q212.0 158.7 212.1 159.2L212.1 159.2Q212.2 159.7 212.3 160.1L212.3 160.1Q212.3 159.7 212.4 159.2L212.4 159.2Q212.6 158.8 212.7 158.3Q212.8 157.9 212.8 157.7L212.8 157.7L214.1 154.0L216.6 154.0L216.6 162L215.0 162L215.0 158.2Q215.0 158.0 215.0 157.6Q215.0 157.2 215.0 156.7Q215.0 156.3 215.1 155.8L215.1 155.8Q215.1 155.6 215.1 155.4L215.1 155.4Q215.0 155.6 214.9 155.9L214.9 155.9Q214.8 156.3 214.7 156.8Q214.6 157.2 214.5 157.6Q214.3 158.0 214.3 158.2L214.3 158.2L212.9 162L211.6 162L210.2 158.2Q210.1 158.0 210.0 157.6Q209.9 157.2 209.8 156.8Q209.7 156.4 209.5 155.9L209.5 155.9Q209.5 155.7 209.4 155.5L209.4 155.5Q209.4 155.6 209.4 155.8L209.4 155.8Q209.4 156.2 209.4 156.7Q209.5 157.2 209.5 157.6Q209.5 158.0 209.5 158.2L209.5 158.2L209.5 162Z "/></g><mask id="satori_ms-id-1-3-0" maskUnits="userSpaceOnUse"><rect x="0" y="0" width="520" height="440" fill="#fff"/><path x="189" y="255" width="40" height="40" fill="#000"  stroke-width="0" d="M209,255 h0 a20,20 0 0 1 20,20 v0 a20,20 0 0 1 -20,20 h0 a20,20 0 0 1 -20,-20 v0 a20,20 0 0 1 20,-20"/></mask><defs><filter id="satori_s-id-1-3-0" x="NaN%" y="NaN%" width="NaN%" height="NaN%"><feGaussianBlur stdDeviation="NaN" result="b"/><feFlood flood-color="none" in="SourceGraphic" result="f"/><feComposite in="f" in2="b" operator="in"/></filter></defs><g mask="url(#satori_ms-id-1-3-0)" filter="url(#satori_s-id-1-3-0)" opacity="1"><path x="NaN" y="NaN" width="40" height="40" fill="#fff" stroke="#fff" stroke-width="0" d="MNaN,NaN h0 a20,20 0 0 1 20,20 v0 a20,20 0 0 1 -20,20 h0 a20,20 0 0 1 -20,-20 v0 a20,20 0 0 1 20,-20"/></g><mask id="satori_om-id-1-3"><rect x="189" y="255" width="40" height="40" fill="#fff"/></mask><mask id="satori_om-id-1-3-0"><rect x="197" y="270" width="24" height="11" fill="#fff"/></mask><g  ><path fill="#78350f" d="M200.7 280.1L200.7 280.1Q199.7 280.1 199.0 279.8Q198.3 279.5 197.9 278.9Q197.5 278.4 197.5 277.5L197.5 277.5L199.1 277.5Q199.1 277.9 199.3 278.2Q199.5 278.5 199.9 278.6Q200.2 278.7 200.6 278.7L200.6 278.7Q201.1 278.7 201.4 278.6Q201.7 278.5 201.9 278.2Q202.1 278.0 202.1 277.7L202.1 277.7Q202.1 277.4 201.9 277.3Q201.8 277.1 201.5 276.9Q201.2 276.8 200.7 276.7L200.7 276.7L199.8 276.5Q198.8 276.2 198.2 275.7Q197.7 275.2 197.7 274.3L197.7 274.3Q197.7 273.6 198.1 273.0Q198.5 272.5 199.1 272.2Q199.8 271.9 200.7 271.9L200.7 271.9Q201.6 271.9 202.2 272.2Q202.9 272.5 203.3 273.0Q203.6 273.6 203.6 274.3L203.6 274.3L202.1 274.3Q202.0 273.8 201.6 273.5Q201.3 273.3 200.7 273.3L200.7 273.3Q200.2 273.3 200.0 273.4Q199.7 273.5 199.5 273.7Q199.4 273.9 199.4 274.2L199.4 274.2Q199.4 274.5 199.5 274.7Q199.7 274.9 200.0 275.0Q200.3 275.1 200.6 275.2L200.6 275.2L201.4 275.4Q201.9 275.5 202.3 275.7Q202.7 275.9 203.1 276.2Q203.4 276.4 203.6 276.8Q203.7 277.2 203.7 277.7L203.7 277.7Q203.7 278.4 203.4 279.0Q203.0 279.5 202.3 279.8Q201.6 280.1 200.7 280.1ZM208.7 280.1L208.7 280.1Q207.7 280.1 206.9 279.7Q206.2 279.4 205.8 278.7Q205.4 278.1 205.4 277.2L205.4 277.2L205.4 272.0L207.0 272.0L207.0 277.1Q207.0 277.5 207.2 277.9Q207.4 278.2 207.8 278.5Q208.2 278.7 208.7 278.7L208.7 278.7Q209.2 278.7 209.5 278.5Q209.9 278.2 210.1 277.9Q210.3 277.5 210.3 277.1L210.3 277.1L210.3 272.0L212.0 272.0L212.0 277.2Q212.0 278.1 211.6 278.7Q211.1 279.4 210.4 279.7Q209.7 280.1 208.7 280.1ZM215.5 280L213.9 280L213.9 272.0L217.0 272.0Q217.9 272.0 218.5 272.3Q219.2 272.6 219.5 273.2Q219.8 273.8 219.8 274.6Q219.8 275.4 219.5 276.0Q219.2 276.5 218.5 276.8L218.5 276.8Q218.5 276.9 218.4 276.9L218.4 276.9L220.1 280L218.3 280L216.8 277.1L215.5 277.1L215.5 280ZM215.5 273.4L215.5 275.8L216.7 275.8Q217.2 275.8 217.5 275.7Q217.8 275.5 218.0 275.3Q218.2 275.0 218.2 274.6L218.2 274.6Q218.2 274.2 218.0 273.9Q217.8 273.6 217.5 273.5Q217.2 273.4 216.7 273.4L216.7 273.4L215.5 273.4Z "/></g><mask id="satori_ms-id-1-4-1" maskUnits="userSpaceOnUse"><rect x="0" y="0" width="520" height="440" fill="#fff"/><path x="240" y="166" width="40" height="40" fill="#000"  stroke-width="4" d="M260,166 h0 a20,20 0 0 1 20,20 v0 a20,20 0 0 1 -20,20 h0 a20,20 0 0 1 -20,-20 v0 a20,20 0 0 1 20,-20"/></mask><defs><filter id="satori_s-id-1-4-1" x="-67.5%" y="-67.5%" width="235%" height="235%"><feGaussianBlur stdDeviation="5" result="b"/><feFlood flood-color="rgba(251,191,36,0.18)" in="SourceGraphic" result="f"/><feComposite in="f" in2="b" operator="in"/></filter></defs><g mask="url(#satori_ms-id-1-4-1)" filter="url(#satori_s-id-1-4-1)" opacity="1"><path x="240" y="166" width="40" height="40" fill="#fff" stroke="#fff" stroke-width="4" d="M260,166 h0 a20,20 0 0 1 20,20 v0 a20,20 0 0 1 -20,20 h0 a20,20 0 0 1 -20,-20 v0 a20,20 0 0 1 20,-20"/></g><mask id="satori_ms-id-1-4-0" maskUnits="userSpaceOnUse"><rect x="0" y="0" width="520" height="440" fill="#fff"/><path x="240" y="166" width="40" height="40" fill="#000"  stroke-width="12" d="M260,166 h0 a20,20 0 0 1 20,20 v0 a20,20 0 0 1 -20,20 h0 a20,20 0 0 1 -20,-20 v0 a20,20 0 0 1 20,-20"/></mask><defs><filter id="satori_s-id-1-4-0" x="-375%" y="-375%" width="850%" height="850%"><feGaussianBlur stdDeviation="12" result="b"/><feFlood flood-color="rgba(251,191,36,0.22)" in="SourceGraphic" result="f"/><feComposite in="f" in2="b" operator="in"/></filter></defs><g mask="url(#satori_ms-id-1-4-0)" filter="url(#satori_s-id-1-4-0)" opacity="1"><path x="240" y="166" width="40" height="40" fill="#fff" stroke="#fff" stroke-width="12" d="M260,166 h0 a20,20 0 0 1 20,20 v0 a20,20 0 0 1 -20,20 h0 a20,20 0 0 1 -20,-20 v0 a20,20 0 0 1 20,-20"/></g><mask id="satori_om-id-1-4"><rect x="240" y="166" width="40" height="40" fill="#fff"/></mask><mask id="satori_om-id-1-4-0"><rect x="248" y="181" width="24" height="11" fill="#fff"/></mask><g  ><path fill="#78350f" d="M250.4 191L248.7 191L248.7 183.0L251.8 183.0Q252.8 183.0 253.4 183.3Q254.0 183.7 254.4 184.3Q254.7 184.9 254.7 185.7L254.7 185.7Q254.7 186.5 254.4 187.1Q254.0 187.7 253.4 188.0Q252.7 188.4 251.8 188.4L251.8 188.4L250.4 188.4L250.4 191ZM250.4 184.4L250.4 187.1L251.5 187.1Q252.0 187.1 252.4 186.9Q252.7 186.7 252.9 186.4Q253.0 186.1 253.0 185.7Q253.0 185.3 252.9 185.0Q252.7 184.7 252.4 184.5Q252.0 184.4 251.5 184.4L251.5 184.4L250.4 184.4ZM261.7 191L256.3 191L256.3 183.0L261.6 183.0L261.6 184.4L257.9 184.4L257.9 186.3L261.4 186.3L261.4 187.6L257.9 187.6L257.9 189.6L261.7 189.6L261.7 191ZM266.2 191L266.2 191L263.4 191L263.4 183.0L266.3 183.0Q267.5 183.0 268.3 183.5Q269.2 184.0 269.7 184.9Q270.1 185.7 270.1 187.0L270.1 187.0Q270.1 188.2 269.7 189.1Q269.2 190.0 268.3 190.5Q267.4 191 266.2 191ZM265.1 184.4L265.1 189.6L266.1 189.6Q266.9 189.6 267.4 189.3Q268.0 189.0 268.2 188.5Q268.5 187.9 268.5 187.0L268.5 187.0Q268.5 186.1 268.2 185.5Q268.0 185.0 267.4 184.7Q266.9 184.4 266.2 184.4L266.2 184.4L265.1 184.4Z "/></g><mask id="satori_ms-id-1-5-0" maskUnits="userSpaceOnUse"><rect x="0" y="0" width="520" height="440" fill="#fff"/><path x="240" y="225" width="40" height="40" fill="#000"  stroke-width="0" d="M260,225 h0 a20,20 0 0 1 20,20 v0 a20,20 0 0 1 -20,20 h0 a20,20 0 0 1 -20,-20 v0 a20,20 0 0 1 20,-20"/></mask><defs><filter id="satori_s-id-1-5-0" x="NaN%" y="NaN%" width="NaN%" height="NaN%"><feGaussianBlur stdDeviation="NaN" result="b"/><feFlood flood-color="none" in="SourceGraphic" result="f"/><feComposite in="f" in2="b" operator="in"/></filter></defs><g mask="url(#satori_ms-id-1-5-0)" filter="url(#satori_s-id-1-5-0)" opacity="1"><path x="NaN" y="NaN" width="40" height="40" fill="#fff" stroke="#fff" stroke-width="0" d="MNaN,NaN h0 a20,20 0 0 1 20,20 v0 a20,20 0 0 1 -20,20 h0 a20,20 0 0 1 -20,-20 v0 a20,20 0 0 1 20,-20"/></g><mask id="satori_om-id-1-5"><rect x="240" y="225" width="40" height="40" fill="#fff"/></mask><mask id="satori_om-id-1-5-0"><rect x="252" y="240" width="17" height="11" fill="#fff"/></mask><g  ><path fill="#78350f" d="M256.2 250.1L256.2 250.1Q255.2 250.1 254.3 249.6Q253.5 249.1 253.0 248.2Q252.5 247.3 252.5 246.0L252.5 246.0Q252.5 244.7 253.0 243.8Q253.5 242.9 254.3 242.4Q255.2 241.9 256.2 241.9L256.2 241.9Q257.3 241.9 258.1 242.4Q259.0 242.9 259.5 243.8Q260.0 244.7 260.0 246.0L260.0 246.0Q260.0 247.3 259.5 248.2Q259.0 249.1 258.1 249.6Q257.3 250.1 256.2 250.1ZM256.2 248.7L256.2 248.7Q256.9 248.7 257.3 248.3Q257.8 248.0 258.0 247.5Q258.3 246.9 258.3 246.0L258.3 246.0Q258.3 245.1 258.0 244.5Q257.8 244.0 257.3 243.6Q256.9 243.3 256.2 243.3L256.2 243.3Q255.6 243.3 255.2 243.7Q254.7 244.0 254.4 244.6Q254.2 245.1 254.2 246.0L254.2 246.0Q254.2 246.9 254.4 247.4Q254.7 248.0 255.2 248.3Q255.6 248.7 256.2 248.7ZM265.0 250L261.6 250L261.6 242.0L264.8 242.0Q265.7 242.0 266.3 242.3Q266.9 242.5 267.2 243.0Q267.5 243.5 267.5 244.1L267.5 244.1Q267.5 244.5 267.3 244.9Q267.1 245.2 266.8 245.5Q266.4 245.7 266.0 245.8L266.0 245.8L266.0 245.9Q266.5 245.9 266.9 246.1Q267.3 246.3 267.5 246.8Q267.8 247.2 267.8 247.8L267.8 247.8Q267.8 248.4 267.5 248.9Q267.1 249.4 266.5 249.7Q265.9 250 265.0 250L265.0 250ZM263.3 246.5L263.3 248.7L264.7 248.7Q265.4 248.7 265.7 248.4Q266.1 248.1 266.1 247.6L266.1 247.6Q266.1 247.3 265.9 247.0Q265.8 246.8 265.5 246.6Q265.2 246.5 264.7 246.5L264.7 246.5L263.3 246.5ZM263.3 243.3L263.3 245.4L264.6 245.4Q264.9 245.4 265.2 245.2Q265.5 245.1 265.6 244.9Q265.8 244.6 265.8 244.3L265.8 244.3Q265.8 243.9 265.5 243.6Q265.2 243.3 264.6 243.3L264.6 243.3L263.3 243.3Z "/></g><mask id="satori_ms-id-1-6-0" maskUnits="userSpaceOnUse"><rect x="0" y="0" width="520" height="440" fill="#fff"/><path x="291" y="137" width="40" height="40" fill="#000"  stroke-width="0" d="M311,137 h0 a20,20 0 0 1 20,20 v0 a20,20 0 0 1 -20,20 h0 a20,20 0 0 1 -20,-20 v0 a20,20 0 0 1 20,-20"/></mask><defs><filter id="satori_s-id-1-6-0" x="NaN%" y="NaN%" width="NaN%" height="NaN%"><feGaussianBlur stdDeviation="NaN" result="b"/><feFlood flood-color="none" in="SourceGraphic" result="f"/><feComposite in="f" in2="b" operator="in"/></filter></defs><g mask="url(#satori_ms-id-1-6-0)" filter="url(#satori_s-id-1-6-0)" opacity="1"><path x="NaN" y="NaN" width="40" height="40" fill="#fff" stroke="#fff" stroke-width="0" d="MNaN,NaN h0 a20,20 0 0 1 20,20 v0 a20,20 0 0 1 -20,20 h0 a20,20 0 0 1 -20,-20 v0 a20,20 0 0 1 20,-20"/></g><mask id="satori_om-id-1-6"><rect x="291" y="137" width="40" height="40" fill="#fff"/></mask><mask id="satori_om-id-1-6-0"><rect x="299" y="152" width="25" height="11" fill="#fff"/></mask><g  ><path fill="#78350f" d="M301.1 162L299.3 162L302.0 154.0L304.1 154.0L306.9 162L305.1 162L304.5 160.1L301.7 160.1L301.1 162ZM302.1 158.9L304.1 158.9L303.8 158.1Q303.6 157.4 303.4 156.5L303.4 156.5Q303.2 155.9 303.1 155.3L303.1 155.3Q302.9 155.9 302.8 156.5L302.8 156.5Q302.5 157.4 302.3 158.1L302.3 158.1L302.1 158.9ZM310.1 162L308.4 162L308.4 154.0L310.2 154.0L312.7 158.0Q312.9 158.4 313.1 158.7Q313.3 159.1 313.5 159.5L313.5 159.5Q313.6 159.8 313.7 160.0L313.7 160.0Q313.7 159.8 313.7 159.6L313.7 159.6Q313.7 159.1 313.7 158.6Q313.6 158.2 313.6 157.8L313.6 157.8L313.6 154.0L315.3 154.0L315.3 162L313.5 162L311.2 158.3Q310.9 157.9 310.7 157.5Q310.5 157.1 310.3 156.7L310.3 156.7Q310.1 156.4 309.9 156.0L309.9 156.0Q310.0 156.3 310.0 156.7L310.0 156.7Q310.0 157.2 310.0 157.6Q310.1 158.0 310.1 158.3L310.1 158.3L310.1 162ZM322.6 162L317.2 162L317.2 154.0L322.6 154.0L322.6 155.4L318.8 155.4L318.8 157.3L322.3 157.3L322.3 158.6L318.8 158.6L318.8 160.6L322.6 160.6L322.6 162Z "/></g><mask id="satori_ms-id-1-7-0" maskUnits="userSpaceOnUse"><rect x="0" y="0" width="520" height="440" fill="#fff"/><path x="291" y="255" width="40" height="40" fill="#000"  stroke-width="0" d="M311,255 h0 a20,20 0 0 1 20,20 v0 a20,20 0 0 1 -20,20 h0 a20,20 0 0 1 -20,-20 v0 a20,20 0 0 1 20,-20"/></mask><defs><filter id="satori_s-id-1-7-0" x="NaN%" y="NaN%" width="NaN%" height="NaN%"><feGaussianBlur stdDeviation="NaN" result="b"/><feFlood flood-color="none" in="SourceGraphic" result="f"/><feComposite in="f" in2="b" operator="in"/></filter></defs><g mask="url(#satori_ms-id-1-7-0)" filter="url(#satori_s-id-1-7-0)" opacity="1"><path x="NaN" y="NaN" width="40" height="40" fill="#fff" stroke="#fff" stroke-width="0" d="MNaN,NaN h0 a20,20 0 0 1 20,20 v0 a20,20 0 0 1 -20,20 h0 a20,20 0 0 1 -20,-20 v0 a20,20 0 0 1 20,-20"/></g><mask id="satori_om-id-1-7"><rect x="291" y="255" width="40" height="40" fill="#fff"/></mask><mask id="satori_om-id-1-7-0"><rect x="299" y="270" width="25" height="11" fill="#fff"/></mask><g  ><path fill="#78350f" d="M301.4 280L299.7 280L299.7 272.0L302.8 272.0Q303.8 272.0 304.4 272.3Q305.0 272.6 305.4 273.2Q305.7 273.8 305.7 274.6Q305.7 275.4 305.4 276.0Q305.0 276.5 304.4 276.8L304.4 276.8Q304.3 276.9 304.3 276.9L304.3 276.9L306.0 280L304.2 280L302.6 277.1L301.4 277.1L301.4 280ZM301.4 273.4L301.4 275.8L302.5 275.8Q303.0 275.8 303.4 275.7Q303.7 275.5 303.9 275.3Q304.0 275.0 304.0 274.6L304.0 274.6Q304.0 274.2 303.9 273.9Q303.7 273.6 303.4 273.5Q303.0 273.4 302.5 273.4L302.5 273.4L301.4 273.4ZM308.7 280L306.9 280L309.7 272.0L311.8 272.0L314.6 280L312.8 280L312.2 278.1L309.3 278.1L308.7 280ZM309.7 276.9L311.8 276.9L311.5 276.1Q311.3 275.4 311.0 274.5L311.0 274.5Q310.9 273.9 310.7 273.3L310.7 273.3Q310.6 273.9 310.4 274.5L310.4 274.5Q310.2 275.4 310.0 276.1L310.0 276.1L309.7 276.9ZM318.9 280L318.9 280L316.0 280L316.0 272.0L318.9 272.0Q320.1 272.0 321.0 272.5Q321.8 273.0 322.3 273.9Q322.8 274.7 322.8 276.0L322.8 276.0Q322.8 277.2 322.3 278.1Q321.8 279.0 320.9 279.5Q320.1 280 318.9 280ZM317.7 273.4L317.7 278.6L318.8 278.6Q319.5 278.6 320.1 278.3Q320.6 278.0 320.9 277.5Q321.1 276.9 321.1 276.0L321.1 276.0Q321.1 275.1 320.9 274.5Q320.6 274.0 320.1 273.7Q319.6 273.4 318.8 273.4L318.8 273.4L317.7 273.4Z "/></g><mask id="satori_ms-id-1-8-0" maskUnits="userSpaceOnUse"><rect x="0" y="0" width="520" height="440" fill="#fff"/><path x="342" y="166" width="40" height="40" fill="#000"  stroke-width="0" d="M362,166 h0 a20,20 0 0 1 20,20 v0 a20,20 0 0 1 -20,20 h0 a20,20 0 0 1 -20,-20 v0 a20,20 0 0 1 20,-20"/></mask><defs><filter id="satori_s-id-1-8-0" x="NaN%" y="NaN%" width="NaN%" height="NaN%"><feGaussianBlur stdDeviation="NaN" result="b"/><feFlood flood-color="none" in="SourceGraphic" result="f"/><feComposite in="f" in2="b" operator="in"/></filter></defs><g mask="url(#satori_ms-id-1-8-0)" filter="url(#satori_s-id-1-8-0)" opacity="1"><path x="NaN" y="NaN" width="40" height="40" fill="#fff" stroke="#fff" stroke-width="0" d="MNaN,NaN h0 a20,20 0 0 1 20,20 v0 a20,20 0 0 1 -20,20 h0 a20,20 0 0 1 -20,-20 v0 a20,20 0 0 1 20,-20"/></g><mask id="satori_om-id-1-8"><rect x="342" y="166" width="40" height="40" fill="#fff"/></mask><mask id="satori_om-id-1-8-0"><rect x="350" y="181" width="25" height="11" fill="#fff"/></mask><g  ><path fill="#78350f" d="M354.2 191.1L354.2 191.1Q353.2 191.1 352.3 190.6Q351.5 190.1 351.0 189.2Q350.5 188.3 350.5 187.0L350.5 187.0Q350.5 185.7 351.0 184.8Q351.5 183.9 352.3 183.4Q353.2 182.9 354.2 182.9L354.2 182.9Q354.9 182.9 355.5 183.1Q356.1 183.3 356.5 183.6Q357.0 184.0 357.3 184.5Q357.6 185.1 357.7 185.7L357.7 185.7L356.0 185.7Q356.0 185.4 355.8 185.1Q355.6 184.9 355.4 184.7Q355.2 184.5 354.9 184.4Q354.6 184.3 354.3 184.3L354.3 184.3Q353.6 184.3 353.2 184.7Q352.7 185.0 352.4 185.6Q352.2 186.2 352.2 187.0L352.2 187.0Q352.2 187.9 352.4 188.5Q352.7 189.1 353.2 189.4Q353.6 189.7 354.2 189.7L354.2 189.7Q354.6 189.7 354.9 189.6Q355.2 189.5 355.4 189.3Q355.6 189.1 355.8 188.8Q356.0 188.6 356.0 188.3L356.0 188.3L357.7 188.3Q357.6 188.8 357.3 189.3Q357.1 189.8 356.6 190.2Q356.2 190.6 355.6 190.9Q355.0 191.1 354.2 191.1ZM360.7 191L358.8 191L361.6 183.0L363.7 183.0L366.5 191L364.7 191L364.1 189.1L361.2 189.1L360.7 191ZM361.7 187.9L363.7 187.9L363.4 187.1Q363.2 186.4 363.0 185.5L363.0 185.5Q362.8 184.9 362.6 184.3L362.6 184.3Q362.5 184.9 362.3 185.5L362.3 185.5Q362.1 186.4 361.9 187.1L361.9 187.1L361.7 187.9ZM369.6 191L368.0 191L368.0 183.0L371.1 183.0Q372.0 183.0 372.6 183.3Q373.3 183.6 373.6 184.2Q373.9 184.8 373.9 185.6Q373.9 186.4 373.6 187.0Q373.3 187.5 372.6 187.8L372.6 187.8Q372.6 187.9 372.5 187.9L372.5 187.9L374.2 191L372.4 191L370.9 188.1L369.6 188.1L369.6 191ZM369.6 184.4L369.6 186.8L370.8 186.8Q371.3 186.8 371.6 186.7Q371.9 186.5 372.1 186.3Q372.2 186.0 372.2 185.6L372.2 185.6Q372.2 185.2 372.1 184.9Q371.9 184.6 371.6 184.5Q371.3 184.4 370.8 184.4L370.8 184.4L369.6 184.4Z "/></g><defs><clipPath id="satori_bc-id-2"><path x="152" y="381" width="216" height="33" d="M168.5,381 h183 a16.5,16.5 0 0 1 16.5,16.5 v0 a16.5,16.5 0 0 1 -16.5,16.5 h-183 a16.5,16.5 0 0 1 -16.5,-16.5 v0 a16.5,16.5 0 0 1 16.5,-16.5"/></clipPath></defs><mask id="satori_ms-id-2-1" maskUnits="userSpaceOnUse"><rect x="0" y="0" width="520" height="440" fill="#fff"/><path x="152" y="381" width="216" height="33" fill="#000"  stroke-width="0" d="M168.5,381 h183 a16.5,16.5 0 0 1 16.5,16.5 v0 a16.5,16.5 0 0 1 -16.5,16.5 h-183 a16.5,16.5 0 0 1 -16.5,-16.5 v0 a16.5,16.5 0 0 1 16.5,-16.5"/></mask><defs><filter id="satori_s-id-2-1" x="-16.666666666666664%" y="-109.09090909090908%" width="133.33333333333331%" height="318.1818181818182%"><feGaussianBlur stdDeviation="6" result="b"/><feFlood flood-color="rgba(0,0,0,0.04)" in="SourceGraphic" result="f"/><feComposite in="f" in2="b" operator="in"/></filter></defs><g mask="url(#satori_ms-id-2-1)" filter="url(#satori_s-id-2-1)" opacity="1"><path x="152" y="385" width="216" height="33" fill="#fff" stroke="#fff" stroke-width="0" d="M168.5,385 h183 a16.5,16.5 0 0 1 16.5,16.5 v0 a16.5,16.5 0 0 1 -16.5,16.5 h-183 a16.5,16.5 0 0 1 -16.5,-16.5 v0 a16.5,16.5 0 0 1 16.5,-16.5"/></g><mask id="satori_ms-id-2-0" maskUnits="userSpaceOnUse"><rect x="0" y="0" width="520" height="440" fill="#fff"/><path x="152" y="381" width="216" height="33" fill="#000"  stroke-width="0" d="M168.5,381 h183 a16.5,16.5 0 0 1 16.5,16.5 v0 a16.5,16.5 0 0 1 -16.5,16.5 h-183 a16.5,16.5 0 0 1 -16.5,-16.5 v0 a16.5,16.5 0 0 1 16.5,-16.5"/></mask><defs><filter id="satori_s-id-2-0" x="-0.4629629629629629%" y="-3.0303030303030303%" width="100.92592592592592%" height="106.06060606060606%"><feGaussianBlur stdDeviation="1" result="b"/><feFlood flood-color="rgba(0,0,0,0.03)" in="SourceGraphic" result="f"/><feComposite in="f" in2="b" operator="in"/></filter></defs><g mask="url(#satori_ms-id-2-0)" filter="url(#satori_s-id-2-0)" opacity="1"><path x="152" y="382" width="216" height="33" fill="#fff" stroke="#fff" stroke-width="0" d="M168.5,382 h183 a16.5,16.5 0 0 1 16.5,16.5 v0 a16.5,16.5 0 0 1 -16.5,16.5 h-183 a16.5,16.5 0 0 1 -16.5,-16.5 v0 a16.5,16.5 0 0 1 16.5,-16.5"/></g><mask id="satori_om-id-2"><rect x="153" y="382" width="214" height="31" fill="#fff"/><path width="216" height="33" fill="none" stroke="#000" stroke-width="2" d="M156.833,385.833 A16.5,16.5 0 0 1 168.5,381 h183 a16.5,16.5 0 0 1 16.5,16.5 v0 a16.5,16.5 0 0 1 -16.5,16.5 h-183 a16.5,16.5 0 0 1 -16.5,-16.5 v0 A16.5,16.5 0 0 1 156.833,385.833"/></mask><path x="152" y="381" width="216" height="33" fill="#ffffff" d="M168.5,381 h183 a16.5,16.5 0 0 1 16.5,16.5 v0 a16.5,16.5 0 0 1 -16.5,16.5 h-183 a16.5,16.5 0 0 1 -16.5,-16.5 v0 a16.5,16.5 0 0 1 16.5,-16.5"/><path width="216" height="33" clip-path="url(#satori_bc-id-2)" fill="none" stroke="#e5e7eb" stroke-width="2" d="M156.833,385.833 A16.5,16.5 0 0 1 168.5,381 h183 a16.5,16.5 0 0 1 16.5,16.5 v0 a16.5,16.5 0 0 1 -16.5,16.5 h-183 a16.5,16.5 0 0 1 -16.5,-16.5 v0 A16.5,16.5 0 0 1 156.833,385.833"/><mask id="satori_ms-id-2-0-0" maskUnits="userSpaceOnUse"><rect x="0" y="0" width="520" height="440" fill="#fff"/><path x="167" y="394" width="8" height="8" fill="#000"  stroke-width="2" d="M171,394 h0 a4,4 0 0 1 4,4 v0 a4,4 0 0 1 -4,4 h0 a4,4 0 0 1 -4,-4 v0 a4,4 0 0 1 4,-4"/></mask><defs><filter id="satori_s-id-2-0-0" x="-212.5%" y="-212.5%" width="525%" height="525%"><feGaussianBlur stdDeviation="4" result="b"/><feFlood flood-color="rgba(251,191,36,0.35)" in="SourceGraphic" result="f"/><feComposite in="f" in2="b" operator="in"/></filter></defs><g mask="url(#satori_ms-id-2-0-0)" filter="url(#satori_s-id-2-0-0)" opacity="1"><path x="167" y="394" width="8" height="8" fill="#fff" stroke="#fff" stroke-width="2" d="M171,394 h0 a4,4 0 0 1 4,4 v0 a4,4 0 0 1 -4,4 h0 a4,4 0 0 1 -4,-4 v0 a4,4 0 0 1 4,-4"/></g><mask id="satori_om-id-2-0"><rect x="167" y="394" width="8" height="8" fill="#fff"/></mask><path x="167" y="394" width="8" height="8" fill="#fbbf24" d="M171,394 h0 a4,4 0 0 1 4,4 v0 a4,4 0 0 1 -4,4 h0 a4,4 0 0 1 -4,-4 v0 a4,4 0 0 1 4,-4"/><mask id="satori_om-id-2-1"><rect x="183" y="390" width="87" height="15" fill="#fff"/></mask><g  ><path fill="#1a1a1a" d="M186.8 402.1L186.8 402.1Q185.9 402.1 185.2 401.8Q184.4 401.5 184.0 400.9Q183.6 400.4 183.6 399.7L183.6 399.7Q183.6 399.1 183.8 398.7Q184.1 398.2 184.5 397.9Q184.9 397.6 185.4 397.5L185.4 397.5L185.4 397.4Q184.8 397.3 184.3 396.7Q183.9 396.2 183.9 395.5L183.9 395.5Q183.9 394.8 184.3 394.3Q184.7 393.8 185.3 393.5Q186.0 393.2 186.8 393.2L186.8 393.2Q187.7 393.2 188.3 393.5Q189.0 393.8 189.4 394.3Q189.8 394.8 189.8 395.5L189.8 395.5Q189.8 396.2 189.3 396.7Q188.9 397.3 188.3 397.4L188.3 397.4L188.3 397.5Q188.8 397.6 189.2 397.9Q189.6 398.2 189.8 398.7Q190.1 399.1 190.1 399.7L190.1 399.7Q190.1 400.4 189.7 400.9Q189.2 401.5 188.5 401.8Q187.8 402.1 186.8 402.1ZM186.8 400.9L186.8 400.9Q187.3 400.9 187.7 400.7Q188.1 400.6 188.3 400.3Q188.5 400.0 188.5 399.6L188.5 399.6Q188.5 399.1 188.3 398.8Q188.0 398.5 187.7 398.3Q187.3 398.1 186.8 398.1L186.8 398.1Q186.4 398.1 186 398.3Q185.6 398.5 185.4 398.8Q185.2 399.1 185.2 399.6L185.2 399.6Q185.2 400.0 185.4 400.3Q185.6 400.6 186.0 400.7Q186.3 400.9 186.8 400.9ZM186.8 396.9L186.8 396.9Q187.2 396.9 187.6 396.8Q187.9 396.6 188.0 396.3Q188.2 396.0 188.2 395.6L188.2 395.6Q188.2 395.3 188.1 395.0Q187.9 394.7 187.6 394.5Q187.2 394.4 186.8 394.4L186.8 394.4Q186.4 394.4 186.1 394.5Q185.8 394.7 185.6 395.0Q185.4 395.3 185.4 395.6L185.4 395.6Q185.4 396.0 185.6 396.3Q185.8 396.6 186.1 396.8Q186.4 396.9 186.8 396.9Z M197.2 402.1L197.2 402.1Q196.4 402.1 195.8 401.7Q195.2 401.3 194.8 400.6Q194.5 399.8 194.5 398.7L194.5 398.7Q194.5 397.6 194.8 396.9Q195.2 396.1 195.8 395.8Q196.4 395.4 197.2 395.4L197.2 395.4Q197.7 395.4 198.1 395.6Q198.5 395.8 198.7 396.0Q198.9 396.3 199.0 396.5L199.0 396.5L199.1 396.5L199.1 393.3L200.6 393.3L200.6 402L199.1 402L199.1 401.0L199.0 401.0Q198.9 401.2 198.7 401.5Q198.5 401.7 198.1 401.9Q197.7 402.1 197.2 402.1ZM197.6 400.9L197.6 400.9Q198.1 400.9 198.4 400.6Q198.8 400.3 199.0 399.8Q199.1 399.4 199.1 398.7L199.1 398.7Q199.1 398.1 199.0 397.6Q198.8 397.1 198.4 396.9Q198.1 396.6 197.6 396.6L197.6 396.6Q197.1 396.6 196.7 396.9Q196.4 397.2 196.2 397.6Q196.0 398.1 196.0 398.7L196.0 398.7Q196.0 399.3 196.2 399.8Q196.4 400.3 196.7 400.6Q197.1 400.9 197.6 400.9ZM205.3 402.1L205.3 402.1Q204.3 402.1 203.6 401.7Q202.8 401.3 202.5 400.5Q202.1 399.8 202.1 398.8L202.1 398.8Q202.1 397.8 202.5 397.0Q202.8 396.2 203.5 395.8Q204.2 395.4 205.2 395.4L205.2 395.4Q205.8 395.4 206.3 395.6Q206.8 395.8 207.3 396.2Q207.7 396.6 207.9 397.2Q208.2 397.8 208.2 398.7L208.2 398.7L208.2 399.2L203.6 399.2Q203.6 399.7 203.8 400.1L203.8 400.1Q204.0 400.5 204.4 400.7Q204.8 400.9 205.3 400.9L205.3 400.9Q205.6 400.9 205.9 400.8Q206.2 400.7 206.4 400.6Q206.6 400.4 206.7 400.1L206.7 400.1L208.1 400.4Q207.9 400.9 207.5 401.3Q207.1 401.7 206.6 401.9Q206.0 402.1 205.3 402.1ZM203.6 398.1L203.6 398.1L206.7 398.1Q206.6 397.8 206.5 397.4L206.5 397.4Q206.3 397.0 206.0 396.8Q205.7 396.6 205.2 396.6Q204.7 396.6 204.3 396.8Q204.0 397.0 203.8 397.4L203.8 397.4Q203.6 397.7 203.6 398.1ZM211.1 404.4L209.6 404.4L209.6 395.4L211.1 395.4L211.1 396.5L211.2 396.5Q211.3 396.3 211.5 396.0Q211.7 395.8 212.1 395.6Q212.5 395.4 213.0 395.4L213.0 395.4Q213.8 395.4 214.4 395.8Q215.0 396.1 215.4 396.9Q215.7 397.6 215.7 398.7L215.7 398.7Q215.7 399.8 215.4 400.6Q215.0 401.3 214.4 401.7Q213.8 402.1 213.0 402.1L213.0 402.1Q212.5 402.1 212.1 401.9Q211.7 401.7 211.5 401.5Q211.3 401.2 211.2 401.0L211.2 401.0L211.1 401.0L211.1 404.4ZM212.6 400.9L212.6 400.9Q213.1 400.9 213.5 400.6Q213.8 400.3 214.0 399.8Q214.2 399.3 214.2 398.7L214.2 398.7Q214.2 398.1 214.0 397.6Q213.8 397.2 213.5 396.9Q213.1 396.6 212.6 396.6L212.6 396.6Q212.1 396.6 211.8 396.9Q211.4 397.1 211.3 397.6Q211.1 398.1 211.1 398.7L211.1 398.7Q211.1 399.4 211.3 399.8Q211.4 400.3 211.8 400.6Q212.1 400.9 212.6 400.9ZM219.0 402.1L219.0 402.1Q218.4 402.1 217.9 401.9Q217.4 401.7 217.1 401.2Q216.8 400.8 216.8 400.2L216.8 400.2Q216.8 399.6 217.0 399.2Q217.2 398.9 217.6 398.7Q217.9 398.4 218.4 398.3Q218.8 398.2 219.3 398.2L219.3 398.2Q219.9 398.1 220.2 398.1Q220.6 398.0 220.8 397.9Q220.9 397.8 220.9 397.6L220.9 397.6L220.9 397.6Q220.9 397.2 220.8 397.0Q220.7 396.8 220.4 396.7Q220.2 396.5 219.8 396.5L219.8 396.5Q219.4 396.5 219.1 396.7Q218.9 396.8 218.7 397.0Q218.5 397.1 218.4 397.4L218.4 397.4L217.0 397.1Q217.2 396.5 217.6 396.1Q218.0 395.7 218.6 395.6Q219.1 395.4 219.8 395.4L219.8 395.4Q220.3 395.4 220.7 395.5Q221.2 395.6 221.6 395.8Q222.0 396.1 222.2 396.5Q222.5 397.0 222.5 397.6L222.5 397.6L222.5 402L221.0 402L221.0 401.1L220.9 401.1Q220.8 401.4 220.5 401.6Q220.3 401.8 219.9 402.0Q219.5 402.1 219.0 402.1ZM219.4 401.0L219.4 401.0Q219.9 401.0 220.2 400.8Q220.6 400.6 220.8 400.3Q220.9 400.0 220.9 399.7L220.9 399.7L220.9 398.9Q220.9 398.9 220.7 399.0Q220.5 399.0 220.3 399.1Q220.1 399.1 219.9 399.2Q219.6 399.2 219.5 399.2L219.5 399.2Q219.2 399.2 218.9 399.4Q218.6 399.5 218.5 399.6Q218.3 399.8 218.3 400.1L218.3 400.1Q218.3 400.4 218.4 400.6Q218.6 400.8 218.8 400.9Q219.1 401.0 219.4 401.0ZM225.7 402L224.2 402L224.2 395.4L225.7 395.4L225.7 396.5L225.7 396.5Q225.9 396.0 226.4 395.7Q226.8 395.4 227.4 395.4L227.4 395.4Q227.5 395.4 227.6 395.4Q227.8 395.4 227.9 395.4L227.9 395.4L227.9 396.8Q227.8 396.8 227.6 396.8Q227.4 396.7 227.2 396.7L227.2 396.7Q226.8 396.7 226.4 396.9Q226.1 397.1 225.9 397.4Q225.7 397.7 225.7 398.1L225.7 398.1L225.7 402ZM230.8 395.4L232.1 395.4L232.1 396.6L230.8 396.6L230.8 400.2Q230.8 400.5 231.0 400.7Q231.1 400.8 231.5 400.8L231.5 400.8Q231.6 400.8 231.8 400.8Q231.9 400.8 232.1 400.8L232.1 400.8L232.3 401.9Q232.0 402.0 231.8 402.1Q231.5 402.1 231.3 402.1L231.3 402.1Q230.3 402.1 229.8 401.6Q229.3 401.2 229.3 400.3L229.3 400.3L229.3 396.6L228.4 396.6L228.4 395.4L229.3 395.4L229.3 393.9L230.8 393.9L230.8 395.4ZM235.0 402L233.4 402L233.4 395.4L234.9 395.4L234.9 396.7Q235.0 396.3 235.3 396.1L235.3 396.1Q235.5 395.7 235.9 395.5Q236.3 395.3 236.8 395.3L236.8 395.3Q237.5 395.3 237.9 395.8L237.9 395.8Q238.3 396.1 238.5 396.8L238.5 396.8Q238.6 396.4 238.8 396.1L238.8 396.1Q239.1 395.7 239.6 395.5Q240.0 395.3 240.5 395.3L240.5 395.3Q241.1 395.3 241.6 395.6Q242.1 395.9 242.3 396.4Q242.6 396.8 242.6 397.6L242.6 397.6L242.6 402L241.1 402L241.1 397.8Q241.1 397.2 240.8 396.9Q240.4 396.6 240.0 396.6L240.0 396.6Q239.6 396.6 239.3 396.8Q239.1 397.0 238.9 397.2Q238.8 397.5 238.8 397.9L238.8 397.9L238.8 402L237.3 402L237.3 397.7Q237.3 397.2 237.0 396.9Q236.7 396.6 236.2 396.6L236.2 396.6Q235.8 396.6 235.6 396.8Q235.3 396.9 235.1 397.2Q235.0 397.5 235.0 398.0L235.0 398.0L235.0 402ZM247.3 402.1L247.3 402.1Q246.3 402.1 245.6 401.7Q244.8 401.3 244.5 400.5Q244.1 399.8 244.1 398.8L244.1 398.8Q244.1 397.8 244.5 397.0Q244.8 396.2 245.5 395.8Q246.2 395.4 247.2 395.4L247.2 395.4Q247.8 395.4 248.3 395.6Q248.8 395.8 249.3 396.2Q249.7 396.6 249.9 397.2Q250.2 397.8 250.2 398.7L250.2 398.7L250.2 399.2L245.6 399.2Q245.6 399.7 245.8 400.1L245.8 400.1Q246.0 400.5 246.4 400.7Q246.8 400.9 247.3 400.9L247.3 400.9Q247.6 400.9 247.9 400.8Q248.2 400.7 248.4 400.6Q248.6 400.4 248.7 400.1L248.7 400.1L250.1 400.4Q249.9 400.9 249.5 401.3Q249.1 401.7 248.6 401.9Q248.0 402.1 247.3 402.1ZM245.6 398.1L245.6 398.1L248.7 398.1Q248.6 397.8 248.5 397.4L248.5 397.4Q248.3 397.0 248.0 396.8Q247.7 396.6 247.2 396.6Q246.7 396.6 246.3 396.8Q246.0 397.0 245.8 397.4L245.8 397.4Q245.6 397.7 245.6 398.1ZM253.1 398.2L253.1 398.2L253.1 402L251.6 402L251.6 395.4L253.0 395.4L253.0 396.8Q253.3 396.1 253.7 395.8L253.7 395.8Q254.3 395.4 255.1 395.4L255.1 395.4Q255.7 395.4 256.2 395.7Q256.7 395.9 257.0 396.5Q257.3 397.0 257.3 397.8L257.3 397.8L257.3 402L255.8 402L255.8 398.1Q255.8 397.4 255.4 397.0Q255.1 396.7 254.5 396.7L254.5 396.7Q254.1 396.7 253.8 396.8Q253.5 397.0 253.3 397.4Q253.1 397.7 253.1 398.2ZM260.8 395.4L262.1 395.4L262.1 396.6L260.8 396.6L260.8 400.2Q260.8 400.5 261.0 400.7Q261.1 400.8 261.5 400.8L261.5 400.8Q261.6 400.8 261.7 400.8Q261.9 400.8 262.0 400.8L262.0 400.8L262.2 401.9Q262.0 402.0 261.7 402.1Q261.5 402.1 261.2 402.1L261.2 402.1Q260.3 402.1 259.8 401.6Q259.3 401.2 259.3 400.3L259.3 400.3L259.3 396.6L258.3 396.6L258.3 395.4L259.3 395.4L259.3 393.9L260.8 393.9L260.8 395.4ZM265.9 402.1L265.9 402.1Q265.1 402.1 264.5 401.9Q264.0 401.7 263.6 401.3Q263.2 400.9 263.1 400.3L263.1 400.3L264.5 400.0Q264.7 400.5 265.0 400.7Q265.3 401.0 265.9 401.0L265.9 401.0Q266.5 401.0 266.8 400.7Q267.1 400.5 267.1 400.2L267.1 400.2Q267.1 399.9 266.9 399.7Q266.7 399.5 266.2 399.4L266.2 399.4L265.1 399.2Q264.2 399.0 263.7 398.5Q263.3 398.1 263.3 397.4L263.3 397.4Q263.3 396.8 263.6 396.3Q264.0 395.9 264.5 395.6Q265.1 395.4 265.9 395.4L265.9 395.4Q266.7 395.4 267.2 395.6Q267.7 395.8 268.1 396.2Q268.4 396.5 268.5 397.1L268.5 397.1L267.2 397.3Q267.1 397.0 266.8 396.7Q266.5 396.5 265.9 396.5L265.9 396.5Q265.5 396.5 265.1 396.7Q264.8 396.9 264.8 397.3L264.8 397.3Q264.8 397.6 265.0 397.7Q265.2 397.9 265.7 398.0L265.7 398.0L266.9 398.3Q267.8 398.5 268.2 398.9Q268.7 399.3 268.7 400.0L268.7 400.0Q268.7 400.7 268.3 401.1Q268.0 401.6 267.3 401.9Q266.7 402.1 265.9 402.1Z "/></g><mask id="satori_om-id-2-2"><rect x="278" y="390" width="4" height="15" fill="#fff"/></mask><g  ><path fill="#9ca3af" d="M279.8 398.7L279.8 398.7Q279.5 398.7 279.2 398.5Q279.0 398.2 279.0 397.9L279.0 397.9Q279.0 397.5 279.2 397.2Q279.5 397.0 279.8 397.0L279.8 397.0Q280.2 397.0 280.4 397.2Q280.7 397.5 280.7 397.9L280.7 397.9Q280.7 398.2 280.4 398.5Q280.2 398.7 279.8 398.7Z "/></g><mask id="satori_om-id-2-3"><rect x="290" y="390" width="63" height="15" fill="#fff"/></mask><g  ><path fill="#6b7280" d="M292.5 393.3L294.2 393.3L294.2 402L292.6 402L292.6 394.7L292.6 394.7L290.6 396.1L290.6 394.6L292.5 393.3Z M301.6 402.1L301.6 402.1Q300.9 402.1 300.3 401.9Q299.7 401.7 299.3 401.3Q299.0 400.9 298.9 400.3L298.9 400.3L300.3 400.0Q300.4 400.5 300.8 400.7Q301.1 401.0 301.7 401.0L301.7 401.0Q302.2 401.0 302.5 400.7Q302.9 400.5 302.9 400.2L302.9 400.2Q302.9 399.9 302.7 399.7Q302.4 399.5 302.0 399.4L302.0 399.4L300.9 399.2Q299.9 399.0 299.5 398.5Q299.0 398.1 299.0 397.4L299.0 397.4Q299.0 396.8 299.4 396.3Q299.7 395.9 300.3 395.6Q300.9 395.4 301.7 395.4L301.7 395.4Q302.4 395.4 303.0 395.6Q303.5 395.8 303.8 396.2Q304.2 396.5 304.3 397.1L304.3 397.1L302.9 397.3Q302.8 397.0 302.5 396.7Q302.2 396.5 301.7 396.5L301.7 396.5Q301.2 396.5 300.9 396.7Q300.6 396.9 300.6 397.3L300.6 397.3Q300.6 397.6 300.8 397.7Q301.0 397.9 301.5 398.0L301.5 398.0L302.6 398.3Q303.5 398.5 304.0 398.9Q304.4 399.3 304.4 400.0L304.4 400.0Q304.4 400.7 304.1 401.1Q303.7 401.6 303.1 401.9Q302.5 402.1 301.6 402.1ZM308.7 402.1L308.7 402.1Q307.7 402.1 307.0 401.7Q306.3 401.3 306.0 400.5Q305.6 399.8 305.6 398.8L305.6 398.8Q305.6 397.7 306.0 397.0Q306.3 396.2 307.0 395.8Q307.7 395.4 308.7 395.4L308.7 395.4Q309.2 395.4 309.7 395.5Q310.2 395.6 310.6 395.9Q310.9 396.2 311.2 396.6Q311.4 396.9 311.5 397.4L311.5 397.4L310.1 397.7Q310.0 397.5 309.9 397.3Q309.8 397.1 309.6 396.9Q309.4 396.8 309.2 396.7Q309.0 396.6 308.7 396.6L308.7 396.6Q308.2 396.6 307.8 396.9Q307.5 397.2 307.3 397.7Q307.1 398.1 307.1 398.8L307.1 398.8Q307.1 399.4 307.3 399.8Q307.5 400.3 307.8 400.6Q308.2 400.9 308.7 400.9L308.7 400.9Q309.0 400.9 309.2 400.8Q309.5 400.7 309.6 400.6Q309.8 400.4 309.9 400.2Q310.1 400.0 310.1 399.7L310.1 399.7L311.5 400.0Q311.4 400.5 311.2 400.9Q310.9 401.3 310.6 401.6Q310.2 401.8 309.7 402.0Q309.3 402.1 308.7 402.1ZM314.5 398.2L314.5 398.2L314.5 402L313.0 402L313.0 393.3L314.5 393.3L314.5 396.7Q314.7 396.1 315.1 395.8L315.1 395.8Q315.7 395.4 316.5 395.4L316.5 395.4Q317.1 395.4 317.6 395.7Q318.1 395.9 318.4 396.5Q318.7 397.0 318.7 397.8L318.7 397.8L318.7 402L317.2 402L317.2 398.1Q317.2 397.4 316.8 397.0Q316.5 396.7 315.9 396.7L315.9 396.7Q315.5 396.7 315.2 396.8Q314.9 397.0 314.7 397.4Q314.5 397.7 314.5 398.2ZM323.3 402.1L323.3 402.1Q322.3 402.1 321.6 401.7Q320.9 401.3 320.5 400.5Q320.1 399.8 320.1 398.8L320.1 398.8Q320.1 397.8 320.5 397.0Q320.9 396.2 321.6 395.8Q322.3 395.4 323.2 395.4L323.2 395.4Q323.8 395.4 324.4 395.6Q324.9 395.8 325.3 396.2Q325.8 396.6 326.0 397.2Q326.2 397.8 326.2 398.7L326.2 398.7L326.2 399.2L321.7 399.2Q321.7 399.7 321.9 400.1L321.9 400.1Q322.1 400.5 322.5 400.7Q322.8 400.9 323.3 400.9L323.3 400.9Q323.7 400.9 324.0 400.8Q324.2 400.7 324.4 400.6Q324.6 400.4 324.7 400.1L324.7 400.1L326.1 400.4Q326.0 400.9 325.6 401.3Q325.2 401.7 324.6 401.9Q324.1 402.1 323.3 402.1ZM321.7 398.1L321.7 398.1L324.7 398.1Q324.7 397.8 324.6 397.4L324.6 397.4Q324.4 397.0 324.1 396.8Q323.7 396.6 323.2 396.6Q322.7 396.6 322.4 396.8Q322.0 397.0 321.8 397.4L321.8 397.4Q321.7 397.7 321.7 398.1ZM330.1 402.1L330.1 402.1Q329.3 402.1 328.7 401.7Q328.1 401.3 327.7 400.6Q327.4 399.8 327.4 398.7L327.4 398.7Q327.4 397.6 327.7 396.9Q328.1 396.1 328.7 395.8Q329.3 395.4 330.1 395.4L330.1 395.4Q330.6 395.4 331.0 395.6Q331.4 395.8 331.6 396.0Q331.8 396.3 331.9 396.5L331.9 396.5L332.0 396.5L332.0 393.3L333.5 393.3L333.5 402L332.0 402L332.0 401.0L331.9 401.0Q331.8 401.2 331.6 401.5Q331.4 401.7 331.0 401.9Q330.6 402.1 330.1 402.1ZM330.5 400.9L330.5 400.9Q331.0 400.9 331.3 400.6Q331.7 400.3 331.9 399.8Q332.0 399.4 332.0 398.7L332.0 398.7Q332.0 398.1 331.9 397.6Q331.7 397.1 331.3 396.9Q331.0 396.6 330.5 396.6L330.5 396.6Q330.0 396.6 329.6 396.9Q329.3 397.2 329.1 397.6Q328.9 398.1 328.9 398.7L328.9 398.7Q328.9 399.3 329.1 399.8Q329.3 400.3 329.6 400.6Q330.0 400.9 330.5 400.9ZM337.5 402.1L337.5 402.1Q336.8 402.1 336.3 401.8Q335.8 401.5 335.5 401.0Q335.3 400.4 335.3 399.6L335.3 399.6L335.3 395.4L336.8 395.4L336.8 399.4Q336.8 400.0 337.1 400.4Q337.5 400.8 338.1 400.8L338.1 400.8Q338.5 400.8 338.8 400.6Q339.1 400.4 339.3 400.1Q339.5 399.8 339.5 399.3L339.5 399.3L339.5 395.4L341.0 395.4L341.0 402L339.5 402L339.5 400.7Q339.3 401.3 338.8 401.7L338.8 401.7Q338.3 402.1 337.5 402.1ZM342.7 393.3L344.3 393.3L344.3 402L342.7 402L342.7 393.3ZM348.9 402.1L348.9 402.1Q347.9 402.1 347.2 401.7Q346.5 401.3 346.1 400.5Q345.7 399.8 345.7 398.8L345.7 398.8Q345.7 397.8 346.1 397.0Q346.5 396.2 347.2 395.8Q347.8 395.4 348.8 395.4L348.8 395.4Q349.4 395.4 349.9 395.6Q350.5 395.8 350.9 396.2Q351.3 396.6 351.5 397.2Q351.8 397.8 351.8 398.7L351.8 398.7L351.8 399.2L347.2 399.2Q347.2 399.7 347.4 400.1L347.4 400.1Q347.6 400.5 348.0 400.7Q348.4 400.9 348.9 400.9L348.9 400.9Q349.2 400.9 349.5 400.8Q349.8 400.7 350.0 400.6Q350.2 400.4 350.3 400.1L350.3 400.1L351.7 400.4Q351.5 400.9 351.1 401.3Q350.8 401.7 350.2 401.9Q349.6 402.1 348.9 402.1ZM347.2 398.1L347.2 398.1L350.3 398.1Q350.3 397.8 350.1 397.4L350.1 397.4Q350.0 397.0 349.6 396.8Q349.3 396.6 348.8 396.6Q348.3 396.6 347.9 396.8Q347.6 397.0 347.4 397.4L347.4 397.4Q347.3 397.7 347.2 398.1Z "/></g></svg>